<mxfile host="65bd71144e">
    <diagram id="HIP3nbAZw_EuaXWnEj3U" name="Page-1">
        <mxGraphModel dx="282" dy="442" grid="1" gridSize="10" guides="1" tooltips="1" connect="1" arrows="1" fold="1" page="1" pageScale="1" pageWidth="850" pageHeight="1100" math="0" shadow="0">
            <root>
                <mxCell id="0"/>
                <mxCell id="1" parent="0"/>
                <mxCell id="7" value="http://ics2o.mths.ca" style="swimlane;whiteSpace=wrap;html=1;" parent="1" vertex="1">
                    <mxGeometry x="45" y="56" width="760" height="480" as="geometry"/>
                </mxCell>
                <mxCell id="8" value="Weather checker" style="rounded=0;whiteSpace=wrap;html=1;" vertex="1" parent="7">
                    <mxGeometry y="25" width="760" height="60" as="geometry"/>
                </mxCell>
                <mxCell id="9" value="" style="shape=image;verticalLabelPosition=bottom;labelBackgroundColor=default;verticalAlign=top;aspect=fixed;imageAspect=0;image=data:image/png,iVBORw0KGgoAAAANSUhEUgAAAggAAAHQCAYAAADEeZK8AAAAAXNSR0IArs4c6QAAIABJREFUeF7svQm8ZddV3vnf+0x3flPVq0mlqtJoybIMHsBgjDHEjR3AmIAhTInpJkln6HRCJ3QSMtGJOx06Thp+SQcymF86QCBAE8wUiG0CjsHGli3LkiVLKllVqvHVe/WGO59pd6+1z33vlVRySbakqlKdC8+qV3Xuufesvffa317rW98yzjlH/aotUFugtkBtgdoCtQVqC+yygKkBQj0fagvUFqgtUFugtkBtgadboAYI9ZyoLVBboLZAbYHaArUFnmGBGiDUk6K2QG2B2gK1BWoL1BaoAUI9B2oL1BaoLVBboLZAbYErW6COIFzZRvUVtQVqC9QWqC1QW+CGs0ANEG64Ia8fuLZAbYHaArUFagtc2QI1QLiyjeoragvUFqgtUFugtsANZ4EaINxwQ14/cG2B2gK1BWoL1Ba4sgVqgHBlG9VX1BaoLVBboLZAbYEbzgI1QLjhhrx+4NoCtQVqC9QWqC1wZQvUAOHKNqqvqC1QW6C2QG2B2gI3nAVqgHDDDXn9wLUFagvUFqgtUFvgyhaoAcKVbVRfUVugtkBtgdoCtQVuOAvUAOGGG/L6gWsL1BaoLVBboLbAlS1QA4Qr26i+orZAbYHaArUFagvccBaoAcINN+T1A9cWqC1QW6C2QG2BK1ugBghXtlF9RW2B2gK1BWoL1Ba44SxQA4QbbsjrB64tUFugtkBtgdoCV7ZADRCubKP6itoCtQVqC9QWqC1ww1mgBgg33JDXD1xboLZAbYHaArUFrmyBGiBc2Ub1FbUFagvUFqgtUFvghrNADRBuuCGvH7i2QG2B2gK1BWoLXNkCNUC4so3qK2oL1BaoLVBboLbADWeBGiDccENeP3BtgdoCtQVqC9QWuLIFaoBwZRvVV9QWqC1QW6C2QG2BG84CNUC44Ya8fuDaArUFagvUFqgtcGUL1ADhyjaqr6gtUFugtkBtgdoCN5wFaoBwww15/cC1BWoL1BaoLVBb4MoWqAHClW1UX1FboLZAbYHaArUFbjgL1ADhhhvy+oFrC9QWqC1QW6C2wJUtUAOEK9uovqK2QG2B2gK1BWoL3HAWqAHCCzTkrrqPeYHuV9+mtkBtgdoCtQVeDAsUgAVnoHbYX9DANUD4YuefIIJqcs3AweyvzOwvnn7v7X+oZ+UXa/b6fbUFagvUFnj+Fph5Z/lvXjnvYMeJP/8b3hDvqAHCFzvMu0HA04DCswOEL/bD6vfVFqgtUFugtsAXZ4HdoMAC8rv8lICABPmpX5ezQA0Qvth5cRmAINPt6bGB2e+zKSkfN/u7Oo7wxRq/fl9tgdoCtQWejwXEO4sXFoAw87xp9efo+dzohrq2BgjPY7idu5RpUJYleVGQZjlFWVCUFQzQ6wzGGqy1hGFIGATYMMRWaS+ZosY5jJE/7cpXPI/vU19aW6C2QG2B2gJXtoB3yTmIzyX0/AMroEF+wivf4Aa9ogYIz2PgBSDIT5bl9EdTxpMp0ywjyzOKstR/UwhRAQkBBwIAgiDQnyRp0Gk1aDcTosAqlnVlqUCiZss8j4GoL60tUFugtsDzsIAe7kwfmGLogUv8wUzzweKJ69flLFADhOc4L2QaTaZT1tfXGQyGTMuIwjkKiSDkmf5kmbBjfZTBVBEEiRzESaJRhMgYJGCQRJalXpeF+R6BggP/jvp1vVugrmW53kew/v7XmgV8dNVRqk/9wn7yaZFYJ4GCEqcVCzmlO0VWnqcRHMWY5Z0H3a5mkAOeRBi+kE++saK9NUDQaSIb++xlZgEAnSgyXQQErKxvsbK2Tu4gLQomacpkMiHPJb0gkxefLjDyHv/ygQT/m0YQ4pBmktCIIiLjaCQx+/cs0W23CTTVUE3/6s81bniJnZU6FAk6eqBnCLA6sjNC0+6TRjXKzlDqe+RqOZ3I9VGVNJL7zJzajnPzcabd7BQJc/rcaA0TX+Ixrz/uGrVAiS4sW+AIyJnoCguL+DIH/gpEmGw7GmDKQMKzFMGIlBaJpBKyj1Lkv0uYfA+YWzV6YEr5nAAXQGGEk5BhSZD4rqzeoBRw4X15EYh7T7Eu1oPejfCqAcIlAEHAgScJ6JZQOAbDCedX1+iPJkyLkuFkyng6wZWF5xcEoU8hWIsNLMb6+trS+ZSD8BQkJZEXuU8n4IjCgGYjoRHHxFHInvk59s7P0WjEPvKwe+bdIBPx2lhsctqQzX4WBRJftPs08fTB8IjCGX/ysNsbvweJl169AwgcM0c2Axw74KEe7mtjJtTf4mpbIEN3bVlfFgpXYs0EW0QQCKlwBtylZFEAdkTpLGW1FkPxo3pCk5UpVQpTXPpBiuyDhM13g32VTy84WYvyOb6SQdbybM3Ln/2nZAoQDDHGpXoIxNwYxMYaIGwDBO+kC/XshiwvWLu4xYWLG0zSnMF4zGgyJS9LwiiiFYW60QtAkMiB/MxOhk4mUMVH0AnmHHlRUuQ5aZaRZiklJVEU02w2aMUh860mB/btpdtqEszm/nZI4Wov1hvl8/2J37uF2QY/q025fJ7SA4EJMAI3p87GO5aqhOqyEUlxarNPqAVbbpTZVT/nc7WAeNIMo8f6AMIMVwaUxeNYN8bEd+Bo+g1driPXzZtCwMQKzsg63q8r02p4TyIRA8rp+8mmv0/c/m5M+LW6TksF6wFBYcGsQhmCmcdZ8eklpTMUZkzgJJo4pZycxETLmFBSFC9/OF8DBN3Aq43BWAUIwi04e/4CK2ubjLOcwWDENE01OtBqdWg0EkJXbKcFdk97AQe7KyAFHGwDCIlmgYKEwXjEJJ14sJHEdJOYRhxx5NABluY6Hv0Kat3mKDzXxVVf90VbYPfAVTfRk0N1wPdVLGVVeeLjBRIAtcUZyuzzBNGX4WxHHYuRf3E7p4xLQpKKOfRI4nMaihVm/JWaUf1Fj1/9xpeNBZwE+J3FFAbCka6lMv0I+fg+krl3AodxxBUYzzFliBs+xeb5nyZqd2kt/SB51AFTEmokYoNy/DO47OMEzXdA+G0QWHIKbBkQ5OcZnn8feTZHb/+7cM0e1lgyF+FMTpQHGH6XyegBosY3EcS33RDkxhogKEAodRcQty4cgwtrGzz51BlS59js90nTjCRO6HV7xGHkN/yKtzArfZxVOPigVnUCNb7MUaMJChRk/Vr9fymJ3BoMGI0ner9WI9boQTMKuP3IYebaDR/qevmD1GvGqUk60iqrWU748t8QJ/FN3cBlQ5dNvOIVODlpiIMpCbL7yccfJmp9Gy68WQlVkjVVcpQ/x+ziIsgtnOZWxXkhIEJLrmafeWOELq+ZQa+/yDVpgRl9S7MAduJJivkDTIc/TRB/LVHj63DlfrBCDBAugaM4/1tMT/59JtOUuTveC8tvJrOO0FlCt0Yx+im9B8kfwyY/ADbW9Wtzh7n4s6x/7j0EjZto3/YezPyrhfFALmkFSVIUG+STf0IepDSSvwj2SB1BuCZnzovypWT6eb+9cnGTx588RS4b+HBIVmQ04ga9bldLE/VUL1QW0UAoCyUpptOpcg1mZY67Q9QCECIhJUYRcWiwgSBRv2HIdVIR0R+NdDvpJAlzzYTFTotjNx2g3WhgNN9Qv14KC4iMheQ5y/IijgmBXQB6OBdoVMC5Ka4cgZHf2zgTkpERp/+VYvp+gsYPUEav0tNOYISnMq6iQC2MiasTh4DFi+RujcAIGWo/lImvyRbAUNdkvxRDXX/GNWmBnXyc/5NP74lvlCqEsFxnMv4HUFiS5jswwVeBrEObKtkwP/NzuCfei3UrZPNvJ77z70Jyi2d1ubMUg39KWDxKHr6BsPNXwSR+TY/OMnrwz9AaPUIe97C3/0PM0rdqhVlhLNYNMONfJ09/kSJ6K0nre8H0rkkLvtBf6mURQZid4rWKYIdcjjh8SQ2kea4liNvXiVSG8AfCgCgMSUKrU/Hi1ojHT55hMEnpDwdkWapVB3O9HqEgVQURJZM0I5X7ppmSEXe/ZNPfjhrPCIcVHA5DRxRHCjg0EiG0tqJkMJ2yNRpRFiXtRkKvlXBwcV5BQhTVMqBf2qSfKajNiIA+xlNUHAFhK8+ksSUnCWPS7HPk2f20k6/E2duFVooxE0zeZ3Di/yFq7iVZfBuTZIGAgnDyq+TprxEm34drvJnSNTRkOVn5TfLxCt3D34uLD1EaS0BKWXyS4fRRmtFrCKPbcS4Gk2KQ6EFdk/2ljXf97mvPAjMej6zBFCT6JpE5W2iKLtDfBZ2PhZmlhEOJ0ApAkKiuxOMk5Rq4PpPpv8akf0RsXotpfRfYm8ltiS0HZCf/DfbkvyHK+qTNFubIXyda/j5c0ITyMcr+PyFw50nDY8Tdv0nJErbcYvLUz1Ce/qc00zG56WJu/VHcwe8gDKyPIBafgdFP4txxXPjXCVrfgJNDgsCXXQKNuRE2g3xvSWk8bRT0nOd9z6VrfFbBdO2Nmg+c7sgDXpvf8Dl8q92PIKBgMs1Y39piczBkJKWIEn6Sf6jGR1MEonJoDHEcsdRs0mi3OHtxi9XNAZuDvvIEmnHIQq9HZOXEaBinGf3xmEmeYYqK4brrgK+3Vw6CMGj9F1d3r1EHRylhZEmp2YBmHNNpSnmjz2VvDodsDuV0aui1mnTjiNtvPsSB5fnLZBlms6+OLjzr9Ng+jMzU0sRWPgKkQK+qj/btWoQUVaoTUnph8TjT0U+TBMcwkjZgGWNGsP4J+g/8MHHSID7yN0j3v4WYMXb0i5TT38U03o5pvZOybOBWf5PpE/+cLF2h/Yp/SLDnj1NKuBMJdf5bLZVtNL4fwiOUkopSoClEqcuPaT3Sz8ER1JdcoxbwfAI/t4XMG3syYDDRZF4gZYOlxQV9StdUcqJxwvVxFHaMo6UVQpaLZNMHKMb/giTbA91vwURfT2Y72PICxRM/gT39M4RFQRmNmc69leTY38F1jmHyT1AO/i/CImUSd0l67wF3EDf4FMPHfpTG8AECxpT5IuboD5Mf/Q4iAQtOUgu/RDD9EKWZYls/ionuUYAgUEDWrRIhBdIEE0IFONWhTlPXmiPx6QhdxFUnyW2vXgOEF2nS7mySfu93CgxOXdjg3MoFslyyS5WOQVmqloHTCz1p0FpDEEYqgRyJ4JGD3FhGacpw1NdKgj0LCzTiRMmIo9FEN/G0LHCCLMtZIuHpj7dTsuYR2IxG4ChMpmtEoskCTkJrmZ+bJwpC/f4rF9eVFCm/z7VadJKY177qNpKwQquXoNBLP+dFMvLL4La7wNQMwG+bbhbI9NwCW4SeG5APyIf/ipz7iTrvxgTfAGZCeuZn4LF/AVwgWPhWwjvfQxEPMYP/AOnHyZtfhW38IEHaZ/r5v0tw4b9S2C7u2LtpHPrzvsY6/Sjl4Gdw4ddiW99JGYqiW0wgTkYCYIosnwkHaoDwMpiKN+wjCNemWnQmqzhasolK9Y9EC8Qth1qiaHODKSdgN4EOpbW4qnQ8kKhffobJ4K8RFwF54zBR678HexdltoJ5/B/jzv4mLrqIdYaUmwiO/lmim76dIv0I5fhfq6+fRi2i8Mew4TyTMz8Bp/49jemEMshxxSLu8HfibvlLhMECZf67FMOfJ0pHlNEytvc3cGaPEhhThS0FodtCv5uTtIOkC8Wbz/hKMuihr8jQDWEGEnYdWK7hxX19RhD0tKUUfy1DkZP9yuo6p86tsJVKrtj4/gh55ssLC9Es2Fmds5JEiTwENiAOYqIk0ZPccDigLFIWui0lJUr+SqIQm1v9iromIS8Jh1XjvSuU5KMGlyoZzMZe9ybZfCp1z9keJWBgsddRPYRJnnP+4gZFAc2kSSuOOXJgntuPHpLiOe3jsNO34RqeVdeiI9xOPckfhj6cL8i+jMBKzbUAylhP+bZMYes/UZS/gItfTdR8N8buY3TinxGe+JeEwlMwBwnueA9u+ZWw+a8xxUOMGq+k3fx7ZBfeT/7EP6KRHicL9pId/H5ax34I3AXKrX+LKc9A45241jdqSFXSDlYEWeTkoamsZwtRXouGrb9TbYErWWBG7LVV+nWmVyjkQgmcZZRKCDREOZTjhxme+jeEQY/G/ndhm7fhAuHwCIhep9j83wiLB5mEDcL4mwnj78dl53CPvAez/l8ZJ1vEeUmQN0jnXk1899/G5Q9SpL9CYBxZ4IjMj1AWOeMn/x7tzUexUgWhEYw95PvfRnjbPyCwA/LxTyuoJ0twyTdg5t5NQY9Q4gfllHJ4P5vnfwXneswf+gvYZAkCSWCqzJL+qK+/5HCijDevzyCVGtewK79OAYIXppEz/PpgzInTK6xu9JlmBZOiVH6ANE+SoRGtAiEIBtL7oGqeJNNZSIVFkZPncr1sDgJyJTJQkISG5aV51TgQ7QNJV2TKYBPE6IWMSi1lq3TyXCXKodGCnZO96iFU6gi6tVezZPd8kL9qRpLK6BDEMetbAza3BgQ2pt3q0ktKvvye2+g1Yx+G1nvWeeoruaTdDbB2FC2dD+czxhQNn3GQ3hrDT1MOHiVafAVFchuBi7DpH1IOfwJME5t8Jyb6OiaP/zDxyi/pacAVTbLFN5Dc9Rcoh/8Bwwmy8Ahx9L8yeuxvEW38IVExIA8d073fQ/v2v0GW/Rfs5NcoTEjQ+X5c8GZs0cZmn2U0OE7UOkbUvlMrGyT36R1HFaasW9JeecjrK65RC1QVOlqxI34w8xVBpQgPCRchV6mCzJXELiQb/B6jz/19osmT0Ho9jZt+gGD+DRTRnKZp7da/I0j/X3LhjrnDRI0/h1Sql4/8I+zgI6ShJSqnBLljEnaIDv0gwZyAkAf8ZzEi4JvJLp4lO/cLtKaFbuBlYxWXL5EvvoX4rv8DV/whxehXicp1MlsQNP4KNL+GnCZhuUZx/sOYJ3+eLP0kefc1tO/637GN26vPENG9UIIJSCwDVXmU5xe+kfylfB8v0HQtV7JflwBBwJjs12ubAx598hQbw5Rx5pQ8WBZTRYkiY9wRbkEcaShft/LtFK8MnkQa5D5OSYzjSeqFkPKcvYtzdJsNpmnGxY0+kyLT9IMP/noI4LXBPQKWAQ5NsM0nkO8m95Ufr7LnezDsTkrs5rBIdKDbSJibn9PGTyurF8kzaDa7dBuG24/s5+iBJR/G0iCFvKOugPzC3nAXI1qBlZxPhBQVaWDQ5BFlKAM1YPjkTxKc+TVs7yjh4e8imHsNprxI3v8xrFultPcStL6N8YN/m+bmgxDkmDxhGBnig28n6q7hgoGGGN3G3WRn/z1hKapvTk8T47k30rjjz5EVv0Q8vUAaHCbu/QUMy7jVh5ieeR/T9AmCA99B+6Yf0AoJmazO5Rgtf5Qf+btr+KhxjW5N9de6FiwgMVfh+AgZUYiHZ7WSJzD7NVwvXAMvLZbrSb6cPkD66I8Sb/6BLz1PbtW1Ee57B2W8TDD9KGz937hoiMvbuPjLMNxJ/rmfIpo8gHOJ5wVopE8iA8cIbt4LDdmP5ZMmMGyRnz6LTU/JEvXVEnEfk3dxvXsJ7v6fyEb/maB8QssdJ3FJ0ngvJthPWZxifPZXMWd+mWZ/gyIYk+9/E8mt/xiTHFbwUyr5WX5SHCcoii1scBMWL7DkFKiIj5II4rX7ui4BgmyTK+t9HnzkOKMchmnBaCohG0MzmLI4P0e72VDDW7cTmhcBpGc4WdnIVczOkhWOIi9IBFTIlHYwTnPGecZAei+kEgr2AEHq5YXUJvoI3WZLgciMcCg5M1FiHE1GDMcTskIcvUHq7GevWcRJfhc+QuAce5YWaCYxFy9u0B9MsEFErx1zaKnHPXccIZnNpBogPLcVpcOtcFLz/9N0lSCMNa1kykUKgfdui/zx9xKd+HfqvMZzryK85btJem8mH74PV34MF0oa4nVMP/MbdCarmuM0RUgWlJg4gMVjBL02bmMAq+ew+ZDSJBghMBZ7yTr7sEfeQBk9QpQ1KOJ7CFp/lnTt9yhO/DSN6cdw5TLu6F8kOPo/4OS96kxl7qyqG4mjQx40XAJTn5sZ6qtqC1xNC2yzgNTpZeTlpxn0P0W7eZCw8dUY19GNUuC7FeXEco3s5P+JOf1LSjh0Qcoonsfs+3ZaB/9HTHget/7jOHtG13WeHyC0C6THP06YPklYOFzZowiH2FLWYZ9ssUm87w5ckGBEzfb0o4QjAS0SlB3hyhZZYAjKgCJZwtzx9Vj3uBIXC5pMksX/P6L7XsrxOpNT/xy39ls0yvPYrMk0bGOOfC/Jwb8Gti2sS8+FLoXG+CTjwYfJnaXVfROBO+IPeFZAhC9r9kmIa/N1XQAEnVfKLxQ9bsPGYML9n3uSjXHKMM21y2LoSlpRwL6lLnEUK+lQ+AlpXjCeyuY+0o1aeOTGWGIb0ohCOo2IKPFD5PW2jfZMkPO+ggBFt6KoZRhNMzb7Q61waAQw1+3SbgnD1kcUlF8wG2vjZZuzomBjq89gPKHQjb26QO/rX1pn76AVOg4uL2n/h9WNIWkB8+2AxW6be+44xlwrIZIW0hXRUlIYvj5fGL/yLSqW/rU7316yVaBBAxnHYKrcArFvPv4AeXYfUeeNEL6eUDuwONK191M8+s9oFlIClZEFh2gc/maCToc8+yiE67h+yfjMUzTTEWEpnIUqJSpM62pcFYyqApyUuvqIkwLPKCbedxDTbeNcG5pfS75uSE//PK3ROtZukMV3YG/5Edj/JpxJCSVkOpZyyI/R6LyFKHmDlmZ6aVhxKrGPUHi0+pLZtf6g2gLP2wLVWvF4XeRkzzEd/hZ59t+I41cRNd9GEdxMaYSsG2HdlOLsz8Lnf5wgvYCzY7KwS+4CGs0/hrnjnbj8Dyi4HxeMCLIGZnNIcfYkUTGpKpXkNCWfKGHjgmlQEjQ7BI0mxWAAeQp5qSkAXakqsWworCGLI5KDhzGNHkXcZ2oWCM0bicxdTB7/JRj8IbFZJxDCetlg2jhEcPvfxC59M86I8mKm1RJm8ghu8h8YMyLuvIsw+WpPYrzkmHhtr93rCCD43Xc8zXj4+FOcOL/OMMuY5rlOul4jYd/CPEFodQMfjqWpUsZUGiVtS9vudM2TzUGqBIQgGCVxhQ78YGlqoJJg1nIb4R7IBmwC8rxgOBrRjkOSJK7EkXx0YKaJMJPmlU1bIgeS5+4Phqxtjbbv7RnrfqZIkxEBJjKplhfntLri/OoG0wIaoaXdiJnvtlnoNJU8Oddp0Wo2iEIPTWaCIhUN/oaPRMvoTYVdLGCQHJ/tcyqSUmz+Jpk7Rdh6M2H4ZspgHpM+wuj+P097/KjmDzPXoeAAwcJeovaW0FRxF4eUUt2i23ShjqSQMtk8wswG8pKFL6eHAmelVMti2j3M3IJqKrhxh2zzHFFxgrCIKKKCUee1dG77J5j2bbjyDG70Qcr8Q7jwtUTtPwXsqxBJBSzFsykLXMDtbqfzvN13/YbaAi+uBfTkVcW+lBgsm/gjjLd+h7D8I6y9B9t4OzTuBtv0idTNTzF57K/T2vwcpmySxwM9dduiw3juy2gsOYJ4jLMhpjS4Cyco1s9rzwTvWHfHaGXjl4icPwXKIXNHL8crmmplmTZ7MuQibrdnCbNnD6WA/6KNS3tk5y4QDJ8kNOsYSVnmXRVSShdeTXL7j+BaX45X1DlNOb0PN/oQRXES23qHqqxiF6+7NOF1ARB0E62UDoWQ+NknTrE5LZmmUz09txsRywvzGubfHE7oD4cKDFS0SDorKvtVJqkPKUkJo+T85WQu6ojGhFrtMM1SpnlGVhYqiCQTTUoc4ygiiWOiSKIPngARaiMPEWLKNbKQFaWmFTSbZiCW9s5JpEJLUSDbk2Nta6jSzRoNEWlnBQhVB0nBumVGr9lgcWGR8ytrel8hRiZR5HkOFmILnXaLvfMdDi0vMddrE0pjkdmC0G6U1zYqfXG9kcZkKFyKcYnHTFUveVtkMH6IPP3nOHsOw9vJO28itMuUD/8twpXf8PRPI2wPAQAlNqx6I+hpo/RRCYFks54bulE/8yXzzMoE0eoVL/biAmkDbTGZFEhJW1lxTk1GoSXf+y30bv3LlBynHH0Umz2MCW6GzrvJw7uVV2PF+flJo6VUqquhclt1/4YXf07Vn/BFW0ABgvhGX84ossgS1i+zRzH9f4UrT+HsAUzy9djW15AHy5jsIpuP/c90Vz9INFrAJVue1EfGJLCEcUjYXtCqgTxLYeMENqvKJnXZzQBCpVejfVF2dcqVKKzsKbaktCWBAITq1FbKek1C3J45rJuHUUExPEuQb2pqcVvQzAXKTSj3fSftIz9MGS9hs0fJp/8Zlz6AdWuU9nWEve+B4GaMaXzRJrxab7ymAcJuxoD0SJB2yx/+o8+wNkoZpDnWFYTGsW9pkWYjZqvf5+IgpSyrCEB1lNf7SDheHLwrPKBYnCcOrJZAjoZV86Qs1eITT6lRL6xEE1FYlk241Ujodlq6YQttVqICW8Mx07zq+qXhLA9nggqIiNhSr9Oh3WqQF7C2vs5wPPYbTNX/QVIhKgTiStU82Ld3DxvrG2xsDSgF+comoOJOvlV0EIQ0rKMdWW6+6QDHbtpPEokk6Eza61qmvbwEU13sIBNG44cCFP0JRuaFzIEyez9s/SyBOJvGUYLkGwnOn6E4/l4C5xXcrB145nHZ0hIsrVqR+SQcFAFh1eYvZZEzOOYra2ZE1upPOu8017ATAZDvVHQxoouBZRg1iW7+PqL5WyjT3yfgFJT7oPsnyZqvZWzmVBFeXFNQygloVjYmOvTX3aHkJZgA9UdcUxaouEDeswpit1itbxzixr9POvo5YncGhIeT3IltfwuYu9g68ZMkZ99LMvJMcNVDKBtgpkrcdYEhD2PKUiJ5qa/ymvVOES2Cqt1zxSrfXii6XqtmeDMoodChWkvCSVM4E0QEZYgpRL9GwEdJYRKtMpJ16BgxbO4hPPzDNA5+E2n+WRj8DoF72JMT3Z3Yhe+B8Ms1cijaCdfb67oCCMdPXeC+zx5nrNyCHLKpRg727FlkfWtlVuYpAAAgAElEQVST1YvrlLN62e2RqEZd+AtSdW4ch/YvazQgkyqF9Q36wylGTvlVy2bx5R6E7mgaaHOmolBp5sWFBUbjIYPh0KceJAUhpW/V+708k2xGPg8u2/WehUXmei1G4zEra2vk0kZUUl+auvCbiGxMkYHlpQWSKGY6mdAfjfVZRTJa1CAFWMhEFi5CK4pwecZN+/Zy71230GkKUVLOvjc4QJChKx25MoVF3lhIibK4/VwIzFnY/CWC/vsp4jFpeYyGPUD22V8mEBCpgGLsN/BCVN98yDIPLFkc4pKIsBkTNpvYeAGiqka7lDlSkk3GlKMtyvGAIhMNeUtYiqCK15RPQ3EebQImGhUYC/i89e2U0u8+2KQwA2zzT2M630JuEsqiQ6CgQPKk4ivHiEwLZdv3pb/RA0bXm9e9Eb/vNg9Bol4ztrZETzfIhu/HjD9I7M5TlkJWvJtw7o+r6OLw03+JTiDgIaEMxti8C4VU9KReiTH0GgpRHvteavI/AibEm1of8FdvLCGCirMsHDPvCYQcLmqI4vBlbZa+FF26TDtHmEtJoqjbCq+oQWmb5JLmsAMlQooOzzC+h+ad/wuuMSKTfizFBoGdUNIgaP4VTPMtGo3UKN91uE6vG4Awzgo++If3sz4ulXsgYkaJhaOHDmp1wfmNDVLVI9gZhZncsXb7ktxTWbA032Vhfk47fq2ubzCaZBCEXopZJs0uwtf2+6sFvR3Gr6a4JwY+XXZ7Ftry30VDzT7Ozf6FFu1Om/XNLfqTCalUTfhPraLGTkPJoomw0O1oBYY0DJEJlhY5/fFE5aNFBEqiETLtmlFEI7DsX+jwyjuPMN9tEF6HSPWF9plC5lNRUxmDwRMqaGKDBUx8GNeew9lVWP857PQzerg35QXKzz2lAEG7MM4An0mRkKNptKHdxM71ME3hnhQ4Ib3KddVpRHOblYy3gEZxQOU0Jd8a4fpDgvGQUFIUkioIL0IhGvEdpklGfOQgptnFiWBL416C7p+hdAu49BSmf47SbmIa92Cbd1IGkuqSNIXkW2uA8ELPnfp+L4IFZmH/7bbmXjxZ2i0H+efJt36RsPhvCuSFSJ4Hc4T2VeQPiXTyKY24YVOCUiIH0gZayIAibywaCsIvqkTTVW8s0MiCixOIEmwUY5sViN9mhpc4SUOnU8psgssybJZj85yg8OlEQQrS6tlHIERzwRMede1JJIOCdO4YwdG3UJRPEbmTONPC0cQkb8V0vps86GqkW0jFO2pJs0jCtY8Yri2AsB0SMrMIrs5UqUQ4u7rJRz75IJmJGWVCTCzYu9BlaX6ecysrDKa5ahUIZ+AZL80H5zTDgP379mkg+PzqqgIN0dRW1vmuSO0XHjb/rzMejK/g3Z32n83AXSxEjURAw+bs27NEs5GoFPRoOmGzP2IiG37FRdD+EKGhGYvCo0AA6QYp/IdI825CoOz3+2xsDZmkPuwdSUVGCAeX53n13bcy34h3qS7uAJAXYdlf5VvOFNlmApNV34UKo+WysbsR+aM/RXnyfYRhjGkfo5i7F9O7kzA+gRl9HFOskg5OEp0dewET4/OMAtDyVgu3MEcw19QFnk9yikzkVPdg7RIm6mFsQ68vhdVcjHB5H1esYuw5SEZEYVdV3cqtTfItITqVBAJQih4lPdK4wC6VxL1DOHMMGt9AMTWU48cpt44TDJ5kKuTGg99K59i7wSwo+VFSTr4z6PX9ujyL4ws/k4AyBWQaLa76rBjhBGWqrKrkZCmRc5IetCRxqBwl4QT53htV+3WvolULkL0gU2h3U6bZ0cmhiTQJuW8dB3caE99EkBwE16IIhSCYU2afYDr8WSL3acIi8Q2ayh6cOk65tYotW/4QxQQXSJfUphcUE9KwycijiLLdIWy3iJoxpploikBTDrq5S9TO90Uw4vNVm8anbWUJlSKWN0lxgyFmq48djTBIKkOAiKR5JfWY6/uF12ak34oZw/4lWL5J1SCFEiSkRRd+JUHnz1AkRyjMiFiikqLwmz5FPj2PiY8RdkUDIlE1xZ0VPDtcXjtr+uoDhEu8gw8DSVg4EyGk9S3OrKyyttmnP5ZGSbnyEETMKLSOI4cPUuQ5586vkAu/XFpzXmaiixsR5DnfbrNnea+CA+mrIOF6X+CgZ/wX9aXfAeg2E/bvmZestnIJRf1xbWvAxYEwcgNNPUhppaBOCZD5zLMhCgQ4WOa6beVCjCYp51cvMskLzcGJdoNEVG45fICveOVRrwGhZZo+mLYLtryoz/nS3nw3QPAlf7PNwhSGLJKnHmPO/hqjh36MpjnvFdNMgzLcTxmHWDmZFwPp8EVcSNRB/s4hkI3eHNHyMmVUMhpNIZuj2XodtF6jkQibdCBsgZAhtZRSHMiQstiA4iIuPUmx9THM4H6C0GG6Pa3pLs9sUm6tExb+tCRMbM2pRglFuERZLhFOhwTFWX+/wDIJ9pHc9ZcJl/8ERhramJTCxJrbvN4pituHuivQKXaD+Nm+rv7COTb7A85fWGW931dOkEbnqovEJ0TWkASGXrvF8t49LM73lM8jIFBCyxIu3tFPf2ln8cvn057eiEieTAjfolO2wsanf4RWdoIyWIDOfsLeK4kWXgPhbRhbkE0/RN7/VRJWqhStJb+wQrm6JufvqnxYmAxZJUIEmajj9uZhYS90WkiG2ZQF5XREMR5RTKULa66cAQXTs5OdpGIDR6HM7wZB0sY2OjoPJJrgRiOmG1sE62NiSe0GU7KwJCxCL8IkFdKijL5vD2bPoj9guoA0PEDUeSc2/FqdVkweplj/NOnG4xTpoxRujaL1Npbu/Eu4cE/FS5rNAB9P3m72tJtUeZUmyTUFEMTuwi1b3RzywMPHObcx0t+VPeCMliuKrkBQTunGhqPHjnL69Bn64ymljfUU7vnnzzyThK7g4N5ldRrnVi9UOSofvt9pqPTijoIrDY3IsHe+x0K3qVUJIswk2PT82gYX+0MlJSrPwJ+NtPmXwBfZ7CXdQJHTaTWUdyFRiNNnzpMqK9i3ro6N402vuZMj+5f0PR4wvVwBwuyU4hnSvpjRL14RWNFQvhgg3yA/8S+Znvwp2pLYLCyFiShNjg0LTGGxcmoJMx/2F4sdmIND+ym3VhhvOsKFryNZ/CYMrwDbIQ8N0yKlLWQrKeHS0lhR1swxwtgWboAQnPIhlPeRrf870sGnabVuxrR6pOsXSNfO0swGBOJp8g4uKCiCLbAhQd5BQI4LC8ZBAAe+g+atf5lM1NhsWhVwitt8OdQwPJcYwk7qTp5ZMoIy6qPxlIefOMHZtTWvYxLIv/mSaJFT11Oicnz8GAmD3lqrabxX3HKUJZE4nwUQ9GvMuu69uL7g5Xn3baKBf7yZG0tlDW4yeOzv0Dj7ewR5H+ItpnGPNOgRRPeQLLyecP8+yD6HG38Gwg0F3OOnniIYDol0g5fKIilFzAgKQ9lq6xq18z1NDzDINJU3HV8kD5uY1hGi9r1Ejdsw8c3KFfPNH6ZQ9slGq+STT5MPPw3TvlaIBa02wdwSrtEhcwnx+VXc2ROU9MmDnDgX4nqg+5FwHJjvEu3bo4c7I4Tm1rerf5iufI5s/ROEw+M0RFna9CnCdbZcRHL0r9K+6Yfkw0AUWPGRhB2DeW/mPf/Vhf/XAEDwk0rAgfAMnji9wkOPn2Qg0QLJRWmed0ckSZx/RMbehQ7zS3t48uRp0tKQS9hIIgilkGCe+RJy4n6pDtja0ioCIRf68sed1swv9qIVoCOfKtGDZmyZbzfoddq6sYuK4+lzF+hPUq3ZlfpbJbdU4ktagVGRHwWaNmKpdlhiOs20e2VeGFVejKOA/Z2Ir/3Ke+kJadHHSLYFml7sSMmLbcNL7z9bSLPnk04v68AGhWkQuEMqsVxIfCldJ3/wvZi1X8GaAUb7HUgbb3E8gtwdE2ulryJm+QAsd8lGW6SDPbSWvhXbe702jMlsU7KmWCMxK+nO6AGFSjlL/awLcaU4C997YxILsTSnma5gVj4Aq78Gc0NMZ4FsYwuzep5QeDBuTqMQ2JGGLiWqJfBuZOYJ9ryZ5t1/BxceqFpDC6iZ4oRAFTQwVrrIXc8jK8baAQnKCbncRNJrfK26rJfzF7f43GPHdc0IsPacodL3u1Jw7O+iuib6bwq1yUvJMTsi67jjliMc3r+XVizvnzWBq0m+X/I63oX5CuHruCk2f4T+/T9C5+JxgmCNNEyIlTwsMQEhIfaIWi1MPMJGjnwkIf8BsUoVVM35tB2ugd5B7P4DZO2xpvNY61NMY0iOkcy9Bdv8KmgewYXiSyX2v+CjDhplTDUlIFoGgjRNsUEx+QzZ5ofJ+/cT5ueIEolM7MMIEXySkp3dIBiMNGUpc8xUnIdUqsd6HWyS4KYGN95LPhpjyw2i6KJWamBiTNaisBHT7htpveJvYzrSgErmab/SMZEyzFn8W+ah7GPyew0QdAsbFyWfeewpHvn8aUaZ02iB01NgoY2WGkLGE9XDICAMLd1uh+Ek4/TKanVyFDEjpYU9gzYokz00hqX5OdY3NtVBiPuoaIkVqvySl8QVb6AYWCPh8uly3i1oxxFLC/N02m1G44l2pJyWltxKvzAPKKpMq56CZvEAKXVLQsvy8jKbG1vaM0LuGEYRvcjx2ruO8Yqj+yWDpiBoVox3PW8jzzTwrGWX1iUBA7LJp8jTBwhsm9jOUwaHyONFAjuP2fwMU2nXvHkfgRmp+qaRbo5yIpDzf5xj9ixhF9tMR32KyT5a+74T0/wynG2oOJKUO1qpTMml/CmUUEU1f7zUt5wEJOwv9zTCZrZjZV0HhbS1XaEYfpx0432axkiac+SbQ9K1i1qHLdeINoLotEtTlzxw5HOvo3XLX8P0jinju5xu4vIVHI9Suoyg8WbCxleA5kmvz9dMU9QLW/reKFmWawRATvuBaIqolLknBEsK4cTp8zz2+RNkWnYqjdgC4lB8gzRns4TSnM3Xsym5rCglNTm7d0EufBHdOAqOHT7EbTcfpCvcHRlFRRj16/laQIi7OxQwMb5Xds1NqqnTmCnl2m+QPvI+4sn9StANC6OnaGeFI9CAUrg+mdf4kKhpIWtU2eMKAoskJNjXwc7tRxvWDNZIJyFF5/XYhTcRdl4JRvQL2l4dUf3fbE3JuIpgUuUF5XCgWW0BETLyW1iJYGz8AWbjkxTZQwSdUMG8MQvkF/qY9TPYdOibTImks5TKiyaJPIbI9gcjjUYGUv0kwNSWFZHSUjS+nMYrfgjm30Bp275fQ6XuIIT2KvBVgf1KJfUqA/+rHkEQYJiWJfc//HkeEnCQo9UIUqYWlSmdVpMFEUFScpHIFZa6uCXHeHFrwDgtNNwzO13vhOcvnd4Snm81GoxGI7/lKjFxdlSZhS+f75J4ftfLZu/jAEJ08RULUlkh5Ml9SwvMzc1x5tw5FVTKrZT7iEqeJE52vWZRPD0hORpRwMLcHCsrq0wzqRcOaIYht+yf401ffidtiZup5apKief3la/tq6sTo7CYlXzkRF/gBNno40TD3wee1HxnHuzDRvuxxSHM1uNMT/46NhXW8VS7OkpzFymBDJba2IM90tEq5WiBZP93Yhqv00ZJ2woHlSy2aMqLaItv/uJru2c12Lv8D06ksFU/IfT6BXaNYvDbpOf+gKQxwPQWGK1OMKsrNMohTshXZQek9WxzEXvkmyi6r8TxJDY/h8nXKYR/EO4navx3hMkbMdHe6zCC4Cey/K9gu6KEtY0t5dVsDUZa1uvbsVuCMKDdarJ/7yLdTptTZ1c4/uRTTHOHCUIF/11pzNZIfBquSvloJ9VKltwTVLwTlgqm4WSkomjy70JiPLxvL3fddrNGEqSnSv16vhYQW6cVQPCRHr8ZV/1DJBMnY1CukZ79ZfIn/xXNwSqEMga+4scf7iQen/rycScqpX6e6IGp1Sbatxe7EJKPNygvTgiLWzB7vxE395UaYQtyqTyQlGterT2/cr2emRDS5TvNwvlS3eajhwo+hM8gFQr5CKYXyPv/CXfxY5hojXBhHpMs4tY2KFfOYaYSEfGbuGihaPlxaZhKINuI8JL4dt/OWZ5l2jpCeOyHCPd9I3mkBZZIvFJrJaQpm4BVr77gIwoq/Xz1l/VVBwhi4+OnzvOR+x5kTMQ4902SZJ3PtxL2LS8zHo+VuZ/nUt7oc75CfJGQr5b7yeBUAjcykXZ3TZxNcwkfSiSiFNSnh2rfm9xfu6uL0q518YVO288la7p7ienZUjYwOSNKCqGqvZX6dil9awaWmw4d0B7lT5464wGCqQBCpbw4u5/CmUrrX+7ZaYiMjmVzq69VGdIqel835s2vuYMDS53qCb3Te1m5PgkwIf3dh0zLmEkaUeZyilknL45TpGOickScbxEGD5Obp0gmU8Jzx2HjFEke6kIUVnTZyrC3vB6mj5FupoR73kXQ/TolNMopQMuodcxksgmHQeaPjI/kQ/19FCAoCKja2+rpRQ4Snhylc056LASbmAv/kXLwAdjTxQaH4LGT2PEGiNpameDsFOYXcDcdZNSY0MoKTJZgzDyu8zqY+2acvU2Z0Ndys5dn32Y8oU34N9JP5TMPP8G51TVtq16URqMGIl2ufVGkRbcAOHItE55OU1IheDpDGEYszrW18keMLRwl6c0ifVe0qkQV8/z9pLFaU0rfpBolK1RxVTq4ythEFu6+9Qi33HyQRMronu/+WF+v2gRFvknphoShzFWpPJAWiuJihfMjksclJrtA/sS/JDjxc1hRNJUKBW2DLP5RxlVIv36Tl3HIZRNudYgOHCDoNHCbfSaDNWznbqLl7yWLvkJ1QbTpkig1CtFYgbxPHzopTVTPt3vHlflXaomkghNRR9IOkBYnZZICHIstislvMz3/H4mK08S9fbjufsrNAdnpMyQTifQJWdFHMkMl0TU1fSElmaWVGLEcProkx74be/hPk0cH9PuETDClpBSFoLGldptkY+J4nijYpxUe1wIf5iUECELG822KpdZcQnvC3r4wSvnQJx7m3EafVJ2w09DvXKvN3NICFy6sqqTyLpFMfwqfNTy4ZGHOig4vv1qfvuivtMk/G3lxxmW60vuf/i1mVMGqMPKSVIgrcxY7DfbvWeTk6TOMcglP+TDV5ZyVF2LywEaAj5RBCpAScCUTvBMEfM2rb+WuI8vC5NgJrV2rnm+73GwG12ZJIIXo3pRVLyqV3S4do6zUktdxJh3i/ClAwnZiMAn3yWRTOWNpIxuIEtqYKD9PtPb7JGf/M93RKY3iSC11tL8HnZjJ+jlM8grihT+JTeYrNcXuM9JQu8fQR7J3GXZbQGM2Q3b+TXgPGlWd3Ed+4Rcx7jTh3B0Uo4x05SzJVMCul39leQmztIcyiPR04pJXwNw7sfEbgKa/RtNQ1+qgPvuuKa2sxR9c2Bjxqc8eZ1UkyEXSQcas8MRCfaxdJpTNQ+e3KkAYrdrZu9DT6h7pydIfp4ymIo4l95ENplSZ6+2X3DuwWuooHVjlmrWNvgIOWUuievqG193D3l5L00iX+hyfqtumD8u9tM+KDn4Fvasvq75pxzvsvs/LFkfI4+YZefphpv1fJ3SrBMEhbPNuTHAnREsY4QOwjMmFlPsZ1h77cZrnP0KrmGIkIhcIHyHAllIR5DdwWStp2xHtOUrYm6OYHGe63se2vp5k35+gTG6lMCGRjNf2QcrnonatumcexXeJ3OipfXu4Zl5aUlcxpZGI30fJVn6euHyAsHcrrn0T2cY69qlVJUML6JEPDOTUagWUtlVJkWCLoV1keuC7WLjtz2IiKW28gHNjTD6B/ARF+ins9HEmBeTJK+nMvwMb3OVLKa8ByfyXECCIQ5AJgirKyYKUFpj3f/4sH3vwCUZSvqg5eqen6W6rydbQNzcSQ+3ejDXX+xIY7wtVN2yrLb4AK17di+xr2URVHiUS4HUdBAnPHNClH+TR8TaLQk9IWZZprlUkSJtYvvre27j3tgPEIhmsefFrmaG9k+a5pJrah0vU0YvLkNSStPeW1NI4L1X7Ql/qvP280Oynzhv/T9JXQzG+EFzdlKScEoxP0dr6EMH6B4mT0zQPNDDrF8iyLWzv7QStd1BGsvUKIVCiCLOowJc24CruItoVxRmytV+FyX3YqIftHCQ9t0qwOSaUSJkEJXpdgsW90N5LuvD1RK2vp7THVHNBnaFsk1ZCldcfQBDi2oWNIZ98+AlWt0StThyisG4gDEJVOhVJcZ394ivyXCOIEkDUgjXlFHVpJ5GmDQfjKdNK3U7GWYDfNumwso/3Iz7tEIchnU4Xwoi1i5vkqTDbc24+uI+vfvWdXou02mR2mqr59Sa8CI8MZiCmWody/+15N+PHVLn4L23aXAfvFkWCKdZNcNNHyMe/Q579EUbWmutg7SIuvgkTHYZgP4FZ1OZn6aPvIdg4SSTpCVv4UvWqX0NpC6YhRPuWCRcWKMZbTLcuYKIvp7n8x3HJq8ltS2WQQ38yeuH60KivFE7BQCuT3MZ9pKvvU3Jl0DuMbfQoz69TXNhQVUUPCSXFOxYKOpQxpQspeneR3PV9uNYyZblKMT2DyU7iitMY1ivdlZsIk7cStL4OE+2rDiNyR5n/Vzfm+xICBOmC5zn1s6bHm6OM3/vk5zh+7qI6e1HAkoUnOXk5RWk9QuXwd9c9+z3jxXeKLylAkPlYCOeioaHowThVbYfLlWyqWS6JLAixymo4VjpZmjAgcY6vuOsYr7v7ZhLd3K5tgFB1z5jJTl0SDJTtXdptD7KCzXGukQPfXXOniFN6ZUiteyShaOnrXp02Nb8tgkeF04Za0jJW3heWOUk2Jhw/TMv+Li37ezTOf0JFj+i+C9O+lzy0BIU/aToJG74gL+nu6AjylKL/Idz4txA+g0YRhlCcu0CS+VxkFga4Zpugs5ey89VgjmKjDjYW/YVj2O5RXEN6Olx/pLrBNOUTDz3GkytremrU7qpBqFyDqJko2VbneWVz6aNRpFOGozGjyZhWu8XcfI/hYMBgKK3cq4okPWQU2melIQ19QtHAF0EcP1c80MhVfVW0/XsLi6pMurGxQVHkJNby1q9+jTZym50qdSzKgtFozHQ6JU2l34uEwj1YiKNQoxLtdoswkMqYGaivQMRVdvIvyLS9wk3URrOmaFLdU5ylmHyCcvIB7PQJ1aGRagLR/Silq6E5gAnnsZv3kZ48TjwVYSK5xndVlHRdHuawp0e85xBlvk66eR5b7iPc/4PY5E4K5igDiSeNfQpQo4cv4L4gUa5oDNk8Nktx/V8g3/wVTFQSzh/CJE2yk6vYtaE2ZhNSsZTTF7bQjpAuXqBx8FUU3UMU7iLGnccWE02VCSFTG1S17oLG27DJLTg6Vet2iYZU4OAFfJwvZh68dABBwqaVQ5fNXzb4U2t9PvCxB1kdTDWaMAvqRYE/AUip37O9nm94//kYR08aM6U2CV1XbOrd93ghIwjeEfoTj2x00kFQu1GqyuPln/Ry80YaT0neNYhCbJrx+lcc4StfdYxGINvktQ8QdmSP/NPNnjx1sDGesjEumIg2gBDXBAi4nCSAdiOhKcx1/TufmhCFNDGd78AhvBbp3yEpiUJTErLhTKS0ipxeeY7u8CFaq/+MIDxLo/t2THIbRSCaG7NW4M9nBn2hax1ORJOyGDf+KOXwlwnKTYrGEYJoL9MzF0hGqZZ1SaQht4G2sFVp17KlG10ZD5g0Okzm38rCbT+Abd1y1U8az8U6M8KgRAUfPX2BTzz4COPqENAOIg7NL2rYfpSnjCcTbaQmv8smL63V25GcykrG04m2aBe+wdr6BsLNlVGXqJFoi8h86Lb8Zi3vn530PZXZKY9pkovw2kirJebnF6ry54mCglcd28+r77oDVzj6W33Onl9hbXOddJopiPDgYIcAKdE77foaRywuzHNg3z7m5rpKfvR1dV7Aa6bJ8FxsdT1eI8+4LT6nnCsJo5/GDf+IfPghLI8QmgwnWiOS/pHTeTZPsbqFu7DmZZSVE+A1TYpOQHzzAY0M5P0nKVNHPP8WzNy34egpsBTOj/ZP0bJDWQYzsaEv1YKeeCwERE3k5bIGz1Ccfx9lej+u1SHcu4wZGdznL0iNPkUokcGQIhgwjTLifYcI56SSagJZ06tBBgMKqS2LX4ntvBWTvB5n91f8Czn4SXTQYpSbIJ8sfIyrhxJeQoDgtk/9wlYVMtJjZ9f57T+4n3Epp1/f9lgQeSi1pdo/fDep5JLt+Usd/Wd9vyxicQBhGGrlRJ5meuLwncF2Xi80QJiBBL8xijPxpJqnf+6lX3xn4sh39t+zJBHd8cmUr7jzKG+49xaS4NqPIMhi8OctP+aVaLJGkVYGEzaHU0ojpB5pveQQWayFdkxHTolSfiiMdz09eoXKWZcLrX1XwDfr+G0YlyXns4KtqRAMxdEL8zlgefQ7uOm/Zyk5QFTeq+FFaZ4kpZCuahf7pU88nxsvndRNfwKz9RvYcpMy2YvpHCBbGWHX+oTbLcH9tpZbOWHFBEUT5wbk7Rb95DtYfNVfxfYOXVUn8nxsMttE/tOHP8XFrb5uoEkUqoiZlLStb25UAK7qnllJKcsYilSy9FGRjVjmu5Aax2nu83OacClZ6nXptjtaBSVtuyepAA2xd+mJjqFohUQ6R0QDY2N9Xf9e+CsX1jc1utRhyt6Fecospz8Y6BpMi0K5ULLGPBD330/AgaxVae0ugETLK6U529Iitxw9wvKepaql/Cz9cPWc/fMZp+d/raBxYYwLx0YUSYdKFpT0giml1PezTLd+HZd+jIR1rEjlCoHPOuzWBHd2FaOHIn8wECGy8MBegoU5is2nKAYXsNGdhAfehQuP+n4put7lRw4/Xg7Zd2x6YV6ORNd+Ga1pxNKmXdzwg5QXf4HSbGJ6i0StvRSrQ8qVDYy0hLeywWcUkSG4+QjEMSaQ6KPn4KUsknTfhm2/nSI4rFzeZ4QAACAASURBVPo9VrQSlEuUaPRk1izOP4XorFy9OfOSAoTt8I8rVP3vgSdX+MDHH1RVO69RImI/UtYkCEpO1DPm6dMHfCdf/cJMhZ27eMdhFRxIiZU4h8l4og7hxQMIfmt8OqVNNvtZQ6hnPuel4EmcljgvaTbVbCWUwyFfdc9tvP7uI8QaHr+2IwjeLcxCsqp6zrR0rA7GrI9ynPW66sJimUsse9oRcUVAk3fJaVuGaNaqe1ZTrJLTqoPhZXL8BgW5dYwnJRt9UU8oGYVS7ZAxP36YZXM/nXLsWcai+65HwIoheclifZY41jaT7Vlmp8amHcX0PuzWh1VtsUgS6O6DfkRxdp1IALMWTWhfOvJgTEFLlDOgsUw5/3rax74L2/0ynxa5Dl4zsCvlyb/4kfsxIhEO7NuzSBRHnFtd0YPDDuP8GStCJcfne10dkpWLGyBEXiORt4L5Tou5Tpd0KhGInP5wTOYktennlpK+HFoOKRyndhwSW8twNCItRMF1oAJMTemqqZOp1I6vg9FQtRlkben/VQRKLcyTyKhEezQbajTd0Gk0FISILsPhA8vceuQw8/NzFZi4es7+xZ4iOr7K/ZBUgrw8YdgffiTMs0E++hhZ/0NE+cOE5QbOFpRrIzi3QVBYXWa6xc9FBIcOU8qhZ+sBwsxC55soF97p1QXVp8m6lKo1AfgSlp8px37pT6o+RQ4jhRwwRmQ2wJVNovJzlCu/gJk8grNNAkl/EJOdWiXuT5HCqDALfcr30BJmrgUmIQ3blI17iFvvwCT3eKVVtcmsBsmLOGmZp1pPIpdXnzP2EgKEGRDy2ueZs3z0sdN8+JOfxUYNsqnfDH0EQdvr7dKk3rWBV3/c2U53nLRs6LpBVJ0Zd0+TZyzL3b5H/1zVsopmexJp7bVQpqWHt9xP8o6++Ytnxz8juvFc1v1s/6s+bhZ+vJRyu7O7eOLL5W+8Iy7jc6/Sk0LCn7F89yTGDTZ5y2vu4tW33UQo4bxrvhiuCtlWihZTBxeGUy4MJ9ryWKIGDVOy2IpZaIZK35GnSp0lK0vVgJDSNymb1YoGKY2r+C6BRbkJojIZRFZL2prixJxlUBouDDKGUg1hoDkNWOI+9uQfpZWJClpazUXviEQH079kMCUp5lX5fCpISEpSnSOjI2VW/mQ7q8HfTk2LOFNwkUIIisPPqipiGRpcdw/kXbKnLlaSrl5oRd+fdZl2OrDvtURL7yBceiNlLCcwbeflFTdnE16T5/JzdQlOl7ppn7MXp/f4iaf4Lw+d1HTQYqvB4lyP1fWLDKSFuwo+zXj/fpHOEk6zYjUJ3cvfScpITqzW5cx3GizOzzEcjtgaDHU+SEpTNTJ2vWbrRkSXeu0GS90OiYHRaML5i+tKgqUYMx37H/nSQehJk0KeVIJiJd/sp4GkrxxZXur6y6U3SpFrakPKKlsNKcPscOzYLdx8+JBGQarY4FU9GX7pW+jT7yD9S6RHQqz5eGOk0ZFIl8tGJ35TIjEbXuRr9DBsfBQzfRCXXsRtjQkmIkAmAMGQhpZw/xzBfIt0Y40gPYVlHubehWu+2euJKPHaz3Ff1SazY1aN8Fyc8ZUtIF1c9VlkSsi4i3J7cYFy/bex/T+AYoKbX8Z0b6JcneDOrPiSaAEVEsMUbDDXxsQLuM5roPNGTOM2XLiADZoY2/FNpyQtIpwEKbGsKpN2jn8vzLNc+Wkvf8VLDxA0VCCZ34CPP36WD/7Rg7TaXQaDCVab1jhVQtvpVPdMA+0Yz5/qqy67JIkYGSXqyYl6Jyvgt9ndbO/dofuZ04ikg2IsinceCY/HU1VoazSamrfMi0wrBTR8WYlt7AixPJch8M7e5yIFeMzC6l/ovZdPs8iZRXuXq1xwwHQ60Y2s22szmGZ0bcZbX/9K7ji4Vx3Sta6kOBsDVR/Dsj7OObU1YSINiUpH0+Yst0MWmr5TpQCBwbSgP81IM+nopvUG+t9ZlctMtdKLrUgHRZS8JifHXhxqmZw4F2kAdmFzxEYqzV8Smm6F/ZNPs5h+FmcGlDZRASPRRCikA5sCe9/dTZgMoRsTlgNCUTbUSINvRYuZgOgZqBiChB495JOWzsacpBx9CpOd8bXaMkrteQjmGJ1cpzER7oHUjed6Kil6R4iP/gDB/NdgGiKM1PHnYu0F4RXZdKUob6UCMS8kYeu5TO9nvcYDFlVKxPKphx7j40+c06jOvsWuKiSuXtwkM2HFu/Fj5ctU5eXTA0kcYzWkb3R9y+lepNiTMNJQ/mSasba5UQFEr3PybC9dOxQst1vs6bTZWl9no99nJCJKw00PtqOYdqOhHAjhGCjU0LGfQZYKfEjVhI6AaDiUvlPrZKyHijAK6LQ76kOO3HwT977iDjqJgAQvHfxyecmqzZ0IFzVwkzPkW5/ETZ5iPDmDzQTwbpIVqxRZgVCignydsBRGv5z8hT9itLy1CCxpJ6Fx0zLYdfL18wTC+wiXCea/HRPeo+WQOwylF9OCfr3ODgOKwsspef8PMf3/QpBfoGj0MHN3qEZJeuIkgeiwSDpLeU9SoR3hQuFc9MB0cVGDPGphwi5WuryGXWgdxLXuJFx4pRdj0vWsCdOrDiJfQoBQNRXQ47eUswQ88OQFfusj99PqzjEep9ubusqlxoHm0y+Xf9G80/bA+TKoSBx+4pWpBOXLRr7DNq4Awi6HsQ0epCY9FGAQa1mVbEYSHhLGsqQW5POFnZw0YkRKtHS5hjDLXNQeZ6TZ54LyPOjwmgXyWb4sUZycByvP5iyeDSCIKmNBs9lhMp6qOEyzGdNoJqxv9rlpocXbvupV7O8KC3/Wre65fM8Xc8F9oXv7RS8b5aRwnFwdsZlLj42QpkuVb7DQTRACq4SB17YmSjj0JERf3uizVN5eO8EaWaW7WvtWJMZuZFloRrQbEhnw9zxxYYu+S1RNbT4/TTM7JfUTjKMlpmYJJ10gZcHrZ0jkoKA5kfP7RWJzgqb7PJ3iFEmx4XuCaG606gNvfd96JdNJs5j8Sdz4EdVs14OouJRmFxMvMT65QTyWjp6WLCiwvZjwwB7yeC9l6xilPUgQ3kKU3I4xwghvQthWURrRFpltX1czd7kz0n4TVZKokwoOw8cfeIKHjj+l+gUH9i4yHg3oj6Y61vKdrUS8lGFaqPrp3FxPqxvEplqRoHo2ljzLNT0gzyxRyLPnz3twcAkgvnwaSNnyxtEQ/QM5tU5GWg0xGA5VO0MUG5uNpqYZSyVL+siBAlkv6L+LHyRaHSoVqHwIhR5Fobokw7GUapd0u/N0mk1uPXyI17zyFSTCgxBk9DJ5qWCZNCUfDRg8+pOYlV8kkn4h4UXCMiOYyAaZ4kKJyImNBMhK2F4I65Jx89qCuYB2qVzYO08+PoUdbvoWfNE+gvlvozS3Y5VTdXlxuxfUnJdEn2bzqKAcfxw2PoDNV8jDhLJ9M3FjifzsOdgYaURRy9NFUK0U+C8qr15eX+eQAgAfmZADaJ53GSZdwqPfQ/vIn4K4W4mtyfy4uhVKLx1A8NQ777qFrWpDHj+/yW/+t/vJbazRg9FIyBoyf4wuzkKuuwyLfyeU5F2rcBYkLSDG1nB7xReYEQ41mlDKie9SZyGLXhd+4E/0kgCT9g/j0VTFU/ymLZuL07x+koTaCEZ+LzOjm/tuRvPlJudM7EL+KyBGwI//O79pKUgQ3Xlh5z/jWS8PDnwfc0MYR+qIBoOhAo52u6214uLsXnXrTbz5NXfSVi7HDGi9wGVAL+RqFGEUKUe0Iec2U85uTii0dyvssVP27ulpCdAwLbU1toAIoxuKd8hadf70nhPVcCsS103HR1Lk/0KpgBCiYyui14qV6Lg5yXlqI2XiAsJyqpEBr1vg2ypra2b9kUnqI2ESNZB7SkVFw63+f+y9Z5Be15km9tx8v9gRDTQywAhQJEEKDBIVhpREShNESaUd7djrWY83zM6Ww78dl8tVdjmUf3jLLrvsqi2va127E9Yjj3YnKo1GOVCiJGYSJEAiNjr3l7+b73U97zm3+2uwQRAgyAY0c0stgOgv3HDOe97zvM/7PKhlJ9FITqFenICX92EmE6K2CLuj6q2FB6tYQhacZk+j0JZKieacuxFvCsHZFtxQJYxMEPxZ1jI9ZC51AKjYxiSAaqI+MmscmXsYqf0QalOfgGHO6CINxy/dHrdvESqVANhe2u4PcW6xjYW1HlY6PQwGA3iOhZ0zO9DtdBDGqbSy8nRZTqLc8cR4U+aLjOk4VqJWGeex4ir5ng/f95FbtrihDmnCplE5tdm/vBGbQheokJkAcYQ4DCX+MA7Q4ZE6CeU8leeQpoJM0sdldM6zlMAyJA3XWIrgefEzNN0BQRigHwyQxBmatQYmajXcdfstOHr7LbIJ+kU5+KypbWHHAwRzf4D0wv8Nv7sKJ6kgdQNkdgYzY5JH/wN2i3DueigsJnjShiILZkLdg307YVZMZN3TsGQDZaOo7ILZ+FXk5m0wBZXbOvG7fvdTeTioo+xE4YjKUEQ/R975FqyshZyqi94EnPoMin6I7PyqKCqW3goSk0jcZMWasZhlayYGfA1nas5E00VYvwX2bX8f/uyTKKwajHXdFdXuu13He5ggKIMkud2Fcqpa6Ib42lMvYb4zwNj4OPr9ngQCBnLX8eBXXIH6ynLBqAuyJOvkLFhsL9K1Qb1TkUBBMRTXlW4EJgFKWW0D6hy94dyHMvBSfjUMM6Qxz1VNfJWpyhOV72Eiwj8FLhY6BaGkXHYZIupUfrCuU5Y92IrwSFKTakWk4ZQ6H66LhEzp5Jwq5zkOGkV0WD9UsGKXB5nTigQTp4kOakQ5agKF9rs91BDjiY8+gAM7J2RZK02eFAtm+xaMtxzkImZkoJ8ZOLXUV50tNHih496UC9uzpeyw0k+4pCpVVJFT1aZbI+qFfDREIUvRGhl3Wla7vKViklKIEComqi7Ga+I4j4VujKUB/R9tlQOI6E4qJDiLO1VprVLiS0xgkceIDcpie5KqOGkf1byLZnoCtfSnqBon4ecMGkxAiUKlKNI3UGSLwl5WQ5ILRYHca8DwpxGeWYMTKoXEmCqPO8ZhTU4iJXvfpOjMOExCltYUCquJ3JlG4dwOxz+KwmzqBEGrZ77Hz3u9lVFc+ky0hyFOnZnDqXPz6A5DQXzYSeA51ClwMTE1ibW1thJF0x0nhOY8R9WuWc8nQijzQkqQavxyzvEo53gUBVIGLG3Jyh1aWRdQnUEKtC1BY36PkcdIwiGG/R4s00Kz0UTV5XNiuSCTeCTaB7qTieNuq0NmFjcBtFwXYzlf4g6/N4wjtDs9iRn0liGZ8sH778Ut+3dfMr+3axm4Pt+rqDgkd64gWfkR4vNfh7v2LJCdlR2xldRgMTEwQtEVET2QjARDleDzHqaeBe/gLqAYIu+egymS2g4ybxpW4wnAvkVKe+9+giCjbCNB4KZTSNEZivAZFL0fwCwo7Zwhd6rK+ZF2VK/NqwQhLxVOqfCqyJQK+aZzK9FfoiUe4DWR7HgY3sznYU8dR+5VZROiqIsbOOj1eUJX/ynvYYKghJJ4EJrlMUiAbz/3Op57/QIqFEhxLCEZcUfNXZVfURNNJqsmCJYTkTsMJgdcMMtMn68bUkiHpQEtYmI7asKW7m4bvciqXsjdQJSqQEAyYp6r+o86dFqr/66gTQO+54r2O4PBW8lhjvITMn5HlEuwIQjKJIMJEEsOPMgjKHuryz+lc0K3fo4iEWzbYr2VgYdJRrXqw3U9hGGMoD/Ag4en8cgD94jb48iVvMdLxdUNRnnGMDDXS3GuxQDCFqkUO2ou9k+66EUp5rsxhrmy+xVdRWkJKq9QA8ti1MOdvQrYglTLzlTXpIVpzWmuugQo6001hKm6i5mag36c4cLqAL3UgGVYaDgWGl4B3yV/QSlbMm/kCObOOIps9JMU/TRCKMiVAyO34WURqsUraOJrGIueQSMbwEhpTdsGsmXAHIhAkjCydYuWiB7ZExiebcGPlGV0SnU530Qxeyf83V9AUTkiOwzToHTtmCbgaCIO74Wwownfbg8DuhzznFurwxhPvXgSF+ZXZY5xMW/Wq2jUKrqmL/U9rLU70nGgoGdFuiUSIGQ+3RfP0SQ6i5vKhCrdI0lRvFjYekikUFujs7Qk2JmIaunxICXEkgOUIU0CDAddEWYbb44Jj4n3j/OUG42YglYjMuBvNaol/RCVWAhfgrGr4rmSzPcGITr9vsQrJgkkLn7qox8Uu3fRXNFCTlc3a26kV3PekQvEqJnConTyYB5J6wfIL3wdxtqLsPOWktnngm8aSOwUrgr1yk2Vz7ruwd4/gyxswRxckNIDOTuZPQar8RhgHXqLzq7rfT9G0kmtxkp/iHz4MyD4GUzKKYPXTMfHGRjVKcSnLqIIUtiSEKhRS0l0tkuyB6tAhNiwEbk7YU7dg8ruB2BOPgbD2SvdDpqlJmU2lSBsL8r0niYIyp1Q6+NnrEfaeGW+LWJJFD8ZmxyXBXvQD5CRhVyk0v5EDgAh9DJrVNAhA772keeiwPcN6AJX6qMrYvnGxMskARRUQOaxak9SbW/craoAohaVMgqt7zU27bwVepEKs5keCEQpeH5EC8rEr1zkWUKgMx3RiSxVPflCjSMfwWbHhCs/6wmAVkR8kyKYBhTIiwhDtl1CEINaowrTNpBEMfrdobja/UefuB9jNQY6dmFssDVuBPzgcjkx73+QAa/Md9EhhG6aqCLFwR1VUNbh4kofndSSEoQir6UaPSjHBclOZI8DvufAN9WzJ1GIKntMqFLuMJVvkvQfc4drEa0qctRtEwcm+ByA1X6AflqgUfUx4TAJJTzIXYGWcKbugvAdCCwpc6EgzrHSSdCmAiZr2mzXzQpMRwuYiv8KzfSP4ecvwsj7dHdBYdFUSpNdBUHIRBURGMPwfBeV2IJJRr1VIGFLpDGNeOoIqrd9Afb4RwF7HJkRCdnXNBxJiIRrIW6GgkeMJE/XO3C+xedxp28YCMIIP3zxDTx/dgkZzZBcWxxLkYQIBz2Ze2xC4DOQBM60kJDgJSZNmsirUYLSc4ScgfKQRVXid4Eii4GMDHrljlrQpZFdPVRN1GRA3heieOVcVQl5jl6fhMQIzVpN9BOIEHUGgXAbBLVgOXGElHg5/E3iiu5m4aImCIZhSMsjVR9Nx8Nap4tuvy/3olGv4t6De/DwA8eV2dxNlSCMwvtqEZVUjAtm5gs0b7DLgKZjxQCI5xEv/hjdc/8W3uAEaplK/nIzkc6FTDqIGYczmJN1mLPjSAfLcMNFQfm5WUiNKszKI7C8W7V40Ls9pjmJmHBrRRYJ20SzQqSDp2GmL60bBMp6UZ+GUduJdG4NaWsgSImQpGk1rbYjgniG7FpoHoV96Ek40x9HYe9EQWMri+OXqCi1XoiQqJVyuxHf9zBB2PqBBkmO7/zkRbxwZh6oNFGtV2HlMaJBB8PYlV0+kQKvSmjfAdcHxXplpVKpHAoMGEbCaM7Z77/lXvlKNaurhd4vDVZK5EnpvZNfpUsOm5jko4nHxv1gbZWdG2RNM4CNHglFdVL2Y6fCAJbEwLRR8Q1BIAhTsaWL96uaR/jEI8dwZK/qXNi+Q1moiqyqPgmVnKipIojJyA//mwv5WpDgtYUeIpNOEjl2VIG901WsDIDlTiiLtCpEaBIQyUtEWNgHb2QYq5iYrruo2GREqzqwTG/d9dDpBVgOKeFCJCCDEBV9BxO+DYfLgA7Scs7l5kGbsFK3I0kyIcGJu6CuPbscmwYlVlWiudRLcLGbYsjz4tjNPNjmK5iN/jfMdr4Fz7ggrXyJxY6bDE4+kJ1vQUGUygyywEW0GMjOijtjhWPZsNI6EnuA2K/BmfllOIf+IbLmPuTstydq8aaH/d7Bk2UaLcWenARkG6/Nt/DXP3kFAdFAo0BzrCFzlEiaNKCuD9ARZpAk56qfXV+47hpQ/6nKSTRgKqREIZ4Vg4Ggi3TfYxxI4lACuQqvysNDl5AVmpTnwhVgCyKh3uEgEALy1NSUJBDk87QH3Y2EXc/fcrZv0IRKXUZ1bqOeKeVYLy+CBEsiBUyAWu0OoiSTzq3xqo8nHn0EOyebqmtDW4vxb9u7b7xS5BABc82dsURCOaOraVFR62kJaMlf+A9cJNkidAGDV/8Q7txfwkzmxbGWJksitU2zIloeH2jAbdrIO8swEmqRMHsKkFMrx3kfLP+4uPgqNlH5VHjzrnPE46JPu2YzVO2HWVWeTlGcQTH4KYx8UZWhBUvMUXhjMJqzyFdi5AttUQFmqPDpTmxkSLwckTsLY+9n0DjwWYBiT0ZVSJmMReI/Iagm5wt5SfwvcrA2rwdXejLX+/fbniDwJi61+/jaD5/DXDuEV2+g4hOOScSylUGZJQeatHCmb8inKihZVNK09KnaMV7tQn8dbqmM0zIgq4a99WXw7ZyOUonSE0slGusBkrV4VqzIpWQ/v0vUgpbOTJBs0HGUu52ameGBIwdw7Lb9qDrbbQBc0gY1P2CdSqjY6SIwIy2JpsD0IoGc5lgZpFgZcoHx4OQJ9k7YsuCfXEwQsMRkqbKAcDFY6hT4mS2QGXY1K5ioWHBEg0ix5defyIhxUy/OsNYPpT+9WfHg8r7q3Sg37KX3x6gZFr0flroDdIJM+AaqVq4YNUSO6p6Jpm+h6lrwLAO9YYJz7QGGsQErdWCYAWrZM9gV/s+Y4e7DiJBZnpRKbJrUFClyms74U0haOeKVGF5O+V6VIEi90l0D8gaMtC4BJ23uhbX/H6K6/0mpY273oe61QvLiwsCXf/wyTl5YFaSAY1ZJX5eICdeWkQxs5ORH7/ul1yRkUNMAkzJ2NCTDPvKESQFJxZHqZpLF3xZ+A2OFXnnVfRS0hzwj9foybkxNTUobYhAM0aWtvFbZUsJKmzcWZYlTEmA97+XaCYWPXkf5d817YoLALob+IECr04dhu5ioV3H3HbfgofvugvAVZXNR+ots9xO9zPeXsa7kDcj2n50ImfgiqLJZpNQTixB5NhSBJCNdgREvo4hfA9aeQ7ZyAVkvhCMJpQk7Y8dSCuNwE04VyDtLQBrDpGsZOQssCxq7YdXuFSKuSqHKGa7lF1VouI4HeS+xPBMj92lMjoLaDdFJGAilE4NIplw/+UONWeTdHPl5mjBJzwLctEDi0XitAmdqH4qJO5E7e2GaO2FYO0QTATaRS3YjTaAwafOs3IrIYlA8uA2p7ut4cW/ro7Y9QRCIH8DppS6++TR9GWK4fkWyettJteYAsznyEAjziunrZXqcNxz83tbVX68XvSmI6HaoTan0W3/ZRllDlTrKBMEWnQO1RTE5AWVeMDEyhFDJXZlvmzh+5CCO3boHVVuRGLf1eDMCOUINI8pjIswttAYxOkGCQZQhyLjHIOxPKWUTPssL077s7E+tktDE32kXT8muFdm1YmfYM+FjgkTVAojiHMO4wADKUId3ggtKzXPhM7ESYqkmHLFVjkqZUSpSurnIfRdi+kSGvSv+DioMDZIMc+0Ea7El7Xh8wqwocrGWhck00HCgtBp8C+0gwOlVSvSaFFeAaUWYyv8IB9v/K2rFadkZiHyzqCUCme3BtpoIFyIYfRUwLQZd2VXwodOfoSaIRGauIaxm6Dcex8x9/wxm487rv4O6mgE00o3M2dmJMvzBV7+Pdkh0hzQDhbioMa14BpeVaBDejUowL/UuMBwTHjsEohDpkJ0BEYIkQJ4mSt+iWoFf8eHYWkr5EiobT0GhCEp1lK3B/Ic6BahELClAHEViHCfdErrkqGSaTUVSps+JNpUr5c1j0WMoaXbl9lnjCExipY0vw/TEhHRarax2hJNRr1axd+cUPvbIA5gaY5tq2Qp+IxQDtxoAfC7kdyXIDJ4v/QlSGOkS8vQMkF7kyo4iW0WRrQB5C0XWQ5ETcu/DzPsyX3IKnw0N5OeXYdBzQxAEan5kMG8dh+WmyLqLQE7TJ1o/E04jSlGBYc/C9O/RZQbpd1G3TVoIr2/rI7kDgnkSsZYMcxl58BzMYkXJs48mCG4dRmMXssBEfnpV9FBYarMogT/hwdpdFTnXzPDXVVmpgJpbDRg0rzKpgdJE4YwjNyZgWfvEkMqwd7+HnIs3P/NtTxCUmABEEe/CWhff+/lruLjSlgy74lfhulwgWbPnhFXBI5cgs9UiqGRpr5bhWgqfbD0lrlSauJpIernX8nq2gshKkiSJOoRKOShNBEGINApQxAHG6xV86IH34eDMOGr0sCABdJthqTK5GYXppSmDzxm5mC5dbIfoRlDmSyWJTK5OdRfUHQP7Z+ro9gIsDFinVLVKaWvMaQRToFqk2DvhYbzpIE8LsQ1eC3MEsEEqKGvXfB0LHa5RoOG72NmsSBLFvflaL0YnjMUdkklLRtKjeDqwZEFLYANjdSITppgADXMDp1dj9GPdsisLB103bSEqkehWMVLMNhzsqHm4OMzwWnsINyFZNEEtX8RM9L9gX/hFODSykfXSRlI4sPwazMhFNJ/ASXzKQaKwqE3H1k8HebUu2geWvQMW9RLqh4Cp98OeuguGRe7Cdd06Xd2g1mUXuR6jwEJniN/7yg8Q0jsChbQHb2iaaBKInO6b51aJIJDbUyJpZVsvYaNsOETa7aGgnHI0RGJQK4G78ZrwgfgeKp6y3MC2ROEZMVG0TJE+phQySctctYVjoLsPSkVE/gNtApgsUMeg9GVpNpsqOZBOYbUBEECEEHmeCzJAp0mV2qjFQV2hKnFwIa149JKYQLvdE1Km7bjYMdHARz/wfty2f4/uwFiXDJOF4eqE2K7usV3Tq6UdmTbr3NnzuhYx7H4D2fAH8NNzQhI1qRtBjpAkExFoPi9wvdVD7mYIDRteUsC6uIhsjaUFF05KtcIM5m0TsOwYeX8ZRUb7aE+VnETRlPfcB5x7YDjjgFFVSbYkCIx7G/fumq7tkjfRFE46XQT1HCIfngXyckPVegAAIABJREFU0zAtdsmxP0whCFL2ostqYxfSwEJxekW6llSnVQ7MNGDsYklRebBQAI2Oo0oTwVNqkwZdICPxcEiLKZjWnbBqvwyn8SGJ529Fhr8e13q5z9j+BGF9QWcIBdYGEX70zAmcOjuHNCcBz4LrWbA9A5aMBSYA3MFdrsf76hOEyzkmyk17L9ToBJ7cCPAbg4HqZFRuzJEmBZKIbV8G8jRD1c5w+8FpPHTsCBqeDapTC6CvYfJ3c9Bc6bMvrX6LopiqWmKun+Lccg8Bmcl8jpbyV6CYigMiAiR2kZjqwvUdXFjsoRNzAeZkUpOVqSFr/lOuiQM7Kohh4txKFy0iATZtnJhmKEVMES0RFUVDiGtjnoXphodWN0Q/VMhEIh0O3IkoARN5jxBfKcwDTPkF9k1VRRWvH6Y4t9BBVNgSAm0jlutIxCuCbZAQK+lDYxU0msDzqx0EvRQufSQM8kRO4Y7u76KRvwHTGEhikYBCXHS1S5Cv0tjNk97w3EtgT9Rh7bkD2Pefo8DdyM2KAh/zKjIrlcTZ3Ga9AzV/1ELIRff8ahe//9UfIbV8uY/1egVJohUlhRmgCX1bJQhM/UlQrRJqVZwBDT2gSAbotVrIyDcKQ1E2rdVrmJoch20Zggp0e32VQGsHVmktI8wvSYKBibEGapWKFlQy17uISg0SRVJW6AXLEPxhclCex2g3UWnYVP7ZGwzE3ImkTKXoqUS8+D925HCOTo5PiL306lobpu2hXvGwc2oMh/fvwa2HDmKsycUU4jlRfu4NRWBU9RTZWas0meS6HkAJ5WQRWbKALDmHJDoPFGsosiEsowfbCMTOXki0mQE7MpGcXQZkDtpwyUEwc5iHx2B7GYoeEQiWJ9jKLAxBTd5ji/EumN4MYE2iQE3bQ2vxpBKpulKQuuLv+fzYkcSoNUTO8ki6ANPowaDgk1LrUCUGYtpODWZzFlkXyM/T2lmVVy0aUE1UYO4eB6VbY8dGmhMr5e/HxLKaIl+2TQGou2C5B2FYkwA7lJj402tkG5P/GyBBKClOajfByRVmwOm5Zbzw+hy6vSEGUYw4ZfOMmniK7Vm+b/PO6WopCCq0ldn+xrNQG5wrowcbC/vlXBOuOBJVHrJBYdj0Bv47WyFZo/RtAxWywXdM4LaDe7BnuiGGRVKxepOC4Nv73nfjVRsJgsrouSOLc2CpE+KNlYHsiNnRQkDAt3LU3QI76j7GqQRJGI5ytQbQigucXxkiyilUxEU7g5kn8Ekatk1MNjy4vo0zKyE6MVnRTBxJ+FHeE7oqrnd1mlxIVEGnmer3GsEQxEGPBF1nXV8MhNBYYN90BRXbxOJaDwv9DLHFnuVyh6FIcSQxkglfMQzcMkU4OsKLcyHCvA7L7MBFF3f1/yuMxU/DMxZUqcyZBmIf2eIAVmAjz23kTgZj0oI9U0fmOAidffAmPoW8+hEY9l5YonDBJEjB+Nt66M6FcsosdAb4vS//EBFYWyUhz5PdvbiNKg8k2ZltHMq9lAuhcAyIBGjBM+EWkGPE9sVBSxwVw4RkxxRV18OuqSn5mC7VGPt9IYaJJbbmBKiOp1xUGyfGmqhXfdFWIKeJvgssD7DkIF0RTFYtC774LmwImqk2a/p9UCxJ+S3w35QqqiJPU+GTYaTT66PbD0qXDkGmiKpYHPFFjrFaDZ5fwdLSisQ6GkdJ9xPbbW0LM9OTOHrrAezfvRPjY80b1CKaE0QR6URWXNBBpTOjdvLs9efi3kOWtVCk8yjSZSRRF87wNdhrzyFfPY9kmIpeCUsMjsgs5ygO1OExN+yuAjm9UEoypJLhV+JFJEaOAc5uwBiHwXkgrfM8r3fK/N+I+SpRpGruCvJ0EYbRFwEvlUwydmxwEKhhYtZmkLdyZBdJUlT0xWrGCmOGfLIGa3I/sqljMKp3wLT2wHJ2AvYkDLOiSMqMc9osUMz1SjUEnbBuxxzf9gShvNXycEW+lINNZd5BXqDd7WOtxUkXIkzoh6D0KgilC5rAXYu83sTyahdr3TbuOLRf9dtqCV6luL/RJCnyJVTtM0xRz1tYWFaiJpYtim95GuPWPTPYMUHyl2bLjni6M0Astlel3z3JLawGAxRFgvsOH4IjhJ3LP8qS0CTnYxiIDSCIEszNL2NAv/k4wm37ZzHdoJGHGoKs4dYqLsYaPqYnm6j5rujXK6a2Pr+yh3xb80113frOSxIn4FwBzHUizK0M0Tdo5pLDKVIpI+yaYl+8K1Aw+QMkpNLRLyJxMQMGMYOzK8Iqth1LfX+2WsUYM3ETeKM1xMogQSqMX0OSA+7WBOYtEz/dzaDOTtNH5QFs5qyMljBL6LnkSrN0VbcyHNpZF4e5s8tD9KlkqNVBGQ4Uk31D8nnWMXHHDgcnloY4P1TEUc9YxWzyJUyF38V49gI8M4BpjSFhq0Y3gpnSYtZDYUfId9SBGROWQf6BhdycQVF7P8yxj8GsHUdhjqsg9V6gXFeITmVY5cLbTlL84V/8CP2YkKqSKa42qnBogCbiR9r0TOfgqoSgkgNqT/AepjnJnoG070oNOo3hJAPEEbUJIlFPnd2xC7ZhoN3poheSNDYSTZjssTWVgmmWKYZQlYqn2qiHIYZBhEhKEBsIhWwVDEjSXalUUKlWJQEIKZk8GCCMEwiRdUMTVp4ppdrrtB6vVQUdWV1ryVwmA0ZKDeLKqhJXejuMN5tora0hCvka/WmmJdwG2yTZ1cSenZO4++gRHNq/Gw6TlfcIzHz7i5DSaJHxLmZwLNPZirgr3TcRkLPeztdQL6CNuP08svNfhj3/HRjJEoEEURQk49+SPzOYe6qwxi2gT/vnvuYVjJaUGcs5vz1kRgOGNQbLJB+i1P/QSqeq7jCag259aZtidbnpVFHMKAYo0gGKvAuDuiXkAWmNEUmF2IFApIqIkSQI08gXM2QrXVmTeLjCTSkQURHUn4U1+1F4Oz8Jq3k3MqdJehJc6WBQGxTh6FiqtVakmLc5+d/2BOGtBuTo/n1ds0CESFT9kHeQxDW2Up144wJeePkNeK6JX/+VR+FIz7sJCtipm88BrJjzrEuz3eqNuQW8vrCGLAW8agUXVtqYW+0g7Pfw5C8dx7237VvPRxlo+J1sUTpz7jyG6QAuaphvhXi9tQwTMf7Bpz4BjzXPcvUevTgZe+p8ZVrp+XVmaRmvnD6H9iDHuaUWkkEXn/vEIzi6f1brebNHujR42k6w6e2HDrG+lZ50Jm8G5oMYry32MUgdxKYNL08w6ebYv6MmsP1qLxL9gChnVwONmEomt3rWhP89M8HsuIWZuo8KWc8AloIcJ1eGSPg9orS3MZveGZ6z+VrX69RZipm6idnxCi6uDNAmTCqB4FKkSY2zWh7j6A5fEt0XlwaIDRd+nsHPL8IpWqjlr2EGz2K89xysuXPwUvbdc8AG4imfTuyFdcsHkJsryLMFmGlXOA+ZOw1UPwK7/hkY7lHA8retRqmWy41xmVCsrAC+/v0XcOr8kiBFvBdsVfZ9BxXPhs2OhrJGv2l3pMjIUZQJcZUWzJLw5THyoA8kTBiGMDh+JicwNj6GpZVVDEKlvlqeS/n0ZPEmkNuoYaLZELnk1XYHQZQpe+YtShzr72Upy3FE8CggkY6Zz1sFayNH1fcwNT6GNE6wuLKmylySuLPlmRoPBjzLxMzUpOhnMDlhlxY3CIFwKhIl10wxNteWbqQHjt2F++6+U9AFpa1wndv53v60fstXSh2+4LOpKTdTlgNzkhhDFL0XEZz9BtLlH8AbnpTWXj7/lHbKQjon94fXlcCa9mDMuCjiVZhhT4+sS2687EAUIpjxHpt1GGYDhhAANZRz6bO9HBgswXhzYiAkZpZOKKWcMyngWqJbO2Ujq0TXKINOPoFJNzXKpNfGUZyLkfZoEV86S+oW2EJtelM6F1cPw9r5KLy9v4aichgGW6k0X0HZiSvhKC0Kf52e0LV9zA2dIGxaX3UE4G6DymaqAQxYWF3BS6fOYm2Q4PWzF3H00F48+ehDcEWumIG63GVTxtiQBSoIE5w6cRKDQQ9+cwzVyhjmV5ZwfrUjrXZUVnvyow/gnsN7JJkoexIIk584dRb9MMJ4ncZeJuZWBzjf78CxMvy9TzwGhwv/ZdI+JgUxRXcMIApCvPDci+gOA9Qmd+DMUgfnFlsws0jO/+j+XbLAvmPE7NrGxTt6l5KJ5uLOboUcLy92MT+gFbMv7at1Bzg020CeFZgXPoKq5ElHsRBySGojF0DtvGBFONCs4nC9Ig6MgQlcDFMsdmP0e1pch6qY67uGzZyOd3Qxetlhlwkfq49YtBkGlH0eGqA+wlYLB++Bn4XYW3MwNlXHc3MD9BMLbuHAjW1kboTICeEUGXYMTmHn4r/HZP+bqKQdmBY9ATJkxRiMQ38Hzt2/rngJ8UkUw5cQDX+K1DgN0zgMf/IfwWo+quyltwlJKJsYeNeZyDNpOnluEV/9wbMIqFNJAxNp1yAXRJE/VesjOQCq41+5M7Jlkb4k7A7REunM3uMAWdhDFsfIkgi+a2HXrhkMwxDLay0RWdq6D151pOzaMS1pzMryiqBTqeb8XO52cYFQHQwq+xEJdWk9Hk2FLhlVshum30JVbKfp5TIcRugNh4I6lG2d/JTJsXFRUxSJBs15YKcESySdTldZTpPaR5E4z8Lxe47gwfuVMuqN6wDJG5WgYLcRcbXcgBV2EJ7/10jO/gkqwRKMYk2krQ3UkRVVQQ5MUONACd+RhF5UMzj7x1BkHRhhV5WWLn1QsutTpEQ++yxnmcODSU8fURMtx4PakavV+q06HHi/NUuK5yCCSKkkokKMl7iiBZNEEEolCBkVEqXBzIXhjQNuHekbfRSR9nDQqpoK6WWrJPktTPBDBGYVmX0fGoc+B/O2DyEz9iEzWFojw47FSiZH/M6xbcWEb5oEYXQ60uo3iBOcO38Oq60WrNoYziy1cWFhDUf2zeDxDxyDxxIDEQQB/bjIkz9vy67zldfOw8qGmKp70rrEYL+42sLyMMbyMBV/g8cfuhfHbtkrbXZlPtcexvjRsy+jPjmDihWh2w6w0gvRigJUbeALH/8IXJFvvMySlBsIjRznV1dx9vRZNBySlGpYG4Y4vdzBUj+CkYT45UeO4Y69u1RL3oh63HYtAFe/wKpuE7YCXezFeHG+jQHoVeCgUvSxe+eY7JIW14YIMkJqriR9kohRYESmkyojUbJ1ppbglpkJSb46/QznWn2siKwr5ZiVsqKsP5tO9HrutLQLG6udeYypGhnZDlZ6Egq3vD3UaHCKGI08weH9U7i42kd3EKHIDPTtDFZCJT8PERUXjQhj8Rom23+F2dYXMd6fk1onH31YmYJ73z+Ds+8xIVQyOFlFCCM6iyhagOHsh1u9XfVqb3uCwOCqgnYviPDdZ18TJcWU5RGDCQyfq6Lu0dhn861TD7Ek2sp+gAt1FqOIBkASS1siSzmszTeadVycXxBC6tYdQAohaFR8jE+MYW2tJUiA9Kdr067LjWtRH2WpcF2um1LIRC0vPxN45gQOmdROT4xjvFEVHxluRtY6fURZilQY8crIRzxarEKIkxXfkx9qNyRJjKW1LgYUOEEurbnjVQePfvABMXgSbYcb8OCt4bJIyN1I5pAvfwvBK1+H03sOptFGwhKuyY4GKoS6wjng/GYrIccGoV4KxkVWiMpheowMUQQdIIthipeB4hfIOJeyBccPLe/5rKSwoYJAzpZa/n30h5lYuaXc6uZtLP4sFcvnskOJHRJ6g7CBMmwkiURJVJeKD9MbF0v4+I2OlE3UXkXhmJzHqcV4ZcISdUm2bSZy7XHhoRh/DLVbnoQ19TByj1buvBfq+pTh2vYdN12CwJ0l2ecn3zgrDFO/UgEX7nMrHSy0u7ht7zQ+/uDdIp+rxCq0g2SRSU30+8+elIx1dqKKBteWPEO7F4q86tIgxPKAEq0JPvHg3Th6YJdqpiTfgZ713SG+8dSzSKyKtDz1gxg9MqqTGLvGqvj8xz8gj/NydSMqHp5ZXsL5pSU0/Aom3AriJMZyt4+5ToiVAR0EU3z8wffhttkdkiBcb4Gw92KoqZY2gnQmnj/XwoUh26JcWJmJHbUMzTEfS+1QyKgphYck41esAfW8mG2TTJjBLVIc311F4Vg434mw2IuQaGaz1AF1yeZNJcfrBsUq4pUEQJKp8hR1FwI/t4cbMryX3lcRcSoKeEmMw7M11H1GCdWNspoXYm8+7HPHzFqmjdjKUUm72NP6CvYs/r9oZBdgI0CWu0ib++Hd97soZj6K1KrBNjhOdLugDLbt1b0YCZnru2zetYutPn7w7Gs4fXFZHDFZblBrbCm3t3HXZKgLtpqI+FGWKLlkSihTUZLyySwR0HVzx45JITyutDswaLe7NYgj57Jrakw6GtbaXf2tWgFR18+3mg9vVUm4XI7AOrRsVJFLO+PO6QnR0KB+QpLmWG63JVbIkiHttLKaKn6CTppYoqjXajBtFyutrrROkpdB5GB2qoFPf+pj2DnBHaU6tish3Oqe8XJYXnLCPsLTX0Ry5l/ADy/CyStKe0IWxETV5nNbPFBYli0M6WESZVzO/9SKYe2uwWgAadiCxQSBi7bmprEEJ8jquu5BOfrKp6aD5nqpoZwnJYlxi7PX5Wqtu7pRcpAEYfRzR9+ryhIi029XYTkTSDsZ8sVoney8Xr3QYmdUnKQEtUnRpaymJKnNniBUQfVO2Hf8E/j7fxWZTblqiYLb2L+gx1ixlZ/ye7GKXON38Fm+ev4izsyvYOf4mGTtq50e5jt9tIIIt+yaxGMPvO9NCQJzvRdPzeGF189i356dmKqqQRpGGXpBil4QYGUYY23Itp0Mj91/BEcO7FJ5qRAPCwzjHH/5vZ/gpdPzcP2G9KgnaQIrifArHzqO++88IOI5W23kGBiYgDz1zHNCUpqpN0X1rxsNsDoIsdSNsNQPUXMMPPb+ozg0M6k4rNtMUrmWxyR8EcNALwWeOrmMrixgFpy0wIE9NbT7kZgiibZB6c+hu1LEK527LPZTU1ym6eLoDg9nVoa4MMgRGGQsG3Dp8sbqrpbSlZLkSN2vJAldy/lvfs9GgsBkxqYDpJGJI2GQktG8FXRZunEymBmoOTEabizte6ZZRc220LBysaw+2c6wlJCcR4ObDONxiH1rv4/ptd/DeH4edu4AmYdw7CH4x38XIAta2hvJIve0OdONM0jKBZRnRDi/1Q/w/Ktn8cqZefXMRWZZJYHlsUEUZDWhh0LEj1hqyBSKILt5hUr5roOZHVNYbbWFe8SkTdQvt+w4KrBv1xSWV1sIyG6W9kr+v3pml0Ue3qJevfWvCmHjq752XjndKE3UfBtj1aogA1FRiCV1b0j9C4V6qRxWI2csv+iyBjsdqAEzv9JCmGSi4eBbBe6/63b86mMfWA8JN1KCwALfACG8OEH0xpcQnv2/UI3nYSdU/2QUTWBYkW4bZ2Qj9kZEgUm2JVLDbC9OzBiYdmFP+8jSHoyop4yfBF0k6ZNaL6WYVjmC9FNZnwblX94OS3GUfzD6vkuf9Ci/ST834ZtZQlC00ECyMAR6ijlQxiNJ5AQAEZKBqL/Spl0s4pjpUPOh8BFWbkH1tr+L2v7HUVh1nZjwPm3v3L7pEARmWz948VWcXelg1/QU0mEfncEAK/0BhyDu2DmNjz90TGq7rEWVCAJ5tF/7/s+xtNbGXbfvh89BR8h6mCGIgX4USoJBkx56xD967A4cPbRHQ92E+llDp+JjG//uq9/BwlKHEn0y0I/fcRifefSDok0ga7r0rqpBpPMwCUk/ef0sTr5+Bod378a47aDIcqwEPRHraQ1TrPZCjNd8fOTY7Ti8c0rpsW8TbPxOFlY+o6QwcKEd4rkLXcQOM+YcDdtBnRoEvRAJdQm0SYvSKlBKSlzYpbWT+4oiw8HZprjEXVjoI4IniIOaMkR1FPFU1fh0qVD/WZLg3sl1lO9VrGmFdvC82IFBHlNuehrzePO3KEtzaj2w1S+WMgL1ElKzAi8PUTECTNQsNOp1zC300Q0piFRBZg+xMzmDW+e/hMm1p1DkS3DNAKnpozjyBVSP/DYKY4cIOTHYiJrd9bjI6/AZl4Zaqp5y3SYPZb4zxGvnFzG/0kGX/glklsqhnDYpgcwyQJ4EMLMYeab0PzgmPM+DR2dE1xG7dSYDS6urCCmzLpyVLTWXZPHZNd1UhEHZqWoTJdm1b8gaX3rpo8F99HfKlniLZ00GiHRVmSIbrIw0VcJXtYCJZh2N8Qn0oxgXl1aRpuV3j94xVWDhN1ATZLxRg+U3Mbe0qqzrLaDhmvitz38KO3dM6a6G0sn2Ojy8d/wRBXLqHFD0J+0gT+dgBGvIh8uI40XkySqMYAFG0IYddGGE1E2YV8luYcOiQRtt780YUS2HP1uH4cQohm0YWaC4Gozn7HgQsSY9dtZri2qHsNFBViYN+s/11196oSX5tOQraMRBQq9KTPTWY/2N6hMLUfUtbAeojAGhh+jiAHasLMnLyjD5NIZtoXAnkLu7UPi7kFeaMGtNGO5OWNYuGFTy9A/C9HfAcBpi5ibfKxDy9paUbroEIcsLPPXySXz/hVdh+01Q7SpNE6ThQODoj91zG+67+6ieQBuhMyyAf//XP8RCa4hbD+0Fy8gxVfSiDEkUoZemaEeRMI3zXhtPPvoIbtm9UxCK8iin8zCM8eyJ02i3W9i/Zxa3HtwLT8x7iDRQQYtZrlJ1VCxm6Q7GXz53EufPn8fh3btQJ/ehP5SgQWSC+v1xGGCs4uLDx9+HQ7NTsAlJye57e7PIq40dDGhMyH5+foAL1CaXG5eiOVaX8pBewy/5WIXSKHFkshVSSeLuODiGV+ZiRDFrgyVEvfUnvK3zlDgiWMPIy9XfRTitRDIu2ZGWHhCbl4jLrEybTqQkt5VSvMrgRcYGAz9rzM0aFld6SHIXfpIgKWxMTbbwwUaIdPk7CBa/g6IXoXrwl1C/7XPIqZvAam4JjV63csrbuoPX9CIOAaVcSEEjqg+SCKasu/tRgj/5yrdw7uKSdAsoq+dcXDknxhuo19ilYSKODXHk7A166Gu3RVXuvRzSRpGmGvo99tNvBRVvPa8uN9suByzoMyiXjUuyFYWG7ZpqSjfFymoLa3SrNdxLVF83vlViB4XApqbRHwwxHJC0Sn0ICx84dhc++ZHjkjyT61EmyNsdIXhvKAxOiWGWB2EOVRmgqCn+ALtvDNb1STo9Daz+O6D9J0h7feSrMeyhIygCG5YNN4Oxw4M5QVntDhD3YVD2WBxYLdjrranXNBTfxpsuV1bQb5WcgeXNDHArsKwxpKsF8lUSGy1tuFSIAJI1MQ40feSTj8CY/jRM9xal4cACAg3lqDDpcHUQ7Fm36qrk59Io9TZO/Lq/5KZJEEp1Mz6bM8st/Om3f4L5lS5M1xPhE9bup+sefuvTHxMm8aU67hTr+fNvPYWX59bg12oYq7oykGk5S2XCfpIKitCs+RgsXsA//sKTUu+7dHcmC4jupJAnqBccIt0MgEKAoga39mYrEwTul/76hVN4+rkXMT4+Ab9SkzprliUIUzKYA9RdF14e4bNPfBS7xukepnahN1uCwIAQGsCPTnaxHKkFkhCxV/HF82DLQzgjbAijABDz5gw+ZYunqzizpGq3oyp31zwT3pQgbIR9cRLcArG57ObjGk9iQ+RLtb7SwVNY7OkQfmZJouBU+/jIjI/ZqkmKP1AEoItNQVEVEYTSULlsV0sy1TWe0Da8TUiA9OTIMnzvx8/iOz/6mbhASjshcjQadfkhaS+g7wI1Cwo65Kl2Y2ocCL/8ClU4dkmk4iipg+57vJLyGrlFYC19144piQ0Lqx3h5yitvTenHcLJy0lgtFCpVNHpduRlNGnbNdHEP/jCp9Ggn/k6QnpjRAjpIirLfLKFVhReJoIFdXLzeeThj5F2vgY7eAl2MhT0qFiJUCwGNCRRqBiFhWqAvYtKnAHyuKO3WJq/8Rbtqe/VUJaE17ZgulVBD5LFFOaQiKEJm+q3VgJr3zgwrtwoU7OK3D4Ku/lxWNWPoLAPKlSriOBQbnndfIpJFa9Cx/33eLxeev9umgRh9MRp7PPS6Qt4+tkTWFhalqC+b3YGD99/F47s27lljY4L+zOvnsEXv/W0QDw04vFYvqRYaEphnkTYpQ3XQjUN8du/8RlUHQ1flonjes82Z3BpxatY9wxUVFqjhOpYo4FGlYI3JKGsSxnh1PwKvviX30Ro0bmvpoxsCu6OY1Fnm6h4mHIN/AdPPi7QpLTY3Ai+Clc764ockWHgeydaWE1sqTmT0W05FDPaeh8mdUVNBGQyQDTGQoqqR0b8esH2as/kza8XtcTRHcIGFMnFROreujJcxqHrniCoLxjdjsjOIUAEi0JJBtktHu4dt3Fk1lU7bzKg2VZlaN6+kLC0atxNVoYqURrOm1PnLuLPvvZtLHcGoixIDImCRiwpsOuAfgpq90+2+sbjVJCz3pyWKfQWQ2tDQrl873sbcfVmU8omFc9Fo9nEWncg3ILLlYaU9r9Cs0jCjkSHQQlOjVU8/ObnPon9uyYEVblREAQ1aThOWUrj2bsiICTeMEUXafAcsv6fwAieghX3RRiJiYC0DHapPthFQU6P7mTJrQTmpAd70kGWd5GlARzel7Kn9p1Hgmv+BCKdJEdbDoWxqkhbOfK1HHbqITESuFRwo6724Qkk9Qw2+VQ8bytHxlKh/zDM+meA+gPIrBockiFN3ejNv0sbJ1EYvml7Ccg3ZYIguWleiNIaddcZbWvVqsiokuiz5ZGn6IYp/vVXfohXLizC8RxpMWKNSDLxNEGFhb6wj7/zxKNim8xMfmv0thAjETF84a7HsMQB7sc/ewHt1VU89siDUndk6qAsXNU5UV3ty999Gk+9fBaJU5FyhpnR0CRT9rRRgC/8ymM4elDpL8ggEYb/zXYMDhz6AAAgAElEQVTkCAsD3311FWupJ34aNM8xLBu2TeOpN+/UCatKjOE9FQVMqeiKfGtBGO46lVlUeqBRjXUfEBoKubBtE8NhuC6lWvZQv90EYd397yohUIVaFAjTFGZCSLYFE+M4WBvivoMR4LJF1IWtyVxKVMaQOMLjRuEgXM0oJYLAOfON7/0ETz3zCiLyCQhPWzkch4ZLuV5omHyrvbYWxh6l9myQwS6P/7+t0yrRqbeSOnhbH/SmF6lnq9w/gWq9JoJIlGzemtGweaSXPgzUiODf656Lz3/qo3jfrft0gnADSaVQNVA6FViDd0TjoMhOIW1/FXn3m3DIS0iVgFJus2OhgJ1YyJYHyFYGMOiQKBbovDX0Isnh7m4g92JkWV/I4KJWeplNxrU9n6t8l5QWyA9wYFkN5IGDeHEIO3Jh5zZiI5MEIbMTFPsdZNO2WFbT9p0aMDAj5IWDlJbP9cdgNT8Dwz4MmMpvplxwlGw1L3Z7Z/dNmSDIxKKJhqy7usarof/LLqi0eM2ApTjB733py7hw8SIMuyIQEbsWHLMQDYKPPfIwfumhu2WQKuWyrRMOEueYKZMlMLfaxVe++QOcu7CAI4f34rOPfxiNSgWWTnfXJX9RYK0f4s+/+SM8/+ppEdkhK5v2qRXHwmef+BjuvX2/bq0se7fe2x3PVU6XrV9epIgME98/2cZCYMLxfAzDQERUKg6bd7Y+yoq+xAd5kZokakG8PsdG81DZapeLFgb19A2zQBwlCEMyKLg91YmJ1LmvvAKNlkDeujloc3VR1HhJ7IyGQFaHUQSwnBiTxss4vquLiYnHxN0U7GiQZEn0bJEZrPPSHpsQ5c01Tuh/sNjq4Utf+TZev7CskgHxQzAYK9U6Tc6JoAoqIWIBisfo3buea8W755yooXcKAjvcEdNO+q2EezaPdeUFkYqoVMWx8eRjH8CDd98qd0I5E6i7s91jYF3aQmLzMor4hxiu/DHs5GVxb6T0cmoOZRedGmOwq1W4rTbC18/BogqdJhna3DwXVFrMYTTpR+KhsAIg6cPIFIdpuw4+CxITDasCw2givjgQ2wkrYyeGIrNznuZmhshLUL/7PiTWXsRif70CKwVs66Jqb8xrMMx9wPRvwa4+ChSzkjgRhSF3Q9oct3la36QJggrYm4KDZhhfti1Eap4GUsNAtz/AT3/2LE6cvohuTKuPBFPjdTxw7G7cccs+0W4vYb6tpE05FYMsl/bKE6+fx4unzopnwHKrg/tv34/PPPaQWAurfc8GhalsiaMX/Otn53Dy9HmRk52emsDR2w5imnr10teuoIvtn/LXOA11gvDsxQCvLUXwajWEYr+biTKcRQGrS1CEkiGu8wK93JVLwdsPplc6400JAi2dXVMSBGUlq6RsqeaXJLlIcKsVaZQ89NbfQAMf7vToKXH5oxwZG6/g/cjjUIRTbNOFZXcwmf8Ux5zvYmbPkzDrD47UKRk4WKvkdxCO3F4Y8kr3fKvfc/6+emYO/99ffBPLvVg6hERoyKYss0r6N1wfFSs8U2YX66hB2W2wkVBey5mo95AHwu9kqe/dOzYk00dbO6/0fWJyRUKrq+yzP/uJD+Khu2+XObKRIFzpU97930sfR95FEb6AovstxO3vwbE6gOEhp++AO4XCvgeucxscdwLZoIPkZ/8TzM6iIPLEjFKLzq4kM7IjxJC2R2/ahTXGxXeIJB3Cybeh+Y8xgMggu6xEp6CGeDVB2qZ7q5LBJuJL5DcyPFVeyWykldvhfuifwmoeRJbOIQlPII/mYMQLsNJ5GFkbGSowKg/AnnwCln8vYNADSNlp/y2CcA3jdvNeTlkci6KWZkrTdpWiK+wnXq82y8uUvnVpJ9QLY3SHoTgI1qoVCRL8repcUH3T6h0KA6BUMxGDtW4fZy8u4szcPCh4lhg2zswvodMb4OGjh/HpD92PmkdWriI0lucr6lyKsqcTALUD4H+WWmBKAEQNjJs1QaAQdlKYuNjL8NSpFoxGU6457gciMOR6ruyI1D6xLC1o1ID3orQPVsuB/EKem5Y7paodF2LWZUVzQe8pR3m/JWqzPrzka5RGhexJLQOOY8uOjrvZQb8P07JlHJAAx4WCizw7ZNQu9nKpvPqNOicLDpEIAyKzy3OT0VOiW/pk1vvvZZFXYyFNMhRJhsSw4FZqMPIAu4zzuKf+MzTqU/DGP65BavWZytjlTR1Y1zCbtuct5FU8++ob+KM//wb6oiehbJkdzkEmCNpzZdQvQSDY9d2yniaXzDH1r1dGe/TIks/jWCCCxCOOI2R0Edp0lInqxnh9813bjApt/H4juS2jT4kYXfHOc9EUv4ZUkk6eo50l+MKvfRz33n5AIgTj3iir5oqf+S6+IC9SZOFPEbb+HHZ2Bq45Dsu+E7l7APBmYXq7kFnTMFgb6zyP3nP/B5ylH8ErKIZFPoWrymbGUGlVFCT9sVMghTVpwhyjWFkAM2G3wMYTVFFU61xcNZJWPh/N51lfHziMVNJYmMraWsSLLBcoKsg6JqK1DLaUDspNnZKMTiz6hxRwGEPsKoZ7Hkfj3n8Co3qLMh7LQyBdRZHMoUhfBaLXEaYRUmMfapOfguXeodT2ZAf8t0qK72DIqglLPoJ0CxgGTl9cwTMvPo87bz2Euw4fUmJlFO8aiaUb01/owiM79o1FmYOOHQlMCuhpz8ATxCleO3sBFxZWZXGqNZoIMuDs/CLW+kN0BkM8eMdB/OoH7xMosGQPlL2524wWvYP7fHVvzakbUJhivvTtl1fRcT34vo+ow1Y+A9U6u0wgDHXhGJTW3UL4UHdJGaYotTgGD1kwzFx4Aq6nDG1Yp6bZDdvmlDSu5hdo9GVTcqBvPmVbSVB1HFckWQn1sg2OQZjvJ0GuWvVF3p+JQ5Ynon4oLfkiH12erz438pH4rC1LkhaligIxHIqj0rVw85MvxXRUlCtgmY4oK7IGllMUZ3wcSa+Hg5UE9++z4ZsDmPbObe+JvrpR8NavTosCTz9/An/8lW8hMT3ECXkpgEPLZbo+bnmUpSbZCmj9AyZ7tMjm81Hclitpv0nZUI85ZdnM56dEr/hDQzYpAUieMbpwvM0EQUs0yzhe57lc3d2TiCPkXnpUJJJU80wqRYz/+O9+Bof3zCiOk0wS1f673fGFZdc8PYs8mYOFGgxjJwx3XHfdsG7Ee5yhCE8heOH/gXXuT2EWyiFRgUMUAFN6EkIf1x1HmZEi9RPYUyasJp/dEPkIQqdep+maW1nplrDklo+gRIwoY671B0r/BZb0DBILadZEd1C2pjrIOgWSVQNmUoGVm2JDL7035LJZgQggmck4nMyCYbURmjPArb8B787fhOlMo7B4zXrhN0IgocrnErI8hG3tgWHOKsEtnfxd3ci5vq++aUsMavKphZ8BYTAI8cJLr+LkYhut3hp+6aFjOHbr4U0JQhleNiUI67vYDXtglZsyWCgpXeoadPoBXnjphOww6tUqms0morQQ5GClH2J1EKEXhHj/bXvxqYfvQcWy1zUU/qYlCNLSBANhYeP5C12cbIWojU/AyAwxo+ECUK9XZZGPokh261LKkXYoXWNm94cS5AfyWN7juK4E8/W6nDgfKqOfLGWyQPteZRjExKOMmPxsvt/iM5ESgNrtJXEm44a795ysatklkLDooFbzYTuc/GIwqGgvIvyjPlcIiQTBKfhE+DsjxyVVQj4kWrLdO8rFtEchFyOLG/XnpcMF8FwfaVpgOCA5MoNb8+FWq4jWWrh9wsI9e+twGUToF7/NhKXrGXqYIPz0hVfxpS9/E7lbwzCigmkh95s75a35ABslJzUGlEcCURuxb5e2Yda/9QzftMCrf1YJHjdohbQNMlHkEdPKOcskkWXQENtxLkKbJJnfagnejFqohEONmWs6xMFVnReT5WqlijgKsaNq4R///S9gqlFRioI3UILApd2gXB0XWgUFSC1edeVQCMmGGa8gPvUvkZz4fVRC4gOu+C4YRijvUxbHtMHmw2InhMJcEytG6sbwJm1YY2xbpZhWpOaj+LGokq7GZLe45Zd7DiMwnFY7VChuhpREQZYUQBMlH8g9pL0MUSuGGbuw8ooasyavj6fpwMpsJF5fUGWiCw7J7IWPgTcD957/At7BzyP16DHDa1Vuw2IrId4LGjXheVhqtl8/9tU1jUJe35Yapdf2ae/hu8rkIEpTzC+uYH5+SeCfE0s9dDprePShe3D3gVmRQF1X7LtMjj1a4VYhSK0IvDPk1syv9nDijbNiuTpRdVD3aPhiSz/zSi/AWpiiFaYiAnT3gRk88eBdf6MRBCYIvINJ4WApSPHzN1YQOzX4zTqSIMag35PdO0VsuOBLcKe0LslbuUrMBLa3LCkV2U4hO3Q6tamga4iHBc17uONnkNcK+/q5laNDx88SmtYLRJYVQkQMhgy+8k06LdG7CXZQUAPfc+D7niQVan0fgZr1QsMFII5pyhOIHgdNhFgrFl8BnTgwceHis050JCpimnBsVxaQbpee8yRGW2hMVAVNsPo93L9/DPsmfFA+xhSewXbvEa/fBKfuA11Y/+2f/ZUoSHIeM/kmP4X37/IJgpqbZYJgO+yM2XCy5Dgqa/brrLeR02byxtcLGZLJXQ4kaYYwUCUh13HhV/h7S5I4WaBFKlchQ5d9BpoQpT6fpSuiGkxaUiX+dDVhli10Nr8/RzgM4Lk0lXMQDgZ46K7D+NyvPg5HunzKJHi7l5HyBpNGGiKjxwKoOsruG+WySpstpwiBC99A+NN/gWp4WhZcO49QWAOkVorEcMWnQMoL0vaXy4JLDxdRsrUTJFYEZ8KG3SD1JpTmYJX00QNRcceu/hidVwrVYxdVamcwxUOmiiLxkXVyRJ1EDOKMnEkJeQKplpAWYQRYkQtYbM3lXoObmQKxScQAiPyj8D/438KeOq43RFRWJT235NzwzDWKgUCXjvxtnfc3ZYIgA0LUvYFXz5xHbxCIK2Kn28frawHCoI8PH7sdR/fsVMzSUtJ3JMCK2IqmQvFzpORDgyCF7MhDIbH27PwyTr5xDl6liskmdfSZC6cYBLkqKwSJJAetIMEwyXFk7xQ+cfwoqi61xdVQ/ZuGIJSmJ/RZYAnm1HwHJ1dDoDmGmucJahAMAwmAlUpFFnjbUTXoklGweReodukM5iwnhUEsO3N5hoSlHQee68gCu44QbOIxkAVO5jh3hRmiiMY/nJiEFcsEgU+q3JGpz+X5yULORUiShI1ALKRCqQ+XZQcVWLjokMfARYbWxuWutXy96orhrtWQxGIwCOS8uAuuVKswbAPd1RXsqdg4fmgKdcYgsSz/xUkOZE4UmfipkIOwOkhgOi4GPVrcFrAdIkXkhuhkUZcNyqRAJQ80zLLW0YZyMVYcEGMd7RF3SX1Iucqk66UqBVHemeOInStqM64SQMc1pe2VfAhiiCw7CN+FbXzlnNbjS4cKlXBIjVocVDbGiiSJuaBkTIpUoqE/ZJSirj9PEmHya/IMQRDANi3UKlWxwqZh1W//xq/h0L7d4k9BI6cbioii67jKJUUtewqJZTt5AnSfQv/pf47q6isibBc7Eay4gcRNkTp1FP5BOB4Jfq/CdrvIwwJ5Nxf5YvF3Fbg/Q0T+ULWA3cxhVthuPiS9VJtgmfIsBUHcNGeuMH80IsXxIt0zYsJkwcgcFEMbabdA2id1kAJ7qozF3+e0bG8aMBxqqNhIjIPIQgdmfwVu3IJJRFM40DliK0Nr+l7svP+/g924G4WZIqe6pJwp/5+bACYePPdYtzxurwjaTZogKA3+udUWnn35Nczu2SemLp1WB+c7Q+RphEfuuR13zCrRJMI4HLIblTpD7VTZ1ZBlOHNxCQf27pIOAr5Gbf4MLHYD/PSFk8jiEHt3TaPhk1egFprOMBHEgD4K7WGEtUEI2C5un53Ao/cdQcXWCcKIPvgvVoi/Up7O0Krgm16Q4ZnzLZyPgXqjCt8jrJ4hDENEIr3MHRMXYkK+KsCX/d/MBNlRwOfEMoIEWq3xr5sg13eUlt4Vch1XhtE6QZOyg0InmGCUJMHNu9TRnYcKAGWLa7kgXdrGqKoNDFwKvygtYQV9cE1UPFUWUYuIqnvL1I8VgsEEgYuP7zM5cGGYNvr9ARC08f79Uzgsapo5CtY0t1kw5UpP+2p/n1OXJMqkxPDCyXOoN8cRhoGIAnFuE+onkqCIqNpciSRfSprzx1JEVZXIGQiCSBZRIYo6jvyoMVSSfqWqrdpJBWXQ/JWMEHgpsa2uQnaiutQhxEBq6Ws1UEluLik1yfeQyCrolko6+NA5zqUjQycG/AxJejgeBZreHBF47vxiaoaEUSjn26jWZFcc9Ic4esct+M0nHxPTL2kJXU9Yy7G7zRFG4ew60dYdNqDZGOkFLax9739EdeXPYBchQjSR+FXYE3vgjD8Ao3YnnGaOrP91mNG3YGIAI60jWghQtAs45AOo7ZZqiTULFE4Gs57DrmcwfN5zEgB1AnYJMXjEpOGSoVrqzegEkeURgwm8C4Q20n6GrE8LaxsF/SK0jD5fLWTEKcCdsUUEifbtKbuNvCeQDxyg9zLy5ZeRdM8BCZO9AQInhLnndzB+7D9DLkT20luG2i+6xFqGkhKwvNrJdR1ff1MmCJxwHH4/e+lVnJpbkgRh2B+IZvnKIBCFxI8cO4JbZ3eNJAiqBUVhxQZSCi0NAnz7u99HlBv4zK98Ag7bVPSWgPpJz5yaw4unzmN2ooIDO8aUjrhhSr2UznT9kHbPMbpBhNZgKOzzQ9NNfOz+u+A7f4MRhHXkhEYslLK2MBdm+PG5ZQQ5UKs34fusqUMIWIRhw5BQrBrZl2pPcGHfIJ+pIKggWwZyogASenWioBO8kVao0VihkgNNJhRCIb9UE1UvqfqJA5s+yr2aSh2Vvq9acHRXipb/XYe/tTsfgz6Rh/KTFPFRbbWInPgVdnUwMGQYDmJEgwD7Jh0c29NEQ8RSaErFP0etZ69jBNimj+L1xrmJHz77Mr7yzR8RDhAofTgcIqTvBiBJAn+EgCxb/JK4qjaHRCF4hEGCMOIOcuNiJMm0TFisMeqbrxAJxRcpchFA1l0kmrNSfr62+RWxGpN96xZcCqtJKaNcptSXlQ13ccxyRCw8iPI0LNOC5ztwGQssS7fJbYzfN43zlPMgRJwmUqYg78CiB8VwCM+28R/++qdx2+5J3eUzOk9ujASBVD1JrkrSjpDDKRhfSFdD+9v/HMbaKVjTO+DMPgB34sMwmhMwjRnACjEY/D6i5X+DZtaFmSdy75OFDPFyCCfzYeacR+SpEPGxkJkOMi7MbgSnkcGp5YBTzuXS8VGXYTYhiqODnuNDCdqVXIY8NhEPChgdGk8ZMOmvwFZGIgsm+QNq3g+tISp7K7CnmMSTa8TSmAtj4r8EJj4v/AszWUXRnke6/ByKpW8jXnoD5t5PovaBf4rMpiCeSkb5BCnARCSEc54bAm5Xt6Ghc1NEuCkTBAYL3sbn3riAr//wWVTGpuUBE7qmh/qhiRoef/Ao9u0c13oJ2uRHE86CJMPpuWV89+lncH5+EceP3IHPPvEBWFTv4sM3TTEH+v7zJ3Dy4jLuPLAbk75a8BnUusMYURHJa2jcxP+m4YxfreLAWAWffPAeOJqJfSNZsm7PWqBgWbJyV7oBfni+h25qwK/XhT/A+rqta5YxFcbYkUAC34iE5btbYd2MHLz79ygXEy7puzccCaCMp8MgRtrrYLZh457DE2iYtOkq2TE3wFbiet8YQXKA9iDAH3zpz3BybgmV8SkJwnEYyVyWtjLbhudXhJsgfozlAq3Fg8IwElVCMsjfXH2+Uj26TNtKyL/skLzk38skUbgpbGlVWheyV2bpSlCBN+/epXhV5FKeIhrCZy4ogT7YCswjTWOkcYwsTSQR9l0mFj5yy5V2WSsN8PgHj+GXHjwGT5Mqr/fjeDc/T6XDAxjoANkYClXPhcHaPtG3PEExfBrhyn8DJz4BO55Ebg+E1ByftmEMW8gMRwjnblJXokmaziwoIl1dubjaMaxKAatiAV6h3CAtmloxnrCjSLYWKq0rM34mipRGpoNi7CIfmMiGNFJyYWcmMisSwSZaMps5dShi0LR36FmIrFWMjU8h30Ok7xysbCdSK0HmHIQz/V8DjQ8hNW04AlKQl6BUf8U7xaATrGqrLw81CsvEU6Wf233clAkC81KyoHsp8G++9DUsrHXF2UxILaaJB24/iMcfPoaKp5tfClr/FBimCVbW2iJudH65hbUgxoWFBTzx/vvwKx85phIEnb9RB/4bP30Bry91cHjvTkzVPHHfDEKWFmIkRSo7Hf70hxGSvEC1WsMtU3U88eDdch5/mxzo3ZauuXIyLwcZTl3sYKGfIjJdeI06mEt5bGHU0tSjU0O4JtzobfdMuU7fz3uQ05CKWQFhqizFcEBJ2gy7Gy7umK1i3LfgigW2EmYp++ev0yncGB8ju0x2CAEvv3EWf/TnX0MnTFFvNGXuCF+E6FLGMkzZUkqIV1OIabRGJEC4RGUC9W4G1A1ipKQ2mrio5vjlvp/XuMGrudRAjvGKvARR7mWbrE1FT1dxEIRIG8DMMxx/3x14/MMPYqJG9b538xrfnaGhEoRMLZIFEx/utql9UEVK/5HoDcSL/zus3lOwzUVkZorUvBO2eRzRM38FN+nQug0wB3CYIJRjQJf1cukAUA6pVNjlLt9wmCDoHzGILZE/nRmQQ6TRzSKm1H6BIqVDKlsuSXbkn+SglNxUvXBzXlIm3CWKEMGtHQHueQRJ+hS87FVYsYuYSULjQ/Cm/3sU3iFYoJy+p4huN9lxcyYIspDnzOVw+uIyfvzzF7C4tCykpVsO7MXDdx/BzFhdICoqJxKJXFpbw9mLc1ht9cUVrx1mOLu4grVuFx+/5wie+OD7YAuCQM6CBe5Mvvb0C3j+wgomGjVM1SuisKiCVi4JAc2ZwjgTNj0nOL0djh3chcfuv0tBYSOktptsXLw7pytOfBmGCXC+HeJcO8HKMBPpUrLRSxXC0UB6WWTw3TnDd/1TGWYiEqGIklBbPg5QdQzMTjWwb7KCMZdsb50cSKb0i5kgCBlMeseBKCvwzCuv4Svf/L4gca5fVeqWwk5XiJKUBqQ+LPJAaiOm4y1Fo9Rf380AvJGiloJrG2Wncthc+v1kw48kt5veUMAyVPLDjh7hsZjs6AGotJpEIcy4jw/dfzc+/PBxTDSbQoIctZ9/1wfrdfoClhh46ZYIUBUorEiwMbPwUGQtZKv/Clj7QzhZCylFw6rvg9P8deQ9B4Mf/w9oUiegqCJzejBzBxYhf0kuC+X+qEuEXNipYMiSHIO+/EmkQgtKrV+OnIZCsIqCLbLcyVNvRRvkSd+hQiWstCpaB7L7N2Ml5gQbmUnb6RBZ9SCMh38HaAD56pdg9Z6DaYWIjSassb8HZ+YfobB8FFRX3Pamxat/oDdtgsBLpT5BQg2EIBLnNy4szVpFuTAWUj6SYHzuzDmsLq8KXFmrj6PVj3BucRVLvSG6YYCH7zyExx+6ixIYUpekYhuhw7/++cv4zounYNkOahWVIFjaRCOR9qgCYazqhrPTE+i3V/DJD9yH999x6F0NVVf/mG+UdwgeIBMsKkz0kwytIMNyu4+VQY4+jVsybeQ0gvISufnFOURTEr5joOma2DNVx0zdQc214JJ8x2WuFO8SosMvZoIgz1M/V64bcZbjxdfewFe+8xSWOgM4tqMN1VSrq3r91gOh3FG+N2Pk6kpSgi1sOu0NIJmkNEl0aF0t8YStnrHoeUzVfXzyw8dx7LYDqFU8FFJCUTbyN9uRsSAs0sNinyukW+lyyFMU3S8hWfo/YSeLKgEc/xisyd+B6exB56V/heLEv8RYEogpXiKyJxls+uBQe4BIATk+qQ2ktpD8NlrHND9E33tJUda7R8pkUhMURb3VEo6DiOpR+Ihtl04XdloTPQPR0GVCB0/M+YzMh5MniHwL6b3/Kaq3/wYQnUXa+gsk7T+BT++FYgbmnv8E2eRvIjNq26yJeG2j5uZMEC651jKHlMe+LttpYpBl+PkrryALIuxoNlHzKxhGKeaX21gbxFjuM0GI8P47D+Cx998pCQJVyWg7y5j08tl5/Ol3foJ2GMO0Vb+9LRoWGdKcHRBMEGK4loWpho980MJvfPpx7J2e+NsE4TLjUWmOSUOgbjL9/9l7EyBJzuw87Muz7q6+58JgBjPA4AYWWOxBYpdcLZdcXjJJkTJF0aIdlsUIXXSIoQibFMNiWKIpUxetCFkM2hJFURGiRNEWl0FaFHeXe3AvAItzcQ4wM5izp8/quitPx/f+zKrsmqqerjl7pv9CDLq7KjMr873/f+97t9rBXmygExjoeYG4jtPNzE/pkLybCFp0HBnOlbdVYRMzEeKIAmjQSVKIIorx5mZgXJvYuP6zVIBhgBK455hyeHG9gT/8k6/g5LunZR1YFgfj2FLSp0rXrnwpS/L672lnVxj3RaPvjVYprdrhl7QUilS1DvtnhNIZMITrOHjsxDF8+js/gvmpElwxSFJP0p25DfoliLTEqYCltTw7CL6G8NTPIIzeR2jeA3fmJ2Et/DBCaz/Q2sDac38LpUtfQ8m3pf8B8wAs5qiwCVWuicJcCJP5Bh0H4bKBwKPHJpmBkniVUs9SWu26NUTDsJEvoMNihYIMWTLhmyFC10fpkGSoIqhH6KybMordijhVswUzzCEKq4hsD8GRP4vc0/8zrNwsDHMZ/sZnEF/8bTjGq+gZR+Hc+6swSs8OgO7OFtquOOrOBwgiafqRIoRRANNw0PYCvHTyPazVazg0N4+KuCwj1Jsd1Fo+1ppdrLQ6aPU8fOjh+/GxJ44hJwW0icUWA60gxGc+/xV8883TCOyitAyli88Cm/rECNjchl0BCzk0V87h0x/7ML7zw08hL8Nm9GukMM9EbJNArvzhMKkAACAASURBVFITaalBEtNNG56Qs7Qw72QnggipzAPwEdP3lPAffJidJ6Hol352yzTgLVm4CiAk0D6pSKEngGkZfhjh9JkLeO2tt7G8siFj0vmedNcb+VIFrzf/leYaXKnux61Qpd5H3zcTMtn6O2ebqBTzuPfgfjx04hgO7ZuDnRTaUB4NPCh3KFBOLTiTE0ipwNmm+G10Lvwa7MaXEOYfgbPwg7CmPokYBwCjg3jpRTRf+EWUG9+C0Z1H4G5KpZIRzqK97wMo728hNl+Haa3CCgsILrsIVkI4oTI8ZDX0x5WoGieVnzjIWZFIQ9ruXBofmQgMH57dQ3F/GeYMCxsaCFFE7D2I7uUy4rV3kY83wOyEtl2AQ8BQ/SDw7b8IY/YhmbVgxG3EjRcQrv4bBL0XYBSfRWH/zwL5h+64dul3LEAYWCAp55WAkFIm2Hjn3EW89u4p7Jufwb4pZpmG6Pohmu0Amy0Pa20P660OvCjEh04cw0cfuw8uE4Zk0SjXH5fy8mYD/+XLz+Plt07DY89w2wXr7dPv53VzYCLR/fiub3sG1bwL6w5MJLr5wjX5hjFyPN3QfcJmbuhGjvS9Zc+57RcpQKueWbXkTSon1fpLzh2ola2rfXc8w/XdxQAgpI2D1ECsrColWOj0PEkCpqeOMxJGLR8Vlrm++7lZZ9N5MGoWKZ+T5ZM510Y+56DCYXEMMQkBWKJHOaZKcmUOQF/B3aw7vYnXTe03NgZiUmm0ge76f4C39ocoFJ6ANffjMIpHYIBD3Vgt1oP/9m/Df+2fw/GXYPtF+E4P3dw8ioc+BevhjyFa/1343p8A5gZywRSiWgHh2RAm+6VwSmvE76JvLg/LXIdPL1QlBysPBD0PQd2A65OqOYRWAEecli4Clis6AYzjh2Dll2CYXfhGHlHuMeSn/jqab38B0YUvody5DN+OVIdH5yCcj/5tmId/EBbzKhj6iEMYnVMI6/8aXv0lWNXvhrvwF2DgoISL0gV7u8sYr8b1OxYgjH0wtieNgT996Q1cWtvAA/ceQtlUDWmYJd3uRmh2Q9TaHurdrgjmp48dwkeevJ+55aq/ucH8cUMlLAKot9t48Vsn8Y2X3sDS6qYAB+5ktjs9cnABH33qUTzx4DGUHCfpxHh3WXtXW0T6c02BW0GBcRhgt++2O/W+bxRP06RSAcHsKNh+A82V30W5sgCn8l0InAfUNNskByDuXUL3lX8BnPxt5DnLAAba5XthPfTnkbvvB2HYy4je+3uIo5cBs404ugdG+Aiid04i7q0hsGIUAh9RwGTCCmJzHcZcDu6iA8NhS22geyGCve7Ail1peOSGXUSGA98w4JTmgGe+B2H9d5CL6LnIo5mbQuXQ7yKMPLTP/CdEb/w+pjpL0tmxZVbhPPxTKDz2N2C4hcRLohImjfAs/Mbn0WnUUVj8JBz7EcQmQxlS4KxaNu9ih/PdBxDiEA0/xmefewWX1mo4ft8RFE0O5ulKY6ReYKLthTLmWdyWoYdnHz2GZx47LgBBEsSSMIPygLJZigEviNHxfKxvtrC2XgNb4y/MzWGmUkDOsuEy9sCVN+jVfKP2l76OpoCmgKbAHU0B5URgLwSWo3hAvAYjmgasWcTsDcEKRYPWP2DWXkD7q/8YhdUXYfoRutWH4X7ov4F16JOAMYO49RkE7/8y3GgdgbkJr/h9yJV+CN3nfx25jVPyHVTAFgeoGS68/BGUH+QdvC2DuKShkVdG98wc0L4IIy7DjRvwbVYfFGDPPonCx34O3tI/gdX5Amz2KbEjOPv/JezSJwG7Dv/s59D62m+g3HsHpuEhOPhDcJ/9JUSlOUToivI3UYTBTHmjhRg1GEYOwJx0gjRN1UQO7BC5izNP7zqAwISYpg/88ddfwttnl1CuzqA6VUHssxmJj4BNPLu+tEOli6/dqOFHP/EhPHjfIYkrpT2806xXxsKV6zPpw96vrUpKdiJ29lJjWSX0wOlfOsRwRwszffOaApoCN5ACkl/EPADOTGApJ+ctECiw4VQsVQ1GZMEzA3iGifzlr8D70i/B7G6gPfcUpj70U8DCU0CUhx114K/8I8Tr/xec0EdoziM+8itAfBStb/xdlC68LM0UOzYDNAF8swj3A38NmHkb5vp/YJAYCPOIq4/A3/wwWm/+Fso9Cw7L1m2GEwqIDn8clQ//Cgz/q/CWfglu7x0wO71T/mnkD/0iYoOllj78tdew+c1/jurqn8CvPg7nU/8MZumomipJQ5PTGmWipZpyqcolWW2h/lYlE2zTfANpfYMvdfcBBDLOsCXE8OUX30ScK8Li8Bd2P5MJg7F0Xgv8HiqFPFobq/gff/KHxRMgsUyVNSZkVi1OstnWSUaxfJqNEA9SpNQQYP3SFNAU0BTQFFAZNaxDYsjWFeWopCrbJnMyIo0qNlFypIyRUx+Lm++h9/rvAG4BuQe/C3H5ATVKWQbv1RG8+9MwOp9FaOdhTf0lWId+Hn6nhu7zfw+5019CLjDQtUP4loN48SmUP/p34PtfhH3hH8BkR8WghPDAfw3D+W40nv/fUb78JpzQhc/QMkvnH/xelD74C6IBvPV/CnPtt+BEPbRzH0D++G8iNKuwY7ZdDhBtvo3uyf/CxuDIP/ETsNypZNx1ovWJAcRrwWoWTqVMNQeTHpIqpV2sMO5KgMA61QurdfzHP/wiLm22YBYKMGWutwGfbZpDH3nbhBn08Oixe/Hjn3q234Aka/1vjR1u/UsNCxsUavXzcO7QRGMtyjQFNAU0BW4OBZhcSsc6g7hJCTPnXZgbMGIHoaGSyGlR+4YFO+zB7G0ArgPYBdWFUNoxsnrsPHpv/3m43RX0ph5H/p7/BSh8CHFvBf7z/xTxe/8vXKlk8NEs7of7gb+C3P0/hqDzZdjv/U0YVg1hUAGO/CPE5WcRvPkfgdf+b7hBS7zL7NcQP/Hfw/nATyM2ykDnGwjO/zLczsvoWhXkj/9LBMWnYMU8OkQYl2AEXZhBiNgtwbB7AmYkjNFPu00QQDbTNLE8B8fcHMpf71XvOoCAWDXi4ajmN05dwr/7vT9CVyqNHGnRyfoh2zaki929i7P40e/9MzhcLSZ0ZK31EJwbl2GUfT97yi5Gg9e7WPT5mgKaApoCk1Ig6VkIQ/ogdIDYA8IpwGS6dyBufcbxrZAWvGqIxDHJTOcyYw+BkZOmd27cBpp/jO6pv4qCfxDx4b+CePHHwTaGlr8O74XfgP/ev5JZCU7owT/6cTgf/gVE5eMwvG/CeuenEMZnEEXTsE78EXq5E8ivnkHnG38Xcf05Me0428t8+u/AeuQn4JsRcqyKWP0XMJZ/DREHSB36ZWDmL6qZHOIVYdMkNnfz0LMcuImXIJTyya5ED8w4nwyIY6cP1l4q7wJ7dxAwWbs4xnD3AYRk9VJ/+1GE05fW8Qd//AWcX2sggA3HYGMaDw8dO4zv/o5vw9xUGXl2P9IvTQFNAU0BTYGbTIHE18r4+5baza3BXKpSaTIlyYuR5Ce4HNG9/Iuwln8L4dRH4R78+4hzD0remBF66L3+f8J7+d+iEHrwclOwPvKzsI7/MKyQ0x+XEZ38SzCDb8HHUeQe+gw85yDc0Efnzf8HvVf/N+QCNmR04T7z12Cf+G+leRKMHmKcQvvcz6O4/E3E838d5tG/CRilITpt9QX0QZEclfbCuPPKle86gJBlAWtuA2ag+gHOL61ho1aXrof75irYPz8Lx2Rvc8LUXVxncpO3q768poCmgKbAbqOAGvCkBlmpAXoBHL+G9pmfhuGdRe7g34Ix/QOIzen+ICj/zX+P6KX/A7HXQnDo0yh9x99AWLgPVsThaJcQn/6rMDpfRZh7Gs7x30RgLUpZu9G+gPrn/jZKa88hyO+H9W2/gPjo98msRdUFs42g8VkEZ/8h4uIiCvf+MuCcuGu7nGbXwl0MEFQyDJNlOcJZUGYyNCRt46u69bE1Ihve6pemgKaApoCmwO6hgEpuDOHIlEaz/S20zvwM7KkPI7/4swjdOcB0pLMtwxbe+8+h9dw/Qeh1MPNnfg7GwQ+rkepxDka0Cpz7eUS1P0Q0/b3IHfkVBGBLfOYd+IjP/ie0v/KrCIuHUXz2f4Kx+AhYEeeEJVWaGbXQXfuH8JqfQ3n//wqz/J13XFfEa+HrXQcQthKBpSZp+mCaPZhtfZr24tQhhmtZPPocTQFNAU2Bm0IBsd26MhqdcX6T4783v4rO0q+hevznAfcBhKYjlQGsTJAhcJ1VNN77EgqlKqwjzyIwq9IdV5wAUQvxpX+MYOW3YC3+d7AP/gxiTCXtlWPY4Qr8M19FL7JROvohGHYFgRHBiktStsiLxNEraLz/GyhWfwD2/HdpgHBTGH/TL7qliWvCXC6SFBhc2bVdtWkdnY24paohM01u3PsScdJ9EG46l6/1C2TmQ+Y1jlfbHZf9TPP6Wjlxa84b5uO4b72WdXBrnmCvfouaespG9lJ+HvmIvHeA+Dws51MIbYIHV8IHppRORgg5eCkyYMU2PJmLbUpPBMNsixc5XvnX6J3/Z8gf+TkYcz8CA2XEEcdGe/QVgDMbY7ZINjswfRtw2EnBhgU10IllmmbvdSCqAMWjOsRwRy5NmQOuGlQIVJDJYcqLkKoG5S/I9DEYM0Z2u+ffTklMqjQmPf6O5MstuOmdKIOdHDPqVtPzhnl1Lby7lnNuAfl2/VdcC++u5ZztCLET3u3kmF1P7Nt6g0rhRwhlPoIluQieNFqKWPEAFxy8zOHXNjwYsSkjmKncZSx2ZMCJIpnMyIpHJ+4hjE0Y9d+Df+5X4B75+winPgYrykvvA8dowwiLCIxY+jIYcQehlYcVGug6Eew45ngG+CaHa7VgRjnAHISl72Z+33EhhlEbfst7XCQqvQVxf8wqF9gg1CCNvTIbQEY0ZUFC+iE9S1lrc6vpOfhrxLlXOhFUOCNdTIOfW3ci3x+34O7mhThOHl2V3+kkyKGfA74NdbNI/xzhMBpASHU3Ax4O2l+leS1pP61RbbF4Xn/0fHKRLL+zfNS8VrQep8iz7/P3lK7p+/3PVWPT/msL/5N9nOmBNubYhO/DizFbxj702SheDu/x9JRRvNZ7OitGFdfSCgCOq2KnQZp7LIcMYkKGHGzTQ8jxzOzLaPSAyEJo2CLjKcvJLitgu2UqdQUWqBHizlfRWvlNVBaZvPgYDDOEh7xMZLRCF5EVyLV43cBiPwYDnhPBJOAITZnxEJserMjdMnqcI7u3yotUfowOXd9JPN+VAGFYKGQFyLjPlPDIiIUrflceBb69nTDKKvZrcCz0R0+PFBxEsZkvUGAg3SBs85z4NoZAwqj37xZhkxX0fKYsH4eVwLi/hxWMXEOUdCJwtjCSH6jvGd7UyVDYEVglAxD64aiEdxnQN0oRjAaEitc7US7jlI269zsrd2Yn+3oUzwZrgnzbCij6x48AGfxsANZU6DEl2XZ7exxZB23RtiqAUTy6Ft6OWxPjwPOd8P4onnPi7qg9u1XOywrfclw69IkwQR2bgHhph58ARO7tfrpZ6kWOYUUh4ugcuv5LKDkfQWwcguc0Eccl1YVAWhwOLEIamZysOfA6J6Fpgy2c1d4dvTfZE+Hqe/tqa2a38HbXAISsYBj1+zBIGHf8KDAhAkY8CuOUxtXf345hW4WBzHpKlI9SROnnJqwxSmFgrQ4vvOxCGii1KxfnAMWO90DslkWX8mgYDIwDC1cDDcOAj3+L9ZEoja2fq11/JVBUbs1RL2WTXFkKK7xKFHUKblLFfSUwSMGf4vUoAZHyML1Gdu1k18WdxOuUdzvhdUr7VIFcuecHnpkt+3+Iz+OA5jBvxxkKo5S74glV1sAIGbdX0+8ZpUSGwX56zDhep5/fSWAwy/NRe307WT74bKu8TmnKqbxhnAKEIYNQgP9oKccwhBm3YVktxFERQVxEILO1Gajgvr/yxOH9mF6Zs3fGg4Cthl7/nEwp/XjZwCFOqTdid4D/2wIQhlHlsLIf9fl2AmbcZ2ROKmw4unkcQLgaILmaYh1eSFsXQB/PylCn0UJFWTqjPhsWKKny2E4R8X7GCbmrPcuN/nxYCA9bD+OAXlZJ8Pcsj4cV/yj+MylpnHAaFlAD4TNGuoyw1kcJ+myrFH5Ofo/ik5TcjrBAhpXBTo8ZJ8huNC93cr0sP1M6Z3k+6vNx+//K9weenyzP2e9kO3CZ5fekvB7Fg4SpfXDIv5kotx24H96Psj6GlEb27+y6GQUOsyBkJ3y5GceMk9M72Z9Xl/nqjrMeo5TnYeKBkGDEFo/wIAS1lecGwpjTFdlevwzYG2CnwzCuwDA9yTEYRc9R+yo1CtLPth4j37qjvT0K5G+3/7Ny/2bwctw1bylAGCXkhxdTqgyyG3mcBTnKOhl1vrwnYEF5CkYtzuF7G6fIRgn87OIaMJlKOlX6SmHT+sgq78GxA6tynIUxHrGOU0Kj3WC30hIZxberKYtxwuVqfMvyVPHb7PM6FSKDa8QCHFPoNnp9Za38wfZJ6ZfyUTyTGTBApsvf4qIc8CDLawqRUSBu+NpXA4fZtThOmN0KYTKs9Pmd1wTqhlzPwzwV+z1RCMN7PwUJ4/b28LrKKhCeM86qS2ks9M0C/Az4I59lvG8GmGeF/TjBP+o7twOFAkSGLMxhuXAr+J2l5ZU8UjKW9zXus3EgcStPRwMEritl7FGO03BQSnl4PQzv7YiVDnzTnwGcZZnrEMcVmKYHk2WUqds3IeA4/qV7ffhztU7UvYxaB6P4lt2/o+T+MCgYBpW3gte3HSCQsaOUeipkRimM9L1hIZRea3jzy/uJByF7zvDx2UWWvafs+ykjLc4wH1pM6cIwkpHP/Dl4jwDhSiGiFs5WD8J2IGF4UY1SIlmhtp3gu9kL7GoAYRQIy9J6WBCNEv5ZZTRYF7TlmdWcChGusVSIKHfi8DpQx17pwlYgb2tIoC8AqDDopkxBQapAksmh2VjlViWxc2UySogMg4vsGssKlVsFBrcDCMOeoFHKZRSfh9eOuk4W9A0phSFQMqww+B0cyT5uDWX3ybB1J7xLlX+6t80U/LEOnx33QpjJe1tARSYENbxXx4HEcYDiTgII4wD9OHBxhYIXxX+lx0gBhEGuUnaPK8AwAixwsrQIO7ZczgNGJ2l+bMMwAxkiJcP8hrx6WT6kvJKfGZ5eGRIYLeN3IqfHfX9Wzwx7mW62DN8VAGHUYhonNEYp/+z545QOFcTAyhh4EpTAGCiQFI2OioMqZqSJTlstd6VEUtc+jxksOLW4VPxyNDLd+v4opZBFj+Msy6wFmr3G7VAaWf5lebZdiGHYuzAszPl5apmMFgSpcBAcL8KCfE9dker6qRBR1sdAqCjeDu51wF81Sk69BspY8Vu1lL/SUzDsQRicK9+wZR1kFcqwchjFx2FBkgUIqfWW5fnNFiLbAYRR+3h4bQwfM2odqO9QHoThz7Peg60AU62HK9fAgCLpvac8Gd4rA34oDwITjJQ3IeG7qTxF0rI3EyYcZ4Hy+8Z5Gob3/ah9fqd4EFIKjwJqo2TA6L2f5hSk8lnt2ayxNwgz8LNsKDILFHhUTlomS55R7MgUSYIDVkcQeI7nSeIR7APC5O8R3kH1zONk/HiP7nbyfNgzeFcDhOFFk/17XGghKzy2Uy7DyiQ9b5xLOwsqsgpsIDDGVztsJ3y3Cm8FDFLFY1lbE1C2UwZXEw6j0OYoZXKrF9QoZTSOb+PAHK+xExf1KOWT8k8phWzy6VZ3ZPaz7Docp0yHrfHs3/J7JmFxmA/Dwie7fkZaq2NzF0YnR2WB4a3yGoyjk1LIgyz14f00iYcoXQej9uewUTAMUsbt7+vhtaKtMhAIDrfycdhguJJXV1qbg7yj4XWw3RpJn2G37O1hAy+7L4f36Li/tztnmLdhmAL21Os3APCjwOpg/WR74WTrYgcJgcNyNbuXr2aYDYPClE/jPELD1xt13KjvH7f3bsb7t9SDsJ1Q2cki205QjBNEw+eMEiTjhEb2msP3PkoQX6E0kpO2s+yziyhdDFlhkVqEOwUEqYWdXXw3Y+FcyzXH0X6Y96M2+ShLZKc8H7Vusu9dj9IY5l92Q48T8tsJjuw5O+V59pxr4cvNOGc7hT2K31fj+TCPhg2CSQHBJHt71L4e3l+jhP1OeLmTY0YpppvBs+u55jgDbZRcz+69neQkpccPwP/4MskbIcuvxu/teH81fo679rj1c7v39m0DCCmzRynacYttpwBheEENK4NU6V5NqEy6YcYBhOFFk73uOFQ6vDC2Q7ajlNSk936zj98Jv8d5GrL8HKdIhtdGCpSyvB6nZCZ99izPRj3XOJA2vD6yPM0Ci+E9MY73k9737Tz+aoBh1N4exffhvbzdeSlNx1mVO6XHKLCd5fFO+T2Ox8PXH+VpGKX4RsnOnT7TzTxuGLhvJ4+HZfAwz4eB3Dhejjtu0ucc3tvp3kvlyDhZO8oIHJbzw/s9ux5G6YjsM90uXt82gDAJ40ah/ex7TD662mvUQkzPyeYbXO06V/t8lHBPz9mJS3B4EY0653Ytlqs9+436fLvNPhyKyn7nKMG0nUK5Efc7DhSOEgajvm84xjiKt3crv8ft6+z7O9mb2wH97TwFk/L/RuztYX4PK5FJ7+lOOX4cH0bx+mo8G7cmtpPx10KncfJ6J3s7PWYUuLyTeH5HAIRrYS7PGV5IO1mk1/pd45DlThbDThbc9d7XXjh/p4rlagJoElqNU97bKfWdAMVJ7mGvHLsdWNhNe1vz98avyPFJ41u/63bs7buZ33c1QLjxy1RfcTdTYDe45HYzffS9aQpoCmgKTEIBDRAmoZY+VlNAU0BTQFNAU2CPUEADhD3CaP2YmgKaApoCmgKaApNQQAOESailj9UU0BTQFNAU0BTYIxTQAGGPMFo/pqaApoCmgKaApsAkFNAAYRJq6WM1BTQFNAU0BTQF9ggFNEDYI4zWj6kpoCmgKaApoCkwCQU0QJiEWvpYTQFNAU0BTQFNgT1CAQ0Q9gij9WNqCmgKaApoCmgKTEIBDRAmoZY+VlNAU0BTQFNAU2CPUEADhD3CaP2YmgKaApoCmgKaApNQQAOESailj9UU0BTQFNAU0BTYIxTQAGGPMFo/pqaApoCmgKaApsAkFNAAYRJq6WM1BTQFNAU0BTQF9ggFNEDYI4zWj6kpoCmgKaApoCkwCQU0QJiEWvpYTQFNAU0BTQFNgT1CAQ0Q9gij9WNqCmgKaApoCmgKTEIBDRAmoZY+VlNAU0BTQFNAU2CPUEADhD3CaP2YmgKaApoCmgKaApNQQAOESailj9UU0BTQFNAU0BTYIxTQAGGPMFo/pqaApoCmgKaApsAkFNAAYRJq6WM1BTQFNAU0BTQF9ggFNEDYI4zWj6kpoCmgKaApoCkwCQU0QJiEWvpYTQFNAU0BTQFNgT1CAQ0Q9gij9WNqCmgKaApoCmgKTEIBDRAmoZY+VlNAU0BTQFNAU2CPUEADhD3CaP2YmgKaApoCmgKaApNQQAOESailj9UU0BTQFNAU0BTYIxTQAGGPMFo/pqaApoCmgKaApsAkFNAAYRJq6WM1BTQFNAU0BTQF9ggFNEDYI4zWj6kpoCmgKaApoCkwCQU0QJiEWvpYTQFNAU0BTQFNgT1CAQ0Q9gij9WNqCmgKaApoCmgKTEIBDRAmoZY+VlNAU0BTQFNAU2CPUEADhD3CaP2YmgKaApoCmgKaApNQQAOESailj9UU0BTQFNAU0BTYIxTQAGGPMFo/pqaApoCmgKaApsAkFNAAYRJq6WM1BTQFNAU0BTQF9ggFNEDYI4zWj6kpoCmgKaApoCkwCQU0QJiEWvpYTQFNAU0BTQFNgT1CAQ0Q9gij9WNqCmgKaApoCmgKTEIBDRAmoZY+VlNAU0BTQFNAU2CPUEADhD3CaP2YmgKaApoCmgKaApNQQAOESailj9UU0BTQFNAU0BTYIxTQAGGPMFo/pqaApoCmgKaApsAkFNAAYRJq6WM1BTQFNAU0BTQF9ggFNEDYI4zWj6kpoCmgKaApoCkwCQU0QJiEWvrYu5oCUfJ0xtBTDv89jgixfKD+z5eBnZ55V5P1xj4cyWsAcRTDMPhLjNgAIsRC7ziOYZgm4jiSz40BO+Qz/jNNU/HHMDLcGnBOfapfdx0FMmsBccQFgChWfE/3rvxMjgsRwTQMmFD/DJPrKVbHG2p/8y/+vFt3ugYId90u0A90rRTIyo9r2/BK1KRCA9Cq5lp5se15QuZYBLyS5zEigoQoRhiG8o9AQMBDFMO2LdiWDdM0YFqWAhEJQMh+T8r/a+P9TXlSfdEbRQGuB1krirthGCEIQ/T8AF3Ph+f58P0AYRggStYOLAOWZcGxLLiOi7zrwHUdOLYFyzIFPHCNCVBNgcVdtng0QLhRC1Bf586ngFgV6WOkv6RKaPvHGxyV2iN8RwOEG7sotkI4Knrf87HZaqHRaqPVbqPX6yEIKOgVSKDlRyFv2zZyuRxKpRJKpSKqlTJyjp25veuHhzf2WfXVbiwFYvEWBGGEVruLRquLjufB8wP4XCuRAgxRFCkASaUv7icDlmnCNC04tg3HsVFwLZQLLsrFInKumwCF5G41QLixbNNX0xTYNRSIA+W/FovA7LufwzgWQeL5tDJ8UUC0VmmRWpatlI9jI+c6IkyUVZEauYnbO7Uyds3D3hk3Ip6AVPYKTZV/pt3uYGl5BUuXL4vA74URQgKDKBQXcT/cQz4ZpoQdyC/bdoRfpUIO+xbmcM89h1BwXVEG5LpSDhrY3Rmr4+p3mSp77mGCyPWNOtpdH14QoRcE6PZ68HxPPAoqBJUEGgUbGLKPJVRlmrAdRwBBwbWRtwzYlom56Spmq1OwLUvdjAYIV2eKPkJT4M6kQKSUi2GKtUFQsNlso1avoxeEidJPVE9iZVB40Oow41hcj7QqpqemUMy7sEwNDm7kzT0ShQAAIABJREFUOqCQJzg79f5ZnDpzFs1WB5btwA9C9Dwf3W4XgR+okENiCWbzDVzXBf/lc3k4tinxZLqKH7j/GI4duUdAnriN9euuoEAKLrmXL6ysY3VtHWEM2cuNRkvWDEyBhZKXQk8T//VfUSSAM0y8C7KWDAOWYaBcKKJULMBGhHKhgIP7FgR0bslBugvWkg4x3BVbQT/EjaAAVT9d061OD5uNFjbqTXh+CPoVaG1QOfEf3ZGSacAwOC0LxiltCznLhmurmGWl6GK2WkGpWIRlW1rxXAeDJJTg+7i4soaT753Ceq0OP4rR80K0u13xHERhKDSmR0d8DPQapG4c4ZX6R0uR7zuOg0KhgHzOhW3GmJmq4P7jR7F/cVEsRP268ynAXIJOu4MLS5ew3o7gS3ihjW6vK2mFzE2xHEfWAsMH3MtpXgufnquAQDOMFVDoeR56vo+QTqrYhG0CU4UCCjkHpZyLxflZzE+XBGz08xLucDJqgHCHM3Cv3/71JZalZ6ufzV6ItY1NbNabaHW66Pkqianne+J6pHVBxUNXNV+Sy5QIESoo5jSrOKUjSqaUcyTWPTtdRbmYF2NFzkz+lyZMDfIXtPW6ZT0LfZVr+N1TZ/De2YsipLueh464hn3hB2nuWrYAMSYjSrZ56utVcQMBBxT2BHhMRvMkGQ1yLkMM+ZyDQi6He+85hIeOH0GlXFQMFn4Nqh00h26exMlmgfS3yY6/bnB2HBtS1bKx2cKly5fR7HTQ8GK0Oh1EUYAc92cuJ/kEBJTckKp6ISmR6UcKVLihf2XTkDwFz4/Q7XnwPQ9GHMm1SvkC8q6LfbMV7F+YhevY/b0+uOqOH2bXHKgBwq5hhb6RSSlwzQIls2NVzUGMeqOBs8t1tNoddLo9+ef7oVgYOVd5BpgBL/HIzI0yZJn4E0RhUYHxp21aIjgqpQKKro3F2SrmZhirZMkUJRBzHFSeg2TU98XQ3lZBaZkZ88NiRFirbeL1t0/i0so62r0QrVYLvu8RlsFxHRTyebg2QwNX5g0IpzLkjFj6mJRCemGILvnV7SIOI+RzORTpUXBd7J+bxROPPojZ6anEoDSkrG1bpXV9SHXSpX9XHp+F69wPak9s3R2jeZAkBgsQZIjQwtpmG2cvXEar10Wj00LXox8wRrGoeOzS/E/yWQAVVlC4PSmdTf7eImPSyhlWzMQhut0e2p0ugiCEbTmolMooORb2zVVxaP+8yIw+wNi6FO8Y/mmAcMewSt/oaApMmH0uVoIqkaO6COJYXNYXli6j5RtoNprodNpiWTLGmMvn+zpGwAGtyUziHM1Q9V9iaRoxej1PEuc8L4BrGahOlcWbsH9+DvsW5+AqhLClBl97ERLuprKeHp1WC19/4UUs1xpodX3U201EQQTHMlEul5B3HPHKCPWzvQ3SMrWEV1sEf8I7lYhowvN6YlkS2NHzUC6VUc4XMDNVxoc+8BjmZ6YHXudtsdswXE1X694GfJNJre1pOB6DJZ/EhOpAsxvgrXfPoe2FqLdaEhYwEWJ6elpApWw/KXVVlQ1hBAlh+QHDByrJld4mvpjQSo+g7ahkZOFmmoQMwAsCbDaa4pXiYpwrT6OYs3BocRaHFuckD2l7ZDkZhW710Rog3GqK6++7cRSQjONBPXxqbWz7Bf1zTPgxsFpr4OzFZXT8AOu1hsSyC/kcKkxAShLZaO0TTDD3gHHNQXwxFhdj2jQlW7nghTFa7R467RYsy0ClWJTrHty/D/cuTg8Ex92X+Hx9/JX2BbGEEL7y9RdwaW0DzZ6PRruLOPYli3yqVBavAaU7yxjFg5M0SyL/0nCClDmmFQyWigsrD5BqoJQ2vWEPBYKRNl3QiFEuVVDM5UTIf+TpJ1AtlQaO5jGJZwlEHDgstuBWDRJ2tiiYJJwSTuUDSAhPwkP0JykPQWroSwMjNjKSkJJS6ixdfOfUOWy0e2h2PHS6HkzLwEK1IgpenWv084k6DBUMlzeOuVmGI/L5nABTVjCkjbYYrtqo1wVkGIaD6XIJlbyDB47eg/mpUmIKSMLSzsiwi47SAGEXMUPfyoQUSJR92stMwQXly1O5yepnVqlTKYjlAAMbzQ5OX1hCrdFGvd1GHESSVFgs5EWBi+ph3DqK4QeMX9PCIEhIey5yz7NOmv8siWkyYdEybVUJEcWidJqtpiilYqkkIOHYwQXsn1cgIZMzPeHD352HU6kzvvuNF17GmYtLaPkhmu2O8LCUt1EulWCbtgJpESRBkVacF3oSH+43SUodEuy4SF5K7ogpiWmO7QjAcExLdV00aEVGilftliSg0XtUJK8OH8RHnnocOWa3U2GlACFdY4nCYiJb2nVP1JpyKSnvg8YHO1qsKvFX7VruOTYw6nS76HRV6I49DLj/SFQqfds0JZ+AfCrkXQkBnrt0GZdWN9DyAqlyIY9nqlMSJuSLIIIePlXeGHAJTfyS73Ud5PN58SyQx8xT2qxvouvFyDkEsXnMlAp45PgRFHNpPsKdtxA0QJh4eegTdg8FUouCqlz0hWQqc+NLbJnu/6T1LpU3M9YZOiCOZ6nTW++dwUajhc1WR0rlZiplAQdUJipznhZIF14QioJiomLiAe+TQIkzlVcgpVKmiUIuL99lMcwJoN3pod5sye+lUhnTBRfHjxzEXLUMu98LeBBx3T30vfV3Qv69+sZb+NZb74qQr7fa4tUpFfOYKRelYQ0hnh8E6HR6KqucfMk0ucpGgLJPIMrHoCfYhGOaEotmJYNknSeAkuGljUZDgEOpWEbRdfDw8fvwzJOPyqWYt0BvA8vkup2O6onB61qmKAx6iqplrqMCbAEmWxLjbz1Bd/03qh3E/4eAAIPNehvrtU1R8J0eXf8sXTUExEk1SuIxYLmhzX+Jwmafgnqni4bnodFssR835ioVlPMuYsuUMECTVQxdT643rrX6TkhGzyE9EsVCDiWuIcNAt9fBcq0ORieK+QIqORcH52bw4LFD8vmdWPWoAcJOVoM+ZldSQJQ144UMFWzUsbpRQ5Oxf/Ys6KtytTGpP5jlXnAdzExPi8Je3thQSYmeh0q5gulSQRQIkxP5PpUBDZbYVImIqSWYVUAGrdA4SVykZKCuMAy4FlAp5ZHLF8TqaXW7UjpJKDFbLWO2UsSJo4ekI5t6aYBAKpy/tIw/fe5F1Jpd1Fot8QoU8w5mp8pwJbETaHXpPu4oi1Jop7xCKvTDHBEF5BIbPpOHngpphhiSGLNliTCnQrcEGEbYaG2iwR4LlotKsYxyzsGjDz6ARqOJ5bU18VhIS14uvOQVWyo04hgWXMuSMMjhQwdxH3lczO/K/XP7b4qeFnoEmCFgYL3ZxZmzlyScRN6S90EYoOexARbBgbrjKInlMbxPgCAlxrYD03GlJHmzzfJkH1PFHObLJThGjFYYoc5cAYJ9SQ7mxRQw3JJ0nCVKdpCHLDO1z5WnQ4KOcJi3QjBQKgoI2Gi3sL5Zh2k4mGLXTtvCo/cfwcJsRQOE27/g9B3cjRSgEqCFLkI9DtUGNSwEIbBea+HMhRU0uj5CuooZBgh8ETAMBVAMqPJE1j3bsA0blmEhMmN4gYdmsyY91udnZ0VQ0SLcrDfg+yq3QARSMpxlHG0HCYZJd9YkhEFPxEylgFIuJ6EKZuR3eoE06yFAOH7PIg4tzLHlOwyDwYZsPsXdyMlRz6RmJkSGiVbXw3PffBXvvn8O7Z4vpaZsaERPS9424Ru2WO+dTifpqKggQAoQBlcfdMHcmgo6/P2q0JRriwChXC7KOgkjAzXhVU/aMxdLZdUMi0cn7XrT2vggSWajZ4PXSvv0OzxUPB8FPPTAMTx4/AhKeSe5AQIROh3SBLbBCkrDYneeM3rn61XNwuBe5s4y0QuA86t1nLq4gq7XE18Cq4i6gfIMEXBz36dxf25MhnqEB2IgqLADKwnIo8D3hbbsS8BQAMNQy7VNaaKlcH6Sg6Kw5SBZWEJINAhUInJkqNbrEqKECSs2YAmuTD5LayzYOIl5B+UyfVu4vFJDx4sEtEwXCzgwXcQjJ45Icm0/wTnjTtjNvNYehJ2va33kbaKACE2xHqRHnsofaLRx7vIqltY24ceGlDExRyAOfdAJTYFtUumK/oj7FogJlSNguzY6XlvUP8vZWJLoBTFqm5sSolAJUiqpSFkbY6KVQxMB082ejAOCFQeStMQOi4yt08sRGTbKeRsHZip49IGjKDpOJlP+zktkur5loQBCEJtSSfInX/mGhHzY+4CAjVZYlaEFRNhodyRPYEsVSRLiGa36FfdGC+Asp9QxdBWXykUBkAwt1TbryoNRqsg6CulRSto5qxLKxHNkmmp9yWjAGIbFJjqWZMyzLwNDDXNTJTzx8AM4fOgACgV6FJJy1xTjJH6OvQAQ0h1FWnW7Ac6cX8bZ1RpaAXsMeAi8jmht5hQQTDPPgH0qpLGRYQp/BLgzDCh9CTxpmMVwUxRyQFeI6WoVU1NlREGAWq2Glk+DQYGDDMnV3paM1RQsKJCu5ngkJczSPl2BClO8CP26pS1eAXomKwUHjWYXq5tNOadazGG66OKxB45glgmLQ3GGlN/Xt4du3tkaINw82uor3ygKJIlLRPdBDFxe28Sp85dEYbQ4hc3zZUPnJP7vIE9PQS4nsWXGm9PJfhT2fk/VL/dCD2EcitU4OzWFMAixttkQ97HyHCcAQZLRIvFeDFujAhtEWA0+6SexCagJJQnRYce1ckVqsFfXN1DvhsjZBqYLDh5/4CgOzc8MrnAHZjpfO5uVz5js9aIY3/jmq/jWWyfR6HQl7kzlOjc3C9cy0WzUUe/2EjfzsKdFVc0L1xIg2Z/GsB09pfyElSgKANL6LJcKmK6UReHX6w00CVQS7jAxzmVPDMcRRUUQIGEJxKAngecwzt1lIybW3TNWbnICYA4Fx0TRNXH8yD147OETqE5VxD195Wu3q4xr53Z6puTzcJ5G18PJ0xdkP7eCCJ1kzoltRijlc9LCmH0u+r1HpEUB96KqXsi2NeY1uXfTzprValXygZhH1Gy20A1N+VxCkomCV9VHbIAWI5dz4dIDkYA+qZT1eU+scmAoi2EFVQWjvBCD8FJa+sz8pgMzVUlQXlqrodvzkXdtVIo5nLh3P47fs0/lK+1ml8EQezVAuP71rq9wsykgoQI67wycX97A26fOi/uRcX3WLlsxMF0qYqpUFDceN7nvJP0KKEzoyKRVwIz2WCU79QIfHb8nngOWLfk9DxuttigmhidSD4ByLoai5OluplUo7XyT/uwUcgpUKLenasWjKiD4L/VB8DtYU88Y6PmVmrhAWQp17745PPnQUbBBsBoedwdJj+vmu/LKkHYsZfzd3/8j8Qy1uz2J8bML5Uy1KiGF2iY9Lyp0MBDN6Q2o2RmmdFei5afaKave+Wq8czqfQUBEyifyLPEMpQCQwntxpiq8Zq9+9u+nsiiWy8gXcpJ4KsAzXVfKSYEwiVeT636gMvAJLnq+irHTPc5ciqJj4uC+eXz7R57GbLmcPECaP5E+3d1V+pCFPOQDwwLsUfDGybNYWa8LoGp7zPeJhL6z0xVUMkmeqgMmwZcPP/RVDgKBt2VKx0LSVg1JS7qbpnNSWKEiaUExgtCSfcoqlVaX5ayAaZso5x1MFfIK9PXLX5VDwec/Vrd0u5Isy+ZaygCgTLhyn3I1zeRdTE3PYq1Wx2azJV4Q5qDcM1/Fo8cPI5dzYMgAsXSam5JNu/WlAcJu5Yy+rwEFaJ3BwIXVOl49+T46QYRGsy0DkvKmgYW5GSl1EtcfrdEgRC1oq7kJIZW0KociGGBLXqmopiZIBrUwtij19ImrmP3aVfMTH6ZlSwLSVKkg4ECUTb86QlmurFLY2KzL3IbITLqyicJQMVaKKDOKxFMxVS7hzNKKAAWxknIunn3mUZRyFmxRcuqxJeadNP+5O5eCUoZU52EU4633zuGzX/4aOn4oypXVHQcWF6T/ETPaaZEzx2RkvCBxKDDmz3XAUAHL3kQGm7aqoRfr3pdOjD2vpwBd4nDmb1Q09PBwnTgGrUpbmi8RLKr5DsqlLQAjAZxKIanMeiopghQ5JvFa8LnYtpsJj2mpbSnvwjVjzE9X8ed+8LslRq4a7/CqSV+PfmbE3cH5AUBQ9OtFwFunL+LUhRWZwkmPXhTSY2TgwL4F4QU9M+TXZr2u+lMkychkamCpaanc/wwn7pubFUvdjC3Zx6rU2Ugqj+jFUXuda0B6JfS62NzcxBT3Y7EkBgZLD6RnhgA+taB8Y2AoMHyxwqRmrwfDYiXUlQXKso7iEPv27ZPqi5W1DUlQZg4LwwxHDixg/yJllSvrWvKqmCO1i9msAcIuZo6+tVRZArVWG6+8fRYr9TaanZ6EB1iCRmuPlpmKQ/ZQb3fRDZlExIQkChB6kQ2YMSQPgNnwjmUgNi1JcpKqA7EceE5aqUAvQywWoCWjgQtJgFI1bFENeJS1z2mAKSih1UDBkHZaoARQjmt+fySJdvvmZ7FWb6FWq8Nxc1Jqd2jfHOYqRcxV8lKSxba/u9iouEHLUtGRQImA4PN/+hzOXFpFgx4ZP0ApZwutOm1O02wqf8xwVnlyJyqb3MRUpSgNjujtUQlwEUKDNehJvgATzqJYPBIEmIxfuzlVqeDSM5S4sO3MWGllMapx0XQxc12wmoGeK56feidYZc+Oe1RujmMJ0FA8NNBs96QJl1RcxDEKORd5x8TxQ/vw8Y99VFzpRh9Qqux69e/ueGUBAvfKxdUaXnnnLGqdEC2vK6E4dhzdNzcjfUKiwMNmo41GpyfufYJ0BdDUniPAF+PAtjBXnRKgDY75To4hj8QLKECNPRPoVSQAUd5F8e8FQb9klvtVBrGxYZIAPkV+Hu8IGFBNmziwbbm2IflOSrJsffHObEPlP7huHsuXV2Rug+sWkHMtGJEnXg+2X+e8hoW5qvxeoNtkl740QLgOxmRdnbvXSXQdD3iLT70y+qoozIqC1947j3cvrqLV8xD4nlhe87NzomBbnaa4DmXiIh3MrGunEmcOAOuVAVQrFckDYPKimszmS5iBwkS5paWUXRKh2OiEP9M4Y8AkSPZW6PWk7zqtEFp8BAc5x5J7YIMkXmt1rSYZ+JINLcKMNo6ydmyEovQ4tvjS8jJgcpKcsnSZ9V7IWZiplHBgbhr7ZqsoSzKbipkOuyHvlPU2bD1Ke+sI2NjYxMrqGtbWa9ioN3B+aUUyv5s95oZEmKtWUC3lUduoSVkjcz0Mg0ogCdykve3jCEXHxky5rNy3ogBUx8uIlSyJNa+UhFrQXBvMW6FSyOcLovxT5aOaHCllI68kQU15D1TYijHtJgGGgEpapybMiD4uxS26u8Vjlc+LwmNjJ4bD6Alh/w16hhjCKNsmPvDYw3j6yUeQd/h8qUS5e0IMSZZJ0rXSkFDCy2+ewsW1Oho9X9z2BAfzM1UJEXq9Hmr1Bjr0GCXegNStr6qKWEkQyXyTOSYXO8oDw9AgDQTmMdBYoIdIkhIFG7LsmM2NbOGH5ChZlvTXaPsBGjJToSMhjrTyid/EclXykYOY2B+FgIHhhpWNOrwo7aOgciHSEFVssqFXDnMz01heWpYW4YbNfChLpoYySGZLHw5DrrlvYRZH989jupyTz1KZo8DNaIfZrRTLGiBcK7VlKEg/FSpZyskbd7/5d61U2/a8rQAhrTU2sLrewFdePYl1P4bndWFFPexfWES+UJFM80arBbbLVUpZ1UkbMYW2DycOpa/+zNSUWIDS07/TlU5qVETZ2gR6Gdh0xXUslAs5mehHS2Oj2Ua9qxQKX1kxTquTwr1aZJlcSWq2l1fWZRyxNHfhtmcXPyp53kulJJnyFy8tSa22fGY5ck1mv7NMrmwbWKyUcOzwfizOTatujUNr6k4ACBJESMImMmo5BtY2m9IE6dzSsrjfKdgpyCURLIxFuJPC9xzYBxsRLq+sSmIqPTGsCCG9JPWTOQZxJEN3FqYqUkoqVp7vK0XheaqyIEnrEL66KozAcdwEjvQysLw0pDs5iOU84UnE6LNajeydwfg0Z3LQ+lP9Ewy02z2s1RrwEpDAe0mFO8FEGh4q53KS9EjPQrvTxspGDb2QUQhWsuQxWy7gE9/+DI7fe7AfPVHJc3fHS6iYAK4AFt6/tIqX33wPLT9Ax2NWEcF7CQuz0xJqWF2vwZPwT9K8qi9jE3BHxW1EWJiZltg+c4HqrQ5qTeYIqPTDK19pK7NYgALDPFOVMrrtlngm6XFUTbTSPgepamboUUF8hgXmpqtyPpOZ15ptxIaNUFCLBMpkbRDI5h0DB+aq6LRaqLe66EWmJLGyuoK3R3AigIETSE0T86UiThxZxD2L0xLeknBIusZv8zLQAOGaGTBo0ZIu3a1z/q75wnv0xLRpypXW09defBvvLtfQCgEz7KKat7Bv336sbbZQpyVH6y1pmUugoAw5UxQMXdX752ZkMzJPYFMsv6S/ewaiq3i0mvDGjc5Et1IhJ1YGXeAhk90EHVzZq0CsgjiUsc6z09NiGbNZCsMYEgNP49aIkbMtHDmwKPFVKiNJnGqyu1tPEt2oAC3TQc5yMZW38cj9h3DvwXnkrkh9vjNUiLjgmWEeRnjr3TN44ZXXpcV1l13z2K+CACEM+9Y9LfGcZePw4UNoN1v9slDSnzxR+eMSKxChzB4J1cqUhA7qTXqS2ggi5pwPWiiLkZ/wjl4f5pQwAZKJouyqx5JK5pEQiKgumip0oJwD9AxF0oGToJHKzDJUXgP7NKxt1uFLm+WtaWvpc9MR7SY1+QQbtUYDa7WmAEfXdlFwTTx+4j584ts+iGKOfRKSwvy7wshIlbUCan5s4SsvvC7eAylpjEIULVPyDjhPYXl5BV6glCzh1iiURO7PFl3sm58Tb95qrSat0mG5CTQYXY4csdsZlX1SuZCzTemXIE2TpDsn8aLqp9B/0YqXdUarn/8M7N+3iDAKsLSyBs5bIUhQHg6VZMxwZt6KsX+uKuFCXjIwWEERodNpocHKK5bq8tqGJSHMouWiaMd45NghHDu8D5ZcSMnB4bLIW60cNEC4RorH0rMrhQRpusk1XkyflsSME4ckN08iJ5sdH//fl15EIzLRDXzk0MPRAwvSzCbtgSAu/wQgyEY3oJqaIBYLnDkETEpa39wUZC7CJ8lmT5shCaaI1QCWfuOdmFZBkvWeyLotG5Zll0m6ksVjI18SpuT7mk0p1yO4oAuaYQWxeg3g6OKslMjxnmVMsQEBC+zlvtnsoBMwQS6Hom2gbPt4+tHjOHZwPhkOnSwWyehPnmOXrh/V5TJG1/fwtedfwStvvAM/MiVJjU2qVDe6KGmXa4iVzU6X/FkpT+Hy2hoabXp6mNFFbiom0BNDECc5HYvzwk8q6nabgle5lkVoZ7EmK1iSRcW32cCI31Nv1KVbphq/zRBCChJS9EhvgHqf30uPxdzMDPK5vLy3WlsXUJJWvcg64nclrm16pXivtDznF1QzruXVdXGh+xG7ODqoFmz8yPd9Evfsm1OeDfnq3RuX3ulyy1rzLObYbPbwua++iG5kosW5GXGMhaKDhYUFrK6uShdUVQmkoGAWI6jkQZXEe+zAnHhoVtZr2Gx1pa9IKACNXroRAIE9LMQ7QLmi1hx/qrCdWi9Sujjco0BEgQrvidHAeSCFPBbnZ2TcMwdBbdRb8EPlHaPS5zqw4wDVootquSAeQYJVegqYeEnvJqsbmK/UJkARr6WLvGWg7AAfePg47ju0oMINyf3tlN434zgNECagarZBi0pFUwCB7t87w56b4GFv8aEq2Us5dnuBss6anS4uXt7Au+fXpVVqGHqo5g0cObiIC5fX0ejS5TywNNLzlRIxxfXPGB/767P/AC2FFBykj9fnGxPQUit90FW532hnVEe+pMFvorRUeV3OMnBocQGO60oSGwc10bLtMHdBpkIC+SiSeCZdjWp4kJoSxyQ3usYvr7UlHi/hCyvCVN7Ehx89LgokLeFLFVrGCXKLOTb665TlnXSiY0OregNfe/4lvHHyDLxYWVLM7KbHJZdUDrDyQGZgCLVVohhBwcXlVTk+jUGrZ2U741gUNT0BnKWwVq9LQhstfYYM1DpIMgKMhOMJT9MuelIxkMT8ZSf3G17ROzFOOSuOM4lxrlpFqcSQUhfL62vwpcRi1IvvK1haYNx8dg6tTg8r6xvwwUZKBgq2iQ8+dgKffPYZ8XpRnmTbO91uK3KnC0vmYSSojP5V8oFKlFYz+XPpcg1nl9bQjYBeyD4RwP37Z+VZl1c34NEDnypt8aZR4Q/6GFFZU0Ef3jeLjVpNwlVBbInHgeep0uKsFFB3rt7J8jS7QsYWxiQSPvEMiExRhv3CTAUzU0WR/gyN0SspIY4ggkfQL0mUDIQxH4UdHi24JttBuypUlcupcFutJl1bGcTgsDcmXVZyBj70+Akcmq8qvXKbPUkaIOx09WeO4zZY7vQk2YQJUkR/dz7evwZC3MBTKFAYt1/baOD0+ctYb7BawZfkwCCyJAERsYd7FqbE9X/qwlqSoT4QCNncANapU4GUywWsrq2Ki1spaNUJTZRNX2koKcL2y4MI5gASiJ2xBTQMBI+UViZCURIjEWFuqiw9D+iSpHJggtpyrYZGjyCBrnKVbk2BKhVY0qLXlG5xbKBj2TksXVpBq92FYSsQsb9k4dueehRzU5wZoErpdqMHIQUIfEQOwvri157H26fOoRPQa6CmYzIZdKaYQ7U6JZMVmTTKBkOsDGAmORPXqCxYESJgLylwZ74gFQQbzxBcMLud8y3W6w2xEEXUS85p4p6VSJOK+/Y76NFLJD0rCDwyUzkTeJJGlNOlnTUKaP3R48MwiGsYUq9fLBexvLqCRodhjSGQkImf08PEJFWGQziw6+LSMjrUEoaBvCRZFvATP/oDmC7lJKlWniABWrdbSex4m0sbdOUBYI7BuYs0BDFlAAAgAElEQVSruHB5Vco82beEGf30/DFRM4hD5HMWHrp3Hy6vrKPW6oE5CmlZMNscK4CgFHQKFBYXF5B3TVy8dFk8UeLi7weeRuUfpDlDQyGg/kNtBQt9vvezUNQ74m1I+hdIF9T5GQGp9ETweWnMXF6roSX3pGCJNOCSNs2Jh0J6N9iSYD1VKUnZdW1jA8ubBAm2tIKXEtiig+/48OOYLuZve1MlDRCusvqziXOqnI2uwRjv1NrI2w5mcjZmi47EGcfZEFnFtePNtocOJH1aXoQ33juHM+cuyu9M5KJbUtxzMQescJMGOHZ4Ec1mE5frbJhCgRKkhqBS+v14P13B0wgCT9zIAWEB8wGSEdFZpU/hIzq7rzBUT3b1Sn4ZIXvEexQHCfCwVQghjOBYQNm1MVtWAIXWTb3r4fzKOnrMrkZS+64i5crtKQlzEXImMD89LRMhObq25RuILAfTboQThxfxwYfvky6MCpjsjkznrUtVlYIyKesbL76Gr7/8JpodT2V9s6KEfStmp1GdygsgqNebaLM6xJfMvaSLpSmhG/EGsBd/HMgaWJiflcQ0ymXJXI8MGe7UTUYAqx7/qqxU+Ro4+Y/hCAt2xGt4gJEd5JXGjfopcUqw99F+wvvEiqNXgxUtMfIwA0O6ds4vzKDt9bC01hiZc65izYAZBQIQ2J9/cWERtXodq7W6hE44hVASXcs5LE6XcezwITx4/D5UyqV+kmcWku5O0aCqP2g3L6/X8crbp7Fco/vdQBBz8BLXRfIU0vgsxPxcFftnyjh34bIASJakEsBLb0pDzTsgOGCfAu5RWuOHDhxEbXND3PQMLaTH02KX1JQr+p0mMoHAsJ9gnPEH0lNx1aHPSZtlabxED1KEkmuilOPgt4qMDuf3spz19NKauoekxDKVIASX0lWBe4AhJ4JkNgKbruLC6irW6gxT2RKSKBkBHjl6AE8/er8q2b2Nr90NENLxXQkEG9h3qRrIKOVhAT4imWwsnROkn4IB9XWxNGbhe2Qof6HQOl9rY7UXoRaYFPPIGwHmCjbunWPDDR5NQZ/g4JiJUsxkV9fh8VcDEcP3uNWOvY0r5QZ99WDwEhPBVJ16oxfgxbcu4L1zy7IBqdQZ46PitCQ2Z8LJOcgViihXpnD23CVpzSslZuNccDGkEQqb4rA8MX3dXLCWiKB0AEwcycyF/fMzyLkuVjc2ZOpkZDKhSq2E7HpQc2DYVMnHwuyMKMzLy+sChNi7Ya5awrMfuB/3TBckM1xZT7vFe0V+KSXAffL+0ir+4I//FLVGR9rdMoObnQ7n52ZQrVZQa3exzrkUUq8+WFyq7THBmjhqYRqh1Jbvm5vGTLEk7Q0kihwzltvGyto6QosxaEP2Hy1OacAkcecYvglUfBcPWCdxYvEs3NkW7LiDYropEy4wz0D8DDQKTY4D5otKJZHQ3MuRiw3fw/MrT2J5/YjQvlp1Yc9N48K55X4ce8u0z6QkgWuV8osg4cDMtPDz5KVVlYfCuQ22nfT/Z8JrjEohhycffxRPPHo/yvmcZO5LfJ3uF/Eeqa6SKRTaAmZv0F4dfZnhHTTw4NHr8/7yBl544wxqHXr+IB0xJfQg3jVSM5ByP5YHM/cgMHO4cGlJ8Twjw1WSaRL7l7ALcwFiHD50CKfOXRwkqyY3OVD+o+96Urk76irZa6iBcaEYA/tnqpgrFuGymVujiaUNerRcKdM040ByErgglUGTckpJgOnqFOYqLs5evIyWpwwidtucLbn4+NMPY/90CUboS3Mm7gkJPgkYUi3eb/ZrdwOEEfGkrQRJtkfGzN8yyIXKo79bh5ZQmjfQ72I2uHJ/nSp9r2p4jRg9AzjXaOFSx0MvKEoJXQE+9ldcHJwuSVxVudiYIDdwayrPZ9q3bVKWZn0Yk567+46Xp0mEOBUie7C//NYZvHl6Cb3QFIFCSySfs1GplCVMIJPxWDIYG+j0PCyvrKmEoKSsceRmNkzk83l4Htv2ZurabxFJUm5T2bMP/77FBbEUz124iG64Ncac3lLapplqnwKRAKfR5ICinpTjF3I2nnn4KJ48dkCtNZPO6FshJnZCNKUEyNpOCPzB576C1985I62GWRXAXVGdKmO6WsHmZg0bLYK20TFWiSYnso/W2vw0y1RL0nOuxymP7Y64dNmwRhLakvwBAoR0l6uy1xgFtPDkzLfw9P0nMXPgEMzCcTgRyxxNRBb364gXm2xJaotKPhbVxmZboQG/eQbvn/Lwu68/jU2ngKJRweGFCs6urMIPlHGQBQi0fEUmsNcC+RoHmC0VsDg7g5PnL0mZp3xHchInjzI0xYQ2vg4szuPbn3kC9x85IDFq6ZWQJlTuAoCQzR06fWkVz3/rpDRA6kWWeIyMMIBjIykbLiPPmQfimlfm3sVaR/oeSCv0LaxQITS1U+hJIFAEpmempQ/BFeGcnSzRG3RMusZiU02bJOhbKE9h3/SMpK+8v3QZ9S6BL5t0KZ7zpfqipEo9eTp2XqzmEZsuLq/VRcZx/xcd4KkHj+DJBw7DESWkAIYCCFyfaSDqBj3UmMvsaoCgGl0qBbnFgZ8BsSl+VX3T0G+Awlgmk6GU21ECepKNLLWnrDdnc5skKU3EbOaaVCf81/DZu7uHquugmlO16hRr610Pry91xP1zz2weByo5FCRzPkC9F2GzF2Oq4KLkqIacqqUGN/bkTTWzm+bm48Wbu9jULlF+Rm4Wuv1fP30R33jtJLp0McrM9xjlYkGsTFqdvV4XvhdKpjmznvlTUbO/TUfedFqHrsrNsgy+Bc+YLCfJfo5UslKh4GJxYQHrGxvYaKYW6pX3wlsV0chOcbm8tPnl0CDqKrpYH7xnEd/x5HEUOWsisSJ2x7pQoRKCnPMrm/it3/l9dHzGnZVnIZ93MDc3g1azgTZLEen96O+57BMklnySz1EpsKRtWgDTerMnrmV2WpRKhQQcKLGr5myQUKpXP5MlfZzIvYdPn3gf+++tIJ7ex6p74QmMLpQPUEGsNN4vaivTUlnWmWj9BNh2v4W1t9bw629+L5ZyRRQ6Uzg662K5005yJgaAXp4kabCUghj6E2khHtq3iFZbebfSNtBpIy5Bg4bKsaCM4sjwDz/1GD7w2AkUabJmXgPK3UpDYiAsuSfJ89WNBj7//GuotTxJHGTJKCFRwbUwN12RVsgsaSXvKJtFPkdAm6HEIBwx5XCwDlL+cl/k8i5anA99G1/C0yScwe6e/NuODcxWKjg0V8ZKrY7L602EplpfSodlPWWpTFKf5Qwf5akZ1Jpd9PhsUYCSa+PI4jQ+9tQJTBVU+StTXdWaSgHCzSfCLgcISplIVCrZtIo3KnOdOT5dz5PyNdYX07JgLJMWI8eyDttW0mUtGeLCMaIl9tivlKVrWynnqvGecYxODJxnhzcKOAALjoHji3Mwg1hd37Tw5TOr0jzj8HwJUzZQoRvcAM5sdHB200Mpb2LKIYCooMD9LrX6qUCiDBpke0v70HR/999XXgeJsWUrtkZ4PG7+MrmB3xBz8iK7HVpYaXTwB198DnWPUxrVmFaOwp0ql9FuNsWboLqbqfh+CheVeEqUwJj44dVcjukT9RXDle0NbsBDq7ugoKSCm6lOIefmcG55/arXlsQsw5DQRLvVFsuEoGdfpYDv//bHMFvK9d2stxsgqKWroDrHNtN78I1X3pRafylBpSt1dlp+b7UaEoYguBltvas2w4zZuxYktFApFrC2torlluqQJ9+UscYYf07sc8SxGvEdxwHyVgvfd8+X8NSxDbiV44icNuyAgruIyIzg+qpT5dY8k2FF29+YfDp0myfxwlsn8PnzH0Mt7yDvxSiXHXiRJb0shp9J+RNVoyd1JVqcMebYKZNdHKXvBXMv1LyIjY0NGQwURPSYAfQosEFTOWfjk9/xUXzw0eNJTwdV8nd7eK94zf3IMEI3ivCFr7yE02stuW81OAsSRpB22Z221P6z/bE0vZIk0bQ0fHTWQD8El3gb01AK9+ut9wdu3a4pzVX774EJS0Pz6GwRTq6AsxeXpWpHjWsjo1ITVq2QjD0qhiXDpwRMnQ7Lf2PJUZir5PCpDz+KxamC8rCk3RX7IYaripHrPmBXAwRlxysXX+op4KYhal1dr+PchUtYXltN2qSqGvZ0KEoq+MdRiMJW5rcnLqzZYhFHDu7HvgOL2OgFeOPsEpxCFUEvQLUQ4/7DC1jdbEnGaZeu7sCWBJq8GcMKurj/4AIqpRzevtzE+/WuzP6O2zUcni7g3rkq3H7gYXBHKUjgbfCZPM9Ht6cWCDPX+c9ln/Ekt1cSdvoS4VZaDNe9zjIPze6BNjwYeO71U+KS9K1cfxofARsH6qSpZiJSE8/LlQplpIqZ8GZVIx+pc7/Bw5EGeQaxAET231+cn8f7SyuDHIRMDoXyNKn1Li4DCgrLQOD3JOfCMC1UHOCHP/E0DlaLyXPe5iymoWzvVs/Hr/76v0EztNHzVbiIS3Zx3z6srK2KQhTX8xhvmtDMpDs/QNG1cOjAfjTqDZmq6Nv04o3wNqgUVNXzLqaVxXx4H4VoFX/5ic9j/oADuzQD2yvDYFjCBSJOAJRVOGINpUkRItSThBIT8LvruLjexr995VNote5HYBP0byKyC+KNCPxgRFmaUoDJVJDkcw4R81U3f6mM4BhpF4ViEdPT0+h0urh0aVmGjsFktz0GVzh7wMT/8Bf/HPbNVQVk0CM6cFjfSrCQAQixgTdOX8TXX34bzZgVKQrGs4yXzYwa9U20e54YBOoTFTpQLbBpeaddK4eUcKbyZKBO1TGDDrYTbvUbdHia1KzuQyU0p+GQMgLMzy9Kgy8OHktzKdQzXNmjQdYGwyeWmhLb6yr5z2oZNk/6no8+jvsWygK4WKatzON0CNwNeqBtLnPHAAQCg2a3JxO1zi6tYn1TWSJE3/RaU/CoLidJ20y190ZGaAc2AS33CIFlIEeLJQjx+OOPojQ3izcurGG9HcC1HbgW46BF1FtNcW9ZroNmm8KbZSkRzIi12cDCbBVL9Z50/PO6TcwVLTx0zxzmczZsEfAZhyDd5WEk7VdrzY5qydnrJp3c0kYrloRCOAFwqpyXHt+0JqTBzC5oonEtyzOK1MTDei/AH37xeVxudECvmmEp1ylb4orYy5QVqg048Buk33vlO5PfUboWrgYoJ7+yEgkp6peR0XEobXdX6p0xyZVK/dGVmCYfMj868j10mbDpuChYMf7sxz+A++bKkhFNxXO7y+AG+wmSQPav/v1n0DPyqi9B5KMyNYUgDKRplKpz77cguIKsSYUizNDH9NQUKpUKLi+vJR32Bsp8MLZABggnHiZLiG7FPmz0sK+whr/8xO+jPHsEJuOBIT0HjAszG8wGY8jDykfdm9p/atUlhfhRgE5tE59/bxFfWP0IzPYMYitC1+2g2CuIR0JCoklp4uDBkn4L9GyIJ5T3Oqjxz65lSWI0TVQ5V8Jxsbq2gR5NdDbf4ZwQI8Kxg4v4sf/q05hKRk8n1OwnLF7LOp38HBVO4tpm6e4Xn/8WTl/aQIc0FdnEfBlX7tv3ewJsVS/FNDSYhTWjv12FjJT8Tn70D7wRZsHkzzw4Q7n5U7CSPFfyBrlcnZqSVu6dLgPSqrQ68yRXfDXzSggKWALJcl96EggQnNjHd3/kUTx6ZEG1+E5yT1KfxfU8w07Pve0AIfUMKBdSirAUQengN2IbgQ8srdZw+tISlursc88kHjcpOYmRd3OyIFlf6joKkafQml4ChhzY0IIWDS10iYMlMW3mBYTssc4ypCjCwvQsHnn8BF49cxmeCenf7jOOGqoRvKViHrPVAk4tNaR2fd9sERsbHC2sXGdMpGGWLrOz8+jhkcPzmCuxCYzqHa/cnwZaPdV3nI0yWl0mPXLmeZCMEk7qbmlMubaU0VT4vVNl6UHOhivJihsJgHbK/NtxXBqzfH+lhs9+/VWsdxlCUOwiglZz3ROAlIiUVLioTabEjPptOwfraDGSWqDqCkoBMCeFNciBp1rspuGLrcJ7587cUfcothOnS7JrYpKgpXiYCo8BS1O3pPRVYCa+54HpeLabhxv7+MGPP4UHFqdUJYOUA95eL4KyZ5TL+UvPvYr//OXnxcsmrWvjGFPVKck7SAOGgwLNK1egUgb0Q0dYmJuT+DR7HdAyVfh6BFA0FB2s0EZg9wSwm3Ebzy68i+974CXkZ+5VPLV8eI4FO6SHIp2YmPA1maaognqOdOZTHRt5zXUY3QDnzufwmfcewanOPBxMI+DsBytCxbMQyD0kPNyyVFIJN5jQ2AcdyfHZlcpTKScKbg6W48jYcenMKCOlDZRs4Hs/+XE889gJAQ08fuCpuvk7Ot03km9imDizvIk/ef4NbDR70kpZ5X6ooWcZcyjzpFnisBJJeYczAq2/x0URSjgi+1zqiUftbiURsp7VFLANJMcwhRIIuGPCpbfCfJf+naQGTJLY6jiqIoWtnBX3t5cdMmo+6diohsHRg2zDCDx84kMP4elj+2EJCFaGw84l0Y4fa+yBtx0gpBheRSQHAEHlroZodQKcPLOEc5fX0KKFbTGea2K6PIVFlkxVSijmbGmcwhpSsUCTkqJUl9ClKfGvMJKsYQKFRtvDxmYD62x52fHhJW2yWKry1BMPsaOFCDh2uKu1fbx7YUMcmQQIccigOROlYuRyBQEbHEHs5vO4b76IfRVXhvb4nQ4OThdFsNmOi1yikjbrLVxc3cBmqy3xRuksxwljjiNubqJHyT+IVA5E4PXEpThVyGO6XMKhA4sCGBTyvP3dtiZZhhKJi4HXz1zEF156F5uBLbPgaWM4lgPbVh4StQu2Asbh71H99VOhPMgEV++kgnnrWcolmG4xtfo4BZD0jwKV5Eq6Z8FHkgI3yWMmtSxZwZeUXMiPMUNl5Fm2KnsZiez7EsN0CwXYYQ8//IkP4uhsKbEqbk2503YPz0AgBRiBzWc++3V85dW3pYuklD3GMYrFEjyPK3nnLz737OwMGo2GAHwRstnygC2XknmXyIUmOm4HVpiDbdXwk0e+gMfubcKqzALgMCfmJ0gqc5pGKp6EtDkPrQCWrnF1sPzWjDowIhehvYZurYFvnHwUX7z4MFpREaGRS5JECShUr4Ub+RLAbFsybyAdEkbDxzFCPPbAEfzQ93wnqkVKlNsAEIQPoSSavnzqEr784jviTodIKRX64D5We7gPm65CnuGSpMRzMwFR05qTPmwSuWvL+qGROQpIExBuBSA7+MIR+zSVOVmsvqWibrwKTjsrqfHn3Ossn8/nEfTa+M4PPoRn7j+oQjESptna8GkHd3tdh9x2gNDHe0L0NMNdtaRtNX288NZ7OLNZA/O+c0GAe6tVPHTfYUzPVmQqGxcD3Ze9bldG+HZ6rLsd9LFmkg+n8zGLliCCk9myCYGeF8q0wHeXLmG5tobIDzBTquDY/ffh0sUlHLvvMM6sNLHei+CWimj3uoj8Hj71yFFpAPP2+XVstAMcumce585ewonFCo7MT+HiyibmZytob66h3mwBbkHKYOiRWFpekymETK603ZwIUCoovqQkT5Aoa7JVvTfRutdtw+91JNGtXCziviOHJLHyVqLJ61ppyckSozQNvPT2GXzhldPoWUX4XleNQ2bWtgCEtFnN9gBBWdgESKRbGnYZUsrDNy3u3TRJFCDaZ/xXnE7sdcEBSoxTy1cPbBKWzE3yEjf1FmsmVfxJF7/RKXpbgAnvSSkIX7VkdnJw4x5+7LuewYGpQuJIubGKaZJnTI/NAoR/95nP48W330dkGggDJqQaMtqY63qSUAiPpZDsdjnWKRG/YwBCGgd2Ih+eZcANSph1T+MvPPxHOHpwCkauqJowESCwXDEJ5Kj8Ar7HoTyJMjN8IN5AHAQI/XXE7a4AjrO+iT96+5M43b0PvcCBkQwHEnBAYKEyCm7YS/KpkrHiMtBKfodUTh2YreBHv/+TuO/g4m0FCPQYfP3N9/H1196Dzzp/ZtLKGHQCBIKxLEjfiaTa6l2YlJiDvCXlhXJd7hlVPdHr0jt45T2ofgaTflMqG4bPS8INEyWS09OmumYKkAlUHgunjnrthiQpPnnffimlVAAh7QR7TTc98YPedoAgd9yXvcpNye1Wa3j4+stvYL3ZgpmzMT1VxqPHj2B/tQSEgfQzrzXqqNdbUslA74AiniqfEvLRdE8UEl21VEKubaFQyElcn4qWYYmcacOzgcvNBs6fPYfGWl08A6YZ4/4TD+C1UxcQ5EqYWZjB5Y1NFBwLHzu6D50gxuvn1rDaDvDwiXm8ffICDjkRji/M4b1zSzDMGIHXkRnoyFXA6Cdby3JQTbPRkE3E+CyVZs/zBOQwbpsKU7rbeXw+xz79ltT0t1staVHLfv+HD8zDEY/DAKVnHWwTr4ZbcAKflcx5+e3T+OKrpxHkqvC6HeGphBikEUwK8K7uQeDAHXpdaKEqyz/dvGPc7uzQxig/gaPryk+e1+12kHeVJ4GVKgSOcjlKD4aMrtptbUA8cROLaZeWMymg0Q+QSPe2qwMOCgo+Fz1Z5VJRrIsDVVYxPIHpPAWwGnt8a0TF+MWxBSD83ufx3Jvvwc7l4HW7sic5Y2IScCBJWswtygCC7XJE1Ghctq1uIYiLKHp5PFR9Gd//xOewOH+MpjgihgCk8Y4FM1KdLNlVkW2d6DqKox5iv4Ow20LUq8GKWggMT/JGjO4Uvtb4IP7z+0+jbSwiiiyYAjYo2VVR9I0GCCkNuDYl9JhMxeS64jTTH/n0d+DpRx64rQDBi0z86Wvv4fk3zgC2K62UJV/CNsX7IT0bruZB6CeEJqEj8Yqma22ylc0pCGJYUdZb/z97bxpj15meiT1nv/utfWdVsbgvIrWvrVZv7sVbPLDHDuZHkomDZDBIgvk1SIB4EDjJj0wQJEACDDyDGWSQuG3YY08vdrsXdavdrZashZIo7juLZLH2qrvfe/bM837nVBWLpERSlMiW6gDVVFfde+653/J+7/K8z0MHk+tOBQO+p0DgctxsWFfyhHf3MR9qJe8Oz7TuIHCe+UMbROc4bFXxjRcOY+9oLwzJcH8WHYQNdpL/6UcR5ldqeP/UeSy2augtlrB7bAzjQwNw3RZWGhUs15qoNz2lH8/SAdnb2A4XKsDg2nwnqQJhSeNBShISXZN+cradMQNBoZiBQgGZchZOPgvHNKUXteXTCemgVCpgeqmGczMrcPIFBGS1Cj3sGOoWfvG5agturMPKOmg36zg42IWhjI1q20cxn0F9dQVXr8+hFeqi4MfJp9FnqZ1EQDT69WYTgYCRbr7SZiC2u+VzOfghI1xfaDp3TY6it5RPBHy4FVU978FWpD94/6TEKicvzeDHR87Cc0oIvA5CasNrPLTZ0qi8xhTwdDusAZHSJF6RkkySnmNrJGt4ygYkKyHNyMjJzfNCF2dEpHxDci246LQ7Up7K5fOwLcq0KoMibI+UD75NBmHzIUbjwDkmMx4BmVKyIMJ2zUFgBmEjAnOzq5DKDLNFMBbHReY+k0Gr2cChnaP4/KGdoH/wsPAgbHQQ/uL7r+IX750WIC8ZFPkdOM5phuxDres9vIClDWZrIqMDRFkUfB8vDbyJZw8eQal7t2qpJPkRAXRSvWLGgDgHF6FfR+RXAK+KyGf3DO/mwEBTDn2WJ2vuGP7y7G/guDeEGASHEk+URDZSLvpgVPl6RvPuvxzfyzVKR0GZSh1ZPcCvffFZvPjkYUU7nZQZ7vM5d8uHlZWclBjoIPw8cRDsbB6tFqmsFayGAU363+tO++ZbKm0LZRNUG6Btq55/4r5uFfHLCCTO4w3jmhz63MN0SCWDwfsEvlJSNLgeA1mT68Rp6y2zHzYzN85hemjdiHf4cFzUrT5lvbSSBjkE5rJNnxg2ApJHewqCXVonRvsMdjEIAiGGkEy8c+I8lmsNjI33Y2p0FDnbkXT6teuzmJmdRcMPBfkuvcPSV6v6osX+3yoNuSb/mnBqS4SqgIA8ZLKWCSdjSI1/sKcXhe4uvHF2Gk4+h5xjSwlhfrkp9L+q7hdhsdGWbESx4AhalfS5FCGZ6CujbGvoeJQsa2O0K4flpWU0KNRDoKTrwvV9FIpF8RbrzYZkEG67GzccLTSyXaUy2u224NzHRwexa3xI1O3ESCSAn4faQeDhrcW4ulTFd3/+HlpaTsBXHYLYIhV9ZLIZ2ci3wyAI4tey4NgENSbKgUk6lsZDatZr2QQFaUo5MFjeIL0tNzMNRrvtipPGYJDHDB0H4k4clm80ZnMIaCVBU6SM9Kb1lRoOZiLSHz5DytrA0oeUCaRGqwLXlCXwJnMpfqxyMPhZBPbxIqMiPB+h7+KLT+/HgfEBGHRaHhImxY0Owsuvv4+//ukbMB1bsCUkSuJ4COjqY1OmIw2xAc9gllBDCUv4reG3cPDAPOzccFIblxkHYhdx2EHs1hG16Rw0oKENPfaUyLBsJUvhO2IdbSODt5eewQ/PvYSak4UWKefgBhSLSjLd9tpYLviwg2jz3wXslmYQiEuwMjD8Fn7lhcfxlReelDbYB+YgxAZeO3EZbxy/gFyxjHq9nbSwxjAtI2kb/qDDbB2Xw73G0gTxQKzjBz6/t3KOblfL3ziussYMVTJkIMbp8BjotdqyL/N5ZoQVLwf3uzhdKYnVHU5KutfVHlXdQ7zXjZnLu3PT+AgsrdJOsJzGrGahUEC9VsNIVwbfeO4A+ooZqdaoNkc6aCnV8h0++Ed42cNRYkiOgqbr4c33TmKh0sC+fbuxfbAbK50Ai60mbCeDkmXj3NHTqDXqCGSskpg5ORhVf+0GOssNJBubsaRJBlhRWOqU44xQNg3sn5pCvr8XPzl1EautDgpOFs2WJx4o8Qn9XQX0dufx+rkllHMmJodKqK6sYGm1CSffLS1XTsZEs17HUN7G4ztHsXj9Ombnl5HJZqVtkQuThCHLlPc31j8AACAASURBVHwl5uCD+u+FfztRE4xJPmKjkM2KzGypkMXBXZMoZhIudynPEDD2wfj+j7BePvpbeUAiQiOI8e1XjmB6pYVyuQyv3RFHi9+V/eCWpSMIPYREDsqJqjZeetgYJjMACj1PVjaWbPg3puYs29rQEbMJ86zxviHaLVcMbwK0T6JKlRblj0UxlnxGPkMBZhMQ5BqARQ2FMhrquVS0rMvBztIHI//UKRCNiYTdk50cG6+UvIvvZYmFzlGr1VSskoWiOC2t1VWMDvbiV557BH1ZcnBQ6vrh0GLY6CAcvziDP/rmt2FlsoL3oYHmCNLwfWyrUgtgBiZcgyllHwOZafzuyDvYvieGbhehRcmOYMbAXYLXmoceVGFG7JKicgQfkSkZhUdgJiIOqa3iY17rxTdP/SamvR1AzHXlrwUhaT8/bY4hmYmbvQTOKQ8tFR2mpbM730ZcA2sATxJn5UoImqv42ueUg+CwJPeAMgiEFh85N4O/PXIaTr4kBzqDF6ZpeCiT9ZBOooqzb31wxpEupVjuOb7eFF51Bb4mgJTZOx6e0h6dOOnSeZqQ3vFzdHJa6HRIIikL07ejY9pqkKVSdZ9ZNlAoFlQmKyGl4uFOeuzbxWfr63V9XkVx0VbOjwg8Rgz6PLEliltn3VbdOMub1kbiLLOEzO/K0jEvZg94PjTrNTy2exteOjyFnHpkwSB85hwEJa4n4RuOnL2MmZUG9k6OYKInK3zWc36IFQ+wQ2C0kMHq6qyk9sNQg9uoCYlMEOlwIxNupMELyGaWItW5OnwRe2H9JqWqlAUm2QblTLi6DSPsoKCHeOLRA4jsLN67sIAKqUG9DgayFp4/tAOnL8xhrhHBtzIIOh1oji5dFVrQQa9p4bEdo3j93CKuNX102TH67BD7tvWjVWvg1Jlz0hZVyBVRyBdQrzdEBjUm0JKHkqTU0zpcEhVIe5P6LqqdjZvGR1eBpYYIumkL45alxyhkbAz29qC/t0u4zllCEVlgtaQSt+HODdPH/UpO+9unLohx0Qq9yGQdtGo1eK4Sr8nlTDg59rG0oYUE5KnIX1pY5Sup7g1mAeoJ62JKdiTYDcuSOqgYEAKApJYbwvP9G8o5G8/qtHFp43fnc2UythietL1SCfukDoLi0iB7rxBddTyEQSifTVbIbIbCTDw9VApVHSKqX1/aORPnUFLJkaXacFs1kP8gVygKuLXe7CDj1vGFZw5h3+QQbEnjrjcL3l3Mcv9nVglwqW7vesfH//x//ks0tRwy2Ry8tmLE5HzwJ4220gTPzVmFjXXrdcljNeXKCeOBS2OcRtaECdrwEcWO2JJdve/id8beR2F7HwwtDzPqAP4KUJ9D5K4iihRJUaoJst5oL2GDdJlEATkTAryz8hK+O/d1tPUWjFYWIfn301bLNf0AUmqr98oPa+A6W9W4BlXOXQHlWAP/8LbUjensNNrl96ejaOfz8BvL+NWXnsEXn3kCzgPIICiLorpWzlxdwA/fOIW2lkUh56BWrSQEdBCgHaN5P1B00mumKMnMp4y4XMu2YwveSonfcC950DSCllPwpxpbZSPVISy8MsKMrbAPmm4iDFiW66wRDqUfykOXZb9s3hHQOp0S7kke6L6f4jx43xtxTAoLooCXqjSpJJ7lKWTjqd3HkgiJshCx+y15pg1/X9v7SbmT65dZSq7nWrONKAyFYp62hmPIFvqvPH0QB8b6HijG6IFnECTlGsWYnpnBXKON/vFJeM0m+h0NcwursPsHMFtpYbCUh83Sgl9DptQthz1ZDFfnZ2ViXC4MP5LImiIunSAUWWaZcFG+o2k2JFWz5uMl52egGSCRDSkvB/q6sWf3Dhw5dh61WAeZ4Q6NdeGRyVE06y1cnltBPYxxbGEFBcvCWCmPghZjz+QI3DDAueUmTlxZRHdGR5ejYftwP2avz2Nptap6qwEpmbA2zUOLISoXHgmQ0tqaOswSTgRSl4qyXcLYReKZLNPfurRr0j6IDRLWPV1IOqbGh9BbLqxLUMtKfrgKD9yGq80OvvXy61jqRMiVitC0EO12AI9az2whJZVthilDlZ7emFIUbgs/Ris5kNd30brRkMNH7LZqUVB2hPdJkR23hwqm5p6bX9ciSV+yZcpI0vrpMStzJeQmdFpV3/bGBDRTrRlpo2SkpA48kVxJatg0QDRedHTovPA+NJTExvCAIaseyy+HJvrw4tMHkaOh2iDYs26i7v/Bf6d3VOZZ5VlItfwn3/kR3jhxCQ67c/RY5LnT7M5aCYiOb2LYb/ycGx2EjX9Lyy9puYKHDsfLD2IBFUZhGYaxjEf7j+E3Jy8iM5wTUaawuYq4vgDNr4maIEtcAma7ZVmA7hz3Xjfm/V68cu0lnI72IIzzwu5ImyIKlJtLmQlVN59RZbnI6pim/lSmiQ4qdUXWT8oPdu14Hx524jCw9S1Hp0WD5jbw21/9PJ45vF9Kjbw+qf749ZBDcU8s1Dv4wevHcGWZmcCSdAGR/I0ZMx6muSxLiCz7qbS+PGuC8uf2NExyJrC9O8nyMGNCDZwmMSAq+0Jcksx5IvOdatrIHmXJknlblvJ8ZltU18/N2SpFUkV/PJO1YZO8TumGrzkem7EiCuyuMgWpfeG9U0fPthV4PHVyuZ5JFx9LxkMJOa0tMXbKSAlTBS1peUJ0ScJQqJazuYK0tLu1FWwf6cNXnjuM7sw6Pf+d7sf7+boH7iDwDF+q1PHO+yew77FHcWWJAxZgtL+E2Auw3Oyg4YVwdB1deQddpSzmKk002z76SxlM9BVAAlZOSrvTQb3RQqXewHK1iXrbE0eBHQ5CY7I5y5P8f9a/FGEHI9QIB3ZNYqivC0sNF9cWV7BnuBdmp0VCAvQPD8PVTfybn72LkXIJL+6ZhN5oYHlhFk5XHm0rh+n5FUyNDUr6r1qt4/zFa/Cohy668FT3Ety1GJFCMS/8/Gv8DQmJDiMHGodGq6OMkqgXKvlTUvYW8tmkP1oTg8VDiouSqXeWPnaMj2BsoE8cjwePc9+wZJMAgP9wGzMC+enfvQ+XbW3FghgBz/fguyGHGwZMGCZTlmkGhZgT9X2VxrwCQ8kRtZaB2XxsplFHsgTWkNN3mvRW+vVpf+x6r3OKQFbkV2uGf/3j1rJDfA+jEGnL3ACbTnEN6lAhGNyEbrEtzxQejbBVx/bhXnz5qb0oEv8SMZVJh0chmh82B4GqCBdmFvEv//gvpU8+n1ccCDSENIzZbFb+Fb0UAd9tPqVvPrXT0gsd6dQYp0hx5TSy5NJE6OeRNy7jxaGjeGF8HkZZQ1RfQNxqQA/ZSksmE3WYbpyimxwUOqrhAF5fOIyfLRyGbw/A0AuIDFfKFWlHwUZeBqWymBwoDDcicmp44lQSUZ8+Lx3BFI9yu9WXAl05bml5gQckx7LRaqKvYON3fvVL2Dsxmrj9n1wOabOD0ImA14+dx5GTl6BleMjlRZOC4FruUx78jIwJ/ua1Xq9n5ymdKWrmKBIp7iHP9dFi+Y/lBFncqi1aWid5sEoWMXG+koxCupbi8PbyrqlDnjJk0lFInQQ+GgHsaRCSroeUD4UgY+HRoRMvoGPaGl1wFsRB8T6SWRD1EeWubb74eqUppCSwOa+qhTdGPu/AyOThk8ejXkcubOHXX3oKk8O9G6j17+exf+f3eiAOwkbvmwf42++dwuDYKArlAs5cXoDLYyGbRRx5gmpllFgoZNFsuhIlc5PFQYj+ooPenCmtSFTSchxTokTW9UlcdHV2GdOz8/BYjvBDiPJWYlTXnkHaH30hRgk0tj9Fwne/e1s/dNZNTQfdWRuzV6+jWCqi0N2Ls1cXcLYSgCJb27qzmBroQmtpQQ79fE83qny+BJB49fo86k1X0edKIBsJwCxv2+jp7ZaZolfqu74gV7kZmIpNW/BEjKpSR4dRiwAxqaWuC0EU01JiXzV6pYoHvcm20NgVLYh9OyYw3EMlvDtfEB/7KzdUPYjDoNDL0dOX8Pbxywj0DDJFG5qlao4IWOTTESYyujdtuiQ5sHk7ftDX3cxqdmdDsyGtvCnhJ1HGWqr5xidZL1lsjIpT1UH1bVQ0wewRMwMqwxHARLPRRtzpYOdwLz735G70C1BJMRMq0gbFaf9wOQixyNW2ggh/8q3v48S5y8gWSuK0SqdIpyPflziRtKtBsgAb5LhVVkGVXtawGUkIp6jKVZqZBpZ2gBGmZeVh6EpSuk+7jG9s+wV2dK3Cixqw/GXlGKRTIJHcxgzS+oJMbQJ/M+eN41sXv4z326PIRAXYTgA9a8ESCd9bqCSxjVJq5EyPh3LQMaplGplOkcoeqehZHPpA1dY3XyL3bDAtHyhNEh6Iui734Bpp1KrYOzmK3/vNX0FvIfeJr4D10VLP7jOLUG3ib155HUttIFcsCuGb67sinsf5pXy1sN1mqE66kS+Csb/q+2f2TRwDn+tBgc4VmDdtCVY4BXUxzZ+WGtefSNgNb9ezuOYRrmcM1LJKmR9N6ahIS37izCRARpYtxIFZm64k85BodehGwrlArhLTUY6GtFuuc3tJR5OvHL4UeMmxkDKMyQDWVOdEu4UXDu7EcwcnYUkgcGcW6uOy2w/MQUjTOeRub/oxMvmSKPgNDfUyB493Lq9ipVZBKZMRUJDLmrrtIOh42DPSi6Kpw9ZjvPfOUQRuRxyHwYEBTIyPopDPi3NOW7q02sCxU+ekNsoSBAFi6Wena4nlBYryhoneNvW3taApC4ZERTTM7Do48MgBnL48h5VGgOtVF9A89Hc7GO7K4bk9Uzh+5DSuzc0iMFV9TMonXMxSZyZRSwz60TnbRl9Xt7TgrFZWpVSQHjSpwacBJXivmGcNuiVZFnrVqu5G5jYVB0lpjwAdjRGog1K5jHqjAj30MDHUg8N7puCwFpqMxwNebze0RSuRKuXQHTk2jXdOXYGrBbDyDjIFR9H3kgCJLHi3IjmR3vZbt4d+0Ia52y33wZwFaelm7QRKPnpjqWHdcVA2af0J0jqmOjhiuB1X+DCYzt4/tQ0vPL4XBfIz3ASTV/e4fST8cZmMm++74YgVh5Vx+rnLV/DHf/l9tKL0cNPFSRAQmzDFEdvhJGAvlf2REUxqvmmmYCNCnBEYD1beQzpPJEJlXdiBlaFT3cJO+yp+Z/RvUMQqAp306R2VL0ikoNf+XS80qnFM7AJf6us2jjT24TvnXsKKMQRbmBzZqRTDlH1GYZ0Upa9mwSeglplKOfRVmUtlCCLhMcnlKK6VOpoplbji4EhbGOkY8OI4tdrttYwY7RmDBmZhzDjEF597Al95/omktJh8zt0u6ntcHhvnWsGNdQFcn7l0Hd/7xTGx0XlmAskCGYWiScD1zF50zikDn5QXQxwDklt5vjh7am5UJJ+WVNVjqpZnBeVPHIR0l2383jcIPN3uC27kWVC4Fv6sZx/XS7Ep3kHOgTV2VTWnClOU7HnhblBEYMxiKMCkwkupEiLLDezGUO9Js0Ech2TVo1arIvJccf6++vxhZBMZaVVXeXDXA3EQUoYwboKZ+SVEpo0rVxexY7QPY6MDWGx7OHJ1Gd39PWgtLGPHtgFcrzUwX2+hYGYwnLOQi5rijV2fWxLMgTAOcrKNCMN93ZgYHkSZqFXDQK3RxonzVzG73BCFNC5cAckmi2udnSpFvKfGXS0Awht5Lk9sG4aTyYqq4xvXljBQyGHI0fDojm1oNTuYnl/ESqWq6I+l7Wa93U2AbIyMIsr+douHyS6GmG15ssdTg6+UvOhlsoVvgFTShSKWVmuoJ0RKG4mR5G3CC67iVdaz7XwBsddGwQKef2w/+svFRIDmE7IiH7SeN4X7aoQjKcGcvDiD989ewWIzkMiEtXubzpYQ4dx40yQOuGU678O2092Ows0Jw/QTeCdFi50aC9ETSc8H1i9verOKctJnkPgoUv3aJJoRHIkT48n9O7B7YkiiCK6DzdfdfocPG5OP8vcbHQSlZsCs38uvv4OfvX1MxHrIFsq1mpbO2J2i+uUVeFGhwlXUdYMXmVCOCy+Fy/crbI7aMknfQKwh0FyYegfPDV3C7w1+D1ZMBUEKqHAO1sgCEruuIsIEoLJWKVAHQgzXKuA788/gtfknEEQse1Fhj7gfBTJM6hQ3Eu6sPftGgJog6OSgYKbDEVwJP5cHBj9ePZds4ST1TEQ8I03lKOniWHB8aOvarRYGigX8w3/w9zBYzsOUjGjyPT6hBbHZQVAHoMJJvfz2BZw4cwm6ZSKTz8Fgx5bgA0JE7BiSzAmDIaEOVPMXqUN0rXSUzr6E36lQEz91PRBQu+eWOpyJO7F5NafvV+/bWHIVquU1ca7Ng6i4FFIRQLVpU2cznTk1eYrijyXEdP0qR0SyYPyhI6sr8T2WM9SDct8HwshrhlQE7sbnHt8vQlyCZUlm96PszY/63gfjIPCwjIFKjViBKmr1Jkb6h1HqymO+Vkdo2zhzaR6wioAfoFxw0HDbaAuhto2JvjyG84b0hnPwKf1McqXVRguarpDiGdvA8EAvJkYGUSZFcsfHmUuzuHRtHi1mr8XbZMo2SvpLVcukcCuIEeBPukAIBgyQs3Q8smcnRkcG8OP3z6Anl8WBbSNYnFnEifMX0SFjG7nnbUeiBjoINO7MQDA9RnS7GDfdwGq1Bi8gtiCVC02WrrTOpGpygKMBfT1sn4yxuLKi9NRTFG+SbVZdGSpFIF65cDzocLQYh3dN4MDUcCIUtTGq/ahL5x7ff8OBqeLflCSFIM6lWhuXrldwdW4VlVpdIimP3vstDeCdfZ/UIVVbV91ovSyQ7NXEBKUfk6aD1w/yJN0nz78hrSniwsrBs9jmGPmIjRiBRB2GcFRIipvzKitMOQ0pT4KkXy0L2YyDnp4yRvq7sX2kG6WstQY+VcHow+skrGcx1LgIUZWuy5786x+/imNnL8HIFNQBaTAr5AshGiNHZgSUqVURl/BUbPiuaxE2cTik8t3gWqW2Wto9tQ4KQRNfmTqGL3f9GLZrI9LZWsicnQIny+ckeWJpR0sIKdayB+rp4RXL+HezL+LI4n5peySImRwjzGQmrkmyhtbXzuaUdxrxpq47I0jFFKpJ7VoiV7bG8p4ss/ihtPRxD7OcTfCb6WSgG4oquN1qiGLs3//al/A4hZoSUfAbHuQet+TdvO1GByGN6FU5YLUd4L0Tl3H6wjV4fMKMBStrKbnqdAuLfU3ozjkz0jqqHDOFKU6yBYkNlr+sMY8qJ0G6z5Lpk84l+Um88iTwu3HPcNcleh5rtlPtp0iIrkKYkQbqd/lirzWYaduqfHZCb5zyzSRlqnQPJ2d9ghFTbbOiN5bSPNDZS7IjpPtmGU50gVxX2HHZlbR/agSP7x1HD/EI8lx0RT9Z3YVbrYNP1kEQS6JSLhyk64srqDSb6CkWEJNroLsLb07PCS+B2fakVz7b1S1Avd6uDGqVFfjQBBlr+S4mynkcGBsQ5bdqs43Lc/O4MrMoKU5FCx6hO2djx+gwtg0NiGTsmek5kMWPuAQ+h7h5t+EhSLXLKeCSdjn0FgsYG+xbiwAIlLtyfR6Ntg/NIC2yIXzpm2urwvrHeqlto95qC0aCd6WDoAzkrS8asq48lRxzmF+YQ5stnrotDsxGHbT1ezAUCRDrGVi6gV1DXXjh8A7lDG2E496NVfhEXqtMDzdjEMfiVTfaHTTbHrxU7vEenyPtP19cWsWb751AbDqwHRJe6dBJeML5VyhCceh4UJGHwHM7yvtfq00qRDOjAf4HDQE7EkJLR3e5jJFiF7IG4BohZldqArDcN9mniKzEYCjm/hQ9IPoTmiZEXVQjLbAt0uGBpqLOX/aLB+/1xVV8+0ev4uTl69BtC/kcJctVlkFFzYoBlXMkadzbp2tuSbTEl4cUWIpsdPkr+OqOn+HRzBE4DWKKNjAnpmWENCLcVK/eiEkKijZ+Xn8SP5v/CupOACNguYskS5aklu91Zvh95ZsnNWqWHMW1l1OQjgHLJcQTadAo6y6cHbE4B3Q8v/DcU/jG809IVmkzoO5hWCskkmt0Qpy8uIB3T13GqucidqiFQ9tnw0pKuNxqDGK4H0h7neZO1w/cNHDYlF6XjIkiChL/Tgm/SobI4C+ERj0JARIROxU48bPYvZIGFGlmj45NKKqdbKP3SdhGIDEAO1CBi/I7NjmtCRSRYHNhnhHnn06LhJiw1K/gk6KdnRohHQRVinH9SEqqMXVKvA56yyU8uX8CkyP9KLCzInGS1B3udaXdv9XwyToIyRFAQ9D2AixVahR0RrPeRDdrdIUCfnr8PDpugC88sReVWgWXlxqouhHytoaiHmDX5DacvLqIpbqLiVIGXzi4HQ6ZpRDIBEzP13HszAW0/QCaYSAOAzimhh3bxrBzckyM+/HTl3D28gzaEY2IIRHerSxTKouhaHbpLighXtWQk6a/dGHaS7EAUj1b0xJYR+1KMlpXoML0tbzjDRHRTfPKhWnAMYDhvh7ZGMvVhnRwhJJeTVumbnwj5WIj2GJItvcV8MWn9qunlfX24Bfdhy1fqdRJtEYnDhKBfKQraSWkQNZfvfILXF6qo1guQ9MtSfdJZEfiJWZ8EpBYdXUF7XZrTV1T0NPCkKj+lRQgswYk2bIiTI0NYbhUgm05qEYBLl6axr7Jbdg+Ori26dO66sZWW7ZFsWSkDg5Glir9uLnl6iN9/wf0Zhpv7qx6q4Pv/vCneO/UWfiaKS1dOcdKCZI3pXhvvz5vai1M8k8aqPlQEC6EF3pfxtP263BqDbR0C7aUGNQAiCO4uT3xprGJANvHvLULf734GzhtD8EJTGR8Bh23thP3MryyupPSkbQEKkYu2Z2Ch4oN+J4Lr92EiQDPPXEIX37xGZSpL5BkwO7lcz/O90iLn26IQ89Os3dPnMPFq3Mg/ZmQaWm6SNcrjIFifiU4PK3ZqHlSB7wAyiUzoOZP/atc68BUDKOqVKeycnx9nHBU8PcG6bCF9VIBGj1JCSQZD5VeWOMyMFiWDWPJIAS60uxhRsEzlDplcmzdAIMSoTj1LcTxkIyhtETyveqj6CCISgcTQxHnVZCPsCIPvXkLh3ZPYO/kGLIZZlnSgGPt4x4KS/2JOQgb05BMqTGCXlipCk96Puugv7sItsxcXqphZnYBj+/bjrJtYKbu4d2zc4JD2NGXgxUGeO/SNXh2BuN9JQwXc7BUzkCiOi82JWo5fu4Sah1PTRq14hFhatsgDkyNyeQdP3sZJ6eX0QgNGJKXuFXoksx0smzT7LIyYRs6kPkLAQ0mqa90RSVI1tTgx1ITVbXFdRDE7ZsQ03Qmy5bdBcpaU1zIQq3RwWqjJt7yzZfqR49gwYqBPcNlvPj4PkWs8xAI+9y5gVJ12iQReOdvu90rhdM+wi+OnsArR44hW+yCaeckhSs8FHLoq3Ylbtbl5SXp6WbdUEVrisCJjsEaul4yTwb6ihb2TQwhZxuIDBvT81VooY+n9+9EwSGDYJJf3cC/sG4GFGGLqm3S2K33VX/0L/1g76Bo0JkNAVqdDl59+yheO3oGyy1fjCjZJk2bTpriiBCuCuWL3/Eljjc7l6w2qaXwmHEa3+j9K5Rq1+CJZDMzRWmWThLYSRn51rtH9iozgHkHx/3d+Lvq85gPdiKUU6qlhJ4+wrUhYS2KXmmcKKXHBCgZhroESaHbkgzoM4/tx+effQyFrJJ3TkuJH+ExPp63SqaP0b0iUQpiE8urTRy/Mo8Ls4twXdrZhLuABzjVaqnESoCfOEk80JMsQVp2kPmi9TbhxQYC4h109rnp0Hmis9xgaPCYCSCQXbV1JS2F606AYxDYzfyd+juzFxHpuSOWeVjqYOjOIzxSOj1kRZQsLWm8IylNpU6NLIUNwRmDzE7IUqMB6CGYb+JrqEDMLJYVacJfkrWBgZ4uTI0NYGKwF3mb7bnpOkyzQjc6CA86nPvEHIQE26sqzmxDbHbQ7HjCAUBuA10LpBVQJFnVFIpg0pEL87gw10BXzsHTuxmlsbVH1bDSSD5d7VKXoucWxbi2uIzj5y6i1la4BW5MCz52jw1I+x+p8d87cwXnri1JPVRZpRQklUxSkjlQnm3q9apEmPL3ZLcm2YWk/iovvVV6iDEiF2Da5qZIkz7skgoIfWRZpLQpCujiUhpUMic3XwpbYcIMAzyzfxyHdm5LvOUbv9+HffaD+3tySqwVPO/PNuHtLs8t4Dsv/y3qbohcuRe6YQlXBEW8NJGbZkQTiYNAau20zUw5CCnZSZJN4O9MCztGBjDaVxJ2NnJ2TF9ZwKFdk9gx0qN4+zc8fsLZtDa0m0WgHirOio+4ANbr1YpFshMA52bm8ebRM7h6fQmVSlWIjgwR6KKToHAeGzEIH/YIstMiB65dkVax7Z02vj74MvbY70NziXdQmZ4UWKh2rGI7vPWlIaCIl+VBM3pwNRzHD5eexGV/QqWj76Os87pNTIRoYuoEBHJYlnJZDPd14dnHD2L/znE45IB4SDMH64uZD0iblKgmCkONgaVOiAtLTbTcAKWCCnDcDrs7DBSyhnRnBB0XI/1dyBGfwXLLWl5BRd7NGLi60sBq04NDkF9MxkJqlsQodGWwtFpR4D4fcKmIaFvwIuqohMJKuG+giHxC48z7zVda8CIN87UO2qxVsLTAFvQwFCrlcimLAiAdavL7pNTA94pTKmtIk664StvHxdkKMoUCViqrmBikyq6G6YUV5It5uPU2HpkYxHhfTu5jJKDFzesv5edQp4267o/l+7BddPu/PxAHQRFFkMAolt5YAS5pzAIYQlUph64eYtULcezqorQWDvV24dGpEQyWcjCFaCjNSaz3isqWTwiJvDjG+avX8f7piwhAwJI0ScEMPeyfmsCenZPouD7eP3UJJ64tibe42TClYBpjQ1Qjta9bEBfL06yh128x4LKeVP9sCppbL1PcZoLEjqWGbN2giY+dlgs2r6Ck/ZHYhYKhFVtHMQAAIABJREFU4WvPHsBIb0k89YejqnVni/Uugsg7u2HyKjqd3/nhT3B+ZhH5rgHorI0aLBUwElFyz1EUYGVlWXjkmRZl5iB1EMQ1TFgvefCUsqbod5AwxTVinL88jb5cCU8f2IUca0ObHIQPetgHbQzuaiDv6MUb0wEqdmYE2Oi4mF9WmcKrM7OYX1rCympNGPTUq+7uimMTgeHKGi94FnbnT+Jzo+exTV+E7VVVTU9C18Q5SAzvel/9xs9j1Bci0h1YoYMw5+H9cAe+d/ZrqBD7s0Go6e6e8uZXbyT15Toj10FvTze2DQ9gx/gwxkeHUKYeSGrrEtzLR/3cj/f9nHP1zdJcwFzdxfnZVYSGBcMx4XqKdZTUxyZVNiMfuu9iz8SwMAfyQE6zAKqVMkYnjDG9WJGSdD6bxdxyA6udCLrtwLEiNCo1xa9hZdGhmJ0WYai/KG3l1Gk5vG1ICOZ4MY/x2vtnUfN0YadsBx7qgSfZh+5MDpqpo9JqYFvWxhP7toNt74YUC1gSSYjnEqC9FwNV18fxi/OwiyUsUzNF6O4NXFusoNhVQKtSx+HJQQzmCTxmgMjyEjuz0u4alf1OHQT12xvcx493yj7g7p+Yg7DR8xJCkUQHIfXuWUOSYkC6a3QClzS0Q3JVuyhmLGSpEMYvI4GciujVoafS6mpcU4SrJjiEN46exswCF6eqJ3HBZA0dh/ftwPahAUEI/+j9iyAfgyFc4AkJhtxKaSAw7aUQzClohQmv1JQlGNx0shMyFPVMqV1Szkw5VxQRkbbrrmmlpyDF280Rowkxs9LtkLAFJoRPt85AqDac0A+wc6QfLz26E6UMl7g6qe4ka/HAVmPywTceKypTdL8uVpHfOHoSP37tHeS7B2HYGeUg8Cxnf7tlSe23sroqtKmsDROkmDoJAlKkg6ApvYt9Y2UMdfcDZgbTq0uYX5jF155+WhxZ4XuXjPDGqHjjt9vE/PYpACbeOE8Jte6aO8+aAxFcqi2MNsD1SJ8eCJEZQcTs9LlbB0Ex7nmIowx89trrdfT5F2Be/dewZt6B5jcVP35CNJZmaW61F9RuZnbORGARlNhGlBlCY+p/RKvnmfvGSirHqMLVyUV9APmhGJBlw7b1tcNEDo6Ebl3xET7c1437l6yUQD2IUWl2cGF2CZppyXckRTaVbbcNlDGQt9DjWMiz3BT5CXOsIayzXDMMeAJ2Gmg6Oojw7vlraBom2hFr/hEOTgzieqWJa9UmSjkHUbWG/dv6MdpVBIIQWWYGk44EYiLOXFvE9FIduyeH4FgG3r0wjZxl48DEKCqNBk5Pz+IAy9rDfVLCJsMu1w2zVCSk41adWVjGYr0FLVvC9ZWW8PlYGQ1ByxVH0shY0lZv6wYmB7oRtRroL2QxPlAC6bbkUjWjtQx1erxBcHGKMfVBXp+Yg/BhXzLNB3zY627/9/VIW7kaqh95sdbAD15/D74MdBL7R8BQVwHPHtqF7lwWjf+gH//KW8dweaEBX2edL5Y+ak5QqKUoWwUcE5pYHhzka0/anpSBIlBG9cQzjZTTAIfsh1EIzdJh57KwNQ21KIc6PV+/ATNuwyNSmbXSW3wx+bxEzXFzRK3qYarwoYhgFLqa3z2IHWRjD88fmMDhXdsUmCZRvLxb43vv8/FwvpM18dmVCv71N/8CuZ5BWDnFlSGcFQQqagbcThu1WkW+AOuiZmzC0EywYy4wkjY0AN35HPZPDgmWodEJMH3lipSvDu4YA4FPKmO0dd04AptX8v1akcphV4eTamvT3Ouo/uy/Q2Hl54KW9Mh0R36RyEJIPNAtyLfU04RoG1lomodM4CLMb4f27D+FMfQb97XE8NFt3i/H2vLjSIT0Ls4tYr7mwsjm0d1dlI4zKtLm9Ah7BrtRojNOlVKDHQe04QrvIXZNaLkjARUvuxHePHkZ5ZEBzC3X0JvL4OBkL+ZWmjgxU8Wu3SOYPnUZe3os7N42KGBkpvXXO1VUOKla2mNcr3XwtyfnUXQMPL+rH915B16sg5306zDy9dliqZji4Kfn63j/0gJiw0E+Y8JrVNDdW0YzJttvjC7HwfzMHOyebjSCUPBzj46UsH+4R9rXxTW4BSnnwzSrD42DcP8GhVOuQCJxHAjw8YdvHsdirZlgFwzBhDkI8eieSeweH5YkVq0T4O/eP4dLs8sIdcrGqlJHCm+SyaSAEPkNSB3baQkdcGqQEu4PZIwQe7ePYufkNgFE8ICRKNTQcfrsJZybqyMyC/BFi74JLyEZYYZi85WifW87NvJwSTouqW8IctyPhQL6C0/uwVBXXvV+C3f/g69p3b95vrc7cQyano8/+n//DL6RRbbcveYgUDmGc9VqNdBsNFStkQ4ClOMQGixDsDUxRsY0sHN8HF0FRyLh67OLyDoWPvfkQWRJnilzs+Ug3NssffR3qS4QD9G1P4b39v8Ns8UsIlvQaBgc6Ui4nWvCtmauEwIcI8tHo3sM5af/BbTCIw+a2O6jD8wnfAeOI0X4plea8CJgfqUqLZzS1smKcsAW4TzyGp2EHunSIDsqD07FA6CIjIIIWGm6CHUCgQ2cuDiHKm/IPRsH0hXQaruohwbg5KG1a3h0e7/cz/V8jBRzCsu1qaWd/BRXlut488IibD3C0zuHMNBVEFZduie3WiOkh6bdPnZlCRfma6LA+vi+cWhhiLmFZczWXdn7Q1kHIz0l2GUHr564jIydwfZyDk/tGlnLiiq+g4f3+lQ7CEJ6Emt49cQFnL86J2AlomuZ+RXlxnIOLzzxiHitpE+ttTt469hZnLm6jMgpyaxRdncjrJoZBIqmUFyJ6ntkwpL8ZUQWPGBbTxZPHNiBbLGAxUYTURAjY5joLjiodzz84p2zqDTJIW/DCzy0g8QzZuo1qbxRKpioZtdzRY7gVlf6aymupHSh0kcewQk9PH1wBx7bPS4tklsOwvoIMrpk3fDf/Om3sNoJke/qXXMQ2KLF+SXfvbQ4CpiIhz1bswypddAPo8T2QFc3tg0NCcCOeAW31cJjj+wVg2AktKsPOj348JqdT+rJQsSto+i89ocwlk5C09owiVpHBqFOrs5bIV3Y7ubB9hTArlG2YO77L5Gd+K8AXYmJbV13PgIc4enVJo5cmJGOtZGRPmGFJV029WSKpoXVZgOddgvP7t+JYWIuErJCwZYK622Euge8N72IZZelWhsrlSZavg8nm0E+l8Hy0qoQ6tGxIDCddf7B7oJwbLRbbXx5zzBKuczNANjYZwEBiy2WEYC+HNtvGTKaty1tMvCkn1nxmKFuoVKpYfvoAMp5B6udGG+fnQFLBE/tGMNA1kKt08aZmXkUSiUMFfPopRqvxA8qk/EwL6nPgIMAvHZqGqcvzyTcBaoCSSCMrUV48tA+TA11oVWriRgTUeg/f+88Tl5ZgkYAm0ASbjQkIrLhZGBnMnJiCMLV76CctXBgagTd5QKaRMo22yD5Y9400ZW14VjA8koVR46eRTvQYRcIHiR6VmkrpFcKlqRYS9Njj3eCtdiQJkszGyx20EGQ9RZRxMrFzv4SvvT8oyhRZWyNIGkN6nTnu/tT+Eo6CAQp/el3f4Qr86so9vbf4CDQSNSqVWE4Sx0E0brQmUUQRQ0UMhlMjoygKACnAPOzM9g7NY6928eEKpntVKp++DBv/U/h5N7iK0XeDDpv/wGM669Cj5uwAguB5iA0PAj4eNMl2Ag9gu1n4dkh4l1fgbP3f0Js9iqmv605veuF0/JDAeyxa2BguBszS3VcvLaCnVODmMjbmFlZFdKj8d4elBjssHS7Rl2tgKsrnRjvzdRwcamNLFwMdOckQ9twA2h2FpWmh7wNZDVfJNLHJkZw4coi/EgTTMJL20roIx4hudYB6YphkU4CP9dc01j4ILSHymowy8AuBhHlEsXOGD89eR0XVxqIQg/7Bkp4auc4NLZhMoAk1XLSyqmiwbTp8q6H9BN7w6faQWD6iBP/ytGzOD+ztKEfOqlrRT5G+vvwjWf3o16pSN97ubcPbqzhp2+dwKkL16DbWSHRSelYlWyrIs21KNNMQJHBPtcIYwMl7N21HXOrLbR1G0tNF5adQey5KGeJim5ivL+MU6cu4Nj5WXRIZmRT6Yxa50q4hVz1vAoFqqKZouhG8RZKjRL7oFTCiKTnj4W2qFSS7CkEvCYcPcI/+LUvoCefEedAESSpStpWiUHlggj/+fc//JkAkcp9AxscBCXKUq9WRZJ1o4MgErwsN2gahvt7MdirMg+Xr1xDX1cezz56QJjQNpakPrFdvPVBtx2B2LuO9tv/FPocHQQPtp9Ryq1GB0aq0bDZSYgJS7MQDu1F7rE/RFw8ILtHMKdbDsLdr7aU40HT0PACvHn8EqYXKujq7sFvPTWF0OBhqxAHwogoYHDFPUI8CIedxHivnbyM+bqHYtbCoV0j6CnmcebCVay4zFK00JPPYiQbY9fEMOycjTdPXhWMghm5+PXHd2Gwt2dN4yL9EqrxnJliXinsfc2NuM133ehZJu0xCaXST45dxOmFVSmj7Owp4qVHdgvOgXZDISrW6anvGo179yP/kd/xqXYQpPc6jPHdX7yD+aqneq2lNpmiyyH9xb/3laelK+Ha9VlkMlkMDPTA9QK8dWoa756bUUQaZABLhpt1aduI5GDmIqbSnhm08NXPP4PYMDFbdeFGJnQrK56jwVAl9mD5HUz05BH7AV554xTqPrMHHoLQT7j7k+cCudht5HM5UWKUNUVPVdC8qiWG/eMNqtpFmvBKaKGLghnixacO4cD4oOrsSPVJtxyEtY2SOgh/+YOf4syV+TUHgQRJZN6kmmKjXlNwz6TEwPKCECYhQnehgLGRIemtXlxcEA79zz/zGPpLWckkcT0ovPMW3uMjW6ePfIMYUf0EWq//E5jN44IIc/ycktQ2OtDilMVvwwdJm7COTtduWAf+EczBX5UOKDPVO/nUdZp85EH+0BsIxXQCxmO0vVSt4+r8MkbHRjGcM4WYivtSdpgQDBG3Rd4adZF9gvTrbS/E/Godl2dn8eieKWmJ5F67UnfxytGL2DnWj6cm+pHXIZm9Y5euA4aFicEeDBUyUgbeSFFNkGI7Uro8OepfSMJvvXj74Ts4dRTW68AtL8TFpWXpptk10AtqeCpA0oYOsvuFy/3Qkf/oL/jUOQjr1JhKeOnywipefus43JiMdumUqzYVyepHIX7rc4cwQPRpq4NLl6+gkMthYnwE7QA4dXkO750i4VIH+WwG20f60VvMSx3aoJiKrQRY3njjCEbGRrFj+7gIrcwtt9DwueocxGEHeSvEKMEvQYALl2YErHN4/x4pTRDL4FJl0vOFYfLS7CLaEYl7DGQN9umrDIOkpAjYCQJ4vifyz1SXJZ102Y7xzMEp7JscRtZMuCTWHOGt42p9q7DEAPx/3/4Rri1VUe7uFnZK6WAwgGajiU6zmbAlCquJYBCIgs4YGraPDcs6qNYbIib13KF9mBwdFNyBatlNG1w/3Lx89O27dYf1EfCliXmjlDa0DsLr30X17X+OXHQVRmTCDHKIdB+BLsU56CHT2Rn4JkGLJBcDXLMX5v6/D2PyP0FkDYjQjiioJup8W6N+dyOgaLIUp0vCZSmpeZGoJwUxpU0UjAvzrotmEGMoZ6FkqTZz6c9KWkJp09lfJiJoIDfCCk4tNHB2sYmefA6PjZSwb7RHykd0NJiQYPQuGQJ+fjKHQr7khVhqR6h3AgyULORMCLsh4dwKHZDQnm/0H9da628eA0kwhSF8inDxMxkcpqVjGpfkAPplyuR+6hwEEWBKFuTcSg0/f+ekyAfHuhLBWTszU28hDPHFR7ZjamJU0vuu5+Hk6fMol4vYPTUpqPaZlRrePXNJDMrnnziIcsZGpdVBteULqUbvf0Cm/vUPfo6KG2Oot4RHpoZR7u/H6dkqWqGJghFhz1AB7eVlHD1/FddXm+jtKePrLz6G5eUWgjBEbzmLgmWg3nHxs3fP4sJiBb5soHXmRXqi4o0naoDMJvieh3LWxHOHd2Hv+ACylEfeSoPe3oLFoZSQ/uhPvou6F6JUKkBnCcmixGqE2soqQp8qoUkrgnAesHZoiNJif1cBXruDpdVV7NuzB49OjUnpYet6sCMQix6DDX1NwUdDrK/CPfq/oj39fWSjBTiBBS3OIjA7CDUS4/D/W0DOQEgacy2DsOYhGPmPkD30uwic3dBhwxCNAXVQPdiu9Ac7xh/Hp7My2jEgjlngRzheqcENdOwsZzFQMAUMqCSTlWqjAMKTeIcu3bsXruD96xUstGLkTeDQSDee2TsORxwQhWVgBkIpNqiLXUernQBzDRe1wEDTDdFbsJCL2xgsZlHMqLbzjawxm4sKH8dYPIz3/NQ5CKww+7GBq8t1vH70LJZqTUBnAUFcyBvmQNJNYYDP7R3Dzh3jOHfhMoaHh6SN8e2330NPVwkH9u2E5TjoeJ6AUVh6YKg5H/hYaXkgz9mu/hJe/9nrGBodx9TECGwe0raJ49eW0fRNlKwYe4dLMIMQnSjCmYtX0Gg18fSTh3HsEtt+TAx22ShQyiuKsVSp4rWj51BnG49IRasDaI1ljuUGksp4HvqKDr78/OMYJWuYaAqr1sqt6zYjEEeouz7+xTe/jdDMoEDUNElULBth4KFWWVXysamDoCvCmp5SGYNDQ4iCECsLc5gYGcATj+xDgfiRrcF+CEZAZRBknxAjREZWfQ71H/wjmO4pWHEFZmgj1rLw4MIw2zCsEcSFLmj5NrQwj9ZqB5qxHdln/wBxZhKhnpFIVIMrAQb59LYchPs31bTGlXaAuWYDpYyDUj6Lq00f9UYHU31FIWqeub6A3u4yuvIObAL8mGYQ+0YOAx3NQDHufvcnb+KRXRM4PDUiGVR2qSmRtzQfINq5slcDmFjs+DgzW4XrFCVzlAk6KHhN7BjpRp6iCcw8bDwu5L+TX6TU3fdvKB7aO33qHASCy64uNfC375/HQoOkG5QCpYzGrVqamNoK8OVDE5ic3IYj759GqxPgmScPorJSwbGTp5ErZHFo7w50FfJo+iEuzlXQjCxUQ1/oQkmmcWisFwtXrmBs27jwcrc9H6Gh43rVlW6FnBFjuMA0dQyHkreOgerSAka2bcNrZxbgk8hDj+Wwsdw2psZ6ceTYOZy7vgo3JVoVIiQlGhIGPjKGganRAbzw6C50icerJHT5I47C1nXLEaCTNbNUwb/6s79CrtyDbMYG20pZCurUqyLzzC6VtFbJvmmCD4f7+2DlilhcXEZ3PoMXHt2H3kL2pr7qrWF/UCOgGsYCgtriCCYdhPpbaL3yX8PRFqCDvekWIj2H2DJg5gtApoDIDqEHMYJGiHo8iPIj/xhaz0uISJAm7dBkfmQGksfVnemnPKgR+GX7XM7Y6fkq5ipVdHd3oeOGaLkeogDIZR2USg6W5hdRtAzsGhtEwTbWNBFScT2yGvqi56RDC2KYLCOIV8fASompUa+hGUagFENWEskxXM3EcifAmZUWWj7Qp0V4ZKRLsAh0DihH3fRJtU68GYMEynKnpYfPTofSp85BWG228eM3jmF6tQNPz0leyox8tdE3XKo0RGRygP/4i4+hUC6LiMzM/DJ2TY7hkd3juLawjPdPn0UGAb704vOouQHOLTZRjxw4omUfAqGLvWMldBczWK61MVvpCHCQmt+eYaMTmbARIgdfcf0jwmiXjcGiI5LX716cQ+DkJcVNtExP3MbOwSLqbR/ff+0EGmFStQt9oSAtZGwM9ndj3/YxTAyWkWeNnDtK0m7KW95yD25vKjnt7565gG+/8iZKPX2wTE26ETg3teUF1SmSSDvTOWBpYaivG8V8TjAHZLZ87vGDGOvvgiXpzq1Wxgd9MK3VdCnUxsM8jmD5IVqX/i2ME/8HbKODUI+gmRlomQKMbAGRWUag+7BJ3NvsoNUpwNr5n0Ob+HXEekkCCukCEo5mFsnNh5717kHPw91+Ph2EK7U2lit1VMMYdS9Al52D5/qITROe38FwV5asFZgY6EEukURm2YDXugJv0qElJQj6iVSTjOFGlBoP0PY1XFxooT+vY/dwSewxnYpmrOF8pYXZ1Sb2Dveg3zGQ1SDibex0ev3SPBzHRm/eQU/eQVHwCcwjfXYwXZ8qB4Fr4+1zM3jj/bPo8CjWU6rOMJERXUeoqlp+jHzGwn/2tSfQDmK89t5ZLKzU0ZWz8Ozh3SiVC5hdXMaZE8fx5GOPwykVcWm5hSsrnvIoDZMECOjKxMjbOpabHtoe4OgxslkLiy12JziyIHsyGiqdUKjoudi6MhranQ6WOpHQLUe6Cd+NsKcvg919ecwvV/HdV4/DdUnqSYxCAWNDPRgf6sNAbxdy5Gpf2yZKUjctRDzc1Bt3a0bu7+vpJv7k9SN47dgFxYGgRUKzTJBoa3VF2pMYjRBwyCxCuVDEUH8/mvUqvHYDn3vqcUyODqxHFFvZmvs7QfdwN1LfEpyoRToCQ2UQrE4Vlbf+e+RWXhYAauxkYOZz0JysKAGGmiNkNmboolENoA18A7ndvw8vNyj8fRTnUcwhqnq9Bn7c8r7vYYZu/RaObiOM4XUCnFhcwUoEdGs2inkbs9U2Is/FY7uHUdCILzCSThIV4a/ng5VXsNZenAR+dCKWGm1cXKzDM3OoNmP0ZiIcGCtDCwLMrdZQi0xUfKDjhyjnTGT0EGXHwGC5INoPP7+0IlLwBSNGgXTQY32wKSn9GQrCPlUOAo3/X7x6EtdmF8mRK7Wq1KkU9Gp6oBJpztZAxNi/awJfPbxNyDtefe8cWl6Egh1h13A3Du7dIemoRq2BpaVV9I6O4vS1FYTZAmbJ/uWp0kV/iZKgMbzIhN9uY/doF/L5DE5PX0etHaK7kMHOkV4RJjl5cQ6ZbAmmqQvPwcxKBRZbegwLpe4BOI1FHB7rwukLl3FmoY3J3pI4Bt3FLHK2JZwLakMoMp5IM6WHmHEsTZmQ9AhN9JYlu5VZYkvTt370tzg1s4xMoQxHMggaqvUmonYLMT2tRK3R1A1sGxkVc7CytIDPPXFQukSozkEDJKC1rWG+bwfGvd4ohC+dBlpoIjRjkP/EWD6L2hv/DXLxJWjZbhj5ImATosOdwv8gwrwDt7KIVv6LKB/+J9BypEfPKNlpCVEVyE3h2ZlJoBHZQiHc6zxtfh9t81K1gU7Tx7lGE3Ouj5ynI5vLoua1YWvAwalhGG4Ho90lKREony3tVUtzCGl3hJo3YWKEhloQ4tRiA1erLjKWibwWYrQnh0ajjcWmh0rEzjZbWt29sAUNHXRlbEz0dcFrRrhYpVgboHUa2DlcxERvAU5qWT8j+/5T5yD82x++jZVGC6GQXFPCWdWNiETmmcmInuAWlh36MsCvPP8YBoo5HL0wgzdOTsN0cshqLqZ6s3jqsX2wLRMauQYiDR0NODq9gGvVBnpyGewa7oXrtnFiZgFNswjbyqGgB3BsYLnhw3YsUSOLtRh+qKGvlEV9uSGfX2d5Aj72D5VQzDo4Mz2Hlh+jP2cJCjdVi0yP+pvX4409uL9MrTP3y8Dcy328EPiT73wfV+p1ZHJlOAlD4kptVWSeTQpnkd8CQLlUxOBALxYX5zA1OoIXn3hEDIS0vG2JX93L8H8s7+FO0iNfBQWRLlTJ0ZXvIHjnf0O2UIVW3APoNcCoA96AZA9CJ4JRbaCxqqHwpT+EW3oWVqzDSsnxPyMHwMcyIXd4Uzpe715dxrm5RRTsrGAP4mIGzWYLOcdCh6Bwl3ZawzM7R9CTISFcnDDHcoKUWkMaBYo6prRDKjj3KoGIS20stnXE7SVomQz0TBZwQwSNJvbtGcLVlZZIR+8e70PO9HH5yjxMJw/DyqNeaRDfLtngckbHI6M9yCWtmp+V0uKnykHggvvWz46LvDOZ1klkxMNZYQ3IOEjwiSkeZt4I8fiuUTy2ZxxeGOMnb57ApYUGTCeLog1s783g2UN74IgLqSR72X8rIMRAIWKpzpUpFHB0dhWzdR9wfUk9sxTR8XzoXhM5M0bLixFnS9DtGHGzKY2/vmair5zFs+Nd0pLTIjXzakMYF/vzlmQmRDfiDjfb1svubAQaHQ9/+t0fYq7TkUyOzdoyIlRqFcQIRbXRSNoax7eNwPfagv34wrNPYKBcEhS1dIkkkeXW/NzZuH+cr5Iee/bDGcQMGIjjFlon/y8YV/49nL4swKDAIIZHR6zZQuureT6q1QyKe/9TWKO/gpg6CyIHnEjKf5wPvHVvGQFa5uNXF3FxeRG7x4aBwMLJxWW0Oh72jfSjr5zHG++cxORQL/aPDwhIUTyAFAOQOHEb4eeyHxMHoRVEOD+7It1gQ70FLHs+ppcaMGIDWd1AMW+h2molDZAxCqUCKtUmQmajAOwdKkrLc6VSwXBfF8b7yrDYPinZpc+GB/mpchBkwV1exKtvnYCvWfCp3b3W8kfYikpFOVqM3WO9ePbAduEQaIbAq++cxumrCzDtDMoZU0iHdgz2Sp2fLGB0NEjSwVqk74d498Rp9JBkp9iNE4t1VNoeRvOGfOayr0Nz63h29wi6iUWoe3jn4hK0goZMFMDSbay2IhQsHU+OdWG0aAuxBrXOJcPNmmrCLbZVKri/1nS13sSffe9lrFCnPVMUSZYoDFBpVCQzQAeBGYSeclmwHpWleRw+sBsHdkzCEibOSDoX6GxyvW0lnO/v/NzL3QSDEJAJM2kEbs2hcvSfoRicBgp5wRn4hiPI9iguS9uquzSPePS3Ye/5fZhxQdj4iT0JNEP2/GfD/N/LaN/f97hhiBXPg6MZokL72oUrqLc6eHH3BIbLBazW2ygXshKo0QaTw6TtBshYBjKm4kcQ/Yw1tIgUGaQaxN95zNRKxs/E1XoTJ2eWoWkW4iASfEGXQ9n2LC4v1uHqWeFdiKNA+GRe2NGNnGUj8gPYBtlUWVpUZEtCivYZuD51DsKKG+Dv3j21ZfcqAAAgAElEQVSNCzOLcMVBUFA+aXgh213kSwfA43sn0JtjpC4VTFxfquL4+UuiQ75rYhzjA13IEKhGU8HMZaJrwHIDgc2Vhso2nLm+iisuFcTaeHbnIBYqHZE2HchqeHHPMOw4QivS8YtTs6gHLga6siiXSjg1U0E+a2JQ8/DkhAK9qVYqAg6TRb1lqu77Flyq1PDv/uYnqJB/3c5JBsF1O2i0G7BkvnWh1d42Ooyg3UTRMfHlF55BiQpsG6o6SuNTAZa2rgc7ApTfZVZO0yNBn2PhKJon/wcUs02AJUJJIurwKA2cGYc/v4goO4HcwX8ML78LTuyJ4WfpgVoAa0Hqg/1an4FPjxFHZLXUoUUGWk0Pv7hwEc22h2d3TmK0V4nZJSSWqPoBlr1IZJ+Lpo6RYgYlW2V8CExNKfRTaXvRz4kCIUDzAwsnrs+LkNLk9lHMzDUQRB4em+jDYM4RMOPxqxX09JcRuG1EnTb29prYPjyq8C1KfxoB87qC+fps7PtPnYMgZYBmB3/3/mlcXVgGa86iwRAxYjfw1CN7sWdiCA4xjNLryB+ZdpEjVUzs9BLJ08X4MEkir+k3JC019Fwj4PxiFW9cXgSyeQznmN7UMF9toWiGeH7vNkHFLjU8vH1hAS0/QH+pAM0yMVvvoN2u4AsHJjCRd0CR0XakwzYTQNRWfPqxGMjF1Sr+/G9+jBr5Ipy8OAiddhtNtwlLoAUGcoU8hgf6MD99GV976XnsHB++iVsiJd7aair9WKbprm4q8aOkhUmBFMG4+D2E5/932D3MGtB30GAGMSJ7L6K4iuU5D31P/wH0rkeg6QFirQMfGWixDYsexlYK4a7G/95fzDA/FAeBDJgsE1UN/ipGSRhh1+WQyTZ7aXEFFd1BNdCQR4gBPcJ2pv0JHJUsrypciKlOlBIp9SR6jZGGMwsrOD6zhGyhB3EYC75gqi+Hyd4C3jp1RVgVTcdC4LXRWJnHrz17GDnbVlTbSVFEOlukY+yzUVz8VDkIag4l4SiqYdPXFzC3yJSShv6eLowPD4iWOKWe1VpiMVJEx5OuWoqFMM2s4LLqEFAEGbzoa1S9AO0wRNk0JO3FXtpXTk5j0dPQnckhDkJEpgW/00K3A5RzrHP5WPU1UMAhGxuIgghNt4OiE+Mbj04hwyxDGAsRk2MaKKde8WeonebejczdvZM913/+/R9jlcQpmQLITNFuNdHx27B5yBgGevp6JQ1thz7+3te/hJylUplrzqIYIP7POl/73T3F1qvv9wgITVjcQStqwzr2r6DPfRtxTxkmfLi2BU0fgukXsDR9HqWn/guYo7/BXJHYgsAgO4kGS4IC8zNTX77fc3Av96NppWmkJoMexXDpnEXSWIp2GCH0I5Qc6RtCLQxxbrGO1UBH2Yixq6+AsqNYcpsh546kdDrMRG6dRLTTy3X4poW+vIWFlieYB8PMoV1vwLLUjs7athA0kRwpYvkwDlDOZ/HcxAD8kPikGnpKBXRnbWTTdEaSmb6X7/zL9J5PpYOgKDSU96kAhimsRQl8rMt6KgchaZ29qfCYug2SaWDtK4xx/NoiKl6MLjtCsZhHKwKurDSw2gigRxbi2EepaKFeb8O0MuKRel4bke8iV8yhWuvAMDMiJzzSlcFUd05S2/NNFxXPQ49t4PHxQVEyC9mj/xnxVD+pTVOpt/Dn33sZS2G0VmJot+pwpa3KULTXAwNo1lbx3KMHcGj3pHSUKI8ySSyuoaKEKP6TevStz7ndCEQ8ZEhgE8LtXALe+l9gYx6aYwK6Dy9Tgq5PIrx4Acbk12Hs+23ERrfC+sSGaJ4YGnOIpGvmYfTZiA4fhgVFG8vASxgQxVlgx1eM5XYgPAZ+o47DU2w/jdBgicEHLizUMFxyMFa0UaR91TScm1+l5C56HQsjBUcc/Grbx5HLC5hvx1JOdsMYlY4n/9qajn1jfZhZqGCx1sT28UEYGQ1nr89LANedzaNs6VKiaLUaGO/vwuGJESFtUq2WqnT9ab8+fQ7CfZwxJfvEUgSTVLpoL/zi1FW0kAWCJsxcQZQBdS3C8tKSIKFJuHF4qlf4wN86tYCqH2Gw28aBbV1oeMDRi3No+IrBcaS/S2iTCZSrux58Gyi4bXz9wB4UbQ2hEVJfbgsydR/nlACnP/nuD6TnmhkEm9K+zTo8vwVDN2GbNnq7uxB0mvjd3/iKGCBxELcYE+/jLNznW1HwRw8kGxSvvgn3zX8Gs7cftjYPV+uClh1BZ34RRm43Co/9Q4TmCHSR797s3G01C9/nmfnQ20mLqiTklLUNNB3Vji/8BVUvhOE2cXjHNlG6na+0UA+AegRk4wA9loaB7jwy+Qzev7QMXzdgRT4e3daDLtuQ+7w9vYyrDWpzuMiGEbYN9WCmUkUj8DFYLqHe8tBxqeaYRaCFWGk1MNLbhbAe4mK1iXwuC9MnW24v9g13I5dg0T4rfBhbDsIHLGFlLpR8IsGL9TDG6cUm3j0/h6xhwXKyaNQqyOg+tu8cxsX5VbTaPkYKRXTbDq6v1FGHhkLGwlDBxmKrg1qrg1zGQl/BxvTVa0CuBMvOwaVQULuCrx7eh72lHGzmP3RfWrS2MNUfamfu+AVEKf/ZX/0QF1aqsPNlOMQgNOtw/bZ0L5BSOe/YGOot4yufe1rSlSadg61MwR2P8Sf9QpXgawKxheDcj+Be/n9gD3QhxhUEmWdg1lpoNarIP/3fwsgPQA8HEVKf65N+0K3Pu2kEVJZ23UGIaGf9EKfnG5hr+oDXERZZZhW8KIKTy2K50kExpyHwPNimBcd20Kh1JGNczOk4tK0LWV3D7FIV70wvY7raQdsIsaeYxVcO7EC708LL772HFc1AR6dap4G866Kkxxga6MbB3VOI/BjffPOC3JPZhx4L+OLjO5ATYLJSmPwsXFsOwgfN8lrtQaXBLi5Ucfx6RVKWs0sVEQcpIsAXH59ATzmDi/MreOvKInTTFvavwLDQNkxoYYSM7yKfySPyOjgw3osdI71Yarr49i+OA5kuCkRiaLALVnUFz0+NYqjE/u1QlCO3HIT7txV5mHzvlVdx9Op1WLkSbN1Gp1VHx2sL60R3uSgA1icf2Yd9U+OiICcG7DNiEO7fSH9yd5L8XuzKdmm8/c+hhZdhdIeIoy5Y+Qk0zryF7CO/D2P4JZgi50RdBQsUT926HuwIrDkIxHwlgVij4+Pc9RW4uoFMzsbMfBWRbsApFoSqXm+5iG0doWUIO63p+RjIMJAKEYYeDu8YRVYnH1KEE1dIYufg7etz2F3O4Mu7x5FHBC/Q/n/23gTesquu8/2uPZ3xznVvzZVKKgmZQxKGgMyITNrYOAC28GmlVbDbRnBonv30qfjs5+vGVpRW+jX9UFC7A2J4KiSggB2QKYEMJpCpMtR869Ydz7nn7Gmt9/mvfc6tUyfnDhUqSVXddcKl7j1n7332/v3X+v9/67/+AwvG4+uPT/PgoWO86ror2FmV+ghFZVUp0vQXX7qfarVcdOPds5U9E3W73VikNm+OweMIwnrzoxOgKEFMx5aW+cp9+1nUPjMS2ZortgbwvddcwGS9zFIr5s6Dx5ltxTbg5uBckzgoUfFhe0Xy6xVj1RJX7tlq0+caWvOxz99JHA4RBh5VTzNKwsuefakNiLHlkzfHOFxPCmfucwNfu+tePnvHt6iOSC+GgKTdsqsKadokwUglcl754hvZOTluPUjFjrQTxJkTwpm9kjUyOka1Gix85Z34k1sIqiU8/yIaD32JcPdLqF/84yg1jBSwMJKqoFyb7jMrhSd3td5NHSEI4qnLjSHVtiimbed8t2zLJjleIB02NReN1phZjpnJigZ8lTzjhr3bGCpHNrarFsr2UbEtnEnV2tTw2OFZhioeu6dqtsma0REzzYxvPHKcR6Zned6VF/CsyTrDoWRE5CTGcPfDx6iVS+zeOkYtlJDWbmRbUdh+M7wcQVhDyifT3oXdKmKtOTgzTxt4eHaJxw4cY/twhZdfczFbqhEmVyTS5dGWXVF8+uv7OZFkXDhR5YWXbEeF0jYUyrYYkrF7aX/299+gpSKuuHAno4FhtBRwwTYp0CSrIuPaCZ/pWWjg0SPH+NO/+QzV0SlCv0QaxzRbDQI/YHKkbuM/XvXiGxkfll7xjhqcaRGc6evZLQbaqLlvcfzLv8XoVa/DCzwW77+bqDZG5bqfRZWmUEZqItiseSmKsmmU/JnG+6m6niUI9lUEBYsOPbS4zJ0PH6JUHyHPcobLIdfu3WK9ufuPNxgeqtM6McMV28fYu23cni3N7WzmmQ1AL/o3e6nCSCEtP5ckCR4/vsS9Mw0OnmgTpxnDdZ+LJ2pcOTVme+dkNlvB7yS6n6yxUNyhBCtvjgWDIwhrjPaVIEUbhwDSe1waIwkBmG8mzEj73wB2TwxT84VdSrqUpFlKK9GAj3/520jhJknHedVVu6n5tgtEUfjDaGLlccdjR+02wt6JUbaUIwJPCnHIgCzSffCkoYh7nSkEjERDJyl/+Oc34VfGKJeqdi9zsblIKQiZGK4xOVTmFS98DsPV6srXbg51cKZQfpqvI1kMUgPh2+/HHH2A+rN/ibnH/pr8xP1sed5vQn2C1O/mA0k6ZKlwEzuhPs2CWvvrCoIgfW8ymsvLUK7Q9n1uu/cgmQnQWUbZg+0jIbOtjMXEJyqVyJdmefE1e6kGvg1mlKJmJ8VbtLnNJIXV1jryIPU4MLvEJ+/4J5aIMJ5PZpbYW4/4/muvZlu9arMmil4+Rep8USxPCuwXw2azVFB1BOFJTpEerttZZRZlXpvGcLTZ4pv3PUY7D6xHQQz+RD3iey7ezbDvE0okbChkQ7hu0W/h1EiD3uriTos9SRGtnKa1lNg1No5AJrwEQn3s5s8wvZRQHhom1xmNhXl8z2diqMaeqTFe9JxrqUWRDVC15/R4c1w8wncrkTN8vtG0mSf9m1+itnM32cRzWb7/49Sf/1MEwy/orCRlzSdztPAcuFl1hmXwJC9XlEgujLDwg9yTbLGYex+bpkGJoFKnsbhA3FhgYss4i7GQhwa1ahnPC2k02lTKAWPjdbI0RzebvOyKPdQ8qUhr69IWtWw6JfE6/glSrXn06DEeONHkOweneeWNz6aaLXORbE91nmXQJsJmy3NxBOFJDuxBp8ng2T89xzf2H6ZJyJHZJfywhMlSdk6NE7SO85JrLmP7ULXoCGijdzvFep3GOoOSOPVSWZbh+z6pBDQFAcbzuPOBR7jltq9TG9tiCcDiwhy+8tgyXOei7RO84PprqYQ+uW3qs0AQhdTrdXsdRxCeMlE9uQtLQZ2lRzjwuXey+9rXsnD4MOH2G6lf+EpUNOJcBU8O1aflrBWDK6t0BQke88sJt+8/zKGltl1A7Rir46UtkjSHcp3p+UXG6yW8NCUKfKJKmUMz8+D7TJVDXnrFXqrKEATi+O2ks/aUSc+EjEhKpWwZn1iy17ti7y7qgVe0lC5KJbqXtU8nN34cIGcAgSPzDb5w50PMKZ/pOCMMS0XXR50xMZTximdfw0RFSitL2KOyHebsa3PEvJwBhE//Es1Gk69+9SvW0F9++WVcctnlLLYTPvrJW9BRibBUZmFxwZbjFg/CJbumeMH119gMhnu+dSf/86abuPyKy3nTm99MGAQ2h37l5RTJ6QvkTJ+RZrQe+kvaD36UcOJiTGkHlSt/HN/bjoqcsj/TcD8l17NGW7yqPrONFnc+epgDiw2SOOV1L7qBbLnBsZkF5lOPx+eabK35bCt77Nm2Bb9S5dNfvYcgjBjzNC++6lLqkdRNKoIJrf+ghyCINzDXGs/30Vr8vgrfego7B3Vrnri57QjCmR7skmf/6LEFGqHHbfc+TKPZZN/WLeydHGfbUJXtI7VOfFTh7pQ6346xnmkpnHq9r33lq9z8yb/ii1/8As95zvX82q//BqNbt/LZL93Otx85SHlohGVJS43bTAxVuWzPdp7/7KtsoOiHP/Qh/vdf/VWe+9zn8cm/+itKsueZZci2hXR1lDQT8SjI786z8NTKcdWr54s0v/LblA5+kaXJlzHy3J9EDe3AmBqeSwN6hoRyGl+7Urpc9vmVrXew0E54+MgJ5ucWePH1lyM8T9IWD8zHfO6e/dywb4prto9TCxRt4/GP9z1KqVLh4i1DTNWrBJ4EKXa2k4omDcWr82s3Y6Jo5CUfyPHixZAKvEW93c0SZ7CWpJwH4TTG8YYO1ca2Am4rxRduv4fpY8d41t49XH/ZPsrSVKTIzMEEUjVMHGCyS+bcBxvC9jQOOum6hE998pO842d+hoW5OS6//HL+3z/9E6687nr2H53hb/7+NsKhMat82ksLliBcsXcHz7v2CgIDH/2TP+E97343v//7v8+Pv+1tTB89ygc/+EEee+wx9l5wAb/w736ZoaEhl21yGrI5s4ca0tZB2l/4FTjxOLXX/C5MXFvUEFEyt1yhsTOL9xm+Ws/KvmOmrXGWhZakO8rq3nbKMIaDsw3ufGSGoyZkLEh5/kWT7BqtkWtIfNGkUDIQ2gwG0cNF6z1p1LTqlkHRlKfQyZ0fISnyu6th67YYzvBo70S8Kki1dIcsxmW3lKiRlaY0BJKoWgl8syx1cxXeOPOAD77iit4xsNxs8t5f/CX+9q//miD0+Nhf/AXPufEFzLViPvvlOzi20EJFZRpzM4xWI666aDfPvfYKyhIwNTvLsSNHuGjfPqIo4t0///PcdNP/5MUvejHX33ADy+0W/8ev//qKF+Hpej73PV0EDPGJ77D4tT9i9MpXEO58DcYrgRdTFF92DbnP6rHSRxA6y6eieq0YahshnBFnGbc/eIBvH1tmJjaM+BnX7dnCdft2UQ5E1yob5Gj1q/UG5DYYuSAI64ShdL0KfUC5HQZHEJ6CudNho8IOekNepe1slyx02kUVbqyCJbvXmUVAXIh5npOlmTXsSbvNZ2+5lROzM7z+B76fLZNTVh7f+s4jfPWfHiCsjbA4P0MtCrnyol28UDwIQuFsK1lRUjnzc3M85/rrOXbkGPValWdddhm79l3Ehz/8YSqVittiOLMi3ODVDLp5DL14AH/rJShGCteyypEuJ1IOyc2uDUL5TBw2MC2gKG9v6xjYDPPCKyuVZ482Er71wKNctH2Sy3ZO2HiuwPZx6OZDeMW5nm0CXhCE3qSw03lGN3BcDIJ1La0U6HhyJXXXivN0+9KnMyPP3LGSsXDHHXfw6U9/mje84Q1cd911hZzFi9Mx+KJIpJPbrV++nYb2iZPYBipevW8XL7z6UtJWg7/7wpeoVGs8/7nX86077uD1r32djSGRluDKU/zsL/wC7/ut33IxCGdOdE/iSl3n8Jkva/Xd6oYn8TDulAEI2DLMYNsvH2s0GK7WqEWB7QK5Ej8gvtqeeIMno3udvE8F38UgnAZBWG3wOIJw9um0VqvF7/3e7/H+97+fN77xjXzoQx9ibm6Omz/1Ke65607yuM2/+99+ha279vCVu79j0x6D6hCtxhJXXbSL77lqH//h136FO++9n6uuvY5XvuJlHDl0mHf81E9ZgiE1E97ypjfzOx/4PYZHRiz5sEGL7nXOILARY9A/t5+M0TlnADmLb/SkHKRKbXfrVoK8hRMUJKFwRpycg72y2oisz8Ri8SyG8End2jlNEFYzzN33ez9f7feVncweL8LpEoFBSqP3ve7vct3u7/3/du9jtfeflHTPs5MGyXs1ucr2wkMPPcQf/MEfMDw8zPve9z6++MUv8qX/9b+YOX6Mv7vlVq688ko+/Kd/ThpG3PzZz5OXR2i12ly6c4rnXbqT5199BbNzC4xNbuUnfvIn+ZEf+RH+xY+9hWqpwtve9jbe+ta3ElTLnQJMq/sjiwJNxeeDxoUzOk8cqIPmcO9c7Ze7YDhofEi2yUZeGzEmG53n683tjdzPZjtmNXk/Qc6yYSTxXUWEQvGfLYjU2Ufo2U5YzT6cSVn3zunV5vG5PL/PKoLQNaD9gh1kBKzLqceo97O/tUhC/2dd5bLeamEjA67f0Pcbhf4B1f3utYhDr4FZzcj0KpSNsuWzRQmtZfjls14l3yu7QfIf9J6cL4Thj//oj7j1lk/zwH3fZn52jqmtW/ndD3yQl7/mtdy3/xG+8k8P2xbe28eGePaFW7n+0otsjsmW7dt5/+/+Lt/3fa+2tRSkFkKtWrPw2dL+qxj+QbJeiyAMGgP9ymU1ZdN97rNVGa03t/vnZP/87j//ycz/tcb7akZjrfm7mnFYbb6uRRI3ojfOlvl6OrpmNQI/SL69OrxX3v1jQ9ozF1UThBzIWUUVxpPFDoo73Ki+HqT3ewnnerp5I2Nko7LvPvfZIuuzhiCsRQL6P+sdXIM+W48sDFJGgwSy2gAbNCD6z19PSQxSLoPOWW1wrmVMzlYjMUixdDHukoCubAfJuP+9frKw2jlWhWjNJz7xCX7j136VxtycLZBSqVR517vfwzv+7b8lNobP33Ev840WE8N1nnPpBbzjrT/K4mKTN//4W/mhH/4Rhobq1onZa4y7xVX6DX+/16D/7678V3tfPu9uWax1rUGG5WxRLv0KfyMkoHvOevO6/1r939X9ezXD/2Tm9lpKfj0Sv5H52ntM//XOdjlvRNaryWijsu5YfcsDJBVRAheLjEZTNGey7aIHRySeCXmfDlFYTd7r6YmzTc7PCEHoF9Z6RqFXafQbhX6FMoiZrmU4VjM6p6NkB03m/sneaxD6ycFaJKDXSPQOnrUGYO8gPBv2xfvlLca6V+ZdA94r217C0CvjfiLRe+5aBELOkxiED7z/P/FXH7+JJEnxg4ifePu/4l2/8B6053G0mXLHPd+mWoq47lkXkS0cJ0kytm7fYZvC2O/ubBUIrtJwS9ycXbz7DfpqBr5XJt0CS90x1DuW+mXfe0x/Yabez05n7J7pY/uV/SB5bWQ+rkYm1losrKYnus+4lpHoxWEQwV5NxqsR/Y283yvDQfIb9J6U+j6bXv3evf55PUhf9xKFri5Yjzycohskq6GTt9Ctb+RJYzvxGticxsJ7sFF598t+Nd09SG8PMviDdP1q5G+jerz3u59O+T+tBGGQ8e4fGL0DTMCTvwcNon5lMMg49F5LymsWJLM7cIprnxx4hZuq+PvUwXXSfdW7j1wMyJMDpNhnLuyHVNbrRlQXBkSUQbeo23orw9WMRO/7a61mutcfZESezsHVrxxWIwD9BPEJf9uVQiGT7liw/+piBSGGuvi8+F28AyJD26Sp87t8Jn/HcZtPfPzjfOQjH7ErkX/7rnfx2te91jbOTI3h0YNHOTG3xOWXXkwt8ohsSJQ0eCoUc7+RLt6Tn6KSosi9kE23wmLxe1cWgz4vrlmMj+7nvQZpkHLpJxT9xmSQkXuqZN9vzC1ePSSwd473GutBxmSt97rX6ScdHdvQI2uR/cnMhuL4bvqxvUrHJb1yN51fuvO7mMPduXwS2+77xWddudkugZ0QlEFGv5/odY/p4tbVD2vN797P+sfhUyXXQdcdJOveudkv67WI3no6u9/Qd+UuRZSK8VXMPTvvO7EmJ6/ZlXev3Hvl3ZVv8V7vnO3O516cZcx0ZSBByifl39X7J//tfksv+e++txZRWG0Or0ZCng65P+MEYTWF0Ds4NjLI+gdbr5Kyg8myypOkoH8V22+UepVRLxM9xTDLQOkzGmspbr/bdqFTlnfQgFjtfLmf3pVnvzIZpEAGHf90G45BBG89QtArO/k9XyEABUmQH4kpsF24jbSHFSJw0ivR//sppKITtyLehMXFRSYnJ20DJqnNLmZkOck4fOwEW6emqIWKyKRF+VVVNGlaURJC+Do/Xdn0KoTuZ73Hd3/vNnw69XodQrFieE79rn6j0D92+pVR1+g8HUpkowRhkEHon+drGY3+cXFybBWd0VcbV4PISu/39CrvftxW8/D0GnVL6noMyKA5fNIIFcaon7yv5i1azdj0y//pkHOv8e/KfDUPwGqyHiTDQXIbNC5WCIJdGJzUBWv+XlzolDimXnmv5sXpl+Epc9vO0UIfD9LD683VU2zIBrYSHUHoE3Y/cxxEIlZTLL3G/BTD0UMQugOtf3D3f0+/Yumf5IPYYP97JwdRscroVUDrEYSu4em/5qABOOjeVhu8T4cyWW3S96/+1pvocq+ZLupTP4EErHgQut6CgiQMIgv9JMISDCEfnX+10ZaI5Eax2GhRisqUAkVoCg+C9IzvJwCnGomCMPQTiI0QhEFjpPfaa5HO3rHRr+x6CeJTKfMnQxDWck33Xm+18XHKeBhA/geNs14D1zv31yII/aSwd06e8pmU9e0hkP2/rzY/1zImgwzDIJ3zVMq2/9r9st7IFsFqpK8rw0G6vP+9XnkXZLAgCWuRv9577R1vq8l7NZn1e2QLPb4xotc/J7vyHkQI1yMWvZ8/XTJ/Wj0I3YfqNeJrKYC1mOWgAbTW6sO6mFe2EIo7GUQ8Bt1bvzD6GWDv54NWdt3PxYMwyGj3K4L+LYju54NclYMGzWrnP12Dqvd7uhj3e2x6J3yvLE5R/F3i2Nli6L+GuJGLbYYnkoLuNZ94TsEqZMvplDEgWxK2o5wil+gnm1Gt8STOoHAT9WwbnGzM1G9AVvu7V1H0r0p7CUJ3JdrvgRhEPHuNTq83Y63x+VSPgUGku1++q8279bwHq61K7TjoBI+uN6ftvRQ3tOoedT+xWs1w9M5lad9+yt+dmhiDzu03BPJ3v0dhPWPVK/unWqarXX/QgqpXx/d6GbpjoDu/B+nfftK2miyl90L3tRoRHKSDBj1Hr8z6denqcrehyk8ghF059sqmX9/3y341e9BvR54peT8jBGGQ8PpXDasJuH/QbET5FIPypBIZNIgHrYJ6yUL/4Oo16t3P+hVz/9/dLYZBg7Jf2Q+61nrXX2uwP1NKpB/r3gm9mtLovr+iMLyT2wi98u4lCE84p/PFXc9Br49HkP8AACAASURBVELpl3V3THW7OBttp789pVvdoBObaN+T4wdN/H6X42p/d2XdTxTEdHW9THJ9+Z7uMd3gtNXGxaD7eSZlPki598/V1eZu/7joJ+29n1ty2LOiHDS3e4/v/Xw1fPoJe+/8Xm0O9hOEfkK3lty646Ffp/RfQ457urxCGx07vaRtkDz7ZbXWMavphv5zugRh0DweJOvV3uuVa//vg7BfkZPM007QyVpy7h9Hg8hAL86rkYWNyuKpOO6sIAiDHmw1IrCRQThYoRQehEEDdiNKYyPgr6VY7OTupOAMOm7QgFxN6a/GSrsDuGvANnLPT/cxg4hg/8pQ7umUlX9PkOIp8u/EIJx6fjcw8eSTrTeWOqOiiIvuNInpabNlP17pFd8D2EmZ2SNWglQL435qQOOKcukpmNQNZD0pz6L4S698n0giTgbGDlplPN3yXO/7ViPe/YalV66987ffaPQr++I6NoTsFI9AP7lfi+yv9wxd2a1lUPoJQu85axH31eZ9/3cO+nsj9/10HdPVOWsZ7dWI3mo6YZCsrW7olFMedL3+c57M869F1Lq6wJZrH1D/ZK1FXP9nvTqh/zsHjbUn8yzf7TnPOEFY6wEGTeq1VvqDPusdMN26SisuxpUvtxqmW4trY5j2FWkqlpo9jWG6A6h42766g6r3C9YaUKsphdWIyMZu/Ow6aq1J3v1MAghPvnq3Boq9yMKon3Qbd47onCKGo1NIpXOciGOl8poIZ0WW3cj3QmhdL8ITEetpsNWRrUjeysX+r7f/fOevbuSzPeBkcGv3d/tvp/vnWkZj0Ng5uyS6/t2sJvNT52p/FPrJ/PZBxr8gCcWrkG/n1TM2TrmzXpfQOre8Is3eOd09p29ur29cTo6NtRYK66N4bhyxlqw3Iu9BNqC7PdirsLtzfiXjrL8cwunKu6PPV9R3r37vm6crQ6HvO3q9PYPIwWrnnU2SPasJwkaB2ojC6b/WaiuK73alsZpR3+j7/auNjWJwPh/XL9/1iGA/FoNWoSftx+DCKmvhuZ6naDVZr7WCGPR9q60qzmdZ9z5bv5dhrbn5VM3ntWSwkVXfaoRhs8jwdJ5zo/J+qmS9UR3d+0xryfd8mL/nBUE4nUHojj1/EOi6NTf6RGt5pDZ6jbWUyHqfnc53uGMdAg4Bh8AzjYAjCM+0BNz3P20InC6heNpuzH3ReY1ALzE9H1aV57Ww3MOdgoAjCG5AOAQcAg4Bh4BDwCHwBAQcQXCDwiHgEHAIOAQcAg4BRxDcGHAIOAQcAg4Bh4BDYH0EnAdhfYzcEQ4Bh4BDwCHgENh0CDiCsOlE7h7YIeAQcAg4BBwC6yPgCML6GLkjHAIOAYeAQ8AhsOkQcARh04ncPbBDwCHgEHAIOATWR8ARhPUxckc4BBwCDgGHgENg0yHgCMKmE7l7YIeAQ8Ah4BBwCKyPgCMI62PkjnAIOAQcAg4Bh8CmQ8ARhE0ncvfADgGHgEPAIeAQWB8BRxDWx8gd4RBwCDgEHAIOgU2HgCMIm07k7oEdAg4Bh4BDwCGwPgKOIKyPkTvCIeAQcAg4BBwCmw4BRxA2ncjdAzsEHAIOAYeAQ2B9BBxBWB8jd4RDwCHgEHAIOAQ2HQKOIGw6kbsHdgg4BBwCDgGHwPoIOIKwPkbuCIeAQ8Ah4BBwCGw6BBxB2HQidw/sEHAIOAQcAg6B9RFwBGF9jNwRDgGHgEPAIeAQ2HQIOIKw6UTuHtgh4BBwCDgEHALrI+AIwvoYuSMcAg4Bh4BDwCGw6RBwBGHTidw9sEPAIeAQcAg4BNZHwBGE9TFyRzgEHAIOAYeAQ2DTIeAIwqYTuXtgh4BDwCHgEHAIrI+AIwjrY+SOcAg4BBwCDgGHwKZDwBGETSdy98AOAYeAQ8Ah4BBYHwFHENbHyB3hEHAIOAQcAg6BTYeAIwibTuTugR0CDgGHgEPAIbA+Ao4grI+RO8Ih4BBwCDgEHAKbDgFHEDadyN0DOwQcAg4Bh4BDYH0EHEFYHyN3hEPAIeAQcAg4BDYdAo4gbDqRuwd2CDgEHAIOAYfA+gg4grA+Ru4Ih4BDwCHgEHAIbDoEHEHYdCJ3D+wQcAg4BBwCDoH1EXAEYX2M3BEOAYeAQ8Ah4BDYdAg4grDpRO4e2CHgEHAIOAQcAusj4AjC+hi5IxwCDgGHgEPAIbDpEHAEYdOJ3D2wQ8Ah4BBwCDgE1kfAEYT1MXJHOAQcAg4Bh4BDYNMh4AjCphO5e2CHgEPAIeAQcAisj4AjCOtj5I5wCDgEHAIOAYfApkPAEYRNJ3L3wA4Bh4BDwCHgEFgfAUcQ1sfIHeEQcAg4BBwCDoFNh4AjCJtO5O6BHQIOAYeAQ8AhsD4CjiCsj5E7wiHgEHAIOAQcApsOAUcQNp3I3QM7BBwCDgGHgENgfQQcQVgfI3eEQ+BJImA656kneb477dxBwMn63JGVu9ONIuAIwrpI9U58+T0HROH7gPytAa/z3roXcweckwiIjDU5gZW5ZzRKeRhUIX0jIyLFyJiw7xfHwBEwCu1tQxmDUpDgo8gIdFic7SlyFMXVZDzJWHKvZxQBY8WGFjmiUB0VYJTIVKG0wnjyqbw8PHvkCUwu42LSjgE51PgJmghPZC8jRGk7LnwdoP3i2u7lEDibEXAEYV3piFIQVVAQAmOVgRiAAKsFVgiCVxzm5vy6iJ5zB1hjD5kofpKCEJjIGgltFJ5RKJWTi3FXYlByawjy9O8xuoWqvBpDSGCEIAgxyAm1EIEM43vkxsdXQhOEfEbnHDzn1w0LOyiogVYxno5QxsN4Kbnyraw9Mf7KoIXxKYVPmzz7OjpZwi+/BK1qBKmHDjJyLyDQBUFY9hIr9zBX5IHGV0I4ncI4v8bP+fU0jiCsJU+7RNCgRHHLGk9IgrwMSpYY8nLz+/yaEYOeRmyG/HgajybkCagyeAGIoTeBJY54c5h8DM8T45+Qtz+Glx7AjPwcKSNEmY9Sy6DlXG2NDpSL9/JF8MaK67pB9QyPKZn4GRBDmlqnjvYjcqoEuUhnzi4YjBnCeB7Km4PWzZj8IKb6L8i83ZTSEFSMCTJUXsF4kKiE0AjpWCD3x/GpOVk/w5J2X782Ao4grEkQOr5Gq8hzjCkVxMBrAiVrGE6SBOc+OF8nm0hWCIJSTVRuSFt3QtAkLD8XbUp4aZms8Q2Sxj9QnfghTPlCtD+HWfpjgvhR9NjvkPrDhMlR4iO34kWTlCZfbVeRSrYa9G20l49Tqb4OgqHzFcZz5rmM3UJqCysgbt6KX0pR4avIGSbUKab5dyyf+Da1qe+F8ApMOI9Z+gDKn0dXfppcPYtSMks8fSumNkp55BXkfh1Fgzz+KnmWUaq+CKXq5wwm7kY3JwKOIKxJEHJZNtpNZoMojLLda865H8/bAWbUkgQlm5RKVhxBsXnpvArn1WwyshVgYwOW8fISaXoLaf5lKqU3kwSXEsVt4v3/GX300wSTL8F/1rvQQY5a/CP8+AiM/l8Yv0J6+Cbig/+dNNjK+NV/iIn2oMxDZM2PYPw9RJUfA2/kvMLuXHwYbWMGNMrE5OlNNNvfoF5/O0Zdi2daNL79XtLFz1Ka+EGqO96DOAJajfcRqhCv8i/x1D7yx/+M+OAfYcauo7LvV6B8CV72MEny5yjvGsLya1GqdC7C4+55EyHgCMKawk4l0ojc7j23UFo8CMdptv+aqPICAu9C0FWUbEqSFPvHQigcQTi/ppApCEKuNL44ldKvkcYfIeBqGHoTqrVA8tBvEB2/jSyMMJf+IuH49dD4CMZMQ+2dqFaJ9MH/SNC+jXa4i/JlH8QfuhrT/h+Y9j+gqz+MV3kdHpXzC7tz7mk6cUZGgklbmPTLtNsfw/evJqq82W4pLXz9rdSzr5NFlxLs/ff4ExfTbv4nSpRQ5bdC5tG481epm9tJo+vwL/+/8YYvgaVbyLN/wKu9CS94KXjdLctzDiR3w5sEgU1IELpZCd0tAflXjLuw+ZOWXdSEeAu0CSxB8GgVgYn5gzRbHyUofy/l8DkYM9w5LUYRWkLRvczJTQfZopBXf1CSdV53vtexirNjzg3YKspjMAmZH9qtJj+ZJW9/AJUdxKv+NHmyhebjv0Ft7ss2gLE1+iIqu/4Zii+Qhkcw4cvwDgWoAx8mMMeJw92oS38bf2wYmn+OF89hJn8e7d9AYNoYHRexCb4jC0/9mCj0QRFGKL+nGD2D8WQxMILKD9Na+l0Cf56g9GZUvpPlO/411fZjpFFKuvV1lHa/DuKb8E0Loh+hcfxeOPQn1LKcNLwE/4rfglED8zfbjAaG344KLy+CVPMYZeNZurEnRaZE8eNSJ596+btvWAuBzUMQbDhBYfSLzINumlLKUnYLw/o16KBi09dyG1uQ4icLhfKIxkm9ZXz5L/9HkqWb8UpXEJZ+DKNCUl3Ck7iEdAbf243yfYzyiI2hlLUwybdIKxEl70q0XSEWkdAS/GiUkJOgIBfu9cwiYAMNEoxErisZLxKuDvnMl2jt/11Kw5cRXvRjEGwja32EPPkWsIeSeRbx/k8QNu/GR5P6EcH2Z8GoxKlkECuSQ0fxW8fxTUoSDhPs/lkYTsnTb6KicYKh92B0iDn4UfKDn8fs/GmivW+0aZBKSKe2qRMFPvK3BM7ZzAcZ051YmGcWvXPq221eipGg04xcCe0LbQAhi19n6dv/nvLo9xBu/5eo+iit5L8SNm7H954Lai/Ne/+Yen6v9SrF0TDhthvxh5oFsWsr2kcO4KcLNrW1HY5QvuyXwLsPv/UApnYNqvJzKG+Z/MBf0j52G+H2H6a044dBSTDjMkbLgiRCqxRtdVapSLe0WS7O63BODbRz/GY3FUFYkdXKIlHUxALzjT9myHs2qvIiUGLcA0w8T+vx/0KePcTI7l/AlJ6N8jNIP49e/gtMeCV+5acxXh0vbpFMf4jF2S8xuvPfEGx5DtoMk3sxYXof7cbnCYZfReBdUxgdmwXhYzWTLBRcGYWzYxoZqWVwyCp6z+zqKOyM/Ojn0Q//e0y8RHvyWmo7fhLfP0Dq/U9MXsJf3Ep6+BuUsmlryLUXkXlVgloZX8bTUhOyBE+nNlYlDTVq7AV4UyXwMoy6ClX+HpYPfwn/yM2EeYt4989QvvjtwBC+ydD6YTB1PH8bCMkUArPi83Lep9MdQAYhgrOYvInvT6Kp2yDUbPYr5He/A+2VMVuupbzzzahwFt3+S3wCsmaN1oE7qGXH8XRIGmgSNUalLkYczNISKkttqqu8Miqo3c/DTC6iJF3WfyWYa0mP3kx+9At43jLeBf+GYNc78cSTkGdoDtsUat/fgdFCGoQc6A5BcKmRpytrd/yTR2DzEATxGkjRGpnEKrOlacRIKxZIlj9k3caq9jZUtA1japil+0gf/GXy9p2EE28n2vtuiIbR6c3Q+jh4F2GG/hWwD2/6C2T3vRf8Q7Dr5wj3/msMY8AxdHwTef4AYfU9oMToFJ4LSZmUBaFnYxaKfGr3eoYR0Jpc30c7vpXIu4DQfzkEdfKlr5Hf/8tEC9MkEoda30M4vI+8+gg+M6TTBpozRBLIagI0ZavOxRthvUWmWxJHjEZux10WjeBtK6PCKia/hmRhBr1wP9XsMLE3jLn81ylN/gjKLJPHd5LG9xGWb8AvX49RFesJU9bT5WJentSoMYYsvZNW8zOUS5cQRjeCN4mJj5N+/QcI1OPEfo6OXk60ZS+efycqP0Ey34DlFmGW40stDEllJLA1EezGgHh6erYHZI6bko/ZvgtdGsakF5CdOE60JN6mJbJwC2bfe/Gm3kLADLp5N638IaLK1YTB80FXsIEvNtW6W6DtST2xO8khcNoIbBqCoGXFYHOXxUXX7sQDBHiqgYr/FtO4GVP5PrzK90G6A9P4LPm9v4afHWE5HKVy+S/jj30/7eRjhO3P4uXbMSM/AUwR3/8fKB+6Be17ZLu+n2jvb6KCUUx+G+nyn0M0QVh+N6lXwzdllPZIPdleWCYksopGqq+51zOJgGhyWVW2SJY/Sao/h+9dR7n0elAlmvf/JrVjf2+Nu/EbGG+IJKoSmCZelqEyWysPvNymPlpPkZLtLJGr1EkQ/V5Ex/tpgPZKZCVNFqb48TY7znwtYzNlMdrD0A0fxPN3wPLnSJO70MGFRKOvAYmQV8HJmBjZmnLc8vQHjiQoqUeJWzeRxfcQhdcSln8Q5Y2RfPM90LiV0EgxpDI6kq2cCE+Mf94Ck6OUpYCQ+zYw2fjaJjB14wcKmtAZE+Rof5LcxpQs4KeL+FmV3I/IKtcQPOsXYGQCs3AbXvw1dGUffv1HUWZfcT2/IJroyBXaPH1JuzO+CwQ2CUEw5Db4yCeQCe23bI6zsa7gJmH2MCz+RxK/TFD9STx9I3rxk2Tf+WXCvE2mlmiN/wDDl/wmbf0pvPZX8bIp/NrbaC/fTfboH1BfOk4eBMRTL6Oy+//Eq1TJF38How+jK68iLP8QiaoSpQqV55goI7XpkyUiWWE6Jf9dDOMzcap4dpZspgrZLM32H5Kb2wmS51EZfjnx0c8Q7P8kvth9NQ9ZBV1q4MWjoKQuxnBRWdFv2pLMEowmcSYSH2Ck+p4newJSTCnH+E1UVrJ1NfIgg3yEQMs1DKkfk028mPJl70QvfhUvv43cv5Bg/B2gLukU5ylKO9shYyt6usFz2iNAtgByceEdpbXw30DfhfK3EdVfizlwP63HPkAtlZikJgSzVkYic+v2CzK0n9r4IZMN2ZAm2T7y/MJDWRCDorJqHkgMicHLRb4j4M3buJTUHyEPQhh6JdHFb6CpPk+l8TiBuQRG3gzhVRiRrd+pyWBC0KELQThtQbsTvhsENglBKEISVSq1bh9k6fCfUR65lHDolejyKNosEC7+Dql+GCPpTPWfIj96G8lj76WUJniZolWZRO15G/7QYYLkUVK/TqBfRPvwl/Hnv0hJp+SeTzzyAkoXv5fcfxR/+b8Bk1B/O170QvJc4zW/Sjp9B1R2U9r5GnIzXIQgrCj53ih6V3zpuxncp3uukYBCmwNv0Nk3aS/9KZE5AEygFpbh0dvRdntKE9hqiiHGC9HBDNpsIw9DqKb4UQ0V+CgbCe8V7TuyBJ3GpEkLk7coJW38LMAon1y8SOLVUgmZVGGceg5qy14U+y3xYPSnUNFLkaK+BRWQEWN3vDuP6AjC6clacGuRa78oVGW+Tr74XyE/ilYjhM2Q5MAXCGMhdp1AYjHO4jDwUht3lEdVTCnBL42jomylbLLROaQJJpbg1JQsywhT6cCxTCrxSjrFzzPSyEf7GcHQteitl5KVHqSUTaIqPwO1F1pZS1B1pxtEJz5VGKcLUjw9WbujvxsEzjOC0C2RKhvFSVEGF5/c1zYzIdAp2Yn/j8WH3k2VbURTr8Pf/oPk5YvwGv+dXN9i0x0D7w3k88dpH/gvVPPMEoS0lJAO7aM0OYJku0m5JG++RD59kDA9ZgOQpN5+Mnw5wcU/SpzdTtm/G22uwau/E+XvRR//PPHhj8DCg+TDL6N23W/ZrAbPhsxLUxcpttQANQzWddzqpF9u7u2HQTSpSEPttZGFkeyazP5JUaSw9ZpU62M+GRVuUtLZO2yAmVcO8cojaHM3eeOTBPkJOHYENT1NoupkgaakM7uiy0s+DMUE9a2ocpVMthlycQUrtNTPsL0a5JvFJS2rQRmaAapxBJbmUG3xMITgLdrPDRXyoSHCXdvAG8dUXoGpvoE0aeK1j6AkKHL0Yky0BYnB960nQZ5DUmy7UYvd9Nlzb9ycSnlO/mUfTbJMui9VSLR3bPQmKXcP64ySInNJemZIo6VskXz5LnS2hBddQBCWQP8Dpvk5yBsw8wjZ8Sa+lMD2EhtwrCU/RcRaDwgqE5iwZssoo8WDk9jAVPFTKiW9Oor2WxI2YLIYb3EZsxCTeMVnYSrxKVJXI8OvD8O2C8lLk3iV56IqrySLPXRyDGOWiIavR/m7MJ50+hD/xKBeHUWvELf/8N2YQnfuIATOP4Jgo4cVSfwgKn+MsLKX3NtLKs1yhIAv3sXyd95IvWlIgyHi8edT2f0vUOEj5PFfEsoxyRCpeJFnbqMsHdpkRamMbbyiqnW82hA6S9GNJby0baPMbTCS8kmjLfg7JCp9ibzcwugXE5VfTmPmLrxDnyBIHiHIQvT2N2Au/21LXCJZtZpldPIN0nyBcu1lGFm1Gol6F6KwuVeIp9o9W/MYbVMQC9NoDb9S1mMsP5m2+wCdFEDwPYXfU+BSDLEoatlmst0XxVVsjtC4/V2U4yOosEJavYRgZDt+eg+q9TD5/CJeK0N5ikyC15QiqAyjtoxD6JHFOUZW+6W9BNFelLcF49UK460lBe4YefYocfsQUdbCr4rJacOJJub4ko0psP5jLyD1M9TYGKq6Fx1eSmu5ip/cQdicJ1dTlK7416jRV3UCIGWMCCGWFaeNkitWm7Yk+Lk3blYogSUDdo/GEiGZhb4l4QUxyDqy7jWNhScOgp64TTlWuqjI/3Tu2aZYaesfaT70/1BqHCgMfW0Mr1YjyI9ZWavZeesFEK+epJKmJiQYGsYbq6NKIe24jQ5H8SQuJLgC5e0Er+jHiaQ65tOk6f0k+cO270I1DPFVRD4zh1k8hp9J/QPZrhDSsQzDY+j65ZjSJbQXEsL2QbzkCLHeQu2y9+CPv9iOb89WbJWtix652l9lYdH1KjlD5xA4cwicZwRB4odkX1GCze5jufFRfFWiXH4bJrjY1hpQ2TEW7/sxqvP329Vdu+SRRPsY3n4NXnAcpeZAauY/tkyQncCXmIUi96FjmERpSKS6KYyO5FLbbn/S/U3+VqjRHbBjK0ko3d8uIzuyAIufI4jn7QogVaOUrvh59MRP26hn3xwmb/8DzfbXqQy/jKD0CmtsPBsvceaEfb5cSbAXxGWdlmpoJzlJpkmyzBIELd3zbGpYYSOltn4UBvan6ntUhRfYOjRWYGhk2+A46Z3vg+lbKeUpOtS2LoafimlaIvYq5J6hmi6SBHXU1FbCcU2axLSaF1AZfQ1B/fngT9ntBeNVbDaDbQ9tI9Bb6LxpV4Wm8VXiE39NqGaJhschPo5+9Cgqli5/cr8idA8lA0w8EiYhSKQ+R510/FmUrv41VPR8lC3v3VlVWrsh35PYTpOW/JyrY8fOp4IqWL+LrLYFCS1ee00rSch1URpCyiLLy3KjjhEVj1w5CimFHjW/Lc560BI4KkS/gYlPED/w34mO/QU+xyDKSdiCkXomzBDqskSDoPUomYJochhvvE7aniWPx4m2vA6v8mJMuAcd+rbro08Fk0vnR+mtIdsQi6Cnyee+RWvuFpLyfibq46gTMfmxgygtJCHC8xfJ/ZRE1fC8IYKsjZ8s2fHZ9F5J7cb/gK7vtp5E3xIBEWoxPk71GHVROF9muXuOswGB844gaKtSGiit0fHnWV7+OAG7KFVei4qebbvlNQ78Jt6hj1Bthxi/Te5Lq96ddhWhwgSTPoa/GFqFq5V04CsUlhHDY1eiCj+XSjWd9Y6w+m4WgonRXh09MomutkmXEqKmJkznbDR8FiS0K1dQveK3ofw8lLkXlj5Nmt0B5RuIau9EexL4JsVSlm1FPec6LHwI8v9iKAT2VpqzlGia4tHXOZ6Ure3UBliZWEY2IjpJZ9aQKALtU/ahUk2oRT4RYRF4KAYnvoOF+99Haf4uIivbk0WIxBgrvQRiEKYuQA2NkDcWyPyXUt7+AggvwbAVgxgJMdLLGF9W98VNSxS8MkXt/bR0gnD5EfLpT5G076A8PI7JcpLph6G1TGBK+JmP0RmekADbVrrGcnUPwb53EWz7AVIp7KtlbS2ZEzIoS7YNuTWpQjBsD5GzQcWc5j1YclCE+olHLjGGVmZotDMaRYiIJQU2ZmeAg2SllpRtvwmVIGKs0qIeREUMh9/G0z569nZa9/9nouVvEkqSgGzRhE3wlouKA7qGlvExOYGZ8GkulFHBq6hOvQRPvEOmZr0GWqonSn2UbBjPT1FKtgilsVsIWan4LH2Q+PjNZPGXqQwN4bXLZEcP4SUpnl62NROMVyXPQnwjnkqfZrSXoSt/Eb3l1cReTmgyIrmmkECra2RLqQPAuecoOs1B4Q5/phA47whCLruFVouItVgkaf8ZefI5fFOH0msJw5ejG1+kfd9vUW2lKP+EJCqjhSR4YoQkYKyFnxWrPy1BSnZ14tmVaFG5zmBEARc+XftZsT9qbAtfqaJoV4EqsUFQtkSzlHPWZTIfsq2vp3Tx2zBmgax9Cyo5jB9sxxuVyow3FO5xiZ+wqXLFd2zmV1ecEmPaynKaccZyW6JAfLS02+0gJJkCYitlBWmpW4e/FUZFiIRBG3FXG5S/TCXIGQ+l6e4yoR/jqTrx8duIH/mPlNv34ecR2nbtlL3+BK1C1PZJvCGPdqOMN/wKgvF/bj+3htqmMQa2Kl9R40JsnfTnkH1qUewSiChlmyXYbcSuMNXs35CfuBU1Lp7igPTILH4iVTvTYr+c0ObZZ/4Qes+bqFzwJrQvJb8PQr5EknkE5V2E4UVgqp1eYR33/LnoQrCkTlvZLqc5i62U5VQ8QwrtC/EpZFx4h5TdPrLEsOAD9t9cFgeWY3ikyqNEm7qnqJegHJ5AqJSnA5LZv6f54PsZig/ip53tIK9B6lUwoU8wMYmua5rZAlHlh6nU/jkmkNLqMi+NlY/NLBBd4Itci5TWYtwJsYvJfA+lA/xkhnz+MyTNzxPWpQV0ifzgNH7cth5IaRst9yrjpl0Zxb/gbdR2vplMUmXzBbzkBDrR6Oo1RCVp6CVBk4LHplcPm1k1PuXPft4RBFH+nvX1p3Ydgn6cfOljqPQfydQYBFdTyvaSPPRHhI39RaMlLVHnQhQ8jPzeyV+XPgwSeGT8ABVGEAQFebfxCAYtCjzXmCzDS1MCLXvUEqiU27bA0shJDISQBh00bZ67NmOYC76XfGof3exJPgAAIABJREFUKrsdL19Eq5349R/ClF4EVPGt61uip4sCq5v9ZVthacN8O2WhldLOZfEWSvskAqWJAp8w8CgFPoGNNxDSJlsNHYPRMRpxmpPkOe1c8tJDdG4oq3lq3n4i9RDDXotSXEcf+TvUsS/gpZKp4NkAsUw8FJM78MZLZEvzBNUXosbeAlJUy9dknqxqDYFWkskIRjIchOQJcSiq6knami3OpVO0p8hVFcU8avFvyWY+RalaJo9rxMcP2WqK1nBIER58vOGtqIveQhb5+Nlj+Nk0seToV15Iqfo9+P4FGCM1/QtmVCTcnXt7DCuyXk5ZikVeJwMvJbZAZBwFnpV3aLcUThIEiRMSmae5Jk01cZazLGXM7Tag8Aipa/gYI8HtVIIGJRORPfJF9LH/RShzVxcFqOKSJhgdQQ3XaMVL+PWXUhn6wSJNsbNvJTEBRYdPKXgm3g5ZPNj63FY/FNs9mV1IFMdqwrhBPvt54vZnKI03UUtDpEfmCZIE48VFyqvc5/jV+HtebzNk4BFIZgvyV74aVf9R/EC6yIpns1ti+9TQzs2uL9zznzkEzhuCULhX5SdBITnHZTJTQhHjJbfDwscxaj9JdJRS4xL0kXtRi3M2JkD2Jj21iMpqRZ37YJHE92wKZDBcw68NQxRBGHa2G7TNbZflio15SCWlqY1ZXIClBl4mlkmaPGm0ahU6RZfxvBhjKuS7d5GNbqOkj+FlF2GGXwLVN5J7YxJeiW+D7ETXiMLq9RNvzmhlIQfHl9rMxymplMGWlbxR1ALNWEVRiaRwULGiFE+O/ensN4hytrFjIqtOfEIzzjnRzmnLXr3JCNQsJfUo4/omKuo7lOZy9MFHCbLjaFMlNxFqpEqwp0SyOEvuXUNlyw+jzMWFR8DGMYiXQAidaPiiu6cYpGKV17NvbM1Gii9VFq0rWgrwzJIf/wRp/A3C0TrMJWTTTaK8qLYpho9d20mnRkiIKOcQmt3o0e9HVW5AMVGsKGXXy8ZTyHnnXoVFmb1tDccX2zQTTdpJ6RNMy6HHWNmjHPo29keQFk+hDSURfWifXaakWvEmSLBqMzYstmJakkKqypQyzTBfY4i/Yyj7NkFzhuzRQyB9GOwGViC7BZS2jpO0GraBVmXyLRg9aqMfTxIDG3WEsqmxxXzt+DBWimOJDjBIpUXRAyVyv4WfP445egvB8m0wtYd8JkEfb+DrYmEhclTbtmMmthYxLGoBL7gIVX8jeeViPG9ipSmcsvh0vUVWy5w5y+Cu5BAoMod6c4fOJUyKVZlNPyo2A6R1CqrxMM3DHyOiQjT8WhgfRfkxpnkPWeNWfO9xVLpMdnga1UjwM1n5eeigCFazrsOhEZjcij8cYWS1l3okjQQVZ3i51OnXRY10P8eUUvxKiF8eQqkqkgadzR5HzR6zx2OGrLHwvGk8XSdXZdSOERivk6gptHoh5bGXofLdsHwYs/g1mq0HCUauojwm2RWdjn6yLBVjZF/nb1xCJ9rDki9PlH2uONRIONFKSYOCzJVJmCz7jNdKtkahbB/Ias4qb0sGTq6dbeC3NdPFPoPdHlIeTTFEjYRGmpPZ8tcZVbWfLeYPGZ+/HXXwBCbPyGRzIapS2T5CYGZJFkfwx1+PGr4B41esYpfvtaV2uymNXRezJQr9W0SGPJDaGrWiLK/NhUvR7bttTIJfOY43NkVj/yzVJcEAkkDboEh/skbqbccvv4Jg9NVotdXudXudDAZxzEvMgidkRYIUz2J70Q2366YuCoYtbTi6FDPfzlHitdNaWhYxVg0Zq8rWX7FKLwIXO6axs7XQDUkQvAonnxhvmds5y6liupHQlN4JMjbUMmXvW0xlNzE29y3U48dJ1TISVmR9Avu24Kct0sUywY4fRJef2yFdhUenu/UvxbDs/Vs3f5e8d3XoSn5NIWNdQdsObYsoKeN+/KOoakZQHiM5skTQyPHFIymFkaa2Yca2kPjj+EPSCOpVKC60HktPam3Yl/MsnkvW6ly913OcIIhyFeg7ATuS4jZ9GwsPv4PhZBqdT5HVRlD1qwnHJvAk7Sg/RL50jHy+gZ8UpWesYpCmOZK2NrkLM1RGZzOYliFNJiHaiV++EK+8Gy8cB092MaXwzTy6fYQsfhTixwjNCcIwsXn0kq6WzM7jzS7gx+JCLGIZcmnjWw0IxmsQyrWvQzfKJEvfJmvOUElP2GCzfOr7KT3rF1HlLZ2gs66t6boTz18lIc9f7CXD7GLC4WaK8UVIRmIE2VIvM1LybfqaPa6T2igR7pnUqZFYA/G9yNawVKpVhlKgCH2fQNLgZJ/Ig1gb5pqybRGTaslbV0wk91A7/gFGZr9G0FaYqEU2EdnGSvn8NJqLKU++HuPvxa7gJA/eGqxiX7pw73c3hgd14dJkfkogBMHIVkcRVKjyA5gTnyJL78Wf2oaeN3BoEV8IZyg9AWKC8Rvxpl6NqV+HCXbiMVwQSBWixRti23pIboewpLM7SHFl67xjXyVOcHqxzfFWaktJBzqnGgqPrlArFQWiugGKSa5JRNZaUlo79tnK1dgtpij0CG08iiKyXjyPJFfMNRIW49Q2dzeqxVT7LsYf+S+UG7djPCnDjk1d5cISuZB8bzfe5KvR/mV4ssIXb4ENSM6KrUebSCDU07ftEgYabfugslCIbD0WqZPgx8dIZv4cow8S1cfRDYOZWSYQWZOS1TXe5GV4E/8MU7mRLNiG748SqiFUIHUQHDk4Vw3uuXbf5yxBWIlrt3UPCm+CdevHx2js/1Wio7dSSXxMmLMcCPMfI5TMALUA4gXIi2ZNotSzSBOMbEWNbkF7LZbjZTzvcqLSSwiqV4FUS/OroCIbFGd3FxBvQglPgtCkTG72GFn7O+jFfyKL70BVT1AuT2Bai+jjR/AWJBCyXUQ3ixHxJEAywmQSwZ5hvCa5J+5uybHeQ3Dhe0l3SAdIqbRYFG8t1II8uay/5K/zp0V0d4tIVuECsDzhzHLGkcU2sSe5Bil1P2PLcIVqFFoCEGfGBrK1k4xMG/K8KJ8kq3lJTyvW7uJbKIJLhSDIHvZQKaAaSOChsefNNlLmlxOhfIRpxtDipxmd/n3q8UOk0lFv+z6yqqLdauOFl1AZfj7KjNq0M6VaNj9ffuxqUrwRgwPsO7pBAl81Xi7u45jcN5i0QqDmMfN/Q9b6BrpaJwrG0AfnUW3JpBHyEaPMNrxgB3l5GF2uk0VTqC03Utr6Ijw1UVTZ63oNzvrgtU6mgmzEmELW04stYkJr2GsqZvtohXIkMRiKdm5oSjprkiEEQchjEWkh8SadjQbJ6hBC6EmyiRCFgGroUxHC0AlSPdGMmWmlZDqkmsbUlj5BVQhhcoTMr6F2XkMWlUmaLYLKHrz69eRMUtYtAk/SD2Xei3ejiO8wEovkifwHGW0ZywWhsBEQ4nEUH0S2TDZ7MyT3okpVfCWxCIuEsQQrGlIvQXkjBOpikHFQKZNWtuFPXEe0U2IhBhVLOtdMj7vfcwGBc5QgJMXEy2T1pjG+TNIiL943DczcHWTf+UOiuXtsadO8JK75qKM7l4taIzoil+I6gSHYOYVXHyFuHYe4TjD0Q3ijN5KXJjCSn5xL+pEohR7tK1XW7BUlHVKyF2K7KpEiKWb5IbKjn0VzF+WRuo1tyI8exVta6JR27XT6s61+ZY9aUqEqNlc7r4He+XbCC95OHk5IeFpR/MbmPXfK69r9a1FI54+iKCobaKt4ZR95Kcl5bCFhUfpUeGIwErbXA0bKIbnxWIhz5lq5DV4s+mMW+SXddMjueq5bb6/ryhbYQt8wFMBEtUTg+3YVOrMQczxOaHuaoXiZ2vT/oJbdgam+kLh+te3iqI14m7aQqzEC7VEWc+bNUmKGqneUkp4l1PIM0nxLbqXIbOh/icH3cglebdlePzobIWTJNggyy18nVgHloSnyEwlmrmVdz7YTqWyhSDMoT7IhJBVvhHTLG6hd+bMEpT1FEKTYre7G/Fm70OySXCkz7bGYGA6cWKZlu60WdSp2joYMR57NSJhvZSzGmlan9oE8e6+su4SsgLrw4BRkTWpYeQyFMFkJbXCjeI2mG23mW03Z+MPXDYaOf4qxpf1Qv5r5LRfjZVIVUZOpGpkn6SUhFZYoqwahWqSkjlJhmjBPCqIn/TsCkcmAbQYbf1KMg1xkJ3kueU628Bm8+FtoPyKoTpFPL6MWpblXQZwky8IGuqoWmZ8RywJn9DmUX/BBULJt6V4OgacegXOQIIgWkJQiabYiwYINlHgI1DBa19FqkSCtkU9/keb+/416dh8mk2C/AN9OVjGuRf37WPLhd4xhtoyTzh1AJXsJt/5LVOn59nNZ5ds89G4ApF0dFqsApCujDQjrbHNIKpuWyPXCm6HMIdLpD2Pmv0k4vhVVidAPPIJqSepjJ/He050y0JFdlRidEE/8ILVrfhMt5MBGcMfgH0abE+R5nTDYVyik86xwWrd0skAjqB6abzG9rEn9iIgWk/USU5KnZgyzSwnHmwmZeGAGdMEUA+HbeIMnvmSFZuNV8pThKGTLUJmSpKIpeGAmY0GL2Uiot0OCPCUOI5a9CCUd9YwYjZDMk2ZMMSXdJswiApNSMfMMeYcYUg9TVget8bCNnwa8ugRB0uBkIar1EIGZxzT+Htr/RKI8ovoW8raPPtogTKVboKS7SUZFCkFKmk+gvedTueqtqG3PBV96iqjCA951NJ21BEHEKOnAAbFRHDjRsmRPmhcFJmP7cImxmswHw9xiy2YzxJI+uvJwp6cYI5MzHCgmhspEoSLONY/NpyykmlJaLipbem1ihmkHGZ7txgl5t3Kh3URoEWS+rY8ReQeoew8yrA4xlM0XfTkE9YF4i86RLQYhd6I/JMslIVv6NH7ybXLJxqlvwywY8hnJdDLooEjzNGmIClNiX/Izn8fwJT+B2vqyorqqezkEngYEzkGC0OXYy+Tp3SzN/zWRd4iyvwvff7bdmzXhqM0GaB7+C9L9H6Mqvduz0DZeEaMuEedZUCKYGsEfi8iXFkjS3ZQm3gLl59r2rr7UU5dJbQmF5fSdtYn8W+wtFyV7OxX5Ot3WhCDkXmL3vVX2OOnMp8iWv0J5WAILh0mOHMJribKRoDapwmas4ssokQxdxPAVP4eu7QR9Ai89jmk9QGKO0ZbG0NXnUa2+FCMNoFRwfqVAdvaSJR5kPsl4/HiTWMtWgs94uMz2yRHrWZCYhIVYuuHJKk/6HPSv0Iu/u+/3flqsNHVRLtnIvrGi7hu2DwXUAjieao7ONEmlih41O05sFUQvJZIUOy3xDoZYSalfuTOJgfDJJb3QeISyGuURhtQDjOpDVPViUdJ55SUWpEMObandFLt5Lbn0+ihm6TZU9qhNqVRlyXWvkR1uELU9W4/D9hchIo8uRm17DcHe10HtQlskScaDjCW5X+ttOutjEDSpUcwt5xyala0F6U2g2FL22DEiW3mKmYWURiLGsthKGOSNWa8QgDhfZI6K4a2Fim2jkZXlTEtzeKFhL5mJh883+H6bIJc4hootcCTkX2XGlkNPJBBV/jYB2oSEpsWQPsCEuYcRs58SLRsYeaqsu36som+HZaEix3QOvfy3eOlhUiGf1Um8tEp6aJ4gE2+kraxlPQW6fAFsewnhBf8MylfY4E33Wg8Bl/a5HkIb/fycJAh2TW8knlj2/h9GN7+Ebn0dP58GLyINx/H8vYRpnXz/Laj5u4qJ7cs+oLD5Emp0iHBrAEttsnaNcOub0LXnob2qraMgJtt6C7qpVp2Uqm7xnSL6vMiDLgokyaQuai9IqVuVi0JI0fnDpNOfJIxvQ41fiE580iMnKC0ntr+8jWmQgCdZPe17Baa+Ha2nMVrqMiyiJRc6vIGg8r144TWgxoqsOVuU5ywOU19jBBahfF0ncUeJilNGMkY9eHy2xbFmZr04sgN98YRHqRwxs5Qy18zI/KDo1FsUJLbnFVHsnYtYI3yymVPhdJZeBVKDQNLJTJFCp5TNfx8NYZsYJR9m5xLmFlPyKLWlekf8MpWSRyD596bImJD4hjRXxHFOM89YynLbScE2785Tqnmb4fwgW/RXGTIPdzIVKsUWlZQBt4WwxH0smyNydylk+zHLd9mUR7tdFg7h+eNkR5eJmkVb8CRsYUa2E+5+Pd6Wl2HCLeCN4ishMwJGWFRstKmVawZCbFQ/fJfHdVOPuwERxdZAYUY1sfY4OBtzoil77wrPz9kzVmYk9Dm6EDMfC9YSoCjBfVIjtTtqiqBFCfKUBmciV5Gvlb/NDJHHL7JaZOOxiBmSKpo5Qz7sGKvY9w7Pt5htt/FUhVpgGC5J8axhgkC2teTa0qZZsph9GqlhSbdpZDltSYcmoJy3qJsj1PUhxriTuj6Mb2SrUaOyilUPWgpw2V8qRY0DqbSYPIZp/SPKLJEFAaYk8QbjxAcWiBKp42LIfUUyto1w32th9KWoYLfNmgmklovNpOjUYDil5PJ3Ka6n8nQ7BLozv0ucZJFUfGkho2LxZ7OSbFpyJzKpM8FP5oUIiSuCUovYLBnvnW0r26Sv1SlMJsS5ipbYMdHUgr8MkU5KbKE/1grWeeL2YHG3va6i7hi3T3FqqmlXMXUfcEXVFdftpmKfzTGn5yRBEKIug0eKHCkVY/Q8pnU3SohC8k1MIPEB2parVUvLxIcPEAoz1z5JKYOgTmnHONo/hJ4uocZfTTj2YozegZEwd1WUYy3K1RZqaWOvIkhNKqcJcRBXsq3L3vwK6Yk/hTAmGt5NdiJFzRwn0LFdLSYStT1UI9wxZdMtrbcir0K4CyUloqvXQrCzyJG2xq/I1y5+zr1XgWaR0FhMNSlZW/wW54b7jy6xIAWmpCNFCS6ZLLMYZxxdSGjb3HJBqGhK1KVJNhhRVvUKquWAig1CLIx2kpvCTS3ZZhLTIN9qY8yEguTUAs+6n+uRZ6v2LSzHRFFALQwoy2p+pT/Oybx7a+gk8C3LbarkdCO1e+myhy5PUs6WmcjvYcrcQj2fxrNeBiGNUqNDtkYkur5QWJ6ZR8f3QXoIj7b9LA8kQ2GS9Mgy0bKU8NWkpYBg2xRqZALjj2P0BHkwRlYawvhTlGvX44eX2u2vs4EfdFNWC99bJyjRFhUqgiQWYsMjMzENqQaJZqhk2LWlxnIr4diC9CcQnMRLVHj+hDxaImCKGgilwFANi2BETxof6dy2VG/FUgxLHPsyf2VkSPqnpuQZauKlqJWpln0b9HiiEVOplKhEiooHkQQtS/qL9UKt1J2yhLStDYtJzuxCzHJSdGTUJsdXLSbzbzKZ3EVN3U8ghC8ZQ4dttN+yNVCk/oklNMygW9+x3kVpxiYxUKZUI/CnaDy6QDWRLYiAvGxQ+4YxNamHsNP29jCRFOy6ABXsIyxfix9dZHVCYeT6jNNZphaKOV9QgI6Pr6hZYXtsGIoiZobMmCILyR5UHNt1EhY964RcGyIV4ElwaORRUYa6OY5qfYd8+WGy9nGMl+GFIwTVnVDbDdElKIaKyqSWlRS9UNcuRHdS759qAXrPKrYsV1YpHWlYMvj/c/emsZpl13XYOne+3/zmV/PUczd7IsVJJDVLjBRIiaEAiWU4cOIfghEkQBLAMJD8MPRLMZA4RvIjMRIJRiw5iBCDEqJYNG3RFOWmyCbZbHY3u7uquuY3fu+9b77zucHa5973XlVXNbu6i6+68wkFtqq+8Z5z99l77bXXqhMCebF5De9jc54Yp9d35RsfsXX7WCYIIjYgKSF7ekQEKJzDv1gXNGE2eQmOfg0+Z46HCeL1KZyMpkglYiuGc3wVTsuFHl9Fnp2Bf/I/BdQp6DI0N7Q1q0hC7CHfbyOXm8UEGI41lYUNp7yFdOuPgPQVWM152B6rhTU4swgWXOP30G3APrkovAiNY3CDL8Bp/SxK50kU5CqAhjDMlUMoMtv4tT6mbn1yWOzf9dRDNIctfxO1CS5vTZHZPlwd48xCgHYzxNrOBKMUyEVdjocwtSgEeBao3ytzzLV8zLd9OEohrLRryDBnxR+XwCCKsTMhC95BoICltotu4MCtrHRJRDWmzMYkiEhNXhaIM404U8iyAlpr2JyG8KuJCFmvEmkJbI8z3NqLkdoB3CKGjwE6+hWcm/0lGuoKCoSwiXqVQTUTz4OrAGjtm16GUuPKuIFaCS3AWUa2HsGbxVDlBEVzDur4Segm91cBOwtRqA4yfxWl8xSC7s/DDh6T3r7IfAuJ9X7374OLUCIoue8zKC4a1ZsrSdY3phmuSHtBCfJyshui1Qlwc3eKWUGekCvbxCQIGqlDD5RCmj/kjrRDV6YV2A4kz4DKlUwKYq0wiDS2RxEiZaPp2lhoOOi5SgiQ8ixyDDSRC6JRXGvLGH9lhYg0iQqnNs1EijSFgQ2PKp288iQ6DmJsjlNMVYDCdtBLNtAp3sSK+gq6GW25Q2h3BIvlahka7ENNURabQHITFoZycaQO8Zqw7UVMro4QMkHgr20o2OfaJpToDsqyDe2GSP024LwIt/UrcP1HoTmeKdoXTMI+mtyEOi2o62b5/8VkTWMrzqVdl3MCSVAEo1Mi2fNte9eoo/KYtZgpWiaRU5hhrvghlgZfh735F1DxVZQF8bwCcLg2LXi947CXfh7l8i+g8B/nUCpUGYsB1nvxOe6knNZ3xgEOZuaj6n1OsjP5LSKNwX1bqbo69E2rahKWNwbl4o8xseajjAN/PBME6QayU8yKmgGCPuszA7kXIyD9DjD4KrD3KtTGLTr7SE+Td5tuaDgXjqGcDqEn2yg7n4Uz/9dR6ja06LFSG51mOyTEVQfxfcRMmcCXHkAhLm28sW0do5x+C+XOH6J0FazuCvREI1nfQ4MjU0kJuDnK4y1g/img9ytA4wtQ9glzj+iGZL5skRChMCNVZoN93B4i5iNlgWQ4cnhHpcZMDHlY0WXY43gqFDpqisdWW3JYrO2MkbHOJPdCfrepT4kaEAU4Md/EXEhZXQMOMIib7LyCNYVwpjBiWyDJsdwMGR7k8lI2OydcSW1/zf1ksn3SUZMyw/owwmBmIZfq17h7inyvVaLjOJhve2ZW31LYHuVYHyRIeMD5EwSJjzPJn2JV/zO4RY7SZmuJyA+/DzOeEcpkA0oNzDicBA6SVzuAvWhaDJMcKneRcksev4Dy1E+jbD4Ll0RWIg0099Jk27fNnD4FefjekiA8xPBzqPTjapG/weqQRluzmcbWLMdeoQXybRYpnljuYlpo3BgnctCziWjQApO2ZfRTUDlOtj0shpwUMSOSJp0zJkbSTmJlD2BGxcwowWI7RNtiO8mcO2wEihs28Qi2EYgaMLEoLGzujLCb8t3Yoqi4RqWmo7dwGBabHtp0+yqVJLM3RzmdPGDnGo41xMns/8aJ7KvSSqATrM1JK0432DOUGMgYtl2OTVuJHBtuBbclConTqyP4NO+0Y0R0H11+Hv6JzwLBI4B/DqV3TAoKyrFT4ptaK2zNVLqhDzEV/HFRyNyLZHUQhSGaN5qmSClAy98glbVZRyGfc02q/6vf+TBaLzqlTgy3yLASvY7Ozj+B6v8V/GgGl/OvpsdkJposTo9o6LABa/XX4Jz4a1C9pwGbWjZG4fTHtmrfBSBzr8nAqhQeca4xSXIkKT1DzBi8IFCctilL2I4tCFWb7qIWJ2dMLJIR2eob/Lgr+LD+/WOZIIhgCreTymDNLkHvvQqLlrm5QhHtQKU3YEVXoCZrkjhwLEwy+DKAvRICiz707iaQplCLX4ZqfFFMmipESJpUtG01QZyMh/f/kP6jmDNRBCdGASYILqz8IvTa/2zGoWj76s1jen0X4UzDyjOUbolIeVABlfIoynQMCLrQVlcOANW4AGfxWWReB6ytRBnwY9hiKBgmmKiVFqJMY2+WYjdJMIxJWjM8gZx9dAXMuSkeX2ng6l6G4Yy9+6qvLPCdSQ4CW2N1roFeKHOISNICsyTHmOTPohS9/kBZaHucibdgOF5GpZGiStNMY1KUiCXlzyXlDJWF0LKlTUG0OSqB9VEmyUthOZUKhdFWoFSyjxxzXomljivtjf7eDNeH9AGwxPSrq97C6fT3sJh+G7Dp4JeZ9kgRoSz2YHHEkb101o5iElpAeZxKmEOxEcGN2Ef3oOkuSgLu8c/BOv6rKHufQen1JJSaRMAcdsJ1YJR62FYM2tgvskofpho7cY7dWSbOjFbuipFRJt8xR1tpPH6sg61hgs3YXAuDFIncqxzmrpWLNsJiSNt26l/QSKnArGADwhL9A3HqJFLg2YIumPteocxN62FKi3eJH5xrKuX59Wto/JRrhRuDDHtRLvuRd9pBxajhliXmAoWltieCTFuDmSAVE+4C28FK8iZO5f8YLXwXYdqFyklEnaAkn0gPpOIVYy8pM30jtuS2gKKLZC2CK0gn2ykeZs5xeCd+Ae7qz8CafxKpNw+XSqzG/Lr6XkRPq1bjR7BekIOdrbjCtGe24xSjjGJY5gD3Cgs29WnIKSC6I3VPKRX3wc+hxwbbDvxfjZjjooVCb/oDrNz6QwS3voFMxcanhK0HiYvmfhDbbsacNDZxdPkFWI/+GqyVLwFq1fBD7pJDi8Cw6YQdfI+63yHEcoWoAAZxDkq3m5Y3v7spKllsCI29JBrFxIcaN0Db99HzXLjSyj5odbz/E+Zon/mxTBDqsSGoESZv/k9Q1/45/GwsfUKnTGQ80Tw8gaEKOzFZm9uEd64L5EPoUR+F5cHp/jpU8HS1oVgZcP6YK20Wz4Ck7/MhiSvLFHrCMzWcif67JXr7N6A3/zcx54EXQnVPIdlOga09uCpFZjvIdRMu++gUXiJKojxkpU/uGeLm02g/93eh25+XAEF+/8dRB4E3ucDx0wyboxTjiGRE6gswXJcyHmhbFLSysNjycHzex6ubCTIubvWodXG8MsNKx8NyL0CS5NgZRRglJWIJwbV2hIJTMkko0QkcLLRdBJ5D6FFAAAAgAElEQVTCcGaMn6apQqLN/L1GXHVulHAPOIdPid92aCMrS9zYjbHD0UvpUddMCuprlPB0hqZd4NhcAy0PuLY3xvawIdMHlhpgNf1LnEr+V7TzywJvitunpiAO7YETGV2VipnBj4I/wRzytIWCLYakFDVFIc9yDFS5KBoXoJZ+Bu6530DZeRog1MxjlZM6cuqYZONhPhg0iRj0pznWhgmGWYmMyaGy4cgYKjkjMlOEXsPDynyI6/0Y46Kq/ur1NiwVnGgWWJzrIKYGxjjGKOYhznFEY2jFh6hmqgLdwMJilyOsCqNpjsEswSTRiDk5xEO/QhAIA7tWibanMN900AlsMYha2+NaF0ipUikeG0QdDBrl5Dk6rsJKj6JdChubu9iMbcS2jaDIcSL7ExxPfg+tfLMybJqhZFyiZbgUHKbK5cEuu8hvo6Ca6nYKV3w2DPBMIm3m2CiaRtExOPObKDsXqn62od6KWdV+jHrIC37HZpNDUynMshLbo1TM1iK2gqh4qUo0PAddx4XvOnBsZcihldHaYTdvcy5XpMVSoygm0NvXkF/8AwQ7X0WLJnjNBjJevP3jnNfXjEZJq6hQcLIxkjRB0j6P1jP/Idxjv2LUbCsi+uGvz8+Mqs8UnhDRxcoDhKszIX9lmiAuTOvDs0o0fFt0N2wZmzYopMS7NJdiiMgZn8zklTLxTdr+SAby0Vq3w9fhY5cgVICxucWog7/xNWSv/UM42asS5F0GAFoui6ujLX9K6WGWyOba8M73UPZvoExHSJwmggYThMeqjVVPJRASrHwPKHpzHw/2vMlQF56APUUhm4+Z7TqyzX8KR++ZEcXeKZR5C8m1W/DZ/JRJBnIrHFFoZG8xt9lOAHTRgl75OXif+G1k4VMCi0o4/Bi2GFhJXN+b4cYkxZhM/tIWmhUJXE23xFLDBA7PZeCwkOUar2xT41CasZURkxHC6dglzi41xCtnfWeIUa4ws9h39BDm7DHSMZEHUj2SSkKiuYnHGVtUZgLC1qQrMSnhFAUDszEcdvmdFHC8ZWO544uQz8WNCSZaBuDk0JIpdx7GrFxKCmkXOLUYwrZzvLNeYqrZEumjVWzjZPQ/4NT0j2A5DFzsfzJgMBlk8GtXttBMbQrY/hySkYeyn8FLCZtTYyOTP9xTGmRn+yiO/wqaT/1tOMF5lLyebkWaEr7K0QYeQyMxiROPL/pdMKnaHCRismUYI0ygczQDG3Ohh5arEDiWVOMkiF7dnoHsjcOJOQ8U4kqfPNGUQMvJh2FuIRXlyBJ2kcMRUyu6pZq1ZqJABUXfcjBOM2OZVLmjiuMmEb5Si/kVoXpOQ7TsDCttD8fbrhwAV/sRhgXHLw3dlW0BcWksKZxGszALJ+c8IT9evJZgaqVIbRur6S1cmPwOuuqPK1voQ1COtKkM847Vq9Qifhdxv4QeKkkQhEvBg4aTWgUN3hRiawlq9afR/OzvAKpVxSsziVOB6h+BFoMYqe8nMNwN0yjF1WGEPnkDrO1VKa3AxdBBm/OmTJRshSwvkBUFCkkAeH8I28B0C4j22JTPLuET5Ru/gfzy7wP97wtxNfYSuEkk7Rm2/URunIe7jBwxEbeROi7ycQkvsaDTHOPOaSz83H8C59gXodTifioq7YssxySK0c+JdJqxCjrE8k8z9GHZShJUEqq5p5uBg16DiCNRKSXfXxcmWXHoAKxKMSEbxiUGs1jGkbu+g2MtD2weC3zyEX18BBKE2yv0fe8oHn6V+x7lcKdRhCjNJDCHto2WF8Bj31cNoEcvY/Sj/xPe7sto0hnPZg+XN1shksocEWMlp4814M6HwPZN5JQ9Lrpw2s9D+S9UBkjcw1Q9M8THD9S/reZ12BvUAlgbIo0qbyLd/SPYrB45Xx/Ow3KXkV/ukwqP3GHwYTxxYBN2I9zO7NM/A/fcb8I+8+tIveNyJAUVbHfE8f99b2EzjGZSOfMwvWH2i2/sTHF1Z4bYbsgEBweQmkhxqhcKGsA+vkwe8N4uga1BhOvTQg56CRkkpCmNXsPBSstUiO+sjzDOHWSWW0HTnG4xraEDuaRDCMQduFA9biRxmzYG++HCvJpo4Mmej5NtBxvDGa4NcsTKr35VLfNtNBmE1OZZOLMcYLs/wwZdI9UQvVThdPSnOJ7/fQTJ1OCpNmfnKYDEpMaMatE4LLEthPYc8vUY5cQcUKkbw8tCuNqV56YqrKSBfxGtp/8j2P6qCC7VzGkGpSMjKJbkcJgVd8TFssRM+7iyl+LWHvkEBgJ3dYK2neLkQgvzXTL7DVjOleKfrUGKLQZeVvg8IIscgQV0QwcL3UBIgle3xhimQMaESVIgJoumJ2zWWzLn/USlrq8PR5nDSPxhOS2ja6JxoethruNjczDB2liLrTZRGVvEnQgvG/a7W2aYC4AzS030txJcG2nM/BStLMaZ+P/CavwP0dLbhkTtMPEj/4TTLExsOIpHVKIpbpyzrRRqVsInjK4UMo+wvAsnJ1mVYkkdBMu/Cv/T/5XRvTBYl9mpR7jU9w4CvGu51kafxKboW1ri7fUEu/QJsYF5Fzi1wGkhQu/kouQYpBamcYGccvP7o6kQhIlJW8bkQYWC0LWTi2hOvoXW9r+Aq7fAlhCsFqyAnzkBxjdhx2MhwCI3UvoUpSsLjZwtrSSHpiBd+yT8x74EdeanYfdegMKixPxcWegnkImkpDDE6X2qZIXUVOmn0dDVkSQ7vW4g0t+jKMM4zgUB1MKFMC2HMPDQDW20XYXxlOTWDJnt4ljLxmqDhFlq5PBRRx7Ggv0g9L7j7k/iiR+RBOGg9pAZWKUki+uPZtjc3sVWfwezKDKWvWQf2xqO76DXWsSxpVUEKsP2Wy8jnL6Nnv2X6OnLaOttOOz/8JCmII2Vc3dCeSXU4BYKN0NZtGH756GanxcioGwHi8JIxlzFWPW+/xaDJJvc5ByxUXGFJHC0LYaOr0JRKU8g0QZybw5WewXRjR3YEwu+6MgPZGwzdztIwjPwV1+Adeo3YQdPQOmmEJKMop8cWx9xBKFu0Rj4nlDw5iDCG9upOCTyF7iqQK9h4cRcQ3py00RjGuWIKr19MeNh9aQCYaqHKsVCw8Zy14wkkvR0c2ciN1xK5KDuF1cw5oO7YSirnOKRpRCOa+PtzQhRwevPyr8KBNVYnJCSlMKpnieJ7I/WxojYGy2A+exVzKk/gq9eRy++hXa2B1uNUDpTWHlDJL0z7p2wBzX1kW9EsDMKMXGpfahOB+XSp1B0Pw/VPgfHX4QdnAasprgAsro9AOf5vRh4jqIxLdRTudzsn/OAuzbMcHk7Rip8HkLKGvMt00bgDHuUFphEmfwvJwfYeuB6im12qeCrHIuhhWM9H23PtAQu7cTYHEVIOXnAJLu65oLACGnswz+Y3DBhJenVsSxc60eYlDyAGA34DQ1SIYcgk1Wd4NRyG6ENvLEWY8z2SeHI2ONC8Qfw7R8gzDcwPx3BUtQ94Cc4cCkBT3Em1UUxDZD3czgiq1lIclS2etDHPg2r+SUgOA6rNQ80L8Cya/Tgw//WB/0ObLVbPJC1komj13dmGJYa866NM20f7SY5HrkQ+oaRhSg1GjCGK8Ck3sDy4p5STTQw6XbKEo10HfbG/4O5/GUU+iQsOp0OtlCOL0FhC0G3AX91GbmXIYk2YecjWFkqRFESfElCL1qn4Bz/NBySfOeeQEnrbCriCvepRD9KxU001WwbENnMJQnh1JJ8QyIDmqOYRKpKOfTnuyGiJMdgkkkrxXjAmNaKMGgq3oJL1IDPb3nCb9mdMvktcGY+QMNlIVnHS5Pg1pNwR3L7vsdG+IgkCOaiiO1SCYxnM1y+dhNXt6eISSSUXpvJsFgZSQ+RR2SeGMc+orV6gKY9xLz1Ds6qN9CdvgqVTMTljje29GbPLIpGghpsQHs5UFBSdRF28wuAZQRIJDkgiiBchPvTGeASk7xCtMLljV54kmBoe4DJ7DKSZIY8ayMqljFRyyjcRWRTDTvV8MsYYbkDr5zCaXXROfMs3KXHYLurUPY8LKq7CaRaBX4mMB/pFkPdDCIwq4ScdunWHjZB2+QCoY6w0vGxstjEZJZga5JjTGL3vvCR8WQwDG0bDQbttsLxni9KeGLwk2hc4UgcdYaIHkjGb6rAWu3ygQRBZYkEMCHoEytdrA9iDKY5lIzIHXxCDRTyWy96CqcXfbx5ZQcj1UPCcTw1QqDH8PUO2tk1LBTfxJz+V2iVV0TKVw45FcKylpFuaqiRFui8YGth3oe9fA5p9zHY3S/Bo6ImoVG5L9jsYEXNXimvmBkLPCqOigny1Vx3CeymBX6wxpaPIy0YT8dYavtYnGtiQv6ArDUVCqs2mUwfmBjA7R2Qb9B1cKzrIrCVjMTxdT/cnIriYo1W8PBgC84k5rU/w4ddcSN6tuASNWpibTvCQBPyNxUtv5+0MvbRiwwt38bjK01cXBtgJ02hyzZcXSIst2DTp6O4jpX0JfTKr8G3LlZTUg5Suwm/bCPfysEJV9p25zTyWvCBY0uI2s/Aa34ZfuMFKGcROSiUdGdMuh2p+7C//oO/nnE5EUvq3UjhUl+D1hIn5iwcbzNxLDGMgL0EiKh3UCmK8gCXNrzs26pBIUUUD23+vSmIfF3AHVxBVw2x1n4cruUhmG3D3fk+nM1/iWb0MtpeBK87B9WiPwYVMsk/8KGohzD/IqzlZ6G7T6NwOQ0SiAiWtJosC7v0A9mdIS8kRUUrcNFu2PCkRVCRh7UWPsF0FktLZGmxKwTFnVGKSBPpI7naJDxiNS46GkwWjI8L90/HLdHrNTCYpphGGeY6Ic52mCAYKGh/F8sN8fAn1R5+glCxRcUIRwF7kwhvvP0ONnf2kJLCIS55hkLGxWSPyXNG6DjbWHC30XD24Pkz+Bx7scbwvW1qzgHDIcrNITyhEhiKrDrTlcOamaeWmSdmhiEs92ko/7hI2xoabaWSKGOO91eBGdEM4oMOtJMgdXLsTRvY7PfQ10so8w6SvI2JZk1K5dWKuGRbIv7hKfbJI3QbM8y1Yhzv3oDja5SuA+Vx9O00bO9pOO4ZgdeOpkL8oGHD9OhmGri4McLGKENs+fB0iuWGjdWFNrZHMXaiQjT5ZfS5qkTlP0vy80kATLDccgTKJTN9OKNoUoJBBkSS0ZsWhiSS1QiiJHt3ddi7z99SFQFy4+oUxxZa0DrD9l4sJFeTiJhHvVN4b1OQ59FVD/3tPfRHNpIgRaZyONmSUdC0E4Sa5MXvYjX9I7StfwXb3oNld6FGTSRbFPpilUzeQQJ1sgnVC5FbPkCRpOApuPO/Dit4USS8RfhZMRVjlcvxwKNDmDgOyiOT0z9M5394a4ybs1x4B35ZoOsWOH+si/5whp1pgZjWx7VCqZTkRn6aB36ADCc6AY4vEtErhWDYn6QYJCWmOdG5CimQmFB3Fsw8+oO4F7hlYrtER2c4OxdiOC6wk5bIHA1LM0EwCACRQtPK4JXP8dxqiN3REGu7U2RWExm5DUI9sKB0gpYeYjF5DSv4fczrr8HNPHHlxIz+bglcuoEpSz7HOeaAqDenny33BCzvc3B6v4EyeB4WpZlvM2KRsuSAk3Cf2/tBPl3rHP1C4c3+DFEc4ZHFLlYCF+OZxvaMk0IF0pxeFyJhI5NEsUvhItNWNOON1UGpWQQWKO0IsavlerqFjTDn1R9XKFIDfq7RnV2CP/w6WpOX0NDXgBbHGtuwgjPw2y/C6TwLNJ5A6bSgFIs2JrNmOobXjuZob2wnmOZsS2dYbDM58DFLNeI4k/YHW5+e56HVcOAxK6WjKGxc3xoL8ZVtNO5IImUkRdWxwIw6knBO7QWiISk6oUIj8LEz5tizi8cXHYNUsNittHmZUJmgcn/nz4NcT/n4cr/p/6Df+n2+X5UgMKyxJ/X91y/h2vqW3ICcfxYGgeeg1QiEtOY4GgvhX2HF/ybaegJLJ9I+sNQESo+EwKNpqBPHKG+uwaeMa9mF9lxYZz2U9g6s4a7A9fUci9bzsBtnUFqUrjWGQMIE/yD4TmXulNpd7GZLuLG3gJ3JMUzTeQyKCMWsoNt05UKYi8CPw5l5y0bmUeI3R9NzMGd76JBsF17H6aWbWOm8CdfZRowuiuB5NHr/Hjz/09V2ep/X+iifJtUha0uFjUmK19dI7nPg6Agt18KJpQ5G4wKbFC7y2Yel/wVTpprmZII/k8OuNcaF08dgWRY2OEK4M5Pqi2RPM/FePw64Dx94/e5yjVjdSJVK7wavlBt8exAjs0M57CWkVfdxDSjYyHBm0cZCaCGaAqMkwSzJMBu0kTgptL+DpGjAy+exlL+BM/ofYMn6ppCo8lsJ7NQ3xEyZyNEoVh+Dd/Z5lNMRkF2CskmyfQTW0q/BpRRveUwOLoMw8VASyvWRPHg8EW5nFb8x0/ju1SFyO5BxTd8q8OS5Hna2RhhMEqRWKJMBRDoMf8CMZgq0LshLjkeOdQHXxY3+DOujBLOS3gw0xTLoiKiVVkx/o0b3oNADg0akrgM/m2K56SAvfOzETNJEGUGSIKMEeZCQ8Lef71hY7HkYjDOB0Cepj+HEQuTGKN1NeDT1ilfRc17Cuewf4Hj8CpRqIt4cQUWUgaYyINGREvbJ52CvPI0yW4PWl6HpBWGfQXDsOdid30KJruE1SIXJJa4ThCNa8HvsKk50vrkxxW40w6MnOui6Pq7vltjRBSK632p6mjiCikmhzekh4Q1V4mTizFolC+RrqAJO7svhyrayjVSk0VPVAOhlwlVgSxhTmTLw9BQuR0l5DW3GhgCNcA7zvQ46HHGWccPE6FJYLnJW/KUWRc/XtzMRzFoMCix0QqzvZhjR3r0iENYaqlz61bkQC20ba/0EO5NYSK7ymUI8NbGC6Bg5FdT+ED2NCuHicoUWkxAfo1mOaeEiJGpsWwhCH52Gi7nAFiE3keV5uPnBRyNBMHmcwsXrG/jeG2+bMa4SaKgS7VYTrVZDFqDk1AJFS+wxQrWBlrUN392V3r2nd9GwJ8itXTSLCey9PmX5YOWsTEuUjg3rbEcSBHswPFDQsrhhGBiWAe80QIEayTCr0tGo+txxS9xOczqcSDDsTXUPa9PzuLJ7HjuzZYzSGGk+QK4LBEQJOIzvEo5iL5K6XhTYyAS2on0xn8f81HEdhI02Ol4fp+diPHr+BHpzZ6HcVcDqAlZNbjmSc+D9f8g+wcaQDS/1p7i4k2MKH00QHeGoYYDhiDa2CgVTZ453VlmzGSczlQRJiRd6wNxcGzf7U2yNUhS2j0LEqOpJ+YN2xuE6/sHcWzzEMtFt4KHnqQxtl6JOOWKrKQmezPpX2iz737yw0QloBJWj4XhQoqlQQucFtug/MEkxsUi2s9HUMRbLH+Bs/BXMb3wdwWgGxdl+26BqDPtRsIDGi38HzsoXUKZTYPo28vRNjMsCjd4XEYZfNJMRNiFyyc6OzMyrbu3QxOrV9Qmu7nEt2V5IsbDAiQ4b2zsTqZY4kkilR6OOWK1blSQwuJ5fCLDadnB5c4rNqRbHTtOYNmOrB1LjrMxE6ugQ7+L9b9F7PdO0CS04OkboK+TKF2XFaiDRaFXIIldMYWlrUcDJwsqikqkJzxnDtVwkqYOtUYz+0EKiYiRuDD8PcCL7Hs7if8Hi1e9DRzzgjHx0/TuT3hn4n/jP4PZ+GRrrKNNvQ88uI44jYPFvod05a1QAq3vAJAlmzR/Wg2np5UGE/uYAp1bnxfxsZ+saimQDthqIQ6pVNsWiXAfLUO0VlEEDVpZIb5+DXPxDzkpWUOsgl4TcSUJBerVNhIlFRImpR6SMRMYcLkdHqYCqac2tkNOBl1MqNGMTgrGSluSxVoH5jg+fObQU5qalzcu2NkhxZcKxyAyn5hwMxyn6kWuUem8z4DJXlyRpIgyjGYmnnIDSCFWG0GGySzMvhZRKkVohyjWUTa0KElw5IRXAK1MshowFJQZxCUWOg8iIE2EoJEE41vVl0oEE6Yf5OEIEYf/UuO24lXEU8g5yja+99H0MpmT5A67jYKXXheu6SJIEccJZeDJEOetti7hJy6WkAEe7KLwyQaucwR28hOXih+hFr8HOxjIKJsCzAzinmoA/ghrvGZiOWZ7FuVwK15BVPQ/lrEDZTVF3M8r6lbaBFMTcRPwHth44GUEP+EKqNXFmhIdBfhzv7F3A+uAC+nEbg2wEjQiBEyLwunAZ8G2qxxkTmarRZkZ5Co5IUnbUzMxGZPbmBfzARdgIsLKwgGefeBTHl2jQwy8krk0Pc//c/bP3A6iSdf3hrQluTiiN6sMrZ5jvtRFHBTI65YnRlaTbIvhT1ePmfYXoU+CTpxoYThLc2E2MFwPJmrxx2bveD6xVSiGXw1Cd7vrYFz45fN0ONwfe/TpTtRK8d2Ru30UhgjqshM3wXmUqU38gkwUGN75CT2ET1qTxlKPQDoG5wBWr4fVBjizlr05hWQmOT1/ChbX/Hu3oJryM+h20tPZFw8PSHqKVJ+A//9so534apU0SFXX+Oc7pAuX8vlsgO7xssRhh4CN4mKk0jAqN71wfoh85MrrqWxl6cw3sDilWRsqXUTlkiBaTpUNWObyObK9dONbCbBJjnb4bypOqjneW8EqE5X57MigHdpVM3u2X7uea+/94eK3v+gpjHFUSVub+tEGybN35N59Xm4LVO419ZkLnGo5uwLESgaGbQYBWYCGKLdwcc3wzFSKiX47Ryl/B82/9LnrZTWHqU/KX0uEkSZPjUCz+FBqf/C9RdJ6FVpGM3FqZL9NZFpMmQRAqxODIQ8BB0VQzXkZxhjdujLCy0JJRxMneRWTrf4qT5ffQyvooRhoqCxBRd+Ds59F94leRu6ckhlUDzEjzEkleYprQ10RjHJfIMvrpUi6dCSWnIziZ4MooOxUSjdom/xDhqXQPZHy42ieMIcpCoHO0Qh/zLRdzDQdN6i5wSgIKV3ZSbE0KeLbGQi/Are0ZJuR7SMPMjKTy3YgmiOiRVJRK2glNz8ZC25MxR5/s2yr0cIhhHBfoTxLsxeyiMeGhhokvaNtyk+eXMr9Z9hjbLxp5mklSQFG3E/MtIWVLkiBFyMHefW8PiQd3zz/UBMGg0EQGgDfX+vjmq28JTMkM7dh8F67nY28wRJIa2Zt9Cock78bRzPdLLDcUluxteJPvoj35GlrYQjMfgbIC3ECFpZDZObyVBqx2hmK2JZtDpJepSUD3RUUxEyYrPSgSFh3yE5ilB5JE0Hip7pERVqYYk/QhdQOqTKGdKUb5aby98yKujR/B3sTFNLZhuy6aTVYVkgJUwibVHquEOKrTsNIaN2ebKCNoMr0TRHEMx3bRajSw0G3ghacex+mThNy5YUyQMPLDH5GHIAFmQ5NI+J2rEwzF3IZrm6HZbGBG2JZZvAT9CvU79PVrkRXXtvDscQ/v3BhIiyK1KFxjyEXmXrxPWLWq+O6eWN1Lff2D0xlqXYD9zytFwQBhwCBnYziKwTFe/nur2MPZ/v+IleG/QC9mcsseLfuuJO9x5KuB/MSvIHzh7yJtrcqYnU2+i1yCe6NaP/Fdoc1a04HzezcnGBQUCitERMhzbTHiMYiy0aTg/qZGoWGMmAPC0Sk6nsbifBtr/akQ2dh2431PZUg5lkV97P4e704Qfvzr70Vd2S/U7/kWcozcNmJJGXAKdJW2g/5gInuXv8LFGE+s/yOc3fpjoT2Rk6J0CGWN4KUOYi/A9NgvYfGn/j4KvwtLJbCKphH1f4hogdmpBvPl/1DBMtIKb15fR5cOuTSn27wOfeP/RSf6cyw0tlAmHOe1ZMJh13oUePJvIV/9OaSUobc1PNE4sEwLudofqdYy1dSfZtiapEipasl9Jm2myoZtf5T3zqTv3Um+7DFlwSW/xFdYEFEssdXC2t4M48EUnU4Tlufi1m4iyT+LkLsdxPw07szFho2TCz5cS2EW5zLNkDCZZOLgWmg1fdnz/UmOtb0IkRw5ZjSXCcVSixMWuaANInzqUCxPoz+IhOzZCVycWwzRpTy/mLsZ/VzDuLnPuPfjt/1dn3GECcLdPt9QkFklfP27r+HK5q4EkrlWiKVeG+s7A6QZRY+qHmPV+yPBRdsZYlVgvpjggn4FJ9RfIijeQSMzs/KEK/ngjaftkYxFuZ15uCsu8tkG7ILZYcWSZ//U4oiZGbuxcwtu1jEscCl4mIwQNWClQJ0ETjm4QMF2BIcdBhg7y3ij/7O4uvcUdqcakzhFo9FBs9mCw4qkii4U0UjTFBl/VyUdyu9p2TYc25ZNQpEgZqv8dxrKxEmK0XgqoafXaWGu28ZnPvkcji0v7h8LH7kEgRWfZWF9VuDlK0NMZWy0hM/RLt4IOVEUc/3lwK+1HaptYjJ1OjP6WGoAmzszmR0WdrMcLWbk7H4TBKN5cOdheg+0od6yVbfpA95j73qZeAsoir/YSNJUhFXM+G6B46O/xOM3/lss2wOg00YUXIDanMJK+yJXGzWXMfep34V7/EWUagqrbB0Z1+Cev79KEK7txXh1bYYRfHExpeQxqzcmQFL9UBukSmR5jwqxUuB1ojI52l4pzoo7o0TGWyUFrMiAJgH6qCcI775Ccp4XBVzPQ0rHQsqqV+TGufTf4pm138GS3obVtVBYzyDb2YM7GyJzhth2j+PYZ38X4cqnjVexuIE+3ELgIEEwpkRZqbC2O5FWme9kmF78Onp730FbX4Rr7clRrnQMnd1EpGO45/4mxkt/Gzv2OdM2EAxOtFThWQXajoWe70k1XigtBOTtSYbrO5FMxSQssijhffgh+iH3voflXwj9a9pEG8Elj04+RH34GRQ1KkrMddmCVri1EyETE6y7mfUZtdf50ML5k02Mxxm2dkaIqBLKtlLpCErsqRwNO8ep5R66DRu3dmNc7c/ET4ZJAmOAS5kuxTYsxyqNzosXOFhcaGBza4Yiy3FqPsC5hVCUcw36VidoR7MPji5BuOv6MRQRDfYAACAASURBVCNUMiP/p9/4FjaGEziui+NLC8jjCFsTiolwxETwdAPkCiuUgkke/CLFY8W/wVPZV9Et1kSAmFWVGKNYlPD1UJZG34Cwq2oquCcbKNI+VE5NdIqS8IjJUNIxjUAimeQEtYoQRdlGRo113UaOljELktkYVm4KPv84V8Rv/J3+r+OVvc9gOwmRRwnChos2uRNc0dJGRo+AOBJGLFW26t9k9nmdGZtFZ882CAL4vg+7Ym1HcYLJZCZoS7vdxqnjK/jcp55Fu8F57bqANLn90Wyd9zguBUAw7no3xzm+e2WImDoFHFWiI59tWgMiZH0o+T+cE9fSqmQOiwhyyiTOTJUYZYVKoOh+M2lBEKRxdNsfHtgmp3z31bvHX3+gfIHvVQuwcDHZ4ywLabTIZy/GO3h267/B6sollE0XWPkPYFmfR7JzBdnoFmgN1D7/N2C3Lpiqk4fxB/omD/BFFIaBhXd2pnh9K8GEwi9CSOPtS5VJkyTINa7n28UDk3egcZIQTQHei7aFWUp43+g/GJW5g/W63996cG4cZKDCZ5Ivcvcq7J7DL4d1+d9r+x/STjF7x2SYIhBYC+iUCvPpDh4b/z2c7rwE5Z+GtfrXUPqfQ7Z7A9ngVUTIMM+1Dp8QtS6imMbE/GE/DhqBkyRDfxzB8XxEW33MzYVoOzuIrv8Z9Pqfw01vorBjIFhGc+WXYJ/8dYy985iWLnSRIYmpiGnaCLxI9LoICqBFpUXC62JtYGMvznF9J8Yghhi7MdE0DeBahq2WxT/A7A7l9xJopJiQtTC6HJ6l4btAu+mi5TtwbRujKMHaNpEefqqSQs3IWRu5ZxYuVM48d6yLKC1xc2soip6CcCgq5kpDTGK8oKWIcWG1g0YzwKX1IQYRWwquuS80FWGMUdj+qCeJ+Yq1QQOM+SQ0PnuiKyRL+R6H2rdHsQuONkGo7u76/pFgSde1osQff/UbmLDf7vlYXVzAXn8bU44UHVocmZWlpQJa8NwQjWAbp4t/g9OTf4lWti52utw2So1gkf6mqfnOFgBh7By5m8E93TIJRDKUkTBx51a+tCMImGlF4lwHu/kpbCWnsZusYJr0EGULyHKyh/kZCk27j3a4jm7jEjzVwvXNF3AlPYdhEgmE1WkH4leeZzmiKEUck4jI3tj7WNYqmaILWDPwEQS+8C6m0xmGoxkc10On1cBzTz6KF599EhThMERL08M/GvDp/SQINm6OM3z3ygCJ0zDjQqycXRPk7pS2uVcRwD1QBwOjNmnGXs3j/VzQQ99VJFxrmJbXjfbNSpKxJC5QiETq7Y/7SRBMovHeiISMdVWGU1KFZSSq8ZC0EJQRni2+glOtfwIn20URPgpv+e8BrefFeEYJrZOyzGFlGW2qsIf6INIFhcv9KV7bjJH7HSTRVBJXy7hjmeTgNl6ImbaoH0aFknejIQma6QSzvkbjwECr9/vY31O1MY5lwfMcY91dmLW6c80+bIJw+DuKMqcE9koZlg5h3IO6RDsd4oL3FZxu/QHsNIKLM7DO/DZ044v0PQRUBKtcAKi+yEKB5nTi5nife/5+L9p7Pr9ODowy6nCWSEI3niZY7DZhUzI7zmAjxry1Bnf6CnQxhN18FHbrUyjsORRVq55FFtsGk0xjmOUYp5Rb5rHMPcPWQy6EPbYC2GqkB8fa9hC3IholKRmDl7gg0wOmCV0jVId/ggymkuAu+8gknJTi7jQchKElCEKSMFFXpoBTBRqhjYXARsMnd4hCXUZCOZpFxvXV9fHOrQFiuEZGvDqnfApgKQd5pVfhsnXml7hwgryrDJfW9pBZjerfzfyGaXNXODnJ2kyURU+HpNcUz6yEONEOD+6Ww9aWD3Rt3/1mR5cgVIrh9UgLqwP2W0bTWDLQb33/dcT0em80sNjtYnd7W+ZLDQfN9P9p6NEMG2gGoYw7KmuMIN9Dc7KDRraLwJ5IBRKUt9AsLsNN1mEnY2MHTSV1Vg7LLvx5G2W8JyMvoq2uCPfTkGceu9MLuD58CpvRYximi4gyR3pEFGfh2FZd8+icKowT0ZEPScAqp9hik8kKsdhpwXdcxKz6ZxMkJFdKcnOfN7YAJhZC30OnSTa4g93BCNNZijDwsdBt4pd/5nNYWehV1dlHKEGoILH1WYa/ujRA4bURJQx6lkxnCH9CGML1YXqP61OLkR3au/d5Fe847WtSG0mOJLyWMl5E1KbILSRx8q4k4X4ShPrAea/71sxfm+SXimy0iZXeNYOK1ceTwSW8MP829PBPYE2uQjc/C+f0fw7YzxiCn9wTElqqWYUPdUU+dIghCsJe69XdCK/cmqBszmM2nUgi57h+pZBXlwP8ONNyqA/v/f+tBI8OWk7md4mqHtfqPlRN6x9l7jmDFll2iSDwJEHN8xJxlBu9/qo6rF/zXhyEuid9OLF4z6SwQkwk/DPmZSSrGeE315rivL+Jp+f/AsX4XyOcvA6n+QXoE/81Cvepam0NwmLMi2Sg9EOv14d7g6p1y1RVlxhME0kISKKmwmBZxmj6lkzucFRPZLArIS1dGbKJlXN1UwlNmQRgbWGa0Z47F9dHtpiM/XqOFs2NQhcd30GR57i0E2FjlGCqXancpSNfxZLD0tn7e0B8eSpSc3XMskZhqyEtCjEUYxEp8tnCHSBnTMNhO6gw6C4fbAkGoQvPd7Hen1ZoAPUr7KqtbbQ8RE2XfBsRSuK75ji/6GG54+K1d7YwK30RdjN3cSX8V90EJjaY846IaegUeLRb4vGV7j4d9yjv9iNKEKQukODGI1Z013fHeOPiFfT3hiK3ynEQPqPTamO+08HO9ja53XUNITdUMySJB5hqVnoaYcQNFCBhO8HjLGmGBWS4MPcmzjReQrN4E3p7G9lQw9WBLEXSzNE8xrHJKXRGjwQqKrqYqpO4PHoc7+w9j+34EYxykqsysYnluAs/17WcanyLhJkYUxi3Rl814JYp8iJFr9tBu+Eii0oMhlNkFMmwCY/Tjc9sF0NcePdtehhur5/DkTCGhNCz0G23RQJ0Y3tHgk079PHEuRP4+S99zoyBHqKvHOUmetcvkd/GG9/CdqLxrYtDZG5D+CRpUUqCwKp9/2aoLsbdE6gaGj58wepK4G6h7k7C0h3PkUBgDgyy1InO2A575XwdA5AWXgAriXqN3l+CUMJxXEku3gtB4Gez/ygqkYTeSyUJAv/bdTx4xTp6k2v45WeeQ+79ANj8x5hFl2B1fxatxf8CpT0PJcGluqdEUfPDhfwP+2qy7xkU16cpvv3OAHljDkWeIo0TOF4gLSUzpniQJNQJgmnBmW9QI0VC2JKq0Pw9k2tpBd4VmKkTgLv/ClltVmUOCc0uHLdqV5QWLVAQRbFhph/q7d8L/5FPkikqY8LD14mx0HtNzYiSnmlp8H0pIU9DIrZSyzzFuWIXL56ewW/ehN7831EO9qBXfx7ewt+EUieFt6GEIE3FwaPTtrj3njBXh4hRlFPIKoLl2EiSAnOejzDQcAgAiAot0R9OiBUiUMTYz3veDKYSKZIoIfM2MshUAilK9OMIu5MISc7KnFL5tqhrLjUdzDddTAuN6/0pbg0zidOcNDHJY20WxXe/fV/wU2sEgf9CSXDhwRDhIdxP3wZBF3PYMjHBSaWqdytW8OY7y9pbpaAOFG8qqOkhAkgZbF0gsWnHbaZupA1ahfqlUOPJk20MYi1jlbtjMyJp9v1dMF9FPJuOssCZIMIzpxaEn2r4K0d3yx9ZgqB1itLyEBfA65du4juvXURKJzaSNcoSfkBRixCNRhOuY2N9fRORQE3vDvhaxgwLmRm1sq705rS3AdffxpOtV/Bs9wo6zptQimY3TSTXtmBR9pUXmMqFS+ztpiiTXGSOo+xJvDJ6Dq+NnsM4XkEymSG1ciEXdn0frXZDrEhND6heIjOvO55GmE4jZHkuMPXiwhxKKort7Mp4FBEAoyte1R5yIxSinFUP9QkbmH/PufdKmrO+kWTW20QmtJsNzPd6GPR3MZ1M4XuezOP++7/xZcy3jdiQaTUY2d3D58bRnyEkcipx3fur6xMMEiAMbOwNE0FCfN+TAGvmjJUc1hIIq8fBIXu4V3yQLBD2E394sXM1AYEVB9m/fO1hgzRjIct/M66ZDNUcnxV+g2UJaXQ2i9DttiQAkMxkiKR5BUFX45TmdpZAZiZI5PiSA4BVhev6UpWmiRZkwowbmucf5pZxTSnTzB44oW62GCynhBO6ULnGufV/imfOPY/g7GdgJ2sYDn4fxe530Fn9LdhzX0amOrK2Mjh4hIqJ9zw0+DNViUEB/Nt3+uhnAXoNH5PxVASPPM81Cdf+tE2NI777Hes+sTQkqqpQKv6CPCFDejQ7uwquvLmqkbb63WrCruwDlclh7vshLMWDLBNkr9ny4XA6VEMsgKWyr6ZJeCDJSt+GWFTcF9pDu7bs3zQpZFyX62kEqu6SWljkv3Fvu8jSXHg43IPNdhPjeIKn+i/hE2c8eGd+Cm4+Qrz1f2ASv4LO8t+AZ/8qOLhPB0+u9lGNtt07OTj0ExUwpX1zRoEh3tseOp5kBtXLD0ecO6ORecrtKf/Bp/J67c5yrA1iGWsmgVzQKKQiz77ccpEXOd7eGOKdmYtx0YSTJoIUUwuBh7bI8fM1JY/ZXP6+ftBFs+rKmum4Q1/V/GdVQFRieSZ+H+Y2MwHY321mX8u5QFn06s2q/7+KGGjbBS6sNNFpkn8A3NicipEZ3UQrra/971R/HXLqWm6JC60Uz5zq7bcYjpJpdoQJAlGCEt9/6zpevXQDMTWvXQedZkOIduwLSv9Hc/Y1w3A0FPjoTsjIZE80xciQubHMHy/kJS54l/HI8jew7F9F5s2MmUrSQTkJoK/fQFBQI90IWeZeCe94Cd2cYjxbxg83Po/Xh2exnZ2BnlH3O0Kj00Sj1YZPNiuxB2abwsY22tqUCSUhxcCLrAJT2JYNl78jSxElqdiXckQzzxlETFzjoW7+0APd9M+KrECcZojyDDEDoWw4Mw/Fg6gmdjGpILriKRvb2zts8CL0HXzmU8/hU8/RBtpAUyR4PcyH3DsikV3IuNBrmxEubiVoz3UwmyVStTUaRkCHh7AJxobZXz8OB2fDUOYqmOrNdR05dJggUFyqDu5CPNt/HHAJ5H1lypJypko0NhzH2HjHcYrphGNFPOQtNJtNWUNeRwYhQppi3yojVuZbiBFLlXRw+oSwJBERSc4KhSjimlezS5K4HPb8YnZRqR3CQRyzgi1gO2TwK6gRcGbzH+GRY0toP/8fQ+U06OqjGH8PabKKYP4TIhQl9QXHc4V49TBX2yglM9nlJOvL1wZ4Z1ii1W0jjVMhWvGact3Esc8s5b2/siBhpurmdfMDT9abyR33Ss6RSckKzW9mAm4SiSq5rK6FcF1kIohoFSXbgTTJMB5FcvC7no1m05f3lvtbG0dBQYColiiz72atzb6xYdNhkp4aHExnW6WE9JXJZeBevOtD+GfcLw7iKJXP4X5ptkJEO2t4YucP8fjJY/Af++uGS1JuIZ6+LPLZQfPzKEnoZfIsAPNHoMVw6PyfcZ+zUnZtuae8WtjxAWxHCqxtjzNsDGIkcuCb0VirzHC828Bix0WSaby1FeM6xUU5FVUQidvHB6tK22w42mfzv2Raqk5h3mfL910rW++xGvmSjWje9G67QP5JE2HgPZvLnrS8UKSdE82xRzORVaNp9X9z2oGJxbOrHs7NBzWIUX3K0dz0R5Qg0DhD4+1bG/jGq29imGg4toe5ZlP6OjwcWbGZg8JcYgGM7jHSw0ya8JBbxFhpbOHCwvdwpvUjNHSENPewp5rYSRYRzGKsRm+gMdkEPeBFgISHOsU22gWS4018b/NxvLLxM9jNekhShRYSrHQDOI2W9NSyJDGHPC1Dha1tAn7AMZYwRBiElSRwDRdVmWZVsRKK4oFIckuj2UAYBDLmV51ZZmPwfWntnFMcJBLzIgZBCQpCTqquSEmPewcLvR62dwaYpZmMAZ46toIvfuZFzLVbkjCQ5FKFzwdwq97/WwgmIMW+EcO5NSnw3RtTpF4TjcCRypLBmEkCAzQTKAbm/SBbHcT1LSd69w5ltm0joSqwqwnKtQQqXy/jgpRrFcj4IEEQJrIEd9uwksmQL9iDTuWP4SVy/Sr1ytATONrkWXy/KjmoTzcJ+OY7yBROlkJZWn6LQQxKpHGJPFMifiOH2OHQYRGGdeXAowgYn9NoBHC5NwcjHO//d3j0xCq6z/4dkZQtZcSN7TAmNeQppJUpTOVAev9L9EBfwVVmGk0FufVpjm++tQV05gRRiyczSfhbraYc2PVaUxX1rg8m37ROcW15vrQnxK6BqIy9D+ubg5yfyestKgsmcTu0zlxvVu5MKoga8A9RiLqjwHYDxyo93jP7a01UyyTudd1rJjEMZ4Lvwe/nU5KPObw2751nd6cGc+3ZTkiSVBIUvg+TA440ODu3cGr0+3j89Hk0HvktmVTgyDeJqEQ+SlA2XmY8DA8BNJbhHjiaw+Gem6S6MGlu7lmSqSUhe4C7Srg5pcLmIMbGiMiAMUYT9M8ucIpGb00f00yLvPOtaY5JTiIho2adMBpys2ld1fiLwLH77S4TWu9+PWv6Sn1g16jDYTThMJBwr9aUYdGZdyGtEtq0FMX0S1RFST6uSuHaYrrkPWBhzivwufNd9DjFUF/fQy2PB3jJ7347HpUXA+GoP3vpFVymtgGduBwPIVUHKLNZ509m7arHu0uN+oYlfOTlGmfCK3jyxMtw7XVEyTIG0XnsFg5mo3k4SYrz1kt4svgqXEygyfymfCcNZQsPkePhsvssvj38DDYm56Q/HtgpVuY86UtT2Gc4iVBkJK1x1WpDGFOxzYUQToBjSwetIiAV0l+UViF7yocODAY0E7AM1M3PY7+b70WGLgVlLMsRuVH29UbjmXTUDK/bIBcSKnSJlcUFTKIUe5OpZKOtIECnEYhy27GlBTz1+FkszPUqvYCDi3pUWgl1V5aJDy/MTCu8cmuGKwONTq8pwXg0MklCGIZyvdleIAuFQV9G/2piljKtHQZao4tufk8d8C3HlaSLyYPUfHJgHKooq77hQZuBr80QzRLkXFfpM+7Picp7sz3A5IBIgvStJaHbz/EN6lOhQ2mayX+z4m13GvA8njSFIAmsLOsDse4zMMFhgsjkgFMpPGDY6mi2WphMZ+ioCJ/vXUfHb8LpnRX5ZLL6qSRnl5zKkYyy+lObVD3cA4MySMKuKS3EJfCdK7u4NisQduZkJnw8msiebzQaQhKUIkDkq02SUBffss5yj5jRyLo+4FqzBeQ6roz/MrnaV8qrSV01j6VK3LheLErS1CSCTBJM8VGHWXPN+Bl8OyKYVCzleWwpcjxMcliPtqU84CsEg2vd6bTgevyOJjHVuSP7wHASTBCTBMeyxQFwMh3Lh3Gvcs9PR1N08wyfXFnHfBjCbp0TrQMSqXkdCUhp6chTk9KI60BkfR72FMPBOVJF6P2/eLDTUybhjMsSlzamYtaVEUmQeJCjq1I8Ot8UMaFhofHDjSlujDRmqUkiJXLKWK1ZZ47RSnpRjbaSHMn73IjfVcXdPiplYsxhRgOfKiZTVFMUITtTNIjB3B06KXfejSYdqUcyqZbLeFGlKRXiIXvRbDlJZchrCL0S5xYdPHe8AzLojIZL9aRDLZOfZJJwJAgCf9PV7TH+5F+/hBkzesuFR2EgMecxamrvehhcZv+v5dCoIR2OplkThIVCgADKT5AGlqjOJbaF9tTCk7M/wyfKf45OPoPKF82Vd/oEdcWWcwPn8O29L+Pt8hOYTcfwkGJ5viG9wZ1JhP44ls11QDSpMSTe5D5OLPXk4GLQGE0mmM1igduElCIz3xCr0FarJcqBMraiNSbTKSaTiZBcTAXMDU9DKhvNRgvtVltmxvu7A0RJUvXIzK0ox1hRYHFuTjbp1s6uBCDJ3i1bkgVBNxzg2U88LSOQDd81umN1r/8IhFbqwCH3TlWJrU8KfPudHSRugHaHLpQlxuMZomgG3w/QbAUCvdYcgNvaDVTSE5lTk1DyWnPaQFCmqr/PQ5Z9YSZl7BEfblHUXu6zKJIedCE8hWr0TvZUFdrquXjhQphAz5zEHFYHt73hThygNDXHgCz5DpME3/Q/90WAK8VMk6RYmM1yjMcTEeXyXA/dbhdpWmA8meCxYy5eXGjAzSyUrvkMpdir5LS0D0ezcV634Y217IEQ8E8yVLzXezPxJvXMVOdjXeLP31hH6rZkrbluk8kUSRKbZKjZgM8uiSADDJb7oKpgESITzQM+KySJYvVtEj8jd8v2EhMFogv8Q00RYYObHhCKIjcJZELisEk4DjoA+0HEXMRq/NF8D3JT+Nm3xyMRNdOMOVxRSxIB13PRbgfwqZJIWebKGr7eC/z+3KtJbPgt5FAwOWq12sI7mY1HeGK1wFPLy/CMD6BpYVGCXdptrMcpo03SG78pW3H8Xg/2GH4wO+YngViaWJopCztxjotrE8RCCqTWAMWKMqw2bZxfIrcE2KOk+80ZNseU7VdIxaeDHIRUPEGI8JXaQcn7R5AoTpzVdf3BNT0cNw5MyM1VIm/JkJ7MBJ7hlhihN+NEe29sx6APFXJR8ROquxuFwMkGoTIx0yQiC2GJF043caLtilHZwdofnYvTkSQIDLV/8eYNfOu7PxIxI+V4Mi/LPqq5qHfb9O8GbKSClPafkUlWNGDyDBRT6gzxtJSK5Unnr/BM8idYSS9KBi5Lw6pe+3D1DDMPeD35WXxv9LO4XtCaOUY39LEwN4/hNBE/CDNeW5HUJMs0BzRVDpcXF+VAZkAfTMbCNSA5hRmvyf7ML6qkgGRMkQf/eDIW2WQhLlYsdsMvMMQlYhFNP8T83BziLMX2zo6YEtUcBOE+aI1O0ECn3cZ0MpHPJhrBfStWqmJLGsKzFS6cOYHPfvIZrC7MGXMc2YhHEWB4YAgfWExu+J1zZeGtzQle3Ypge4FAzgzsEQ/7JJFKm9U1DxAG6dpFzWT9ZIsXAtHK/HpFJquIBbKHCDOLdwa16qVnzE82d63wCATq57Um0mAO/NuRBpHEPIiX1Shh7bIg73SoNGCSUOcMbDNwTWv0IQjJDfFgH6qC+XIeNDy4mAwQoSCxkeNhrBCHgwm6NvBTZ0LMh/T3CM1orEorbokvuj7SYT3sNLovN/tgQv0HepdqzFEqLkrtKhcXtxO8tjYCGqGsNeMb/VTYapMD1nZEXZCHvVnrqiITdIaVP9uOhuhquCXmGu+vmVwbthRMW8E8z6BHoowniRXXmgdvFXklsTpc9x6GLM3imvHFg6twQEitx3JNvJJwrTgFYyNseKLQV7+eryE6RnOlPDUtJo7HsY3E30ZExVclfulxD55N9Iy6AdytJBqbxNQoS/A/fTOGzVhZBrclqh9orR74i+rryf99gNynyiSJaTH9XC6uU66dkw90hNUoLBeOleOJZQ+rDRYPCntRgTdvDbEWudjN+HcpmnqAQI8ROT7ysoFSs8VL+XyFjLa6st6HEQSzr7g/xQOhKtol4ePezDnlQLTXlnhLxNiM4ZoLe8/oKsfZ4emrepPV5GyTeEhRQbEo18XZOQcvngzQFUCLKLKxDDO772hQwyNLEL7y0ht468q6WJdKL9kl27RisL87F7gjGyPkqyRrlzUTmInR0nhvFxmQzoA8zrGoruNL4T/Dqfx1WDlFjSJkTomJ24avHDTVLrZ0G9/Z+zJ+FD+FgY5EFXF5cVkqy93hVCqRgxuVAJQZW2HmOt+lfHIDe8MI4+kEeWWiYTYJs0AzsmOixWGX+kotsfIeqA8vySkZ7CS4kqnLmOqj222DFS8PRXI0ZMpBDjbO41pYnusiYO9PJJlN8OXzJ7MZkpwyvg5ch7bKc/jFL34GJ5YNC5bP/8lvLsM94M0tbREe3vQVKC28thXh6uYQpd+ET3IqRwwFrs8RZ6UhqgrRsq7aeWFNorbfd6gODIEP9+8zE6hq1ILrUPE85TkGAjd2sqavy31UtSPqQ0NIrHfeePUhYm5Kg/DVlb1htsvhtJ948TtUUyqVCpsgHeRHVGIogZvBDkKUri/tq2Q0gpdHePb4PM7NBbLPxJhIZloS2DqsRtyMsJP5Jhx7q/bZ0cSKex8tMvtdixmRcGULAeutrUjUFbXrw2s1hUdC7XmdpEhyU4Ux2asRBDFiEnJrFRckOayitGR3NXxvDvEDXgcThDvImtUBY/TrDycCJtjWensHJOiaG37ncw8lCwfQzf57SHfZ4ohrvV9LmZ03nAmFgD4DRCU8X0h16WQCr4jxzJlFPNKwjSkc7eorh4Z93QZFdJWkRU5ssZAiskDPmIe92Hdug/1g90DRDYkB1eEcFcClrQk2xkYS3+E9Iw6IBZZcjRdOtGEVmRQco1jjjZtTXJr5iLIZVuIf4lj0fcxaXfTLT2BYnkXuAq6v5XygahNbZOIWYhkVQ4+y/CKbbIiqZlqKhGgzlcTqnugwYxSRJ6618J6ksDfVPYnifE1Bgnol0CRI+aH1M7HKTFowJrGVSOSy4ZSYDx08c7yJ8z0an5nYJnL/RxC9D6/wkSUIf/yN1/DWzb5odru2RqvpYSajRSYfN9ftQNnMxAMTEGRMyXPEr4DkJgkspRLiYJFz6iGH5qGIAo8XP8Cngz9Bo1zD0FrBzGphap2DDlpYbmzBTXZwbbCA7+88jo1sFVmeouu6mF9cRH8wQJSyAjJTBCZ4GItZJgiBa2NpYR6zaCotCCnmHkBGXh1r1edwqrdEr9tGl1C8zhHFGfYIx2fMVnkYFQio/mcZdjWrF4HYPR44Bbb3RjJFQc9zj65gi1382i98ASvz3Wo87+EEGV6raa5xZWeGS/0IsfKlimwFLmzFpKKULF1IgRWwKlTNezHEhfF+cKTXEB3/0sw3m1lrs540BKr7fPf3+w8Ok9vvRQ1q3AAAIABJREFUTkPErNKS28rOulK9fXNIQGDFaxfILA/TBEgmU7SKCR5fCnF+uYvAsOUOPY6uWngAW3n/LfitJ1mJq/0Ib20OkHghnLCB0HXh8yxnUCTJsEIO9o/sO0YWD76TSb7fncCZIG7scuvDv15naifs/8NtP+9ea2qSvRr8rfL8/VceKimrb1K/D9Ge+iEoItMktj9k1l9hQi7ELEFTR3hyKcCFhUCY//dO1j+e6/6g9pBhDDD65ogLG29tTbE2om4BVQeBjJL3qkSYazx7ooP5BuNGBtfxMY0KvLxe4MZojIXZyzg3/ipWw3dwHT+FH6lfxLY6L6J7FLOjlLNR8OQxXE0i0T2yctQ1OloHgd4AAUYwj0kC30OQwqqNaCZOasUPZdBREtxlX9UHfHXeCTJtbDZIwuQUEM/GeTfDhQUPnzgxh7bzcIdbjyxB+Nr3LuM7P7omCYJjFei2fFiuK+Mp1KKv+7oHPTx6EhjmOZ0MeacRNRiNRxWkXt1AArea3iArjIViE2esNwHtY6s4jamnkRLKtCcIpxvIdhqYqjZ2XBuzXMNOFI7PtQWd2NozZlGyxIeqVDPjWshIJklGOzt96XEJNHX7DNsHuj/M7Hc9S8tRHi0J0cryEhqeYdyz+tik/kGaQImgg1EeFGKXnEdGqKfX7aIZ+ljf6mM0MbKg3WaA86dX8O/+4s+gSfHxh/agcycFRixsTnK8fmMPe0T5vBChT1jeOJrJLSsO0OYgv5cE8/4/CjRXXz+TNNBC1wjsVDl31f6h0dfdBXfufVHMsVAjFAcHQS12VB8St5/rtychpqXBA5E9UhvxLINKp+jZGZ453sHJnicjmA/bjOdBbg0iIOSBbo1zvHpjD7uJQuE34AY+5uiDZuDAfYZ3jaaZw/bgOgukKl2Cu/PkqYMiiqiHjugaGXCZId7lcc81rYSZbk8RzCEhrcM7/BvMHP2hpKLS1GGsYjshzjVGsxhlmqBrF3jm5BxOtZUYBcEOj7gefJCr+5N9LxPdTcU+Kxy8sT7FOhEEJghcoypBcDONM70Qjx3zECeUcndEyXGYarx+axfru3048Ro+v/d7aDY2cMl7EpeLfwdxfBYD38csbCK0acFdwqb/ThEgUjNEGEhLWtZ7Xz7d7ApDXqxEm9mOsJyqxcRTghLepp3Ls4LPYwErI7pCnqx1UVgo0N3XQpybgsa2S3Q9jWOhxqcfWcAc/SF+spf5x777kSUIr68N8JU//w5yO5CxDtfKhblNKVaBTyrJ08PfmJCkxAYa+2hgRvg8ZmVsYEBTWFa3uhwoDiK7gYZeg5tzdpZM/l0UyRbyNEKZ+1DxImL6MngjsSYNUhcnTq9gbzLCcDKR3pT0O6umUt1bIhTUabWgc9p6xjJtIFCSfIX7q0jfa1XEYrSCosl3aAQ2eu2OkNmSLMfa5qbIgxro1NDghPkg18lAZHPNAGGzLQkFdQJonDTfbeMXv/hpPPPYWbFUPTjUjlJ2g92CXK4X4TTaxF7bmeFaf4pxYSHhyI+4qBni2QH8e/crVtdYJjkwz6k0k2BVyFTtEW+OeCVckeI9M467fxbXRJAumVKpZJJlhMokpkbwtQ4gVQujblfU340JArkWZYmmleF428ajK230vApF+/9ZgmBY97xPPUyzElf6M1wfTDEsSuT0NOHEAlHB6pLzPndpl1sRW+sxZ4MM0R00vb3grqsJIaRVxFCJA9IUlPXO7TsdP25PI/bXVA568xrydYwMtmnHccJGpHwrZLFuZZlGZGVhXf0Kk6wbojKLHirsca2X2y4eP9ZB17NE4E3aJRTLOqJe8o89CT5yTxBnK4kVw8zCKzem2CVnk/eekFLNhBSpsc0ywacfW/j/2vvSGEuy7Kwv4kXE21+ulVmVtS9dvVRXL9PdM+32DD3e5B6v8jAIA0I2YBBCSPwB5D/8QkgWSEhIwC+DbGGDsBGyDRh7QG3P2OPpme5xu6eX6q6u6lpzX9++xAbn3LjvxYuMeO9VVmZWZuV90zVV+TLWc+4997tn+Q5oJdmotJDNW8hYOpoEEhYauLPl4dTy7+PZ5m8iXyxjyzyLhnMcn6au4tPUs2h5JbgUvmHyMuqTIfJMXBmOleMskJG0MWz6OX4Y+DuD0muxafM4aTyXoWZzwvpwd15Zmq3pvDludjpMlkQe1PG0j2MZFy+dm8BcgQIdu7q07EjD+wIQSIZrjQ7++x+9g+WKLbjkfcosTcGyBFmJbIjRi7GJZCXSDS1yIkFNEK2IZLvw+wY7TZrMXgqeUUXK0+C2LVRaZeidGnSicuY2oR3OMs9aGeQ0qoGwoI1lML+yjLZDrZwFHbIWMLRJ1yEpnXgPBA2vaNm6V5/wjpRcsWnDYIIkoqGuNhpYWl/n+D6BhK5bPRisdC6Rmuby1AbYwFa5zIaK3JlXLp/DG1/+AsbyWWiuw30r9rvBkyDcDoyoRhMGXMu8Unex1fbQaBEvQVDfHsg4ycSL2B4lQYrkULo2VYqXKWvc8ZGlTGBizKPFm6h1Q90EHzg4FCxSogMClR0a3Pu9UW9hspRlAhQCCbxoBGx/gkpagFhOMGXyHp1bxU7lLUxkdaSDodzrTLdXo2r/ryuc/wHpV5CSXHdcrNda2GiRAScWSUEi1i1HI2BHcx4+aq7D3CCcvEp0vjaV/fVc79QZlGPDHUp6BIqWKXQdVEYx9TjtNGMDgQIki6RP0XDYS5mwXR1ZX8zveptK4VLM3UGJTjznaXHyiGVVwARyNhM8FN1FA6sQVFtkLAOltM4UwRM5QyTscvmiGKsKHiSPSZFwKjq43inb+HChhZZHFQwesyKalCRMYWYdsPwWXj0/gZlMim3JfLmFUj6N8YwB2/Vxe7WNpdUPcf7Tf4PzuTvUixntagVt4zQ2x65gzTyDBeci7rszKKcKcP0sdDeLFOeBbP9IX2J4BZD/Ft5nAWhpXBEbL1dWkTc8yKmguU7Vb/SHrkWehLGMj+N54KkTRSZFIqAcrqze/9kbWK794UGgphge3rp2D9/+4A7vvkWrZUEgQ0lZzBHAyLAndu4jT1miwd/CTdvzGgTWpys7muwpr4OWSaEDF+5mAzVKQvRqMDoadGp6NGlwhqjmZOA5FOFy0bA7nNwn9oAifkiLDsUiPabMDTJbDUuwwQVo8IEXmZG0LLs1CDm4CKioyTMwVsLYxCTuzC+iQaVXYV7ubolMgGZ1HcVCAY16Hc1mk0t0Joo5/OWf+mGcOzHD+RqMa1kH+1c8JZbQ3nSSiWfsfudMYcHMF3bx9pzNUQGKfAXRrVNHudnB/a0Klis1zK9v4vTUGF558jxyHBcUhpn+7u1ZR1KIOIjly0TYsH0dGw0btxfW0KlX8eoLT8HgJNYeQOi5sEM7Vk5eohQ+GvMyF14seAej7dIDyGOEQ3lzFQhPalzupDhZlMpWpa45VCfCMDQyWxpwZ2MTy1tVrsop5IooV9q8kaCKF8pHot0ZkZi1mjVMlUxcnJ3kkkHaVYqlX8g6NgTU3buLpE9K7N1oOig3HJyeyqFlu1hcqyCTzWJqPAvYHQ7ZUQv3sXSK2wWzHzPwVohZFIzUIORFrIsECsWWI/gdh1TEkbuY8z+CNg7XIVzX5QPr9Q4+WqhjtWNyDJ/olDvUNMkVAKGdosBTCy/P5XCqmGaGXkqGXl1vYixvYpp24hqwvL4I561/gUnnO0jRpsGzgIU16BkT7vQ4topnMW9+CR/Vn8NdZxp1U0faoXyH+I1gD6ZG5MqhzOjKEHgIw0CVPVIaV8VNpDXMFjQ8NZfnUCNRYVHfnj56lkekvn3xILCb0bWx2vTx5vdu4Pb8miCbYDc5oWrhKein2xUled0SJRau5EUI8fOz/oLlhJTjW6iaNtzKMlKVKmpEiezpKBo6ipMl4Ylg9jwbHd1Dm3qC00gMXJMivCColBkghPsDsHeBPEpy3z2q1kIL4giniN2UMCnURZLKekxflEEem51F03axtrEeVCyKFtgSNpGRFb0qBAFT2jRQLpeZsZJ2WT/7xg/hc09fYoDAgIsN3H4ZK1I6uYkFg5j0JuhUR957gwC4xC2xPeEJcxy49F1gaaWMjVYHdjaDu+sVrC2XcfnEOF69fBKZYDHgclGZtDiCHuQh4i5ip0md3+bXalitu7i5sIqZnIEvvniJJ7UAHhTCCOkjdB9pOERMPQjtdK2JcKfuH1R7AAHs+FAxZ0UHjCDpjOP4wUsHnsA+b1yw4bdTwP1yHavVBhyYqJDnkSpedKoIcaFbgokya6SQow58poELs0Vitu82A+K7D2SiFuCBlnoKgdxYrnIPgFPHS9is1FFtO9BNC5ZOxGgGNtc2MTcziVMTWe4fQ2WOIswgy5oDQQU17931IEyGw68e8Gxw0treeSJ3rLZHdmLP40aewJVKCzfur2PDzqCVyvN8N/02WqkUJycKgEAkcy6uTmiYm8xjZX0LxyfHUe8AyxtNFHMpzE2kYTY3UH7zX8Fc/DoyTx7DRrONSSp1XPkMRkaDZubhTJzDeukV/Hn1ZVyrXUXLTAc+IdmlsZfv1YUAEZIkMbaFL4mokkWoK6h8ChqWkWeROkkWchnkLAPnCsDluRxmCwbS3ChKhMu7Nv2R6YPzupJSxHf3qVzP5kWBsv/f/Pb3cW+9gjYteRT38ciVN0p9fngvGTOxAu9Cq91AfXMNmkPUqjZnmRZKpcB9LXn+ApZCyZUSed3tKHBUeQQOqC45S2/vFCZ+GvlqwfNxUgwBlJSO6eljWFpaisGp/TtvujNVN1DuBsmXrvH655/HT3zxJZgcm5WxctEbYH8+PSOQiMKjD8JxfwFkBG85uYRNNH0N9Y6DjaU1FDJpZMZLmK808dnaFrZqLi6UDPzA5ZMcmxR2uMdqIOCHcAOK5xBZxnHmmpY4umut5WJtsw4rn8FyrYMbC+uYyVv4wafnkJVNvGTd9P4I89Dcpaf1wY/M+IC741Hdv4+ObuD6chW315u8ozxVouRmDZ9RTwXNx/m0iefPTHMmOIcFg4pHkcRL1Q1yjAcgrxu2khBcGHNqNXxjcQMt3cBy1UPBonHR4XLces3BOFwUTBvHxnM4PTHJ4IArZQJw8GCzZ1RpHBr1PsSDkpxFeR9xaJBWWpqJOzUfH96rwHbBYYJw9zViVEx71JyJwg0mA7jn50zMFDO4vbABK5vF3HQO9UoL86tVmLkxPFFah/P7/xDWwvvIPn8GTY04ZFJItx0Ym4u8CeuM52CPlVCf+jH84erruOE+ixaOIeuvwXLbaBJnBaXKujJ01f/a7MFmK0VhRo1L04WXXBhx5uL1PRQyFqZyBvK6i3PHCnjxZJ6TEQU54shW8SFkPvqp+wYQiOiDaC4pZldtOXj7o89wZ3kN5XoHthNQmnY7JY7+Av1HEpeAw5UO7WYDnt0JwheU9JZinnMB5mTt9U7vM+i8kKux6yOSy06PGXInd5aZ8KVSidkYRXfCwR8K3VCfC2bxg4/PPXkBP/9Tr4N4qh4NQBj2xDG/p+xfqjkOAALv5H0DG80OqrUGpvJ5FLMWKm0Hd8tNLFYb2Gz6OFfU8MqFWcoyCS4qXcAS/onJLBLSAo9ekLEcrjcnMpT1WgPNtoup8SITpNxaq+F+pcWZxp+/OIM07w5EFYKY4gdrou9A6o/kFJm3QNUubRdo+BpurpSxUu9w+925HJWm6bi11YBVyGLMbuGZM9Nc9lvg5mnEKxBAvnByGX8lPDf0kcx3TNHEde4es/bVHA/fvL6KTMrj0MJG3YXjGyhoHVw9P4O8BmR52lGcVHBtsBtaOQJ2OF4obMdcr7x40ixabXr43t0K1psBw2CQayRuIPI+BHUyOZkNpJ0mvvTkBDJWCtfnt5iJ9vRMkfM+1rdaWFytY7L2PUx++M+Rry7DeOYskGmiXq4jl5mGs76MtFsFkSx6pgd36gruj38F//Pey1jxn4SmNWBS7xbD4mRV06OePgm2NxhflNgaECTywk9llVkrhbGcxRU8x3IaLkxnMZU3OFfqoA6f/QMIPqFDUZJIg4C6da2Va1jepOqBFscSk5pmjD7yfG7d+r1330e13uD4Jsd8ZbOVXaw2SHomugXFHsn9Sbv2LtGLgCajv0rMkaKNsSj9lO1zR7kgMfgxHXNKx1Onj+Nvfe3HBUDo1uXupwdhlCeOHBN4EISNF6yRmy0fKxtlTJdymCjkmJxms2ljuW5jsdZE1dZwtgi8cHoKZtiAB3TYIqlAVFPQWFxZK2O6kObmV2x4QmOFgcfKJmZnJph7olavYb7cxmpbx7jh4iUCIQG47Va9KICwA0XTFBF5Hm1ouLVSxVKlznz8a+UyzEyBF2cqVaWdY7XTwljORDFvYixj4ersOEyuDpDeMUGOJUBgsLwEU1C28BU9mny0XRfrlRrauoG3b68ia1nM2dDxdDSdDvIZDaenCjhmmZjOUCUWPUgIcO4LQ+nORHqwz5IAQTwlzcWPlhv4eKEGW6OA0faPcBSLShVD8zGBOn7oyixajo/v39+Cbhi8AFMoiCj9N8sNOB//VxRv/mukOy3oT5xHSi/DLm9Ct47D1Q14m3e5AZ+hueik0/BOvYg/7fwNvL15BQ09A6+TQptsLzowXQIIcVKlEBh16dXYq5FO+eIP0eibGibyFqYKJocSpvNE2kehCxegMv4DChH2DSAwrTIHgANayyAWLJKVKK7fzUzb8XimgbNUruM//KffQqVpMy0nGRszRa1aRw8ayJ36Th6ESjOppwDxyBNIkDSegib2wQCCXKT6Wx+HWwcPf0I6lwACAQsiVHrm3Bz+5s/9KC90FCMTmPyAAwSRJhpE9qirpoYbq2XOgj87M46sQW2T2yg3Haw1qSKihQ50nM56uHp6GpZc7GX8l5Je2SOhoWq7uH5vFR9/egs/9/qLKGYzfR4m0thytY1PFsuYniFXto1GrYq1uo2Gn8aM0cTLl+YYILDR4s2kjKof1H3B8HHzyI6gSiNNQ81P4b3by7izvI5c3sKJmUlcv78KzdM5p4iKx47NjKHSrmN1q4xTU+P44sU5ZCiGyyWyIj1Ro+qDFFWcaFwRkTb1wJ0r5qKsfim3Hbx/axHr9RZyxQxqtQ58l1p5G2i1q8iPZ9BpVPHk3Bwuz0xztYRgQJXBOZVyuLMxI0MMYvtU94G3blSwWKWOh8KzsG3x1ESIkaSfdpu4ctzClRMFLNc9vLdQ5YTsqYyL02MmpnLEpuui+f6vwb/2KwwuzUtPAPUFoL4JxykiNXMWreV7yNpNzg1wLBdOIYutM/8I39z8AaxhBnByaHGIoImUyz0Zux/2zgasqZRZZWoesoaGtOZhomBhopjmZMmipXP5JbUDkMyuQYORnYluH87aN4DQVbPkOxBBYOGqe8CFM1kuOu78/53gv/3V3+DaUmrTQTehZD1CdaN8ZPhhJ2EIWoQJHDB/A0Uw2zZ3lAv2LiOjRG4Awlz/4pmjP4/yHvIY7hzZ6XDrXUJirz73JL76Yz8Ak92jjyIH4UGeXh4rAIIsSWtDxzufrcA1TMxNEfugjkqliqbto9L2sVZrMe/9NOq8eMvMApkbx82BKbN5q4EPby3g/kYNtUYLf/fHX0beEtz9XXDGJbo2vvXhfTjZEgNZ3eug0WzDNDN4ekrH1bMzSBHKTQnD0ctof7DI9E4k89idE/Ribmsa7qxW8cnt2yjm0nj2qYtYqdu4Pr/B8+rqyWnMTebw0Z1F3FlaxuXTc3h2boYq2JgylzlCONHYRc0BVmoOqk0HpTxljesoWVR2RlYpxXQ86y0XH91bx437i/ipH7yCxc0GPr27junxPOam8rA7DXz46XU8+8QTuDxLVUCUgyBABo2vg+skPugjpDe3SZoVD/iTa5tYb1OcP27+BImlugXTdzChNfDa07PIpoBr8zXc2HKQzWUxZXVwpqjjRCnH1UXNT34d7se/AlNPwTx7Ee7iDaQcCkOn4JdOw/XT0DfuwzBc2MReaLrQL30N9yZ+EWv+GdhVDS3XQdOpAy5rPwCYVKZIQFI0ICzlNE6cLaQNFDMp3oiR3aKqF8qfEh9alyhRW2zNdrNN9m5re98AgkwN7JKkhRpc9OrFH/L1NODWyib+3a/+Jlwjh7YryJSslM9Z/D2+/MH3ofbDzHzlkAdgNGBBdNCiExxxdre4dptqqPk6lGnDnszRriUXqLAHYadeDe5tELTapbyMn/nRL+H1l55i19xhyUGQte88TnwfLU3Dt2+uYLlmY3KyhIwOdNotOK6GastFtdFh5H465+Nz54/3uipqQNvzsNXqYGm9jJWtGjp6FnfXq6ynv/flK8gENIthvXc8H29du4v35ivoGGlYcGB5DooZA298/jLGCBRyQpyoYxBVCsKjoD4PKIEghYeKeGkDQRwoTE/N7JtNfOvWIjqeh9fOz+LCWBEt12fOhAL1d3Gph4fWrVyg8dLxXSzWbCxUbK6jT+s+xi0XZ6dLyJHx5jWeM6So5x97HiczOu7WHHz3+jyOFdN46eIJZHyg6bjIZy2ueuJyTd50PFoq3AeU7gE8XAIEsVGsQ8effVrGQo0AWPzSKaiwqbVVCy+cyuP8dA6VloN3b5WxYZuw0haOZT2cLWmYK4neJs7i76Hx/X+GrGnAH5sCFm4wcKBQUdUdR+HMK3BufRt6aguuQTwEKfinX4b/5C/DzV+F6VDvB6AThK/CpbNiOyiAgOx0I/e+kumWsyuCL8UqIDho9q+CbGeq33+AIOYjT/4Hc7iP9oILG1X8+//4n9HU0qAmH8R8SEaBWK1E5XLyhxshGcKtyH0BiFyJyZpkGWbwxDInibvJkXcixRTBlFhFHeiarSZSRgoENAg4UFmWaBkr3JD9oYbAlSK9KAGCkjTTlM/A3RoDsNPvbgtLsBdCYQrmoJEInUs00gYl2DgN/MJXfwJPnDkReFQOR0KdLGeUQLIFnWlU3721BN/KwMqkRaIZUVK3O9xpM+228drlWVyYynFZpaOl0GjZKNca2Gq0YKbT3A/h9soWFsqiw+Av/eBlBhvRD5W1Vtou3ru1jIXNMnTPxXjOwuXzp3BqIs/Z1HxawCkRpMKO7DEabWQfkaNC2Ep0bhTMJPT/1+4u492782g5Hbxw5gQ+d+F0UJ4cNEgjgi1dR5NKKx2P475kmDc6Pu5utdm7lLc0nCpZmM6mOXmsSeE3apFOIIST4TjeiTubDbx34w7GCxm8dPkCShYxs4pKVI2y6tnGh+zJaNj/iChx9NfsJfQSuyQ1uDZwbamOj5fqaFHnX83sbqx8Tvwj/bjsMbgwaeGZ43nkDA3Vjot371SwVAPH/I8XUrg0k8Zk2hCAvfEuWh/8Miy3Add34G7d5WoEatTX0ApIFZ9Eyl6C27jNmzvTNeGfuALtmX8KFF+GRh2eKG8rJcajWL2CCgXGsuFyODkYNGbU7LaE7mbhRe326PLa7yP3DSDs14tt1pr41f/yO1iqdXgBaBFJkO8iQ50gedEMXENdz4BQFi0wzHhlEmET9ZTvtYwlZEuLhOgoGHTr4vVAdHCj4UDXpcYc7Q71lRCDhRZ36gFvpclt7cF3BDmM7P7VXfgC3EneB2I3JMBBz0AGi65D5xA5DAEW8QjJ0IpyHcwUTSof7VYTmqEjnc6g1Wnjidkx/LWf/BGMj5VGLCvdL60Nvo+sNhcbcx22pnGs+Fsf3ML9ShuekeF8EzIclu7BcDtMkvTlZ0+iaLro+AbW6zYT3eQtC/lcmjOh765UsVJvY6XRRstu4xc//wQ3Eop+SNq0JhBNaqPZ4t4h6UwGlpmCOaKH6WBI8vA+BemgZntYL1e4q97xqXHkqC140PlRdHT22au03vFgt1u4NFtCNqVxOex8tY35tSqOTxRwZiKLjCcaeX2wtMJ5QnOFIsazJs9Z6hlLXVrL9ToymQwyptHNRzyguWSHVrFdgMBVCTrnDm21qHdHGUtNHza58/UgcZi7uNjIaB2cm8rj8kwBJUNjhkLiJ7lfsXF3vYWMoeHUdI4TAYk4i2m63S207/xL6JvvQGt20KzcQMYxoZNNNiy03QlkZqbRWr6OTMqBQSGAY88AV/8xvOJrMHwj4FAR1RbSA0CjTlIpC/rsxysX5bEDCPW2jd/9+p/g7Y8+hVmcYA4At91mqtZcPhcs0C57BsSHFmUCB2QcqExKZz3TebT7TnPP+jT/TuzeBSKk86mdKy1eHWpf2ybyJVHKSTtWrrn3XaQMQbWZzlD/8gBN8gIfWuS7/e6FN4EWd8oboBbBmWyOOzZS7FuwSoo/guu9ZxdkdQP9TXkPxJ5I96DW1AQ8GvUqfvL1V/H6S1c5aZM3vIdkcROmQxBCMaumToYEWNpq4hvvXMPqZh1GJieqqTt1PHF2Dq89d56TgkgGy+UGg4PZ8RJ3jqSyxtVyk+m/1xoOVls2V7/89c+diwUIkvkumubK9fqHRIaHdgUJPTjXlQdgnZKOaQNP8X+aGzRGqraH9+9vomUQlXgLz52eRMp2cXetgrKtoen4KKRNWH4HZybzyBeyeOvGPHzdxETKwPnpLCYLGRgcHeoxHjJxmlS+8hTs6lDqUa+LXhfki2sTg2LTw4f3trDedBk0EJm17jrIpnw8fbaEk2Np5Lh9lwhNUHiPIvxU4sgRfl2kqYp+DqLdut14E+3FX0e2XENn4WOYRPdPI0cjRs4Csifm0Fq9DcNvMTW9Pfs8luZ+CZvmFzCRn2CKfssA2whZGEUWxvKpoCUg0H7M+ms8dgCBBsh7n9zEf/vfb8JNZWBYadSqNbiOzd0hC4VCUH4YWqA1mWsgwUGbF2iRnywWdQIOFH5gwiGuSPA4R4EWa9rdi2Nk/nqQ/Edx/oA1jcCEZdEfM7hG2NKIf1PrarpWp+PQZpgHNveUz4h+FdR3nglF+LoUo5FoVeRaiITENlqdDgMaStYhdN2obOL8qRP4qz/1jIhQAAAegElEQVT9BmbHCtxGWz7vrs72PboYTXxRICua4PD/dNHrzXY13F/awPLaFrdfPXliCscmcshQW3A9heVKE8ubNcxOjOF4wQzcyh42GRx0sNZ0ufMb6furz51M9CBwlU3QUyGcWK2S0/ZI6TGXFaG+oPog1EiHlnLKQ2hqBt6br2O93obmdbhslWqdK40OPGqn61JZnAvT0JHXffYqLlO1E1IYN4Erc2MYNzWu9pH3YUeyAoF7puTe3A48tEGfClpumx5wf6uJjQbx2QAzxRxmi6JdOOX8UBt4DjtKBlIGA8GuSTYykMCO7COWUVv6LeTKfwrn2qcwvFVGfp5vAFoBXq4A2C1orS3opgH77A/j3czX8Fn7WWhuhr275KE0OWNF53GRNXxcOl7EqbE0OAglx+WeSWx/L/zYAQTXcbHZaOH3/s8f48Obd2HlitC0FNrtFi+etDASu6BIItQDL4BoAkWLs92h5EQKE9C46/c3hz37yTajV+QmPRTyb+7SSIlR3LSHiJN70Wpa+KhvuOhqKVNdaE0i/giPQx8GuVSDDtPi2UTIggwnvTdzIxDFsmXBtNLspLCbdWRTLv7Kz7yBKxfPH+iM2aShL7kOe9oQQElCPMm7L+LVAUmR3UZDy+CTxS3YvobLJyeQDbqGVlsdjlkS9z71VGj51H65gZ97fg5WOK4ceqCkoI7aUO6nwQqXQodaY3ui6Q0BhA/ubHB4gKJ89bbHnU/TaZNBQaXaRjZrIZtLY3NjC+mUjlyW6HSpg6TLIbipNAF4pdX90qp0ggbF78FtRTt7zgMjRsLAd8ueAYkHwl7YoOsmV8QxQAhaNAcF3HTRlN8AfBNO6yNom78B9/r34K0sw9CqQcM6A5pVgG/l4FVWuaFT56mfx3fwBu7ZT0P3TK464AJa4mLhhATyHnRwIq/jhXPjGE+LkPPj9HnsAALFh4kW9/r9BfzuH/4RVjaqyBXHg7CADZs6MQa7UFpkWaFBHwiXXPeSES9IQum2cg6ynbvKTxgIYiFJyF4PlXj25T7L1afvmiIM4ck+BWwPRdsX8Z/knBNPRB6D7h+detEDzUaDy21+8stfwEtXnuRyzyjoOfiDWYABEd4JyzXapa8/AOA5NlY7Bj64v8F92S/NleCTh8YWHSNrtoNK28ZWvQPdSKNRreKrL5/lGuXtnx4U6f9dkGB68IX4WDxhkNvc15JFJACJjpCunkKtSV1igaqn4S/ubMLxHFGXnkphajyP9XIdDdfjTpymD3z+0glkDXASccEykKagBRMgif4sXW9RlyHz8VoAHv3A6Go18iiCBl3M++BPl8ZcwAq5HWDPXteG9tIe+1MBW+wFgNaA3/ku3MVvwP7ou9ArHwc5BT5glKClx+HU16HnNOD5v4/r6R/HfOM43GYbDcdDhzvH+kGTO+LkcHBmwsLV0yUUze2bykcv34d7gscSIJB7ipp9fHxnHr/9O3/A9fGZXA4GdSuiRTfMxcDdt2RWKo1FGnwy6hzayY8o58ABGjpaGhQazrIOln4tWgDzQA9yEIQ1IhQsLZMPn7rN8LGSZF7ukeVzBlOFQxzCoNlN8pY4mBgfw1d+6DVcvXiaSTuE0+EgV90mLc5hR2RYnpHje0y68Fwb803gL26vwjI0nJ2dhKYZzF9AXqK646DesbkkMpfJolWt4GuvXkzwsCQnhR5UBrQRh+sBP6y3eEiYyEO43/JznJl2dLTbpG5/BPJvrrfw4Wob0+MW6psVzI7lcXZuCvdWNnBvtYz01BRq61W8cnwMcxNZQc/op6C5OjQithPTqvfpLk4KIOzqoOHkxKAxX+jCEgIIrCY2RZRUSkdT4mEQbO32hhWMmLJwKATog+9o05iiC+geOsSG2P4MuP1rsK/9KdzKEnH7QtNK0DKT6LTKyB2fgP7CP0Bz+g003RIMx0Pd9VGxBZjskMfW12CldMyNpzGV1kX/EJWDsKvDY88uRuOC6qXvLW/gt3/361im8jQrDcO0YJhUshLknnIsi9z4UYuwZ4825MLRxShqkGRYguk3glkhEnXsDi1+RAVq4+zJWXzlR/4Szs0d49bCh9qsEaBj3oxeWab8F7VRcqkzJSijPQWHCYscmJ6PtZaGb91YxXJLQyFvoUBtwF2Xu11SOVW1bcN3HWbfy/kd/OzLT6gWvI9q2PfdV+4ehXWnBs6ke80Vyaq+7jEYoEoUivtqFJ6DD1vXOdnU1C1UXeCb738GI1eC7jncW+H4sXHML23CNTOoUjiu1cRXnj2PfApwfAdmyoDlU0O0AyEE9RDb8T9/8+C2jFqIcweHXvtmrQmvdQPezT9E+9rvwF+/hwxKcNImaoaN8ctfROrqPwGyJ+H7BjfKizYO7zotur7NJG/I4VXl4+dBCA0gARKArXoT33n3fXx84zbKlQqaLWo5LJr0iBDDYSS0oRADUX+KDGuDEq+yWfYavPjMk7j69EXkzFQfODi0wzd48D6PL20X2APpwdGIz92E1xFJbIblcSZ6wzfw1qdLuLZUobaWMA3ApBbjvo6253PTJcqKTrWq+Nzl03j+5NS+9bQ8vCZjb59cGF1pioMCV59Y7DxstFwULQ0FKkUOWq9TmSMnLwYlcu9cv8X9FMx0DqurZVQ8HRmqhfcFYRl1QzWsDOrNBopWCmenSrDbbThuC0+fOoEpK81tpdXncZIAWUryKwecqmw3KAm9ATRuwln8Orbe+z3kFsvQfR2dqUkUvvAz0M//HUDPB8t/qDX3oTWkD67TxxggCL4B3oHQboMavmxVsbi0jK1yhevZOecg2KHsBJc+uLh37wzaP/HeStNhWQYmxkqYmpzAzLFp5MmAcnvoAACFkiEPo+kLZwB0o/6hEDFR3lbbHu7eXUIhm8bZE+MwuMpBx73NGr71/RtYbrjwMwVRgkoJqZ7LBFpZv4PZrI4vvfAkpnK9vo+7pyl1pQeRgAwlyJ0iuZRp7i5vVHGv7WCaFvXxAtKG0KPIxXGhkWHvaPij6wuYp7bBHRuXxorYbHc4J4ka+GxVGpgYz0PzPLgEEHJprFab6GgaJvMmPn/2OI6nLeYOUZ/HSwK93X6wzeAvKMG7Cd++Dnvh/8J5+xtw79+A9cwrSL/6C8D4FwHu3EEe2KPpVnrsAEJ4WHOJIfPqB+FELk8U/3ZckdgkPod42aS4q06lWaHYfMD8yHkLstznEM/3cDeLYIPJYUkiL7J9D6ubFcxvtXFvaQ2XTx/Ds6ePMYERqZcIVO6ulfHNv/gUi3UHmkHlSiQzH1q7gTOTBbz6zHmcGC/CHLFfxyEW5YF/dNI1k1IBzHpJVQilUgEtx8W1xQouTBcwnTWxtdWEq/koFS1kDB2Wp6PTAP7X+59hXrdh+S5++rkn4Lo+Prg1j9VGB412B4W0xS26L81NIVcs4g/e+QA1X8NsPoO/dOkUThbS0IzDlqdz4NX6yB+w55mS1iQlPJDc570Fz7sH//bX0b71Jqwzr8A497eB9LHQ2nAY14iHF/tjCBCE/yccH2KyjHDxenfRlFmC0Yz4hxfsnl+BA6U9UBCUYgS3pbfXQ82Y9vxp9vQG3V4MQfooLSAEEGrtNpZX15ErjONu1cHNhSVunPTc8TFmw+NE9IBljUh0Prm7jE9vL6BWryObNXHliXO4OHcMJWJEZH6LPX0NdfERJMB8HlSi2HFx7dZ9GNksL+Tk/Wt2UiikgNmpHLaqTdQadZw5MY4TY3mk6SRouFfr4JO1FWwur+LHXnwWeVNHHRo+Xt7E+zfn8fLT53FxsoAslUW6Pv7Ht99GKpPHF597CtPEOqq50Ln9rvo8ThLoZXaFKyMALcgbdwwPunMLztY3kMqegp75MrSU9TiJYEfv8vgBBCbLEK18ZahIOAyDGuruKiCT/YSr6fB9oomHgWuEqyBEQk24xph/YoEcRvdpoB9fvJOjAeVmG812GxO5LNOxfrRYxWK9iqeOl3BlMhdQSYvsZ7l7YMY9P2jJzG4lCtFQ5juzTEFLqZ3jI58HxBZKi7en48Pbi2hpKdRtD0Y6i3bbhUHVBp7DpaupdgtPEXdBPsP5RDbpUadxLrhIyKmm+y4W6jbevrvOVMunJ4t44eQETpWy0FIaqr6PNIXpKLeVGq1RIy5dAYRHPg529QFEGKpHtyYvLnk1mPSGe2x43go3W/Qxywy2R/3zGAIEoexwxmmvWr0/uyQc2z5sAyG82e3f+IrErjDskYWR4h0P4zZZgh/xbk0f+GxxAzOTRRRMA+tVD/cqbaxVK7gyV8L5MQIIzCXd86gEjX+Ed6nHdCkEJTwuyoVwAGZBkHRIzbW2Oi5W6i3cW2+g5fg4NVPCWqWCVquJs8eO4fx4HgXfZQpzXzdAxY7cwpm6LWqi7JEo0f/8zgq+e3sNTT+FPDp49ngBrz51HlZKtDxnRr5gY+lSDxTVofEADITdfIQkgEAjhjZaVOFAOw8iMvDhpahxFDElCjKkQ2kyd0l8jx9A2CXBqMscHAl0g0ZBtvp6y8FHd1Zw7tRxuLaNtbaPtUoTdqOGZ09P4exknqlZ1efwSYC7clLJLoDlao3ZLhc2m2jawGwxjWqrjrZt4+zMLGbzFkqmjzxVKSTwe7iez8243ru3jpvzS7hyfg4Xpws4MVY8lKyih0+j6okPswQUQDjM2jsiz94D8VzYidWGgz977wby45Pw9BR366s3m7DsBl6+cAxnJorcEVN9Dp8EmPJcA9ZbNr774U3YugnH0zA2XsLyVgMTGQt+p8MAgtrzvHj2GM5OFpM3edQFVSNefx8N20YubSGt+dxv4ZCzgxw+5aonPnQSUADh0Kns6D1w2MtHOUUNz8eb37mGlboLL1OA7TnQPRtnxjN45dIJ3llS/w31OXwS4I6l0LDRdvHW+zeQzmZxau4YllY3cW29jguFAi6fmsBHC4soN+p47cJZnCeAkNQ/wRVdVSmGINJvdHi+Bl3Flw/f4FBPvO8SUABh30WubvgwEqCa+LavYXGzgnevL2CtTqRXPqYKFq6cO46LM+Pg9juHMhnzYSTzmJxLdLUUDoaBmu1y34xiPs3VKn98YwEvnTqOyyensNpowqfundkMONc8qcmWIOHso0/nHB3xn/ooCSgJDJCAAghqeBx4CXQ9CNThjdpsk7nXdFSaHWxWm0yINVHKYTxHLVcpcz1IUFQrwIHXbfQBRRBJsmAFVSs+8Omde3jns2VcPnUMV8+fQMYiWEDkuYLLP6kJGXcDDuj86V48JPpqoA+diNQDKwnsmwSOLECQ/d7ZXoT7OO+i6KOtPx+3VqC7KKqBl+oBBCpLcrmkjT/chZOKD0RiG7mNiVFPbA8Fe0LcZz/0rXS9s9EhGUkMqjrxRGmaraXQ9Fwsb3VQKhkomToy3NNMh0claRr1U+mhQalfrt4JuDCITZUBAlVCBvOdTnmQAudBOlX63pm+d3LWoPm7m3M7SadHSdcHFiCQoqUiwv8ODyg5GMJ/0zlxg0TYhKD8L9xLPCDTktftP5esUNIq0yueDB/B33YpjuV2RXRa5FbS0lCF/u4atNB3cYMwfFySTHYy4Q7aOcn6DpgdeIMpdplC3z2uRcGgKks9w/oWQJD/hF64J2e6nrxOv0TE8f38EaQq2SqcR5ZspRl06RTvIK4T1qUcn3HjIKqHpDkQHqMH3VjFPeugud3d3Ae6EjMo4PRgV4DQIWtD6pK9BDQOevOtaxOoUo3P6Um3F3JIGPmi7Sn/su/5eRRI+vKebknPnDkRYdraqa633feQMHgljcvdsOX9djms654OaZMQv9ejAZIABfnreG4YIyR3oVtZPt5bF3ZjbsetaVG78ahs9IEFCOFJIg17dOLEAYToMb2f5aDa7jGggSU/YYWTuzNxjxFq8NRnGIJrRQeOuH6/EUlaJPoBxvYFJm7ReVQD6GHvGwVzSTqNjgf5cxQc9r7fvqPs3ivJ4DLj5vZPr+98aJEJQKDP/T7idERjqgdyB+k6SZ/Rcw6K0XgYnYf1/aC6ThoDXI1A5Eihedz9d4ro1QWo6P9Ee/OFfpuU4EqgLwClYXvBQICSIINxFV4Qw3N5kD4fd10n6U7KMW4sRL/rHbsdvPH1oxruQ4Xx4J+pVkO7wLDd5lBl8Omz8eydfPi5HQcoH2Zu7cW5BwIgJC0SFFsOD5JBgyhpweidI9zRcYMuESDwDmXQwBIq0ZmVJzSY4gYVHyd+EQ8eep6HsLFIMhxxx8gniD7PXgycnV4zasSjxjsODCZ9F9W53LHR925EbXIhH2RE2MMT82KSeCpqLLo6CHQaDm0LD0O/vpN0NsoiEj5m23g7oDvM6LwWzdNCnpyYBT1uvsfNbfmd+LsXbhLzq+c14DCCDClEQEKPkL2ndJG+0pvP/eC/lwu5DfCF5ra83yC9Jv2ub4Fi+u/+ERn9eafzcC/O28u5Hb52MIwEIAiPochLyfEmjG5SMKkXZ4puzMJWvS/HRdvuHXzQuR23YYjeP7pW7IXOhl1z3wBC1M0UfrCoUUgCAg96XNiwUE8OtiPdcRK4m2lXwO7J3i4jyaAkCXPbwOoLMYQBhNhlDDIOw34XHjRJg1IuIAfBuGzfufUMtgSAw4BfGCjGLRZR3fHxsjGXbNYl9RvoP25XGfeso+hc6+vjEOiXu2n2h5sGGYWoLuOOlbqPGyPh3w2b9Hv5+zjAJ3UWBgjhBT4ONMjrRHUbvwjx22/zFPA4CAGSUd87bt5EwWC/vkT4kObdID2Gr0v/DgO9QfM+aT4/6gUkbt5KGYf11w/mxASM6jdpIxinbypTZb0SPTqz5vZsuXQjPKgNj5s/vW64vU2d0FMP/Ed1KN9f6jfORkfndnReDwIbo47h3Tpu3wBCFBAMWuzjjEJU4UmLS5wRonMJIHDAIEAIHK+SHooAOWwf1H0ANfQKlBDXQ/bbjEIoD6EHCMSgigMIcUYlajBGNSb0kKmAJChqkKKGb7cGUdJ1Bu0o4gzIML2TbtkgyFyCyN/0HHJcUJWDMCKke9HVs/s8XsighMYEBxhiNhqkt/7dRBCHZtcy7SpDcWky/NTfIfJ91MiHFwipl/Axw4BkElgIj5u91m/0+qPqVOopunB052bI0xDWaRKQoLlMpySBiehz8TX7N5/iVYLSR6nrYYt9HyAIwodJOpR6oWfZCZBIepZHBRLiFvRhHqLwOUnHJgEHqXvWddBnJzq32bRL98I2T5UMS/SP2qinL8kWh+cbeYKj4CEO/A0bP1GgELX5cTZiv234vgKE6ATuKj1iEJIMzSjIMwkgUP08dQEM37P7POxeEItG/8DthSXkxA6u0I0vR5XIi4kmdhLb/4i41fZz4o7tAZCoQaFniFtw5OCJAoQkRLpXC8ignUVS2CgO8EUBRthlKHUVHSvyOsSeJ47pgQG+Hq8kAkhIXcpjyPCIRKeenjiPgIx6xPPD8mfrEoC+0O6RfpdiD0K8XqNjILrYRw1FVN+jGLH9XDjiFouooY+CgSSvUOxiHgD5JGAodKb1zd3oOIsuSHyOTDwLJa6SzrjVGe/we/FpOd/kXOzpsOcxSprX4fkrdZkE3uOAYXiux+1YowvNXs3rqA7D9jgK+gaB/STQF75ekj1ggJAwtzmMSLY8JowlAaT8XU/OvY1b3DyL02kYIMTpS54zCgAYNrfj7Px+zu19BwhxygsPpjgQMOic6EBMBAieJ8ZOYAzIJdg1OOFFRBwUuK0CgBAMunDzHzIk3AGMGyRSbrMIfpJRCVcySCMjBlK/ByEeRPR2o0mDTw6QQYMnvMjEAYq9NCJhQxJnOOIMzbBwQxy4DJ8TXaTcsHuZvQg9EMjH8jgQWc+9hSfwTnDefD+Tjuj91PMcdPUZLCLhBYX/HeNBkAYjusgkGZLw93EgcZTz9lrPUV0mbQKi4yBpniZdbzt47wE/mb0u9SpBHimXwZ/0EoU8TiL4ECqXDSWdhUNDAgOKud7dNYb+zTrQgFQAEOPAWxKYjwOCcTYhvCCEz0lyb++1zgdt4KKgIQkoRuer/FmOiySAQMfRZq9/3sbMbdoEBA3aguneDS+Le5GtFiNA4ETSssaMnGH73dVHYOPJ1vePj/6qlri5HTcmwjpNmtvR86LjYK/1zPfzw9u0/bhjyKWbhDLjdqBxO4tBAzV2ZylG7zaEOcioJYlEJK30smmjiDROmXGuRXlc1FiEFxP5DFHAEOfOjLtvFCzsk5q7twnLN7qTG2RQ4haLOAA5aAcrF6a4MRW9d2AuEsUjddKTsUhW6pOvBI0x3oOorpMWiPBxceNjkPeIjo8mMe6XvqMenqjMB+k+ac7H6Vt+F/USxIMLlmBMhUNC8nFIWElzclTgHqfvON0O03ccKDhIc3qQvY7qL15H/TY56ZwoiIiz/4k2Qyz7kakQVBqFEsdHAd3D9B/3+1HHQhyYiD7Tfs1nfuZHARDCLxjGJ4NQozxnJ4YkPGiiAyjpZ7pPeEHYrpRoXXxAxBKTvT6KUegtOuJOSYMwCVUepMTEpAE8bMFIWsTDCwu9fxKgSwIKo+o8DPqS3kHev6eHcDiipzt5fhjoRcfTIEOSNAbo+7gdR3T87KcRid4rPKfDOhkUdx5VR9HFI+5e/cf0g/je8UHpQ4ygwnM/acGI6ncUsBcdO1GAH9ZhEig4SHqO2tXwz2HwFvUWRXU9yoYwPOcHrQWJtj4WIIjm7zLxKG4hHqbX8PCJA5RxC36SngcBj0c1nx85QAi/+PDJ3kOagwbJoN1i9LxhPyeBBIp5Ro2E+DlApdtINkbjM4gbkOHFIjq4ogYjaoQe1cAadN+o0yppQYnuGJJ0Hl00Eo1EpMwt+hyDAEJ40ZDnCRVvr4eO01F4rER3f4MMU3j8xe0aB4PYR6/9OF1H9R01/qN5e4LZFilh3D6WevwnUlZCl0llb9t5UuJAQlSySQvBoLEQBxCGjZ1Hr9H4J5DzI2kux83JJKAfXRNGBQdh/W5bV0Ie3/Cz0DiIK22OA/NRWzvMLkd1mbS5i7tu0nf7rf8DBRCiLx81LtuUHmE6G3WhiA7WuOsOV0TPZdU/mPp3JuFBEX6fQYZ/UOlMeKEZ/oyH64gkfYe/D7uxw3pMWmQG6Xr77+LckINk2KuHjk7oQQt3UkXKoGscdCDwoCNt0GZAXiuq06juR7MHLNWYx0v2IIQPHiT36ByW5w3KDRglb+Bx03UcOAjrOOnfo46RpLHXd/4IHoRBi3KSruNAe9hGDzrvMNjyAw0QRjU6cQvLsO8GgY+4ARt9luTd5s4AQtK7Po7GYlS9xh03TK9JuhtN33ELibhivB7idT3I0DzM7x5Gbofl3FE2BYMWhO3nx4M+Qc8d70UYZc4l7TCVfh9spI0yLwcBjOjvku5O3AnxC3I8Odp2e590fpJt2P4ko4yrB5Pe3h99aABC0u477PoNiyvp+7gFZJDikgbwYVT23g+n3btDkr4HLQ4Pq5Oknl0HlKhw94R9RK/0qOf2g47xI6qmXXltWYgmAFz/JZO2BUo/ByBJcVe0ry6iJKAkoCSgJKAkoCSwqxI4NB6EXX1rdTElASUBJQElASUBJYGBElAAQQ0QJQElASUBJQElASWBbRJQAEENCiUBJQElASUBJQElAQUQ1BhQElASUBJQElASUBIYLgHlQRguI3WEkoCSgJKAkoCSwJGTgAIIR07l6oWVBJQElASUBJQEhktAAYThMlJHKAkoCSgJKAkoCRw5CSiAcORUrl5YSUBJQElASUBJYLgEFEAYLiN1hJKAkoCSgJKAksCRk4ACCEdO5eqFlQSUBJQElASUBIZLQAGE4TJSRygJKAkoCSgJKAkcOQkogHDkVK5eWElASUBJQElASWC4BBRAGC4jdYSSgJKAkoCSgJLAkZOAAghHTuXqhZUElASUBJQElASGS0ABhOEyUkcoCSgJKAkoCSgJHDkJKIBw5FSuXlhJQElASUBJQElguAQUQBguI3WEkoCSgJKAkoCSwJGTgAIIR07l6oWVBJQElASUBJQEhktAAYThMlJHKAkoCSgJKAkoCRw5CSiAcORUrl5YSUBJQElASUBJYLgEFEAYLiN1hJKAkoCSgJKAksCRk4ACCEdO5eqFlQSUBJQElASUBIZLQAGE4TJSRygJKAkoCSgJKAkcOQkogHDkVK5eWElASUBJQElASWC4BBRAGC4jdYSSgJKAkoCSgJLAkZOAAghHTuXqhZUElASUBJQElASGS0ABhOEyUkcoCSgJKAkoCSgJHDkJKIBw5FSuXlhJQElASUBJQElguAQUQBguI3WEkoCSgJKAkoCSwJGTgAIIR07l6oWVBJQElASUBJQEhktAAYThMlJHKAkoCSgJKAkoCRw5CSiAcORUrl5YSUBJQElASUBJYLgEFEAYLiN1hJKAkoCSgJKAksCRk4ACCEdO5eqFlQSUBJQElASUBIZL4P8BxSoTU1N+zoAAAAAASUVORK5CYII=;" vertex="1" parent="7">
                    <mxGeometry x="35" y="145" width="212.93" height="190" as="geometry"/>
                </mxCell>
                <mxCell id="10" value="Check the weather:" style="text;html=1;align=center;verticalAlign=middle;resizable=0;points=[];autosize=1;strokeColor=none;fillColor=none;" vertex="1" parent="7">
                    <mxGeometry x="35" y="104" width="130" height="30" as="geometry"/>
                </mxCell>
                <mxCell id="12" value="&lt;font color=&quot;#ffffff&quot; style=&quot;font-size: 12px;&quot;&gt;The temperature outside is 17.15&lt;span style=&quot;background-color: rgb(13, 17, 23); font-family: Consolas, &amp;quot;Courier New&amp;quot;, monospace;&quot;&gt;°C!&lt;/span&gt;&lt;span style=&quot;background-color: initial;&quot;&gt;&amp;nbsp;&lt;/span&gt;&lt;/font&gt;" style="text;html=1;align=center;verticalAlign=middle;resizable=0;points=[];autosize=1;strokeColor=none;fillColor=none;" vertex="1" parent="7">
                    <mxGeometry x="31.47" y="354" width="220" height="30" as="geometry"/>
                </mxCell>
            </root>
        </mxGraphModel>
    </diagram>
</mxfile>